<?xml version="1.0" encoding="UTF-8"?>
<svg xmlns="http://www.w3.org/2000/svg" xmlns:xlink="http://www.w3.org/1999/xlink" width="200px" height="200px" viewBox="0 0 200 200" version="1.1">
<g id="surface1">
<path style=" stroke:none;fill-rule:nonzero;fill:rgb(0%,0%,0%);fill-opacity:1;" d="M 180.4375 3.625 C 179.125 5.0625 179.125 6.1875 180.3125 7.5 C 180.8125 8.0625 181.625 10.5625 182.1875 13.125 C 183 16.875 183 17.875 182.375 18.4375 C 172.125 27.5625 167.25 29.9375 163.125 27.875 C 162 27.3125 160.6875 26.875 160.3125 26.875 C 159.875 26.875 155.5 30.0625 150.625 34 C 145.6875 37.9375 140.9375 41.25 140 41.4375 C 137.875 41.875 115 59.75 115 61 C 115 62.0625 114.25 62.125 113.3125 61.1875 C 112.875 60.75 112.375 60.8125 111.6875 61.5 C 111.125 62.0625 110.4375 62.5 110.125 62.5 C 109.8125 62.5 107.875 64.0625 105.875 65.9375 C 103.8125 67.8125 101.875 69.375 101.4375 69.375 C 101 69.375 100.375 69.9375 100 70.625 C 99.625 71.3125 98.75 71.875 98.125 71.875 C 97.4375 71.875 96.875 72.125 96.875 72.4375 C 96.875 73.5 98.0625 73.8125 99.3125 73.125 C 100.4375 72.5625 100.5 72.625 99.75 74 C 99.3125 74.8125 88.875 83.875 76.5 94.0625 C 64.1875 104.1875 53.6875 113.0625 53.3125 113.6875 C 52.875 114.25 52.375 117.25 52.25 120.3125 C 52 125.6875 51.9375 125.9375 49.5625 128.6875 C 48.25 130.25 45.875 133.25 44.25 135.3125 C 39.375 141.75 36.75 144.125 33.5625 144.875 C 30.875 145.5625 30.0625 146.375 20.25 158 C 14.5 164.75 8.625 171.5625 7.1875 173.125 C 5.6875 174.6875 4.1875 176.5625 3.8125 177.375 C 2.9375 178.9375 2.5625 178.5 10.625 184.9375 C 13.1875 186.9375 17.6875 190.75 20.5625 193.375 C 25.6875 198.0625 27.375 198.875 28.5625 197.3125 C 28.875 196.9375 32.0625 190.375 35.625 182.8125 C 48.3125 155.75 56.375 140.375 60.25 135.875 L 62.3125 133.5 L 65.5 136.1875 C 68.5625 138.75 68.75 139.125 71.1875 146.875 C 72.5625 151.25 74.125 155.1875 74.625 155.625 C 77.375 157.875 83.1875 156.5 85.8125 153 C 87 151.4375 86.9375 151.375 85.625 148.6875 C 83.8125 145.1875 80 132.25 80 129.75 C 80 128 80.1875 127.8125 82.125 127.75 C 83.6875 127.75 85.125 126.9375 87.875 124.625 C 92.3125 120.9375 92.4375 120.8125 92.9375 118.5625 C 93.375 116.375 94.875 115.6875 95.9375 117.0625 C 97.875 119.6875 97.25 116.875 94.875 112.3125 C 94.5 111.5625 94.5625 110.875 95 110.3125 C 95.5625 109.625 96.4375 110 99.5625 112.3125 C 104.875 116.25 114.75 120.875 121.875 122.8125 C 131.6875 125.375 149.375 126.125 149.375 123.9375 C 149.375 122.9375 147.6875 111.25 147.1875 109 C 146.9375 107.75 146.4375 107.625 138.625 107.3125 C 126.375 106.8125 116.1875 103.4375 110.1875 97.875 L 106.75 94.6875 L 111.375 90.3125 C 114.375 87.4375 116.9375 85.625 118.75 85 C 120.875 84.25 122.125 83.25 124.25 80.5 C 125.75 78.5 129.375 74.6875 132.375 72.0625 C 142.5 62.9375 151.25 54.125 151 53.3125 C 150.75 52.6875 184.0625 25 192.0625 19.1875 C 194.0625 17.75 194.4375 17.125 194.125 15.9375 C 193.8125 14.8125 194.0625 14.25 195 13.75 C 197.625 12.3125 195.5 9.25 192.1875 9.8125 C 190.3125 10.125 189.8125 9.8125 187.25 7.1875 C 185.6875 5.5625 184.375 3.875 184.375 3.375 C 184.375 2.125 181.625 2.3125 180.4375 3.625 Z M 187.9375 10.375 C 188.375 11.5625 185.8125 13.8125 184.5625 13.3125 C 183.4375 12.875 183.5625 11.875 184.8125 10.5 C 186.0625 9.125 187.4375 9.0625 187.9375 10.375 Z M 186.5625 21.75 C 184.5 23.5625 175.1875 31.125 174.4375 31.5625 C 173.9375 31.875 173.6875 31.8125 173.8125 31.4375 C 174.1875 30.5 185.6875 21.25 186.5 21.25 C 186.875 21.25 186.875 21.4375 186.5625 21.75 Z M 161.5625 34.3125 C 161.9375 35 149.6875 45.125 149.125 44.5625 C 148.3125 43.75 148.9375 43.0625 154.5 38.4375 C 160.375 33.625 160.9375 33.3125 161.5625 34.3125 Z M 164.625 39.875 C 160 43.875 153.625 48.875 153.4375 48.625 C 153.0625 48.3125 164.625 38.8125 164.9375 39.125 C 165.125 39.3125 164.9375 39.625 164.625 39.875 Z M 140.625 50.875 C 140.625 51.5 134.875 55.6875 134.5 55.375 C 134 54.8125 138.75 50.6875 139.875 50.625 C 140.25 50.625 140.625 50.75 140.625 50.875 Z M 129.375 59.9375 C 129.375 60.6875 123.625 65.0625 123.1875 64.625 C 122.8125 64.25 128.0625 59.375 128.9375 59.375 C 129.1875 59.375 129.375 59.625 129.375 59.9375 Z M 90.3125 114.75 C 92.75 118.0625 92.875 118.5625 91.5625 120.4375 C 90.25 122.25 83.25 127.5 82 127.5 C 81.5 127.5 79.9375 126.3125 78.5625 124.875 L 76.0625 122.25 L 77.6875 121.6875 C 78.875 121.3125 79.75 121.4375 80.75 122.125 C 82.375 123.25 84.875 123.4375 86.25 122.4375 C 87 121.9375 86.875 121.875 85.75 122.1875 C 84 122.6875 81.5 121.1875 80.875 119.25 C 80.5625 118.125 81.0625 117.375 83.8125 114.875 C 85.6875 113.25 87.375 111.875 87.625 111.875 C 87.875 111.875 89.0625 113.1875 90.3125 114.75 Z M 90.3125 114.75 "/>
</g>
</svg>
