<?xml version="1.0" encoding="UTF-8" standalone="no" ?>
<!DOCTYPE svg PUBLIC "-//W3C//DTD SVG 1.1//EN" "http://www.w3.org/Graphics/SVG/1.1/DTD/svg11.dtd">
<svg xmlns="http://www.w3.org/2000/svg" xmlns:xlink="http://www.w3.org/1999/xlink" version="1.1" width="300" height="197" viewBox="0 0 300 197" xml:space="preserve">
<desc>Created with Fabric.js 3.6.6</desc>
<defs>
</defs>
<g transform="matrix(0.79 0 0 0.79 155.96 98)"  >
<path style="stroke: none; stroke-width: 1; stroke-dasharray: none; stroke-linecap: butt; stroke-dashoffset: 0; stroke-linejoin: miter; stroke-miterlimit: 4; fill: rgb(0,0,0); fill-rule: evenodd; opacity: 1;"  transform=" translate(-200.01, -113.44)" d="M 339.111 26.102 C 329.822 30.164 297.622 44.197 267.556 57.287 C 237.489 70.377 211.39 81.806 209.558 82.684 C 207.725 83.563 206.009 83.93 205.744 83.501 C 205.479 83.072 203.016 83.714 200.272 84.927 C 197.528 86.141 195.232 87.029 195.17 86.9 C 193.411 83.227 191.983 79.74 192.184 79.606 C 193.684 78.603 200.83 77.333 204.992 77.33 C 211.871 77.325 220.197 72.767 219.687 69.284 C 219.201 65.961 214.332 56.889 213.034 56.889 C 209.618 56.889 202.666 60.196 199.111 63.512 C 191.499 70.613 172.908 79.315 170.917 76.71 C 169.249 74.527 163.12 77.036 163.09 79.913 C 163.068 82.008 139.825 92.878 131.556 94.661 C 129.844 95.03 126.155 96.483 123.356 97.89 C 117.701 100.732 117.734 100.518 121.724 108.34 L 123.516 111.851 L 128.647 109.126 C 131.469 107.627 134.578 105.692 135.556 104.825 C 137.257 103.316 152.272 96 153.666 96 C 154.327 96 157.333 101.675 157.333 102.924 C 157.333 103.553 154.877 104.784 150 106.601 C 148.656 107.102 147.556 108.061 147.556 108.732 C 147.556 109.403 145.928 110.686 143.939 111.583 C 140.921 112.944 140.426 113.518 140.95 115.051 C 141.295 116.062 141.623 118.435 141.678 120.325 L 141.778 123.761 L 120.931 132.975 C 100.365 142.066 98.728 142.509 98.68 138.997 C 98.673 138.445 99.867 137.496 101.333 136.889 C 104.265 135.675 104.616 134.515 102.802 132.034 C 101.669 130.486 100.322 130.954 78.373 140.515 C 54.368 150.972 53.698 151.394 55.127 155.154 C 56.061 157.61 57.078 156.927 43.955 162.654 L 39.91 164.42 L 40.474 168.201 C 40.975 171.556 44.88 180.649 54.778 201.507 L 57.813 207.903 L 71.795 200.838 C 88.662 192.316 89.852 191.15 87.13 185.815 C 84.814 181.275 83.698 182.362 96.78 176.422 L 107.664 171.481 L 115.92 173.823 L 124.175 176.166 L 128.725 173.861 C 132.158 172.121 134.618 171.556 138.753 171.556 C 150.893 171.556 157.494 165.691 155.002 157.119 C 154.754 156.267 154.354 154.467 154.113 153.119 C 153.872 151.77 153.308 149.067 152.859 147.111 C 151.769 142.361 151.804 141.67 153.067 142.933 C 155.9 145.767 170.19 140.195 171.136 135.888 C 171.444 134.483 172.267 133.333 172.963 133.333 C 175.62 133.333 206.468 114.631 211.51 109.963 C 221.649 100.576 224.507 98.901 252 86.236 C 267.156 79.255 279.666 73.452 279.8 73.341 C 279.935 73.231 278.625 70.627 276.889 67.556 C 275.153 64.484 273.901 61.803 274.106 61.597 C 274.312 61.392 293.594 52.843 316.955 42.601 C 365.033 21.521 360.386 23.88 359.645 20.93 C 358.825 17.663 357.848 17.91 339.111 26.102 M 188.744 89.736 C 187.753 90.596 164.538 100.444 163.501 100.444 C 162.35 100.444 159.818 94.046 160.646 93.23 C 161.024 92.858 166.933 90.148 173.778 87.207 L 186.222 81.861 L 187.855 85.476 C 188.753 87.463 189.153 89.38 188.744 89.736 M 168.711 129.956 C 171.346 132.59 169.984 136.013 165.556 137.885 C 163.233 138.867 160.451 140.102 159.374 140.631 C 156.712 141.935 152.889 139.486 152.889 136.476 C 152.889 133.272 154.468 132.892 157.053 135.477 C 158.318 136.742 159.999 137.765 160.788 137.75 C 162.05 137.725 162.035 137.579 160.667 136.54 C 158.426 134.84 158.676 131.148 161.111 129.974 C 163.822 128.666 167.413 128.658 168.711 129.956 M 95.786 143.587 C 90.921 147.939 81.855 149.756 81.791 146.392 C 81.756 144.51 94.639 139.69 95.786 141.156 C 96.687 142.306 96.687 142.782 95.786 143.587 M 139.556 147.33 C 139.556 151.683 132.526 157.333 127.11 157.333 C 122.788 157.333 120.887 150.168 123.996 145.593 C 128.158 139.468 139.556 140.741 139.556 147.33 M 79.701 148.949 C 80.839 151.914 75.305 153.966 73.793 151.14 C 72.959 149.581 73.118 149.182 74.85 148.487 C 77.867 147.276 79.105 147.394 79.701 148.949 M 70.032 153.873 C 70.508 156.375 61.357 159.784 59.817 157.678 C 58.748 156.216 59.007 155.856 62.426 154.05 C 66.681 151.802 69.624 151.734 70.032 153.873" stroke-linecap="round" />
</g>
</svg>