<svg id="svg" version="1.1" xmlns="http://www.w3.org/2000/svg" xmlns:xlink="http://www.w3.org/1999/xlink" width="400" height="425.61576354679806" viewBox="0, 0, 400,425.61576354679806"><g id="svgg"><path id="path0" d="M325.772 24.811 C 322.411 32.153,318.207 37.576,313.171 41.067 C 309.014 43.948,305.791 47.635,306.009 49.261 C 306.252 51.079,305.085 51.996,302.978 51.643 C 297.849 50.784,291.626 54.816,291.626 58.998 C 291.626 61.718,290.589 62.414,287.674 61.652 C 282.828 60.385,277.833 64.220,277.833 69.207 C 277.833 73.141,274.919 74.193,272.931 70.976 C 271.185 68.150,264.039 73.155,264.039 77.205 C 264.039 81.259,260.853 83.602,259.130 80.815 C 257.120 77.562,250.246 82.346,250.246 86.999 C 250.246 90.253,249.352 90.866,245.915 89.967 C 240.646 88.589,236.453 91.716,236.453 97.023 C 236.453 100.080,235.508 100.705,232.194 99.838 C 226.582 98.371,220.421 101.806,221.120 106.014 C 221.544 108.569,220.429 109.231,216.404 108.816 C 211.049 108.263,208.028 110.916,207.934 116.256 C 207.900 118.184,206.260 119.034,203.217 118.701 C 200.651 118.421,195.670 119.972,192.147 122.150 C 188.624 124.327,184.704 126.108,183.436 126.108 C 182.167 126.108,173.082 131.519,163.246 138.133 C 153.410 144.747,142.920 150.858,139.934 151.715 C 131.434 154.152,87.149 184.643,85.762 189.012 C 82.982 197.771,73.964 202.644,63.985 200.780 C 55.917 199.273,50.023 200.329,45.621 204.071 C 45.244 204.391,46.496 207.294,48.403 210.522 C 51.509 215.780,51.557 216.705,48.868 219.394 C 47.217 221.045,45.280 226.059,44.564 230.537 C 43.350 238.133,42.529 239.003,32.331 243.514 C 19.824 249.045,18.749 253.508,29.086 256.986 C 50.613 264.229,56.796 278.402,44.061 291.310 C 20.177 315.517,22.603 325.239,48.235 308.044 C 79.798 286.870,100.044 297.982,107.429 340.532 C 118.862 406.403,133.149 428.023,157.463 416.247 C 162.567 413.776,164.211 413.650,165.439 415.637 C 168.624 420.791,234.494 373.051,234.478 365.599 C 234.476 364.470,230.508 360.887,225.660 357.635 C 218.277 352.684,206.897 335.955,206.897 330.054 C 206.897 329.574,204.748 324.484,202.122 318.744 C 185.614 282.652,185.837 273.894,203.520 263.962 C 234.579 246.515,245.430 235.578,238.528 228.676 C 229.276 219.424,223.744 198.213,229.168 192.788 C 230.774 191.183,232.421 188.158,232.829 186.068 C 233.245 183.938,235.288 182.178,237.475 182.065 C 245.234 181.666,246.041 181.213,246.661 176.911 C 247.149 173.528,248.625 172.527,253.202 172.478 C 257.775 172.428,259.116 171.521,259.124 168.473 C 259.132 165.412,260.452 164.532,265.035 164.532 C 269.654 164.532,271.073 163.569,271.566 160.099 C 272.060 156.617,273.475 155.665,278.154 155.665 C 282.456 155.665,284.399 154.569,285.143 151.724 C 285.814 149.160,287.831 147.783,290.919 147.783 C 294.197 147.783,296.257 146.224,297.582 142.739 C 298.637 139.964,300.396 138.248,301.492 138.925 C 304.928 141.048,311.330 137.832,311.330 133.982 C 311.330 131.267,313.013 130.137,317.734 129.681 C 322.712 129.202,324.283 128.043,324.787 124.480 C 325.230 121.352,326.371 120.254,328.378 121.025 C 332.771 122.710,339.435 118.480,338.055 114.882 C 337.185 112.617,337.868 112.097,340.730 112.845 C 345.121 113.993,353.350 109.034,351.641 106.269 C 351.017 105.260,352.390 104.433,354.693 104.433 C 365.057 104.433,369.005 98.643,363.095 92.112 C 360.035 88.731,360.003 88.170,362.780 86.616 C 364.481 85.665,367.870 83.268,370.313 81.290 L 374.754 77.694 371.313 60.368 C 369.202 49.735,366.107 40.627,363.304 36.792 C 360.791 33.354,356.430 27.136,353.614 22.974 C 349.421 16.777,347.647 15.618,343.825 16.577 C 341.258 17.221,338.608 16.859,337.936 15.771 C 335.046 11.095,330.507 14.469,325.772 24.811 M213.992 210.892 C 221.439 213.531,233.864 231.899,231.132 236.230 C 215.742 260.628,169.416 265.583,169.465 242.826 C 169.470 240.565,170.774 241.544,173.319 245.717 C 177.886 253.207,187.411 258.604,194.560 257.754 C 200.022 257.104,203.363 252.217,198.345 252.217 C 188.172 252.217,176.208 231.154,181.142 221.933 C 186.551 211.828,201.990 206.638,213.992 210.892 " stroke="none" fill="#000000" fill-rule="evenodd"></path></g></svg>