<?xml version="1.0" encoding="UTF-8"?>
<svg xmlns="http://www.w3.org/2000/svg" xmlns:xlink="http://www.w3.org/1999/xlink" width="220px" height="192px" viewBox="0 0 250 192" version="1.1">
<g id="surface1">
<path style=" stroke:none;fill-rule:evenodd;fill:rgb(0%,0%,0%);fill-opacity:1;" d="M 202.027344 10.867188 C 200.84375 12.164062 199.847656 14.90625 199.558594 17.675781 C 199.289062 20.222656 198.910156 22.410156 198.714844 22.53125 C 183.300781 32.199219 149.980469 55.167969 147.820312 57.609375 C 146.175781 59.46875 144.402344 60.726562 143.878906 60.402344 C 143.359375 60.082031 136.085938 64.386719 127.722656 69.976562 C 118.664062 76.027344 112.160156 79.78125 111.640625 79.261719 C 110.402344 78.019531 108.070312 79.136719 107.25 81.355469 C 106.632812 83.023438 106.246094 82.78125 103.9375 79.289062 C 101.21875 75.179688 98.609375 74.277344 96.5625 76.742188 C 94.785156 78.886719 96.246094 82.101562 99.003906 82.101562 C 103.21875 82.101562 102.160156 86.808594 96.96875 91.152344 C 93.679688 93.902344 92.730469 95.28125 93.171875 96.671875 C 93.554688 97.875 93.226562 98.734375 92.25 99.109375 C 91.414062 99.429688 90.726562 100.1875 90.722656 100.796875 C 90.703125 102.316406 76.25 111.609375 74.382812 111.296875 C 72.160156 110.921875 18.890625 146.925781 18.496094 149.070312 C 17.699219 153.375 40.710938 185.496094 44.390625 185.21875 C 47.421875 184.992188 47.8125 184.628906 48.324219 181.585938 C 49.207031 176.304688 56.949219 159.597656 58.738281 159.113281 C 59.679688 158.859375 61.28125 155.972656 62.664062 152.023438 C 65.058594 145.210938 67.054688 142.652344 69.34375 143.464844 C 71.476562 144.21875 76.253906 140.183594 76.253906 137.628906 C 76.253906 136.367188 76.632812 135.101562 77.09375 134.816406 C 77.910156 134.3125 79.234375 126.664062 79.375 121.640625 C 79.472656 118.265625 98.4375 105.691406 98.460938 108.988281 C 98.484375 112.234375 103.050781 115.136719 105.554688 113.492188 C 110.824219 110.039062 112.558594 113.558594 113.324219 129.234375 C 114.578125 155 114.761719 155.132812 131.710938 142.691406 C 132.375 142.203125 132.191406 141.539062 131.171875 140.753906 C 129.15625 139.199219 127.863281 129.300781 129.324219 126.570312 C 130.175781 124.976562 130.089844 124.453125 128.902344 123.996094 C 126.484375 123.066406 127.027344 118.152344 129.714844 116.683594 C 134.128906 114.265625 143.824219 107.132812 143.824219 106.300781 C 143.824219 104.585938 147.402344 106.472656 148.886719 108.972656 C 150.730469 112.070312 167.320312 128.480469 168.542969 128.414062 C 169.015625 128.390625 172.316406 124.660156 175.878906 120.125 L 182.355469 111.882812 L 176.253906 106.703125 C 169.605469 101.058594 162.113281 92.597656 161.785156 90.363281 C 161.671875 89.585938 160.910156 88.171875 160.089844 87.214844 C 153.671875 79.746094 151.355469 73.40625 155.039062 73.40625 C 158.882812 73.40625 208.691406 38.496094 208.238281 36.121094 C 207.753906 33.589844 211.566406 29.941406 214.699219 29.941406 C 215.558594 29.941406 216.679688 28.847656 217.1875 27.511719 C 217.695312 26.171875 219.222656 24.65625 220.582031 24.136719 C 222.460938 23.421875 232.855469 16.917969 235.394531 14.867188 C 236.214844 14.203125 234.464844 9.828125 233.179688 9.335938 C 231.636719 8.746094 220.839844 15.296875 217.382812 18.925781 C 214.308594 22.15625 214.054688 22.03125 209.460938 14.972656 C 204.863281 7.914062 204.765625 7.859375 202.027344 10.867188 M 207.585938 21.398438 C 203.421875 24.773438 199.753906 18.667969 203.855469 15.1875 C 205.828125 13.511719 205.925781 13.546875 207.773438 16.589844 L 209.667969 19.710938 L 207.585938 21.398438 M 140.042969 103.078125 C 141.164062 106.035156 140.871094 106.496094 135.472656 110.210938 C 130.273438 113.789062 126.449219 113.117188 126.449219 108.628906 C 126.449219 106.246094 126.542969 106.203125 128.59375 107.640625 C 131.746094 109.851562 133.984375 109.675781 131.90625 107.378906 C 129.632812 104.863281 129.898438 103.796875 133.363281 101.605469 C 136.910156 99.355469 138.785156 99.769531 140.042969 103.078125 "/>
</g>
</svg>
