<svg id="svg" version="1.1" xmlns="http://www.w3.org/2000/svg" xmlns:xlink="http://www.w3.org/1999/xlink" width="400" height="307.35694822888286" viewBox="0, 0, 400,307.35694822888286"><g id="svgg"><path id="path0" d="M365.656 23.613 C 361.466 26.409,357.875 29.107,357.675 29.607 C 357.475 30.108,356.677 30.518,355.901 30.518 C 355.125 30.518,353.817 31.333,352.994 32.330 C 349.798 36.204,307.129 63.293,305.875 62.245 C 305.192 61.673,301.935 57.488,298.638 52.944 C 288.612 39.128,286.227 40.361,285.057 59.964 C 284.287 72.872,283.891 74.191,281.504 71.804 C 280.604 70.904,276.476 73.097,265.755 80.173 C 257.764 85.447,244.237 94.340,235.695 99.937 C 224.453 107.301,220.163 110.702,220.163 112.248 C 220.163 113.522,218.838 115.071,216.882 116.083 C 214.178 117.481,213.719 118.254,214.275 120.470 C 215.309 124.591,214.423 123.803,208.719 115.531 C 205.256 110.508,202.736 107.902,201.341 107.902 C 199.595 107.902,156.517 131.155,147.139 137.160 C 145.640 138.119,144.004 138.781,143.503 138.631 C 139.263 137.357,132.440 146.599,135.182 149.902 C 135.933 150.807,136.682 153.241,136.846 155.310 C 137.010 157.380,137.470 160.554,137.867 162.365 C 138.493 165.215,138.214 165.800,135.780 166.725 C 132.508 167.969,132.445 168.213,134.568 171.454 C 137.250 175.547,111.395 197.460,97.772 202.639 C 95.227 203.607,93.931 204.470,59.542 228.105 C 48.230 235.879,37.063 242.991,34.728 243.909 C 29.072 246.130,29.353 246.849,42.892 264.801 C 55.777 281.887,68.144 295.270,69.601 293.704 C 70.144 293.120,70.921 286.512,71.329 279.019 C 72.038 265.983,73.212 261.230,74.740 265.213 C 76.291 269.254,79.013 267.019,82.167 259.115 C 85.808 249.990,88.205 246.618,89.535 248.748 C 90.699 250.614,94.397 248.331,93.980 246.003 C 93.817 245.088,95.288 243.081,97.250 241.542 C 101.120 238.509,101.174 239.044,96.223 231.422 C 94.765 229.178,95.025 228.827,101.294 224.570 C 104.928 222.102,107.912 219.487,107.925 218.760 C 107.937 218.033,111.155 215.331,115.076 212.755 C 118.997 210.179,123.204 206.378,124.426 204.308 C 125.647 202.238,127.000 200.545,127.432 200.545 C 127.864 200.545,130.146 198.909,132.501 196.910 C 138.331 191.962,141.307 191.319,143.425 194.552 C 145.687 198.004,147.957 198.679,150.740 196.730 C 154.235 194.282,158.843 194.711,161.902 197.771 C 164.569 200.437,164.578 200.517,164.578 222.839 C 164.578 236.406,164.990 245.232,165.623 245.232 C 167.517 245.232,187.815 237.689,188.935 236.569 C 189.669 235.835,189.428 234.809,188.205 233.457 C 185.745 230.739,184.371 215.495,186.369 213.088 C 187.520 211.700,187.452 211.055,185.981 209.431 C 181.544 204.528,185.835 199.414,203.567 188.475 L 209.315 184.929 218.826 194.571 C 229.865 205.761,243.912 217.984,245.735 217.984 C 246.428 217.984,251.244 212.784,256.437 206.428 L 265.879 194.872 256.333 186.971 C 244.329 177.036,232.999 164.677,233.625 162.201 C 233.881 161.192,232.872 159.233,231.382 157.841 C 226.218 153.018,222.988 146.258,224.384 143.193 C 225.234 141.328,225.279 139.833,224.528 138.429 C 222.821 135.239,223.231 134.629,225.624 136.795 C 227.751 138.719,227.893 138.706,230.414 136.338 C 232.641 134.245,233.326 134.093,235.215 135.273 C 237.676 136.810,234.128 139.049,274.039 110.775 C 293.405 97.055,295.368 95.373,295.368 92.492 C 295.368 90.111,296.048 89.061,298.093 88.283 C 299.591 87.714,300.817 86.770,300.817 86.187 C 300.817 85.603,302.044 83.803,303.542 82.186 C 305.041 80.569,306.267 78.336,306.267 77.225 C 306.267 74.567,308.082 74.649,309.790 77.384 C 311.261 79.740,313.896 80.342,313.896 78.322 C 313.896 77.639,314.712 76.483,315.708 75.755 C 318.319 73.846,316.862 70.858,313.691 71.616 C 312.305 71.947,321.342 65.288,333.773 56.817 C 346.204 48.347,356.726 41.417,357.155 41.417 C 360.350 41.417,380.256 26.485,379.677 24.523 C 377.584 17.432,375.154 17.274,365.656 23.613 M292.662 57.099 C 293.800 57.932,295.244 58.417,295.869 58.176 C 296.495 57.936,297.620 58.720,298.368 59.919 C 299.759 62.147,299.286 62.614,290.191 67.988 C 289.162 68.596,288.828 67.175,288.828 62.190 C 288.828 55.252,289.292 54.636,292.662 57.099 M200.436 114.714 C 200.040 119.682,197.990 121.609,181.204 132.789 C 166.411 142.643,162.959 144.504,160.223 144.102 C 153.762 143.154,156.530 140.356,177.406 126.731 C 197.436 113.659,200.654 111.979,200.436 114.714 M204.518 180.883 C 204.810 189.349,187.814 197.786,183.556 191.289 C 180.419 186.501,183.343 180.543,186.587 185.113 C 188.377 187.636,192.623 189.937,194.338 189.314 C 195.054 189.054,194.280 188.203,192.617 187.422 C 186.368 184.488,187.547 179.462,195.394 175.580 C 201.479 172.569,204.288 174.202,204.518 180.883 M62.175 254.436 C 60.747 256.156,50.933 262.670,49.768 262.670 C 47.479 262.670,49.787 259.474,54.243 256.473 C 59.745 252.769,64.592 251.524,62.175 254.436 " stroke="none" fill="#000000" fill-rule="evenodd"></path></g></svg>