<svg id="svg" version="1.1" xmlns="http://www.w3.org/2000/svg" xmlns:xlink="http://www.w3.org/1999/xlink" width="400" height="262.6666666666667" viewBox="0, 0, 400,262.6666666666667"><g id="svgg"><path id="path0" d="M129.698 14.649 C 128.382 14.841,128.252 15.109,128.252 17.641 L 128.252 19.974 127.210 19.974 C 125.839 19.974,125.624 20.415,125.624 23.242 L 125.624 25.493 124.451 25.493 C 122.943 25.493,122.733 25.876,122.733 28.629 L 122.733 30.749 121.735 30.749 C 120.552 30.749,120.105 31.119,120.105 32.097 C 120.105 32.970,119.487 33.640,118.682 33.640 C 117.646 33.640,117.214 34.421,117.214 36.296 C 117.214 38.236,116.746 39.159,115.763 39.159 C 114.847 39.159,114.586 39.882,114.586 42.427 L 114.586 44.678 113.413 44.678 C 111.988 44.678,111.697 45.086,111.692 47.092 C 111.686 49.148,111.516 49.514,110.298 50.080 C 109.411 50.492,109.183 50.744,109.116 51.380 C 109.022 52.283,108.446 52.825,107.581 52.825 C 106.702 52.825,106.439 53.578,106.439 56.093 L 106.439 58.344 105.265 58.344 C 103.758 58.344,103.548 58.727,103.548 61.481 L 103.548 63.601 102.506 63.601 C 101.208 63.601,100.921 64.060,100.916 66.146 C 100.911 68.279,100.716 68.834,99.903 69.022 C 98.746 69.290,98.029 69.875,98.029 70.552 C 98.029 71.360,97.380 72.011,96.574 72.011 C 95.662 72.011,95.401 72.737,95.401 75.278 L 95.401 77.530 94.359 77.530 C 93.079 77.530,92.774 77.992,92.769 79.943 C 92.764 82.105,92.587 82.482,91.433 82.793 C 90.105 83.150,89.882 83.638,89.882 86.185 L 89.882 88.305 88.883 88.305 C 87.701 88.305,87.254 88.675,87.254 89.653 C 87.254 90.582,86.623 91.196,85.667 91.196 C 84.621 91.196,84.363 91.814,84.363 94.316 L 84.363 96.420 83.383 96.502 C 82.087 96.610,81.743 97.324,81.738 99.919 L 81.735 101.941 80.624 102.022 C 79.181 102.127,78.853 102.760,78.848 105.453 L 78.844 107.490 77.965 107.490 C 76.923 107.490,76.216 108.159,76.216 109.144 C 76.216 109.880,75.587 110.381,74.665 110.381 C 73.905 110.381,73.587 111.157,73.587 113.009 C 73.587 114.941,73.272 115.637,72.395 115.637 C 71.193 115.637,70.696 116.477,70.696 118.509 C 70.696 120.513,70.343 121.156,69.241 121.156 C 68.329 121.156,68.068 121.883,68.068 124.424 L 68.068 126.675 67.049 126.675 C 65.407 126.675,65.320 126.937,65.222 132.195 C 65.118 137.828,65.325 138.905,66.562 139.170 C 67.625 139.397,68.068 139.746,68.068 140.355 C 68.068 140.915,69.254 141.919,69.915 141.919 C 70.537 141.919,70.696 142.436,70.696 144.454 C 70.696 146.681,70.930 147.071,72.397 147.291 L 73.587 147.470 73.587 149.573 C 73.587 152.154,73.801 152.595,75.161 152.825 L 76.216 153.003 76.216 154.934 C 76.216 157.170,76.529 158.213,77.202 158.213 C 77.974 158.213,78.803 158.955,78.892 159.727 C 78.962 160.333,79.183 160.515,80.289 160.881 L 81.603 161.316 81.683 162.810 C 81.738 163.841,81.860 164.264,82.077 164.177 C 82.250 164.108,85.171 162.845,88.568 161.369 C 103.298 154.973,105.495 154.306,106.787 155.841 C 108.570 157.960,108.236 159.279,105.579 160.605 C 102.760 162.013,101.880 163.314,102.851 164.642 C 103.487 165.512,109.847 164.060,112.424 162.456 C 112.760 162.247,112.223 161.139,109.828 157.102 C 107.287 152.817,105.924 150.437,104.071 147.043 C 103.598 146.176,102.707 144.698,102.091 143.758 C 100.658 141.573,99.372 139.407,98.032 136.925 C 97.447 135.841,96.719 134.503,96.413 133.952 C 95.423 132.166,95.460 130.912,96.538 129.620 C 97.050 129.008,98.081 127.415,98.831 126.080 C 100.420 123.249,103.478 118.029,104.872 115.769 C 105.407 114.901,106.646 112.714,107.624 110.907 C 108.603 109.100,109.650 107.270,109.951 106.841 C 110.252 106.412,111.048 105.052,111.719 103.819 C 112.390 102.586,113.544 100.464,114.283 99.103 C 115.022 97.742,115.852 96.382,116.127 96.081 C 116.402 95.779,116.832 95.118,117.082 94.612 C 117.333 94.106,118.453 92.155,119.571 90.276 C 120.689 88.397,122.198 85.795,122.923 84.494 C 124.197 82.212,129.921 72.160,131.537 69.368 C 131.971 68.619,132.917 66.979,133.640 65.724 C 134.363 64.468,135.287 62.915,135.694 62.272 C 136.997 60.214,140.897 53.527,141.586 52.168 C 142.594 50.184,145.271 45.785,146.480 44.127 L 147.552 42.657 154.394 42.485 C 158.157 42.391,181.122 42.314,205.429 42.313 L 249.623 42.313 250.838 43.664 C 251.506 44.407,252.484 45.797,253.010 46.752 C 254.431 49.329,258.287 55.915,259.274 57.450 C 259.748 58.186,260.512 59.535,260.972 60.447 C 261.433 61.359,262.197 62.708,262.670 63.444 C 263.144 64.181,264.927 67.267,266.634 70.302 C 268.340 73.338,270.055 76.294,270.443 76.873 C 270.832 77.451,271.405 78.426,271.717 79.041 C 272.456 80.496,271.087 80.936,285.978 74.456 C 298.689 68.925,299.080 68.733,299.080 68.036 C 299.080 67.064,298.440 66.491,297.353 66.491 L 296.452 66.491 296.452 64.308 C 296.452 61.839,296.205 61.307,294.859 60.867 C 294.170 60.643,293.916 60.374,293.718 59.658 C 293.403 58.525,293.167 58.353,291.919 58.348 L 290.933 58.344 290.933 55.900 C 290.933 53.086,290.784 52.825,289.172 52.825 L 288.042 52.825 288.042 50.481 C 288.042 47.732,287.922 47.306,287.144 47.306 C 285.972 47.306,285.632 46.749,285.452 44.534 L 285.283 42.453 284.184 41.848 C 283.364 41.396,283.040 41.030,282.903 40.398 C 282.674 39.342,282.408 39.168,281.012 39.163 L 279.895 39.159 279.895 36.834 C 279.895 34.312,279.683 33.878,278.292 33.549 C 277.646 33.396,277.599 33.273,277.450 31.333 C 277.252 28.770,277.116 28.417,276.252 28.226 C 274.663 27.874,274.724 27.966,274.563 25.684 C 274.380 23.090,274.218 22.602,273.542 22.602 C 272.628 22.602,272.037 22.092,271.861 21.151 C 271.682 20.201,271.459 20.068,269.777 19.914 L 268.988 19.842 268.913 17.311 L 268.838 14.780 268.026 14.617 C 267.120 14.436,130.941 14.467,129.698 14.649 M294.499 78.180 C 290.605 79.932,287.373 81.507,287.316 81.680 C 287.258 81.853,288.586 84.655,290.266 87.907 L 293.320 93.821 291.930 94.444 C 282.592 98.626,282.811 98.481,283.636 99.915 C 283.995 100.540,285.390 102.943,286.736 105.256 C 288.082 107.569,289.877 110.697,290.726 112.207 C 291.575 113.717,292.372 115.077,292.497 115.229 C 292.622 115.381,294.467 118.581,296.596 122.339 C 298.725 126.097,300.747 129.584,301.088 130.087 C 302.442 132.085,300.439 136.917,295.221 144.247 C 294.669 145.022,294.033 146.027,293.807 146.481 C 293.580 146.935,292.467 148.903,291.331 150.854 C 290.196 152.806,288.818 155.309,288.270 156.418 C 287.721 157.526,287.147 158.510,286.995 158.605 C 286.843 158.699,286.409 159.388,286.032 160.137 C 285.395 161.401,284.466 163.009,281.561 167.878 C 280.934 168.930,280.420 169.881,280.420 169.992 C 280.420 170.102,279.820 171.134,279.086 172.284 C 278.352 173.435,277.637 174.664,277.497 175.017 C 277.357 175.369,276.656 176.628,275.940 177.813 C 275.224 178.998,274.639 180.058,274.639 180.168 C 274.639 180.278,274.064 181.267,273.362 182.365 C 272.660 183.464,271.282 185.841,270.300 187.648 C 269.318 189.455,268.081 191.643,267.550 192.510 C 265.638 195.636,261.677 202.510,257.934 209.198 C 256.438 211.873,254.701 214.888,254.075 215.900 C 253.448 216.912,252.720 218.174,252.455 218.706 C 252.191 219.237,251.637 219.996,251.224 220.392 L 250.472 221.112 198.874 221.236 L 147.276 221.360 146.446 220.312 C 145.989 219.735,144.474 217.324,143.079 214.954 C 141.684 212.583,140.336 210.348,140.084 209.987 C 139.831 209.625,139.381 208.772,139.082 208.090 C 138.784 207.408,138.192 206.344,137.768 205.725 C 137.345 205.106,136.384 203.507,135.633 202.173 L 134.269 199.746 131.923 200.924 C 129.019 202.383,130.296 202.516,120.557 199.737 C 110.713 196.928,112.402 196.999,107.622 199.194 L 103.679 201.004 103.596 202.124 C 103.440 204.226,103.774 204.696,105.716 205.112 C 106.433 205.265,106.439 205.284,106.443 207.429 C 106.448 209.984,106.587 210.271,107.923 210.487 L 108.936 210.651 109.067 212.777 C 109.204 214.999,109.499 215.646,110.558 216.049 C 110.883 216.173,111.437 216.729,111.788 217.285 C 112.254 218.023,112.719 218.384,113.507 218.620 L 114.586 218.944 114.586 220.869 C 114.586 223.083,115.081 224.002,116.418 224.269 L 117.214 224.428 117.214 226.371 C 117.214 228.473,117.794 229.698,118.789 229.698 C 119.983 229.698,120.105 229.922,120.105 232.108 C 120.105 234.421,120.381 235.217,121.183 235.217 C 122.004 235.217,122.733 235.707,122.733 236.259 C 122.733 236.967,123.383 237.524,124.585 237.848 L 125.624 238.128 125.624 240.238 C 125.624 242.828,125.827 243.245,127.192 243.463 L 128.252 243.633 128.252 245.833 C 128.252 247.888,128.291 248.045,128.844 248.209 C 130.675 248.753,248.194 249.138,263.601 248.651 L 268.725 248.489 268.800 245.959 L 268.875 243.428 269.873 243.269 C 271.054 243.080,271.671 242.476,271.791 241.393 C 271.869 240.694,271.989 240.595,272.842 240.524 C 273.993 240.428,274.094 240.239,274.480 237.451 L 274.770 235.348 275.621 235.266 C 276.912 235.141,277.267 234.416,277.267 231.896 L 277.267 229.744 278.328 229.565 C 279.819 229.313,280.279 228.539,280.058 226.657 C 279.850 224.886,280.082 224.411,281.459 223.790 C 282.258 223.430,282.583 223.101,282.739 222.495 C 282.911 221.827,283.109 221.658,283.846 221.551 C 284.979 221.385,285.404 220.601,285.414 218.660 C 285.425 216.421,285.597 216.032,286.575 216.032 C 287.869 216.032,288.042 215.670,288.042 212.957 L 288.042 210.512 288.962 210.512 C 290.349 210.512,290.855 209.836,291.057 207.711 C 291.151 206.722,291.250 205.744,291.278 205.537 C 291.305 205.329,291.801 204.915,292.379 204.616 C 293.282 204.149,293.441 203.935,293.511 203.100 C 293.587 202.180,293.625 202.143,294.216 202.412 C 295.613 203.049,296.452 201.654,296.452 198.694 L 296.452 196.846 297.240 196.846 C 298.755 196.846,299.737 194.510,299.218 192.143 C 299.044 191.354,299.068 191.327,299.938 191.327 C 301.380 191.327,301.805 190.625,301.966 187.977 L 302.102 185.721 303.022 185.415 C 303.719 185.183,304.014 184.891,304.238 184.210 C 304.499 183.417,304.653 183.302,305.552 183.232 C 307.007 183.119,307.227 182.676,307.227 179.869 L 307.227 177.447 308.543 177.267 C 310.052 177.059,310.078 177.009,310.183 174.113 L 310.250 172.273 311.106 172.191 C 312.224 172.083,312.627 171.284,312.863 168.711 L 313.044 166.725 314.144 166.214 C 314.999 165.816,315.273 165.528,315.376 164.915 C 315.492 164.226,315.630 164.116,316.473 164.046 C 317.848 163.931,318.090 163.482,318.218 160.818 L 318.330 158.476 319.152 158.472 C 320.674 158.464,321.156 157.546,321.156 154.655 L 321.156 153.066 322.307 152.758 C 323.668 152.394,323.734 152.259,323.955 149.387 C 324.121 147.224,324.140 147.175,324.809 147.171 C 325.706 147.165,325.979 146.952,326.389 145.938 C 326.636 145.327,326.993 145.012,327.688 144.792 C 329.107 144.343,329.304 143.939,329.304 141.474 L 329.304 139.290 330.329 139.290 C 331.830 139.290,331.932 138.785,331.932 131.350 C 331.932 124.250,331.888 124.047,330.346 124.047 L 329.304 124.047 329.304 121.583 C 329.304 118.867,329.218 118.700,327.689 118.424 C 326.837 118.271,326.711 118.145,326.549 117.273 C 326.297 115.928,325.987 115.637,324.804 115.637 L 323.784 115.637 323.784 113.325 C 323.784 110.653,323.622 110.381,322.024 110.381 L 320.894 110.381 320.894 108.074 C 320.894 105.234,320.517 104.494,319.153 104.653 L 318.265 104.756 318.265 102.689 C 318.265 100.274,318.042 99.739,316.820 99.228 C 316.195 98.967,315.865 98.625,315.743 98.112 C 315.508 97.125,314.891 96.453,314.217 96.448 C 313.265 96.441,313.091 96.114,312.900 93.963 C 312.681 91.495,312.490 91.196,311.137 91.196 L 310.118 91.196 310.118 88.752 C 310.118 85.940,309.968 85.677,308.367 85.677 L 307.246 85.677 307.171 83.142 C 307.091 80.441,307.041 80.343,305.596 80.040 C 305.023 79.920,304.850 79.700,304.704 78.907 C 304.484 77.710,304.252 77.539,302.839 77.534 L 301.736 77.530 301.656 76.261 L 301.577 74.993 294.499 78.180 M244.941 80.314 C 243.549 80.917,242.734 81.822,240.351 85.414 C 239.152 87.221,236.746 90.613,235.005 92.951 C 232.130 96.812,231.114 98.292,231.336 98.292 C 231.467 98.292,248.135 90.982,248.217 90.888 C 248.405 90.674,247.851 81.529,247.613 80.916 C 247.193 79.835,246.439 79.665,244.941 80.314 M242.174 117.830 C 233.372 122.346,228.597 125.588,223.127 130.761 C 218.840 134.817,204.206 144.436,190.159 152.432 L 186.756 154.369 188.450 155.132 C 189.382 155.551,191.150 156.227,192.378 156.634 C 193.607 157.040,195.936 157.917,197.553 158.581 C 199.171 159.246,200.628 159.790,200.792 159.790 C 200.955 159.790,202.362 160.381,203.917 161.104 C 205.472 161.827,206.896 162.418,207.081 162.418 C 207.266 162.418,208.558 162.945,209.951 163.589 C 212.481 164.760,214.120 165.412,221.288 168.099 C 223.384 168.885,227.050 170.291,229.435 171.222 C 240.666 175.610,240.691 175.618,243.290 175.760 C 245.878 175.901,247.119 175.610,247.576 174.756 C 248.282 173.438,249.022 114.844,248.333 114.854 C 248.130 114.857,245.358 116.197,242.174 117.830 M152.431 125.616 L 143.101 125.756 141.823 126.675 C 139.566 128.300,138.439 129.006,135.025 130.931 C 133.185 131.969,131.707 132.842,131.740 132.871 C 132.185 133.262,146.955 139.035,147.128 138.887 C 147.175 138.847,147.093 138.379,146.946 137.847 C 146.514 136.282,146.891 135.759,149.334 134.534 C 152.033 133.180,153.300 132.197,154.040 130.880 C 154.673 129.753,155.202 129.443,159.658 127.591 C 161.248 126.930,162.845 126.160,163.206 125.881 L 163.863 125.373 162.812 125.425 C 162.234 125.453,157.562 125.539,152.431 125.616 M95.795 165.447 C 88.588 167.038,82.335 171.235,86.003 172.019 C 86.474 172.120,87.006 172.321,87.186 172.466 C 89.053 173.969,100.677 168.494,100.019 166.421 C 99.568 164.999,98.715 164.802,95.795 165.447 " stroke="none" fill="#0cb2bb" fill-rule="evenodd"></path><path id="path1" d="M371.222 37.419 C 366.837 39.016,299.845 68.087,299.080 68.725 C 298.695 69.046,276.433 78.816,272.536 80.374 C 271.452 80.807,265.420 83.429,259.133 86.200 C 248.548 90.864,241.635 93.895,224.179 101.525 C 218.027 104.214,217.337 104.457,215.769 104.485 C 213.389 104.528,212.726 104.708,208.474 106.467 C 203.767 108.413,204.264 108.542,202.658 104.960 C 200.805 100.829,200.757 100.524,201.876 100.057 C 203.924 99.201,211.211 98.029,214.481 98.029 C 220.852 98.029,229.961 93.379,229.961 90.127 C 229.961 88.178,225.962 79.703,224.041 77.581 L 222.943 76.369 220.922 76.807 C 216.712 77.721,212.162 80.199,207.413 84.165 C 197.367 92.555,181.940 99.372,178.098 97.120 C 175.642 95.681,171.046 97.632,170.291 100.436 C 169.562 103.143,149.924 112.635,138.043 116.023 C 130.289 118.235,123.784 121.670,123.784 123.554 C 123.784 124.962,128.090 134.309,128.730 134.292 C 128.829 134.290,129.501 133.953,130.223 133.544 C 137.483 129.437,139.358 128.325,140.604 127.384 C 142.320 126.089,155.344 119.492,158.321 118.411 L 160.400 117.656 160.894 118.266 C 162.480 120.225,164.395 124.613,163.992 125.366 C 163.717 125.880,161.836 126.842,157.927 128.468 C 155.404 129.518,154.844 129.857,154.402 130.607 C 153.510 132.120,152.305 133.122,149.862 134.383 C 146.790 135.970,146.734 136.045,147.133 137.980 C 147.308 138.828,147.522 141.214,147.609 143.283 L 147.765 147.043 136.892 151.834 C 104.609 166.058,103.109 166.604,102.608 164.312 C 102.523 163.921,102.410 163.460,102.358 163.289 C 102.187 162.726,103.224 161.735,104.911 160.850 C 107.946 159.258,108.302 158.539,107.086 156.465 C 105.789 154.251,104.210 154.679,88.610 161.472 C 85.092 163.004,82.058 164.258,81.868 164.258 C 81.679 164.258,77.520 166.040,72.628 168.219 C 56.063 175.597,54.977 176.412,56.514 180.314 C 57.326 182.372,57.476 182.271,46.386 187.119 C 39.710 190.037,40.332 189.400,40.861 192.771 C 41.553 197.186,45.022 205.624,53.612 223.784 C 55.663 228.121,57.761 232.585,58.275 233.706 C 58.788 234.826,59.302 235.742,59.416 235.742 C 59.768 235.742,81.962 224.340,84.851 222.674 C 91.874 218.626,92.638 217.055,90.126 211.831 C 88.273 207.976,87.989 208.254,98.672 203.437 C 101.266 202.267,103.454 201.211,103.534 201.090 C 103.614 200.969,105.539 200.029,107.813 199.001 L 111.947 197.131 120.559 199.621 L 129.172 202.111 132.822 200.378 C 137.548 198.135,139.404 197.669,144.809 197.364 C 152.188 196.949,156.076 195.746,159.057 192.958 C 162.761 189.493,162.926 187.512,160.467 176.026 C 158.386 166.306,158.353 165.922,159.711 167.198 C 162.554 169.869,176.444 164.816,178.436 160.385 C 179.690 157.596,179.891 157.345,181.239 156.886 C 187.870 154.628,216.236 136.813,223.207 130.527 C 230.552 123.904,237.480 119.585,249.548 114.107 C 255.614 111.353,279.655 100.145,283.443 98.304 C 285.466 97.321,288.364 95.955,289.882 95.267 C 291.399 94.580,292.740 93.929,292.860 93.821 C 293.103 93.601,293.085 93.563,289.504 86.634 C 288.096 83.908,287.042 81.584,287.164 81.469 C 287.522 81.132,301.002 75.109,301.577 75.030 C 301.866 74.990,308.844 71.975,317.083 68.330 C 325.322 64.685,337.740 59.221,344.678 56.187 C 370.449 44.918,375.984 42.337,377.278 40.987 L 378.040 40.191 377.560 38.821 C 376.628 36.165,375.406 35.895,371.222 37.419 M196.872 107.991 C 198.011 111.230,198.430 110.871,188.589 115.101 C 173.345 121.653,170.754 122.622,170.133 122.000 C 169.252 121.120,167.835 117.684,167.725 116.163 L 167.618 114.685 169.814 113.672 C 171.022 113.115,177.095 110.444,183.309 107.736 L 194.608 102.812 195.490 104.691 C 195.975 105.725,196.597 107.210,196.872 107.991 M175.655 153.162 C 179.120 155.186,177.772 159.404,172.890 161.812 C 164.421 165.990,161.195 165.922,159.791 161.533 C 158.567 157.705,160.875 156.533,163.995 159.399 C 165.529 160.809,166.954 161.629,167.867 161.629 C 168.958 161.629,168.953 161.609,167.563 160.218 C 165.315 157.970,165.723 154.902,168.463 153.466 C 170.494 152.401,174.091 152.249,175.655 153.162 M99.722 165.630 C 100.670 166.983,99.906 168.022,96.503 170.009 C 91.372 173.006,85.063 173.477,84.676 170.892 C 84.326 168.551,98.336 163.651,99.722 165.630 M142.077 166.879 C 147.247 169.424,146.184 175.399,139.807 179.638 C 132.640 184.403,127.619 182.670,127.607 175.427 C 127.596 168.142,135.345 163.565,142.077 166.879 M81.999 173.123 C 83.965 175.623,79.145 178.541,76.846 176.242 C 75.425 174.820,75.575 173.896,77.332 173.248 C 78.091 172.969,78.890 172.674,79.106 172.593 C 80.205 172.184,81.438 172.410,81.999 173.123 M71.318 177.680 C 73.556 179.441,69.178 182.792,64.210 183.122 C 61.554 183.298,60.195 182.036,61.619 180.716 C 64.123 178.395,69.920 176.581,71.318 177.680 " stroke="none" fill="#000101" fill-rule="evenodd"></path><path id="path2" d="M152.168 42.515 L 147.569 42.599 146.488 44.099 C 145.254 45.811,142.575 50.221,141.586 52.168 C 140.897 53.527,136.997 60.214,135.694 62.272 C 135.287 62.915,134.363 64.468,133.640 65.724 C 132.917 66.979,131.971 68.619,131.537 69.368 C 129.921 72.160,124.197 82.212,122.923 84.494 C 122.198 85.795,120.689 88.397,119.571 90.276 C 118.453 92.155,117.333 94.106,117.082 94.612 C 116.832 95.118,116.402 95.779,116.127 96.081 C 115.852 96.382,115.038 97.713,114.318 99.037 C 113.598 100.362,112.444 102.484,111.754 103.753 C 111.064 105.022,110.252 106.412,109.951 106.841 C 109.650 107.270,108.603 109.100,107.624 110.907 C 106.646 112.714,105.407 114.901,104.872 115.769 C 103.478 118.029,100.420 123.249,98.831 126.080 C 98.081 127.415,97.050 129.008,96.538 129.620 C 95.460 130.912,95.423 132.166,96.413 133.952 C 96.719 134.503,97.447 135.841,98.032 136.925 C 99.372 139.407,100.658 141.573,102.091 143.758 C 102.707 144.698,103.598 146.176,104.071 147.043 C 106.012 150.598,107.719 153.573,109.917 157.235 C 110.457 158.134,111.322 159.654,111.839 160.612 L 112.778 162.355 120.204 159.140 C 124.288 157.372,132.146 153.927,137.665 151.484 L 147.700 147.044 147.700 145.310 C 147.700 142.157,147.379 138.852,147.073 138.850 C 146.644 138.847,137.912 135.524,134.508 134.069 L 131.578 132.816 130.243 133.552 C 129.510 133.956,128.829 134.290,128.730 134.292 C 128.090 134.309,123.784 124.962,123.784 123.554 C 123.784 121.670,130.289 118.235,138.043 116.023 C 149.924 112.635,169.562 103.143,170.291 100.436 C 171.046 97.632,175.642 95.681,178.098 97.120 C 181.940 99.372,197.367 92.555,207.413 84.165 C 212.162 80.199,216.712 77.721,220.922 76.807 L 222.943 76.369 224.041 77.581 C 225.962 79.703,229.961 88.178,229.961 90.127 C 229.961 93.379,220.852 98.029,214.481 98.029 C 211.211 98.029,203.924 99.201,201.876 100.057 C 200.757 100.524,200.805 100.829,202.658 104.960 C 204.264 108.542,203.767 108.413,208.474 106.467 C 212.724 104.709,213.387 104.529,215.769 104.484 C 217.861 104.445,231.008 98.916,231.496 97.870 C 231.638 97.566,233.198 95.378,234.963 93.008 C 236.727 90.638,239.152 87.221,240.351 85.414 C 242.782 81.750,243.554 80.906,245.044 80.284 C 247.434 79.286,247.810 80.013,248.078 86.140 C 248.188 88.636,248.325 90.717,248.383 90.765 C 248.441 90.813,252.096 89.267,256.505 87.329 C 260.913 85.391,266.354 83.014,268.594 82.047 C 272.139 80.518,272.623 80.238,272.318 79.895 C 271.855 79.373,270.751 77.501,266.813 70.565 C 265.008 67.385,263.143 64.181,262.670 63.444 C 262.197 62.708,261.433 61.359,260.972 60.447 C 260.512 59.535,259.748 58.186,259.274 57.450 C 258.287 55.915,254.431 49.329,253.010 46.752 C 252.484 45.797,251.506 44.407,250.838 43.664 L 249.623 42.313 203.195 42.372 C 177.660 42.405,154.698 42.469,152.168 42.515 M281.997 98.991 C 280.951 99.554,256.002 111.191,250.197 113.823 C 248.968 114.381,248.130 114.839,248.333 114.843 C 249.022 114.854,248.282 173.437,247.576 174.756 C 247.119 175.610,245.878 175.901,243.290 175.760 C 240.691 175.618,240.666 175.610,229.435 171.222 C 227.050 170.291,223.384 168.885,221.288 168.099 C 214.120 165.412,212.481 164.760,209.951 163.589 C 208.558 162.945,207.266 162.418,207.081 162.418 C 206.896 162.418,205.472 161.827,203.917 161.104 C 202.362 160.381,200.955 159.790,200.792 159.790 C 200.628 159.790,198.934 159.155,197.028 158.380 C 195.121 157.604,193.206 156.885,192.773 156.782 C 191.437 156.464,186.860 154.483,186.986 154.278 C 187.052 154.172,186.193 154.565,185.077 155.152 C 183.961 155.738,182.349 156.473,181.494 156.784 C 179.850 157.383,179.713 157.543,178.436 160.385 C 176.444 164.816,162.554 169.869,159.711 167.198 C 158.353 165.922,158.386 166.306,160.467 176.026 C 162.926 187.512,162.761 189.493,159.057 192.958 C 156.076 195.746,152.188 196.949,144.809 197.364 C 140.278 197.619,137.352 198.189,135.362 199.205 L 134.282 199.756 135.256 201.520 C 135.791 202.491,136.796 204.178,137.488 205.269 C 138.181 206.360,138.942 207.720,139.180 208.291 C 139.418 208.862,139.822 209.625,140.078 209.987 C 140.334 210.348,141.684 212.583,143.079 214.954 C 144.474 217.324,145.989 219.735,146.446 220.312 L 147.276 221.360 198.874 221.236 L 250.472 221.112 251.224 220.392 C 251.637 219.996,252.191 219.237,252.455 218.706 C 252.720 218.174,253.448 216.912,254.075 215.900 C 254.701 214.888,256.438 211.873,257.934 209.198 C 261.677 202.510,265.638 195.636,267.550 192.510 C 268.081 191.643,269.318 189.455,270.300 187.648 C 271.282 185.841,272.660 183.464,273.362 182.365 C 274.064 181.267,274.639 180.278,274.639 180.168 C 274.639 180.058,275.224 178.998,275.940 177.813 C 276.656 176.628,277.357 175.369,277.497 175.017 C 277.637 174.664,278.352 173.435,279.086 172.284 C 279.820 171.134,280.420 170.102,280.420 169.992 C 280.420 169.881,280.934 168.930,281.561 167.878 C 284.466 163.009,285.395 161.401,286.032 160.137 C 286.409 159.388,286.843 158.699,286.995 158.605 C 287.147 158.510,287.721 157.526,288.270 156.418 C 288.818 155.309,290.196 152.806,291.331 150.854 C 292.467 148.903,293.580 146.935,293.807 146.481 C 294.033 146.027,294.669 145.022,295.221 144.247 C 300.439 136.917,302.442 132.085,301.088 130.087 C 300.747 129.584,298.725 126.097,296.596 122.339 C 294.467 118.581,292.622 115.381,292.497 115.229 C 292.372 115.077,291.575 113.717,290.726 112.207 C 289.877 110.697,288.082 107.569,286.736 105.256 C 285.390 102.943,284.001 100.551,283.650 99.940 C 283.298 99.329,283.085 98.708,283.176 98.560 C 283.377 98.236,283.448 98.210,281.997 98.991 M183.309 107.736 C 177.095 110.444,171.022 113.115,169.814 113.672 L 167.618 114.685 167.725 116.163 C 167.835 117.684,169.252 121.120,170.133 122.000 C 170.543 122.411,170.662 122.409,171.948 121.964 C 175.282 120.811,194.476 112.689,196.386 111.623 C 197.867 110.796,197.681 109.358,195.490 104.691 L 194.608 102.812 183.309 107.736 M158.213 118.435 C 156.252 119.192,146.576 123.888,144.809 124.941 L 143.627 125.646 153.654 125.569 C 160.275 125.519,163.639 125.582,163.556 125.756 C 163.487 125.900,163.605 125.804,163.818 125.543 C 164.446 124.775,163.599 122.463,161.465 119.120 C 160.460 117.545,160.500 117.553,158.213 118.435 M222.195 131.472 L 221.156 132.589 222.273 131.550 C 223.312 130.584,223.511 130.355,223.312 130.355 C 223.269 130.355,222.767 130.857,222.195 131.472 M170.434 152.783 C 166.026 153.919,164.699 157.354,167.563 160.218 C 170.113 162.769,166.846 162.019,163.995 159.399 C 160.875 156.533,158.567 157.705,159.791 161.533 C 161.195 165.922,164.421 165.990,172.890 161.812 C 180.250 158.181,178.234 150.774,170.434 152.783 M103.876 165.227 C 104.129 165.293,104.543 165.293,104.796 165.227 C 105.049 165.161,104.842 165.107,104.336 165.107 C 103.830 165.107,103.624 165.161,103.876 165.227 M134.568 166.238 C 128.184 168.029,125.175 176.551,129.356 181.002 C 133.356 185.260,145.695 177.877,145.287 171.470 C 145.019 167.273,139.858 164.754,134.568 166.238 M99.195 168.003 L 98.423 168.857 99.277 168.085 C 100.073 167.365,100.252 167.148,100.049 167.148 C 100.004 167.148,99.620 167.533,99.195 168.003 " stroke="none" fill="#7bdbfb" fill-rule="evenodd"></path></g></svg>