<svg id="svg" version="1.1" xmlns="http://www.w3.org/2000/svg" xmlns:xlink="http://www.w3.org/1999/xlink" width="400" height="262.6666666666667" viewBox="0, 0, 400,262.6666666666667"><g id="svgg"><path id="path0" d="M128.252 14.647 C 127.071 14.864,126.938 15.167,126.938 17.641 L 126.938 19.974 125.940 19.974 C 124.470 19.974,124.310 20.276,124.310 23.049 L 124.310 25.493 123.180 25.493 C 121.582 25.493,121.419 25.764,121.419 28.436 L 121.419 30.749 120.400 30.749 C 119.227 30.749,118.927 31.032,118.687 32.366 C 118.516 33.313,118.143 33.640,117.233 33.640 C 116.373 33.640,115.900 34.504,115.900 36.075 C 115.900 38.036,115.566 38.840,114.661 39.056 C 113.367 39.366,113.272 39.582,113.272 42.214 L 113.272 44.678 112.099 44.678 C 110.741 44.678,110.383 45.098,110.378 46.698 C 110.372 48.815,110.096 49.668,109.361 49.842 C 108.400 50.070,107.753 50.697,107.753 51.402 C 107.753 52.163,107.096 52.825,106.341 52.825 C 105.316 52.825,105.125 53.308,105.125 55.900 L 105.125 58.344 103.995 58.344 C 102.396 58.344,102.234 58.616,102.234 61.288 L 102.234 63.601 101.192 63.601 C 99.953 63.601,99.607 64.068,99.603 65.751 C 99.597 68.003,99.334 68.850,98.585 69.023 C 97.432 69.290,96.715 69.876,96.715 70.552 C 96.715 71.360,96.066 72.011,95.260 72.011 C 94.348 72.011,94.087 72.737,94.087 75.278 L 94.087 77.530 93.045 77.530 C 91.829 77.530,91.460 77.999,91.456 79.549 C 91.449 81.917,91.208 82.499,90.115 82.794 C 88.791 83.150,88.568 83.640,88.568 86.185 L 88.568 88.305 87.569 88.305 C 86.387 88.305,85.940 88.675,85.940 89.653 C 85.940 90.582,85.309 91.196,84.353 91.196 C 83.307 91.196,83.049 91.814,83.049 94.316 L 83.049 96.420 82.069 96.502 C 80.773 96.610,80.429 97.324,80.424 99.919 L 80.420 101.941 79.310 102.022 C 77.866 102.127,77.539 102.760,77.533 105.453 L 77.530 107.490 76.650 107.490 C 75.609 107.490,74.901 108.159,74.901 109.144 C 74.901 109.880,74.273 110.381,73.351 110.381 C 72.645 110.381,72.273 111.135,72.273 112.565 C 72.273 114.618,72.018 115.364,71.254 115.541 C 69.618 115.919,69.382 116.276,69.382 118.384 C 69.382 120.520,69.048 121.156,67.927 121.156 C 67.016 121.156,66.754 121.883,66.754 124.409 L 66.754 126.645 65.643 126.726 C 63.981 126.847,63.867 127.245,63.893 132.852 C 63.920 138.504,63.980 138.797,65.188 139.154 C 66.433 139.521,66.754 139.764,66.754 140.338 C 66.754 140.980,67.403 141.612,68.284 141.827 C 69.275 142.070,69.374 142.319,69.378 144.580 C 69.383 146.842,69.504 147.027,71.156 147.300 L 72.273 147.484 72.273 149.794 C 72.273 152.354,72.376 152.543,73.916 152.831 L 74.901 153.015 74.920 155.023 C 74.943 157.537,75.116 157.975,76.236 158.349 C 76.912 158.575,77.208 158.873,77.429 159.548 C 77.667 160.278,77.939 160.521,78.874 160.841 C 80.365 161.351,80.412 161.433,80.416 163.552 C 80.421 165.706,80.663 166.226,81.836 166.613 C 82.842 166.945,83.040 167.399,83.045 169.390 C 83.049 170.985,83.543 171.773,84.692 172.023 C 85.831 172.270,85.931 172.484,85.936 174.683 C 85.941 177.099,86.047 177.336,87.275 177.667 C 88.108 177.891,88.334 178.095,88.513 178.786 C 88.737 179.651,89.409 180.143,90.736 180.414 C 91.453 180.561,91.459 180.578,91.463 182.725 C 91.467 185.280,91.606 185.567,92.942 185.783 L 93.955 185.946 94.087 188.085 C 94.227 190.373,94.615 191.139,95.779 191.431 C 96.422 191.592,96.706 192.548,96.712 194.564 C 96.716 195.978,97.094 196.524,98.291 196.846 C 99.142 197.075,99.372 197.278,99.547 197.954 C 99.886 199.264,100.160 199.119,102.598 196.340 C 107.079 191.233,108.610 190.053,112.121 189.002 C 114.522 188.283,116.535 186.918,119.285 184.141 L 121.488 181.917 119.564 178.541 C 118.505 176.684,117.196 174.435,116.655 173.544 C 116.113 172.653,114.349 169.578,112.733 166.711 C 109.866 161.624,101.470 147.115,97.057 139.621 C 93.117 132.931,92.818 131.756,94.452 129.382 C 94.942 128.669,95.663 127.454,96.055 126.682 C 96.446 125.909,98.218 122.837,99.993 119.855 C 101.767 116.872,103.476 113.928,103.790 113.313 C 104.104 112.697,105.221 110.751,106.272 108.988 C 107.323 107.224,108.757 104.717,109.458 103.417 C 110.159 102.116,112.649 97.799,114.990 93.824 C 118.514 87.840,123.460 79.275,131.684 64.915 C 132.726 63.094,137.802 54.378,141.632 47.832 C 142.520 46.314,143.842 44.264,144.569 43.276 L 145.891 41.479 197.416 41.568 L 248.940 41.656 250.160 42.986 C 250.831 43.718,252.193 45.697,253.186 47.384 C 254.289 49.256,255.108 50.386,255.289 50.283 C 257.290 49.147,262.936 44.998,268.463 40.602 C 270.486 38.992,273.309 36.802,274.735 35.734 C 276.995 34.042,277.261 33.763,276.807 33.561 C 276.375 33.368,276.257 32.968,276.109 31.193 C 275.919 28.918,275.512 28.124,274.532 28.117 C 273.570 28.110,273.402 27.777,273.206 25.493 C 273.004 23.132,272.779 22.602,271.978 22.602 C 271.288 22.602,270.434 21.672,270.434 20.922 C 270.434 20.192,270.005 19.974,268.572 19.974 L 267.543 19.974 267.543 17.378 L 267.543 14.783 266.721 14.619 C 265.791 14.433,129.267 14.460,128.252 14.647 M279.618 42.003 C 277.574 43.299,269.032 50.351,266.820 52.569 C 265.507 53.885,265.072 54.932,265.682 55.309 C 266.711 55.945,282.990 42.199,281.997 41.534 C 281.369 41.112,280.865 41.212,279.618 42.003 M284.431 49.737 C 279.401 53.482,270.322 61.304,272.185 60.288 C 273.924 59.340,286.728 49.026,286.728 48.573 C 286.728 48.141,286.249 48.384,284.431 49.737 M284.625 52.601 C 271.798 63.335,266.491 68.409,266.491 69.940 C 266.491 70.269,268.755 74.303,273.846 83.049 C 275.824 86.445,280.553 94.665,284.355 101.314 C 292.054 114.778,297.373 124.024,299.486 127.615 C 302.382 132.537,302.445 132.288,295.248 144.344 C 292.140 149.549,289.107 154.710,288.506 155.813 C 287.548 157.572,284.475 162.958,278.816 172.799 C 277.902 174.389,274.857 179.652,272.051 184.494 C 269.245 189.336,265.801 195.309,264.398 197.766 C 260.770 204.120,254.834 214.545,252.811 218.115 C 250.150 222.812,256.133 222.324,197.827 222.595 C 171.119 222.719,148.807 222.898,148.245 222.993 C 146.896 223.221,145.994 222.737,144.369 220.913 C 143.023 219.403,142.900 219.203,137.052 209.067 C 135.051 205.598,133.265 202.537,133.083 202.264 C 132.750 201.766,127.990 211.026,120.925 225.917 C 118.314 231.420,117.883 235.217,119.869 235.217 C 120.742 235.217,121.340 235.676,121.499 236.468 C 121.650 237.227,122.280 237.677,123.587 237.961 C 124.303 238.116,124.310 238.139,124.310 240.233 C 124.310 242.828,124.513 243.245,125.877 243.463 L 126.938 243.633 126.938 245.833 C 126.938 247.888,126.977 248.045,127.530 248.209 C 129.361 248.753,246.880 249.138,262.286 248.651 L 267.411 248.489 267.486 245.959 L 267.561 243.428 268.559 243.269 C 269.740 243.080,270.357 242.476,270.477 241.393 C 270.553 240.717,270.695 240.586,271.476 240.473 C 272.612 240.309,272.959 239.665,273.244 237.188 C 273.455 235.357,273.460 235.348,274.307 235.266 C 275.598 235.141,275.953 234.416,275.953 231.896 L 275.953 229.744 277.014 229.565 C 278.530 229.309,278.961 228.554,278.734 226.551 C 278.540 224.835,278.610 224.710,280.409 223.567 C 280.909 223.250,281.387 222.696,281.471 222.336 C 281.589 221.832,281.818 221.663,282.467 221.600 C 283.593 221.490,283.911 220.836,284.087 218.265 L 284.231 216.163 285.150 216.076 C 286.610 215.937,286.728 215.705,286.728 212.977 L 286.728 210.512 287.598 210.512 C 289.108 210.512,289.439 210.043,289.746 207.467 L 290.021 205.156 291.069 204.614 C 291.915 204.176,292.131 203.911,292.197 203.229 C 292.274 202.434,292.336 202.388,293.247 202.441 C 294.577 202.518,295.137 201.425,295.138 198.752 L 295.138 196.846 295.876 196.846 C 297.414 196.846,298.253 194.995,297.873 192.444 L 297.706 191.327 298.615 191.327 C 300.097 191.327,300.522 190.616,300.545 188.096 C 300.566 185.853,300.594 185.800,302.027 185.293 C 302.519 185.118,302.808 184.774,302.962 184.176 C 303.161 183.403,303.294 183.303,304.220 183.232 C 305.694 183.120,305.913 182.684,305.913 179.869 L 305.913 177.447 307.229 177.267 C 308.738 177.059,308.764 177.009,308.869 174.113 L 308.936 172.273 309.845 172.142 C 310.929 171.985,311.308 171.170,311.564 168.449 C 311.725 166.735,311.731 166.725,312.827 166.215 C 313.685 165.816,313.958 165.529,314.062 164.915 C 314.177 164.226,314.316 164.116,315.159 164.046 C 316.534 163.931,316.776 163.482,316.904 160.818 L 317.016 158.476 317.838 158.472 C 319.354 158.464,319.823 157.531,319.836 154.497 C 319.842 153.016,319.843 153.015,320.754 152.844 C 322.167 152.579,322.393 152.175,322.601 149.550 C 322.787 147.206,322.798 147.175,323.484 147.171 C 324.392 147.165,324.664 146.955,325.075 145.938 C 325.322 145.327,325.679 145.012,326.374 144.792 C 327.793 144.343,327.989 143.939,327.989 141.474 L 327.989 139.290 328.877 139.290 C 330.434 139.290,330.478 139.103,330.568 131.952 C 330.664 124.390,330.598 124.047,329.047 124.047 L 327.989 124.047 327.989 121.583 C 327.989 118.867,327.904 118.700,326.375 118.424 C 325.523 118.271,325.397 118.145,325.234 117.273 C 324.983 115.928,324.673 115.637,323.490 115.637 L 322.470 115.637 322.470 113.325 C 322.470 110.653,322.308 110.381,320.710 110.381 L 319.580 110.381 319.580 108.074 C 319.580 105.234,319.203 104.494,317.839 104.653 L 316.951 104.756 316.951 102.634 C 316.951 100.317,316.591 99.441,315.578 99.295 C 315.060 99.220,314.795 98.863,314.060 97.240 C 313.961 97.024,313.404 96.692,312.821 96.503 L 311.760 96.160 311.573 94.006 C 311.353 91.477,311.178 91.196,309.823 91.196 L 308.804 91.196 308.804 88.752 C 308.804 85.937,308.655 85.677,307.043 85.677 L 305.913 85.677 305.913 83.233 C 305.913 80.641,305.722 80.158,304.697 80.158 C 303.895 80.158,303.285 79.481,303.285 78.590 C 303.285 77.743,302.911 77.530,301.424 77.530 L 300.394 77.530 300.394 75.048 C 300.394 72.414,300.368 72.355,298.959 71.879 C 298.060 71.575,297.830 70.971,297.792 68.810 C 297.761 67.048,297.340 66.491,296.039 66.491 L 295.138 66.491 295.138 64.316 C 295.138 61.963,294.744 60.972,293.809 60.972 C 293.104 60.972,292.247 60.051,292.247 59.292 C 292.247 58.580,291.816 58.344,290.517 58.344 L 289.619 58.344 289.619 55.900 C 289.619 53.091,289.468 52.825,287.874 52.825 C 286.787 52.825,286.758 52.802,286.678 51.889 L 286.597 50.952 284.625 52.601 M241.919 93.467 C 238.277 96.864,234.836 100.489,232.600 103.285 C 229.772 106.820,228.049 108.269,225.423 109.316 C 223.738 109.987,223.797 109.912,218.601 118.202 C 217.309 120.262,215.605 122.851,214.813 123.954 L 213.374 125.959 214.112 126.736 C 219.154 132.048,236.075 138.491,245.007 138.501 L 245.992 138.502 245.963 116.754 C 245.947 104.793,245.858 93.888,245.766 92.521 L 245.598 90.035 241.919 93.467 M140.342 127.202 C 127.277 127.373,127.321 127.369,127.062 128.548 C 126.639 130.477,126.938 130.635,141.524 136.192 C 148.447 138.830,148.070 138.751,149.098 137.786 C 149.558 137.355,152.477 134.897,155.585 132.323 C 158.693 129.750,161.408 127.486,161.620 127.292 C 162.046 126.900,163.079 126.905,140.342 127.202 M193.615 143.173 C 192.891 143.973,193.086 145.087,194.466 148.012 C 196.643 152.626,196.868 154.512,195.002 152.490 C 193.458 150.819,192.011 150.997,191.227 152.954 C 190.423 154.965,190.109 154.738,197.963 157.833 C 201.902 159.386,206.899 161.398,209.067 162.304 C 224.414 168.723,240.384 174.754,242.576 174.958 C 245.295 175.212,245.646 174.058,245.714 164.620 L 245.729 162.486 243.824 162.303 C 229.261 160.909,213.589 155.353,201.971 147.467 C 200.526 146.486,198.456 145.078,197.372 144.337 C 195.006 142.721,194.239 142.483,193.615 143.173 M182.208 146.230 C 179.745 148.170,177.907 149.891,178.107 150.072 C 178.223 150.178,178.791 150.409,179.369 150.585 C 179.947 150.761,182.518 151.742,185.083 152.766 C 187.647 153.789,189.824 154.547,189.921 154.450 C 190.531 153.840,188.301 150.135,185.422 146.978 C 183.694 145.083,183.673 145.078,182.208 146.230 " stroke="none" fill="#0db1bd" fill-rule="evenodd"></path><path id="path1" d="M150.986 42.515 L 146.255 42.599 145.169 44.099 C 143.879 45.878,142.076 48.859,140.206 52.300 C 138.471 55.494,135.361 60.806,133.743 63.338 C 133.050 64.422,132.389 65.559,132.273 65.865 C 132.158 66.170,131.492 67.353,130.793 68.493 C 130.095 69.633,128.189 72.930,126.558 75.821 C 119.915 87.596,116.137 94.107,114.635 96.373 C 114.011 97.313,113.392 98.369,113.259 98.719 C 113.126 99.069,112.604 100.001,112.099 100.791 C 111.594 101.580,110.808 102.967,110.352 103.873 C 109.896 104.778,109.198 105.992,108.802 106.570 C 108.406 107.148,107.236 109.204,106.203 111.138 C 105.169 113.072,104.078 114.999,103.777 115.421 C 103.477 115.844,102.787 116.981,102.245 117.950 C 101.703 118.918,100.729 120.598,100.081 121.682 C 99.433 122.766,98.322 124.696,97.612 125.970 C 96.902 127.244,95.925 128.755,95.441 129.327 C 93.623 131.476,94.680 134.328,100.790 143.758 C 101.398 144.698,102.284 146.176,102.757 147.043 C 105.061 151.263,105.866 152.678,106.359 153.378 C 106.654 153.797,107.160 154.671,107.482 155.322 C 107.804 155.972,108.481 157.155,108.986 157.950 C 109.491 158.745,110.405 160.283,111.018 161.367 C 115.122 168.630,118.537 174.603,119.477 176.164 C 119.895 176.859,120.714 178.233,121.298 179.218 L 122.360 181.009 124.583 178.105 C 125.806 176.508,128.398 173.242,130.344 170.847 C 136.299 163.513,135.994 164.213,136.537 156.636 C 137.168 147.823,136.970 148.248,142.792 143.243 C 145.055 141.298,146.815 139.614,146.703 139.502 C 146.590 139.389,144.197 138.423,141.383 137.354 C 127.625 132.128,125.624 131.013,125.624 128.574 C 125.624 126.153,129.844 125.639,149.827 125.628 C 154.249 125.626,159.297 125.547,161.043 125.453 L 164.219 125.283 174.182 116.978 C 191.373 102.648,198.921 96.008,199.967 94.297 C 200.742 93.032,200.564 92.820,199.230 93.421 C 197.440 94.229,195.938 93.867,196.111 92.671 C 196.170 92.259,196.454 92.083,197.290 91.941 C 198.696 91.702,199.504 91.166,200.395 89.880 C 200.810 89.281,201.459 88.737,201.950 88.574 C 202.844 88.280,204.960 86.619,209.704 82.488 C 211.304 81.095,213.003 79.771,213.480 79.544 C 213.957 79.318,214.874 78.714,215.518 78.202 C 216.696 77.266,217.438 77.042,217.741 77.531 C 218.415 78.623,220.226 78.646,220.244 77.563 C 220.274 75.751,246.852 54.645,253.012 51.543 L 254.118 50.986 253.366 49.737 C 252.953 49.051,252.111 47.609,251.496 46.533 C 250.881 45.457,249.908 44.068,249.334 43.445 L 248.290 42.313 202.003 42.372 C 176.545 42.405,153.587 42.469,150.986 42.515 M272.062 59.737 C 271.169 60.658,271.033 60.972,271.529 60.972 C 271.697 60.972,271.754 60.891,271.655 60.793 C 271.557 60.694,271.856 60.221,272.320 59.741 C 272.785 59.262,273.106 58.870,273.033 58.870 C 272.961 58.870,272.524 59.260,272.062 59.737 M251.204 64.627 C 247.588 67.046,244.394 71.035,247.526 69.222 C 250.981 67.221,254.766 63.992,254.129 63.589 C 253.492 63.186,253.210 63.285,251.204 64.627 M261.235 74.970 C 258.995 77.278,254.889 81.301,252.112 83.910 L 247.063 88.654 247.228 113.601 C 247.358 133.340,247.324 138.591,247.066 138.751 C 246.886 138.862,247.606 138.973,248.665 138.997 C 256.075 139.167,261.536 139.674,262.456 140.276 C 262.919 140.578,263.233 142.061,264.228 148.620 C 266.319 162.406,266.318 161.805,264.258 162.425 C 262.922 162.827,253.637 163.042,249.803 162.761 L 246.912 162.549 246.843 165.966 C 246.649 175.662,246.655 175.646,243.185 175.779 C 240.093 175.898,237.765 175.219,229.435 171.766 C 227.917 171.137,224.816 169.954,222.543 169.136 C 220.271 168.319,217.550 167.291,216.499 166.852 C 215.447 166.413,213.590 165.698,212.372 165.263 C 211.154 164.829,209.380 164.083,208.429 163.607 C 207.479 163.131,206.051 162.533,205.256 162.278 C 204.461 162.023,203.042 161.432,202.102 160.963 C 201.163 160.495,199.921 159.966,199.343 159.788 C 198.765 159.609,197.286 159.049,196.058 158.543 C 194.829 158.037,193.007 157.342,192.008 157.000 L 190.192 156.376 189.264 157.461 C 185.698 161.626,179.250 166.004,176.169 166.349 C 173.832 166.611,173.456 166.925,173.456 168.616 C 173.456 172.261,178.188 188.539,180.898 194.218 C 182.811 198.226,182.783 198.507,180.222 201.125 C 176.552 204.876,169.592 206.147,166.568 203.618 C 165.651 202.852,164.175 199.180,161.362 190.670 C 159.000 183.524,158.168 181.611,156.732 180.022 C 155.899 179.099,150.487 174.408,150.012 174.196 C 148.903 173.701,142.165 183.959,136.023 195.495 L 133.454 200.320 133.941 201.404 C 134.209 202.001,135.064 203.496,135.842 204.727 C 136.619 205.958,137.514 207.514,137.830 208.185 C 138.145 208.856,138.883 210.157,139.468 211.076 C 140.054 211.995,141.229 213.969,142.080 215.462 C 142.931 216.956,144.152 218.894,144.793 219.769 L 145.960 221.360 197.602 221.236 L 249.245 221.112 250.137 220.083 C 250.628 219.517,251.202 218.644,251.412 218.143 C 251.623 217.642,252.330 216.400,252.984 215.383 C 254.254 213.411,256.664 209.230,259.125 204.731 C 260.769 201.726,262.522 198.658,264.007 196.189 C 265.876 193.082,266.843 191.402,268.925 187.648 C 270.087 185.552,271.453 183.187,271.959 182.392 C 272.466 181.597,273.201 180.355,273.592 179.632 C 275.266 176.544,276.980 173.485,277.816 172.098 C 278.309 171.279,279.067 169.979,279.501 169.210 C 279.934 168.440,280.869 166.804,281.577 165.574 C 282.285 164.344,283.381 162.397,284.012 161.248 C 284.643 160.098,285.385 158.916,285.660 158.620 C 285.936 158.324,286.582 157.194,287.095 156.110 C 287.609 155.026,288.801 152.838,289.744 151.248 C 290.687 149.658,291.768 147.766,292.145 147.043 C 292.523 146.321,293.122 145.342,293.478 144.868 C 294.751 143.172,297.719 138.180,299.912 134.044 C 300.755 132.454,300.559 131.347,298.988 128.812 C 298.214 127.565,296.423 124.474,295.007 121.945 C 293.591 119.415,291.695 116.104,290.793 114.586 C 289.891 113.068,288.175 110.112,286.979 108.016 C 285.783 105.920,284.263 103.318,283.602 102.234 C 282.941 101.150,281.853 99.258,281.185 98.029 C 279.460 94.860,277.920 92.138,275.463 87.914 C 274.287 85.893,273.325 84.142,273.325 84.023 C 273.325 83.905,272.868 83.135,272.310 82.311 C 271.752 81.488,271.040 80.312,270.728 79.697 C 270.415 79.083,269.649 77.782,269.025 76.807 C 268.401 75.831,267.368 74.057,266.731 72.865 C 266.093 71.673,265.512 70.714,265.440 70.735 C 265.368 70.756,263.476 72.662,261.235 74.970 M237.306 75.984 C 234.525 77.979,230.702 81.775,231.087 82.160 C 231.484 82.558,236.838 78.811,238.497 76.975 C 240.062 75.243,239.264 74.580,237.306 75.984 M238.100 96.912 L 236.399 98.686 238.173 96.985 C 239.149 96.050,239.947 95.252,239.947 95.211 C 239.947 95.018,239.680 95.264,238.100 96.912 M229.817 106.242 L 228.778 107.359 229.895 106.320 C 230.509 105.748,231.012 105.246,231.012 105.203 C 231.012 105.004,230.783 105.203,229.817 106.242 M219.261 112.914 C 215.942 115.573,215.647 115.996,216.547 116.811 C 217.253 117.449,217.741 117.188,218.339 115.850 C 218.618 115.227,219.336 114.128,219.935 113.408 C 220.932 112.211,221.223 111.695,220.904 111.695 C 220.837 111.695,220.098 112.244,219.261 112.914 M214.832 116.754 L 214.060 117.608 214.915 116.837 C 215.384 116.412,215.769 116.028,215.769 115.982 C 215.769 115.779,215.552 115.958,214.832 116.754 M213.300 119.270 C 212.422 120.716,211.538 121.419,210.599 121.419 C 210.261 121.419,210.245 121.347,210.512 121.025 C 210.692 120.808,210.780 120.631,210.707 120.631 C 210.634 120.631,210.272 121.027,209.903 121.512 L 209.230 122.394 210.813 123.887 C 211.683 124.709,212.325 125.267,212.238 125.127 C 212.152 124.988,212.320 124.798,212.611 124.706 C 212.902 124.613,213.141 124.377,213.141 124.181 C 213.141 123.985,213.574 123.257,214.104 122.563 C 215.276 121.028,215.852 119.307,215.503 118.388 C 215.081 117.278,214.327 117.580,213.300 119.270 M175.579 152.142 C 173.138 155.224,176.192 159.240,180.756 158.949 C 182.400 158.844,182.415 158.850,181.817 159.311 C 180.313 160.468,177.241 160.283,174.612 158.877 C 172.587 157.795,171.669 157.748,169.403 158.613 L 168.163 159.087 171.006 161.953 C 174.158 165.130,175.732 166.245,176.652 165.952 C 179.246 165.129,189.634 156.985,189.130 156.169 C 188.970 155.911,177.107 151.117,176.627 151.117 C 176.497 151.117,176.026 151.578,175.579 152.142 " stroke="none" fill="#7ddaff" fill-rule="evenodd"></path><path id="path2" d="M307.264 0.832 C 305.682 2.451,305.594 3.954,306.968 5.893 C 308.303 7.777,310.381 15.415,310.381 18.438 C 310.381 20.035,310.172 20.293,305.913 23.939 C 295.417 32.926,289.644 35.288,284.115 32.859 C 280.731 31.372,279.831 31.499,277.383 33.803 C 276.941 34.219,274.660 36.038,272.313 37.845 C 269.967 39.652,266.484 42.343,264.575 43.825 C 259.914 47.443,256.133 50.021,253.818 51.158 C 247.161 54.427,220.277 75.571,220.244 77.563 C 220.226 78.646,218.415 78.623,217.741 77.531 C 217.438 77.042,216.696 77.266,215.518 78.202 C 214.874 78.714,213.957 79.318,213.480 79.544 C 213.003 79.771,211.304 81.095,209.704 82.488 C 204.960 86.619,202.844 88.280,201.950 88.574 C 201.459 88.737,200.810 89.281,200.395 89.880 C 199.504 91.166,198.696 91.702,197.290 91.941 C 196.454 92.083,196.170 92.259,196.111 92.671 C 195.938 93.867,197.440 94.229,199.230 93.421 C 202.954 91.742,199.936 95.039,189.488 104.061 C 184.393 108.460,179.459 112.598,153.482 134.265 C 140.702 144.924,138.351 146.981,137.871 147.923 C 137.243 149.153,136.902 151.387,136.522 156.767 C 135.997 164.203,136.346 163.440,129.698 171.684 C 127.674 174.194,124.852 177.744,123.427 179.573 C 118.767 185.556,115.705 188.072,111.519 189.358 C 108.896 190.163,107.715 191.054,104.188 194.890 C 102.752 196.452,100.926 198.392,100.131 199.201 C 99.336 200.010,97.622 201.956,96.321 203.525 C 95.020 205.094,92.376 208.225,90.445 210.482 C 88.515 212.739,86.386 215.231,85.715 216.018 C 85.043 216.806,82.362 219.881,79.756 222.852 C 72.273 231.382,71.222 232.766,71.222 234.097 C 71.222 234.801,73.903 237.287,79.238 241.529 C 84.685 245.859,89.034 249.517,94.119 254.041 C 100.581 259.791,102.514 260.897,104.369 259.903 C 105.004 259.564,110.791 247.981,115.259 238.108 C 116.011 236.445,117.114 234.086,117.709 232.865 C 118.304 231.644,118.791 230.498,118.791 230.319 C 118.791 229.522,129.714 207.347,135.020 197.372 C 141.913 184.414,147.688 175.383,149.836 174.203 C 150.058 174.081,155.556 178.719,156.732 180.022 C 158.168 181.611,159.000 183.524,161.362 190.670 C 164.175 199.180,165.651 202.852,166.568 203.618 C 169.592 206.147,176.552 204.876,180.222 201.125 C 182.783 198.507,182.811 198.226,180.898 194.218 C 178.188 188.539,173.456 172.261,173.456 168.616 C 173.456 166.925,173.832 166.611,176.169 166.349 C 178.812 166.053,180.348 165.223,184.231 161.995 C 189.333 157.755,189.673 157.361,190.446 154.796 C 191.594 150.992,192.809 150.297,194.923 152.234 L 196.141 153.351 195.991 152.405 C 195.909 151.885,195.226 150.111,194.474 148.463 C 192.854 144.911,192.697 144.245,193.274 143.363 C 194.103 142.099,195.375 142.569,199.723 145.747 C 208.133 151.894,223.309 158.617,233.114 160.539 C 241.201 162.125,247.835 162.789,255.716 162.801 C 262.821 162.812,265.024 162.579,265.717 161.743 C 266.347 160.985,263.283 140.817,262.456 140.276 C 261.693 139.777,259.896 139.540,255.041 139.298 C 244.363 138.767,243.362 138.671,238.371 137.697 C 226.724 135.424,219.096 131.753,211.996 125.005 L 209.143 122.293 212.259 119.252 C 218.350 113.307,221.915 110.580,225.579 109.064 C 228.012 108.057,229.851 106.467,232.751 102.861 C 235.447 99.508,239.863 95.088,246.649 88.948 C 257.124 79.470,268.068 68.324,268.068 67.133 C 268.068 66.519,285.988 50.859,286.699 50.853 C 286.843 50.851,288.367 49.614,295.269 43.891 C 305.448 35.453,316.572 26.515,321.837 22.544 C 325.648 19.669,325.988 19.211,325.764 17.238 L 325.586 15.660 327.050 14.308 C 330.072 11.519,328.221 8.879,323.299 8.958 C 321.644 8.984,320.753 8.876,320.181 8.581 C 318.566 7.745,312.746 1.300,312.746 0.347 C 312.746 -0.501,308.172 -0.096,307.264 0.832 M316.919 9.348 C 318.367 11.189,314.186 14.812,312.439 13.231 C 311.793 12.647,311.826 12.400,312.741 10.958 C 314.106 8.805,315.937 8.100,316.919 9.348 M315.594 24.663 C 315.464 24.990,307.137 31.824,300.842 36.769 C 298.510 38.601,298.203 38.232,300.394 36.230 C 305.683 31.400,316.049 23.512,315.594 24.663 M282.095 41.584 C 282.789 42.685,267.364 55.708,265.734 55.398 C 263.959 55.059,265.989 52.740,273.325 46.726 C 280.019 41.237,281.376 40.442,282.095 41.584 M286.722 48.555 C 286.716 48.989,285.853 49.768,280.815 53.889 C 276.365 57.529,271.774 60.972,271.372 60.972 C 270.452 60.972,278.035 54.323,284.363 49.582 C 286.520 47.965,286.731 47.873,286.722 48.555 M254.129 63.589 C 254.659 63.924,254.090 64.519,251.117 66.743 C 246.318 70.332,244.615 70.771,247.616 67.645 C 250.266 64.886,253.246 63.030,254.129 63.589 M239.350 75.606 C 239.660 76.536,231.743 82.816,231.087 82.160 C 230.853 81.926,232.502 80.026,234.365 78.384 C 237.679 75.464,239.049 74.701,239.350 75.606 M186.015 147.438 C 190.000 152.010,190.744 154.034,189.240 156.219 C 187.554 158.671,179.169 165.154,176.652 165.952 C 175.732 166.245,174.158 165.130,171.006 161.953 L 168.163 159.087 169.403 158.613 C 171.669 157.748,172.587 157.795,174.612 158.877 C 177.241 160.283,180.313 160.468,181.817 159.311 C 182.415 158.850,182.400 158.844,180.756 158.949 C 177.367 159.165,174.138 156.454,174.634 153.810 C 174.889 152.448,182.555 145.072,183.715 145.072 C 183.846 145.072,184.881 146.137,186.015 147.438 " stroke="none" fill="#000101" fill-rule="evenodd"></path><path id="path3" d="M144.569 43.276 C 143.842 44.264,142.520 46.314,141.632 47.832 C 137.802 54.378,132.726 63.094,131.684 64.915 C 123.460 79.275,118.514 87.840,114.990 93.824 C 112.649 97.799,110.159 102.116,109.458 103.417 C 108.757 104.717,107.323 107.224,106.272 108.988 C 105.221 110.751,104.104 112.697,103.790 113.313 C 103.476 113.928,101.767 116.872,99.993 119.855 C 98.218 122.837,96.446 125.909,96.055 126.682 C 95.663 127.454,94.942 128.669,94.452 129.382 C 92.818 131.756,93.117 132.931,97.057 139.621 C 101.470 147.115,109.866 161.624,112.733 166.711 C 114.349 169.578,116.113 172.653,116.655 173.544 C 117.196 174.435,118.505 176.683,119.562 178.538 C 121.309 181.604,121.523 181.875,121.898 181.500 C 122.399 180.999,122.103 180.275,120.161 177.250 C 119.480 176.189,118.202 174.043,117.321 172.483 C 116.440 170.922,114.912 168.226,113.925 166.491 C 112.939 164.757,111.630 162.451,111.018 161.367 C 110.405 160.283,109.491 158.745,108.986 157.950 C 108.481 157.155,107.804 155.972,107.482 155.322 C 107.160 154.671,106.654 153.797,106.359 153.378 C 105.866 152.678,105.061 151.263,102.757 147.043 C 102.284 146.176,101.398 144.698,100.790 143.758 C 94.680 134.328,93.623 131.476,95.441 129.327 C 95.925 128.755,96.902 127.244,97.612 125.970 C 98.322 124.696,99.433 122.766,100.081 121.682 C 100.729 120.598,101.703 118.918,102.245 117.950 C 102.787 116.981,103.477 115.844,103.777 115.421 C 104.078 114.999,105.169 113.072,106.203 111.138 C 107.236 109.204,108.406 107.148,108.802 106.570 C 109.198 105.992,109.896 104.778,110.352 103.873 C 110.808 102.967,111.594 101.580,112.099 100.791 C 112.604 100.001,113.126 99.069,113.259 98.719 C 113.392 98.369,114.011 97.313,114.635 96.373 C 116.137 94.107,119.915 87.596,126.558 75.821 C 128.189 72.930,130.095 69.633,130.793 68.493 C 131.492 67.353,132.158 66.170,132.273 65.865 C 132.389 65.559,133.050 64.422,133.743 63.338 C 135.361 60.806,138.471 55.494,140.206 52.300 C 142.100 48.814,143.894 45.854,145.160 44.128 L 146.238 42.657 153.319 42.485 C 157.214 42.390,180.180 42.313,204.355 42.313 L 248.309 42.313 249.450 43.582 C 250.078 44.281,251.229 46.003,252.008 47.409 C 253.748 50.551,254.149 51.060,254.638 50.748 C 255.219 50.375,251.528 44.191,249.682 42.444 L 248.849 41.656 197.370 41.568 L 145.891 41.479 144.569 43.276 M280.542 43.693 L 279.238 45.072 280.618 43.768 C 281.376 43.051,281.997 42.430,281.997 42.388 C 281.997 42.192,281.754 42.410,280.542 43.693 M265.904 70.082 C 265.419 70.568,266.423 72.731,269.027 76.807 C 269.650 77.782,270.415 79.083,270.728 79.697 C 271.040 80.312,271.752 81.488,272.310 82.311 C 272.868 83.135,273.325 83.905,273.325 84.023 C 273.325 84.142,274.287 85.893,275.463 87.914 C 277.920 92.138,279.460 94.860,281.185 98.029 C 281.853 99.258,282.941 101.150,283.602 102.234 C 284.263 103.318,285.783 105.920,286.979 108.016 C 288.175 110.112,289.891 113.068,290.793 114.586 C 291.695 116.104,293.591 119.415,295.007 121.945 C 296.423 124.474,298.214 127.565,298.988 128.812 C 300.559 131.347,300.755 132.454,299.912 134.044 C 297.719 138.180,294.751 143.172,293.478 144.868 C 293.122 145.342,292.523 146.321,292.145 147.043 C 291.768 147.766,290.687 149.658,289.744 151.248 C 288.801 152.838,287.609 155.026,287.095 156.110 C 286.582 157.194,285.936 158.324,285.660 158.620 C 285.385 158.916,284.643 160.098,284.012 161.248 C 283.381 162.397,282.285 164.344,281.577 165.574 C 280.869 166.804,279.934 168.440,279.501 169.210 C 279.067 169.979,278.309 171.279,277.816 172.098 C 276.980 173.485,275.266 176.544,273.592 179.632 C 273.201 180.355,272.466 181.597,271.959 182.392 C 271.453 183.187,270.087 185.552,268.925 187.648 C 266.843 191.402,265.876 193.082,264.007 196.189 C 262.522 198.658,260.769 201.726,259.125 204.731 C 256.664 209.230,254.254 213.411,252.984 215.383 C 252.330 216.400,251.623 217.642,251.412 218.143 C 251.202 218.644,250.628 219.517,250.137 220.083 L 249.245 221.112 197.602 221.236 L 145.960 221.360 144.793 219.769 C 144.152 218.894,142.931 216.956,142.080 215.462 C 141.229 213.969,140.054 211.995,139.468 211.076 C 138.883 210.157,138.148 208.856,137.836 208.185 C 137.524 207.514,136.733 206.137,136.079 205.125 C 135.426 204.113,134.566 202.642,134.170 201.855 C 133.454 200.436,133.447 200.430,133.105 201.067 C 132.809 201.617,132.828 201.820,133.235 202.497 C 133.495 202.930,135.280 206.005,137.200 209.330 C 139.121 212.654,141.230 216.296,141.888 217.423 C 144.228 221.431,146.371 223.309,148.245 222.993 C 148.807 222.898,171.119 222.719,197.827 222.595 C 256.133 222.324,250.150 222.812,252.811 218.115 C 254.834 214.545,260.770 204.120,264.398 197.766 C 265.801 195.309,269.245 189.336,272.051 184.494 C 274.857 179.652,277.902 174.389,278.816 172.799 C 284.475 162.958,287.548 157.572,288.506 155.813 C 289.107 154.710,292.140 149.549,295.248 144.344 C 302.445 132.288,302.382 132.537,299.486 127.615 C 297.373 124.024,292.054 114.778,284.355 101.314 C 280.553 94.665,275.824 86.445,273.847 83.049 C 269.257 75.163,266.758 70.751,266.528 70.130 C 266.358 69.671,266.319 69.668,265.904 70.082 M245.861 89.791 C 245.283 90.308,244.998 90.599,245.229 90.439 C 245.882 89.985,245.992 93.889,245.992 117.501 L 245.992 138.467 245.269 138.577 C 244.872 138.637,245.168 138.704,245.926 138.725 L 247.306 138.765 247.271 122.142 C 247.251 112.999,247.162 101.769,247.073 97.185 L 246.912 88.850 245.861 89.791 M222.404 110.704 C 221.646 111.170,221.025 111.675,221.025 111.825 C 221.025 111.976,220.535 112.688,219.935 113.408 C 219.336 114.128,218.618 115.227,218.339 115.850 C 217.694 117.292,217.172 117.502,216.416 116.623 L 215.831 115.943 213.006 118.604 C 210.294 121.159,209.911 121.841,211.578 121.151 C 212.069 120.947,212.697 120.264,213.291 119.285 C 214.327 117.580,215.079 117.275,215.503 118.388 C 215.852 119.307,215.276 121.028,214.104 122.563 C 213.574 123.257,213.141 123.975,213.141 124.159 C 213.141 124.342,212.900 124.600,212.605 124.731 C 212.107 124.954,212.156 125.052,213.324 126.151 C 214.013 126.801,214.305 127.021,213.973 126.640 L 213.368 125.947 214.679 124.143 C 215.400 123.151,217.337 120.210,218.985 117.608 C 220.632 115.007,222.419 112.198,222.956 111.367 C 223.493 110.535,223.899 109.855,223.858 109.855 C 223.817 109.855,223.163 110.237,222.404 110.704 M147.306 125.632 C 127.157 125.913,125.624 126.121,125.624 128.574 C 125.624 130.981,127.790 132.207,140.604 137.056 C 142.989 137.959,145.403 138.891,145.967 139.129 C 146.916 139.528,147.043 139.528,147.647 139.132 L 148.300 138.704 147.015 138.234 C 128.776 131.562,126.629 130.520,127.062 128.548 C 127.342 127.276,127.453 127.268,148.309 127.076 L 162.190 126.948 163.152 126.155 L 164.115 125.361 162.149 125.407 C 161.068 125.432,154.389 125.533,147.306 125.632 M177.177 150.416 L 176.608 151.022 182.844 153.500 C 186.274 154.864,189.152 156.012,189.239 156.051 C 189.394 156.123,190.106 154.769,189.957 154.686 C 189.583 154.476,180.174 150.829,179.369 150.582 C 178.791 150.405,178.189 150.159,178.032 150.035 C 177.856 149.896,177.527 150.043,177.177 150.416 M190.380 155.269 L 190.091 156.357 191.432 156.792 C 192.169 157.032,194.014 157.730,195.532 158.345 C 197.050 158.959,198.765 159.608,199.343 159.787 C 199.921 159.966,201.163 160.495,202.102 160.963 C 203.042 161.432,204.461 162.023,205.256 162.278 C 206.051 162.533,207.479 163.131,208.429 163.607 C 209.380 164.083,211.154 164.829,212.372 165.263 C 213.590 165.698,215.447 166.413,216.499 166.852 C 217.550 167.291,220.271 168.319,222.543 169.136 C 224.816 169.954,227.917 171.137,229.435 171.766 C 239.441 175.914,244.505 176.935,245.987 175.105 C 246.900 173.976,247.243 162.597,246.367 162.471 C 245.835 162.395,245.815 162.541,245.571 168.217 C 245.274 175.114,245.233 175.206,242.576 174.958 C 240.384 174.754,224.414 168.723,209.067 162.304 C 206.899 161.398,201.909 159.388,197.979 157.840 C 193.170 155.944,190.807 154.886,190.752 154.603 C 190.707 154.372,190.540 154.671,190.380 155.269 M119.045 184.428 L 117.608 185.940 119.120 184.503 C 120.524 183.169,120.751 182.917,120.556 182.917 C 120.515 182.917,119.835 183.597,119.045 184.428 M104.322 194.415 L 103.417 195.401 104.402 194.495 C 105.319 193.652,105.508 193.430,105.308 193.430 C 105.264 193.430,104.820 193.873,104.322 194.415 " stroke="none" fill="#0db1bd" fill-rule="evenodd"></path></g></svg>