<svg id="svg" version="1.1" xmlns="http://www.w3.org/2000/svg" xmlns:xlink="http://www.w3.org/1999/xlink" width="400" height="263" viewBox="0, 0, 400,263"><g id="svgg"><path id="path0" d="M309.974 1.044 C 307.217 2.519,306.714 4.504,308.299 7.651 C 310.015 11.057,311.942 19.043,311.487 20.857 C 311.281 21.679,307.222 25.255,302.191 29.047 C 294.423 34.903,290.077 36.161,285.132 33.983 C 282.843 32.976,281.378 32.909,280.496 33.774 C 280.151 34.113,278.566 35.380,276.974 36.591 C 275.382 37.802,272.184 40.287,269.868 42.113 C 262.345 48.046,258.265 50.897,253.767 53.365 C 247.002 57.077,222.718 76.364,221.679 78.850 C 221.187 80.027,220.912 80.124,219.845 79.495 C 218.639 78.783,218.188 78.805,217.091 79.626 C 216.592 79.999,215.744 80.532,215.207 80.811 C 214.669 81.089,213.150 82.235,211.832 83.356 C 205.741 88.536,204.792 89.293,203.649 89.879 C 202.979 90.222,202.049 90.986,201.582 91.576 C 200.695 92.695,199.580 93.421,198.748 93.421 C 198.014 93.421,197.316 94.030,197.500 94.509 C 197.848 95.418,198.806 95.630,200.237 95.115 C 203.901 93.798,201.410 96.486,189.474 106.732 C 183.941 111.481,166.871 125.917,165.700 126.838 C 164.835 127.518,151.079 138.958,147.632 141.865 C 138.099 149.902,138.551 149.139,137.901 158.289 C 137.367 165.799,137.912 164.732,128.750 176.208 C 119.899 187.292,118.303 188.786,113.049 190.904 C 109.227 192.445,103.555 197.666,96.346 206.278 C 94.122 208.935,91.814 211.667,91.217 212.348 C 90.620 213.029,89.539 214.285,88.816 215.138 C 88.092 215.991,85.840 218.589,83.812 220.910 C 72.938 233.355,72.014 234.582,72.483 235.968 C 72.819 236.959,75.472 239.395,81.184 243.955 C 84.408 246.529,92.227 253.200,97.500 257.877 C 101.568 261.485,104.297 262.731,105.755 261.647 C 106.563 261.045,110.136 254.222,113.713 246.447 C 115.045 243.553,117.196 238.934,118.493 236.184 C 119.790 233.434,120.959 230.726,121.092 230.165 C 121.758 227.348,136.681 197.814,142.317 188.158 C 145.512 182.685,150.512 175.789,151.286 175.789 C 151.761 175.789,157.397 180.850,158.397 182.174 C 159.828 184.069,160.340 185.304,163.261 193.890 C 166.078 202.172,167.037 204.411,168.179 205.372 C 171.426 208.104,179.591 205.867,182.661 201.404 C 183.787 199.768,183.747 199.388,182.030 195.395 C 179.668 189.901,176.755 180.678,175.403 174.412 C 174.251 169.075,174.497 168.267,177.381 167.910 C 182.336 167.295,190.629 160.327,192.077 155.561 C 192.990 152.554,194.298 152.024,196.315 153.846 C 197.838 155.223,197.732 154.464,195.746 149.788 C 194.239 146.238,194.151 145.921,194.496 145.312 C 195.462 143.613,195.834 143.745,202.349 148.105 C 210.112 153.300,220.915 158.361,229.605 160.873 C 240.752 164.096,264.865 165.671,266.829 163.305 C 267.287 162.753,266.102 152.699,264.709 145.315 C 263.943 141.253,264.059 141.302,254.211 140.796 C 234.218 139.767,221.548 135.070,211.758 125.057 L 210.489 123.760 214.389 120.050 C 219.363 115.319,222.239 113.074,225.748 111.181 C 229.806 108.993,230.445 108.465,234.008 104.363 C 238.184 99.555,241.655 96.084,249.079 89.290 C 256.427 82.564,267.772 71.134,269.034 69.184 C 270.621 66.731,284.401 54.583,290.000 50.701 C 291.807 49.448,292.909 48.567,297.657 44.581 C 305.306 38.161,316.007 29.535,321.546 25.325 C 322.930 24.274,324.818 22.746,325.741 21.930 L 327.421 20.446 327.242 18.773 L 327.063 17.100 328.233 15.962 C 331.483 12.804,329.823 10.263,324.511 10.263 C 321.065 10.263,318.010 7.709,314.119 1.579 C 313.389 0.428,311.565 0.192,309.974 1.044 M318.017 10.779 C 318.814 11.659,318.088 13.093,316.290 14.189 C 314.389 15.348,312.942 14.621,313.833 12.953 C 315.091 10.597,316.969 9.621,318.017 10.779 M314.605 27.799 C 313.390 28.877,306.729 34.307,304.478 36.053 C 300.676 39.002,300.640 39.022,302.500 37.198 C 305.127 34.621,314.928 26.843,315.526 26.860 C 315.599 26.862,315.184 27.285,314.605 27.799 M283.421 43.010 C 283.421 44.767,269.165 56.575,267.039 56.578 C 265.117 56.581,269.147 52.427,277.500 45.795 C 281.199 42.859,283.421 41.813,283.421 43.010 M288.269 49.703 C 288.548 50.155,273.889 62.105,273.057 62.105 C 272.511 62.105,273.281 61.302,276.382 58.636 C 284.660 51.517,287.890 49.090,288.269 49.703 M255.526 65.227 C 255.526 66.016,248.163 71.672,247.717 71.225 C 246.879 70.387,253.103 65.024,254.934 65.006 C 255.260 65.003,255.526 65.102,255.526 65.227 M240.336 77.816 C 239.047 79.783,232.368 84.513,232.368 83.458 C 232.368 82.717,237.619 77.823,239.273 77.021 C 240.421 76.466,240.958 76.867,240.336 77.816 M187.434 149.054 C 192.912 155.484,192.413 157.474,183.684 164.002 C 177.744 168.444,177.338 168.445,172.850 164.023 C 169.735 160.954,169.590 160.671,170.855 160.142 C 172.733 159.358,173.565 159.368,175.333 160.196 C 178.476 161.666,181.538 161.953,182.965 160.910 C 183.544 160.487,183.540 160.483,182.686 160.659 C 179.790 161.253,176.056 158.582,176.054 155.916 C 176.052 154.318,179.362 150.658,183.677 147.487 C 185.122 146.426,185.235 146.473,187.434 149.054 " stroke="none" fill="#040404" fill-rule="evenodd"></path><path id="path1" d="M160.677 14.475 C 131.688 14.666,130.152 14.699,129.821 15.151 C 129.599 15.455,129.474 16.417,129.474 17.813 L 129.474 20.000 128.415 20.000 C 127.079 20.000,126.842 20.519,126.842 23.438 L 126.842 25.526 125.667 25.526 C 124.159 25.526,123.947 25.911,123.947 28.652 L 123.947 30.759 122.831 30.840 C 121.877 30.909,121.664 31.036,121.370 31.711 C 120.761 33.105,120.656 33.221,119.728 33.521 C 118.899 33.789,118.795 33.936,118.592 35.132 C 118.137 37.797,117.816 38.530,116.928 38.920 C 115.922 39.363,115.798 39.763,115.793 42.566 L 115.789 44.737 114.615 44.737 C 113.214 44.737,113.032 44.987,112.773 47.254 C 112.564 49.086,112.414 49.403,111.550 49.834 C 111.205 50.005,110.648 50.646,110.310 51.257 C 109.934 51.939,109.449 52.431,109.053 52.530 C 107.958 52.805,107.632 53.591,107.632 55.950 L 107.632 58.098 106.434 58.278 C 104.980 58.496,104.737 58.966,104.737 61.562 L 104.737 63.354 103.676 63.523 C 102.455 63.719,102.257 64.059,101.967 66.464 C 101.732 68.408,101.631 68.594,100.511 69.153 C 99.968 69.424,99.427 69.985,99.161 70.554 C 98.890 71.132,98.404 71.631,97.915 71.834 C 96.950 72.233,96.583 73.305,96.580 75.724 C 96.579 77.351,96.571 77.368,95.840 77.368 C 94.539 77.368,94.203 77.858,93.863 80.249 C 93.553 82.432,93.540 82.457,92.641 82.760 C 91.480 83.151,91.080 84.070,91.065 86.382 C 91.053 88.145,91.047 88.158,90.322 88.158 C 89.417 88.158,88.421 88.825,88.421 89.430 C 88.421 90.172,87.645 91.053,86.991 91.053 C 86.011 91.053,85.702 91.716,85.578 94.080 L 85.462 96.279 84.507 96.503 C 83.345 96.777,82.932 97.728,82.910 100.182 L 82.895 101.811 81.776 102.031 C 80.431 102.296,80.038 103.120,80.015 105.724 C 80.001 107.307,79.975 107.368,79.330 107.368 C 78.614 107.368,77.368 108.421,77.368 109.026 C 77.368 109.500,76.523 110.263,75.998 110.263 C 75.322 110.263,74.986 110.918,74.694 112.807 C 74.361 114.962,74.096 115.526,73.418 115.526 C 72.667 115.526,72.171 116.476,71.843 118.542 C 71.528 120.518,71.248 121.053,70.526 121.053 C 69.705 121.053,69.410 121.795,69.273 124.212 L 69.138 126.579 68.259 126.579 C 66.699 126.579,66.543 127.141,66.492 132.957 C 66.443 138.594,66.550 139.037,68.172 139.876 C 68.611 140.103,69.081 140.582,69.218 140.940 C 69.354 141.299,69.885 141.839,70.397 142.142 C 71.579 142.839,71.841 143.342,71.846 144.917 C 71.852 147.010,72.027 147.330,73.386 147.725 L 74.605 148.080 74.764 150.382 C 74.935 152.845,75.044 153.032,76.481 153.309 L 77.305 153.468 77.418 155.622 L 77.531 157.777 79.226 159.491 C 80.158 160.434,81.307 161.363,81.780 161.557 C 82.713 161.939,82.811 162.189,82.972 164.583 C 83.077 166.148,83.263 166.451,84.607 167.245 C 84.908 167.423,85.213 168.232,85.494 169.603 C 85.883 171.499,86.007 171.745,86.843 172.288 C 88.425 173.315,88.421 173.307,88.421 175.615 L 88.421 177.789 89.352 178.126 C 89.943 178.339,90.520 178.839,90.935 179.496 C 91.447 180.306,91.845 180.599,92.768 180.846 L 93.947 181.162 93.951 183.015 C 93.956 185.332,94.325 186.111,95.564 186.419 L 96.509 186.655 96.652 188.656 C 96.825 191.085,96.989 191.540,97.759 191.733 C 98.507 191.921,98.896 192.762,99.122 194.679 C 99.265 195.897,99.451 196.321,100.110 196.926 C 100.556 197.337,101.310 198.040,101.786 198.490 L 102.652 199.308 105.734 196.148 C 109.008 192.790,110.015 192.073,113.467 190.639 C 117.173 189.099,120.743 186.257,123.582 182.586 C 124.978 180.781,125.001 181.258,123.388 178.656 C 122.645 177.459,119.284 171.677,115.919 165.806 C 106.219 148.888,104.012 145.094,101.744 141.447 C 96.368 132.801,96.334 132.470,100.187 126.117 C 101.569 123.838,105.839 116.467,109.677 109.737 C 113.515 103.007,117.745 95.664,119.078 93.421 C 120.410 91.178,123.963 85.020,126.971 79.737 C 129.980 74.454,134.185 67.171,136.317 63.553 C 138.448 59.934,141.232 55.138,142.502 52.895 C 143.773 50.651,145.688 47.443,146.759 45.766 L 148.705 42.716 157.182 42.543 C 161.844 42.447,184.850 42.369,208.306 42.369 L 250.954 42.368 251.634 43.092 C 252.506 44.022,255.269 48.184,256.083 49.795 C 256.461 50.544,256.891 51.041,257.165 51.045 C 257.679 51.054,261.723 48.372,264.868 45.936 C 281.532 33.033,280.550 33.870,279.771 33.237 C 279.332 32.880,279.125 32.308,278.933 30.921 C 278.598 28.496,278.580 28.461,277.494 28.007 C 276.456 27.573,276.053 26.811,276.053 25.285 C 276.053 23.719,275.588 22.704,274.733 22.406 C 274.251 22.238,273.780 21.755,273.431 21.072 C 272.914 20.059,272.819 20.000,271.705 20.000 L 270.526 20.000 270.522 17.566 C 270.520 16.227,270.406 14.954,270.269 14.737 C 269.970 14.265,213.229 14.129,160.677 14.475 M279.777 44.150 C 273.013 48.986,265.116 56.579,266.851 56.579 C 268.950 56.579,283.421 44.735,283.421 43.017 C 283.421 42.153,281.916 42.621,279.777 44.150 M284.733 51.812 C 280.001 55.376,271.180 63.134,273.178 61.975 C 275.526 60.614,287.899 50.637,287.925 50.084 C 287.950 49.535,287.267 49.905,284.733 51.812 M284.105 55.433 C 270.904 66.441,267.474 69.919,268.437 71.316 C 269.135 72.328,274.640 81.838,283.745 97.763 C 288.297 105.724,294.009 115.663,296.439 119.851 C 304.266 133.343,304.184 132.631,298.880 140.973 C 295.728 145.931,292.674 151.076,290.398 155.263 C 289.415 157.072,287.398 160.625,285.916 163.158 C 284.435 165.691,279.676 173.980,275.341 181.579 C 254.412 218.268,253.826 219.271,252.404 220.855 L 251.518 221.842 200.121 221.842 L 148.725 221.842 147.849 220.811 C 146.911 219.705,143.698 214.425,139.637 207.314 C 135.806 200.605,135.796 200.591,135.352 201.198 C 135.149 201.476,133.181 205.316,130.978 209.733 C 128.776 214.150,126.875 217.836,126.754 217.924 C 126.633 218.013,126.559 218.131,126.590 218.187 C 126.620 218.244,125.612 220.421,124.349 223.026 C 121.133 229.662,121.033 229.943,121.202 231.908 C 121.474 235.068,121.531 235.226,122.626 235.918 C 123.188 236.272,123.804 236.892,123.995 237.294 C 124.244 237.820,124.694 238.137,125.591 238.421 L 126.839 238.816 126.841 240.937 C 126.842 243.342,127.071 243.807,128.421 244.144 L 129.342 244.373 129.474 246.595 L 129.605 248.816 131.842 248.998 C 135.051 249.260,257.111 249.582,264.276 249.348 L 270.263 249.152 270.263 247.135 C 270.263 244.829,270.619 244.085,271.848 243.814 C 272.423 243.688,272.788 243.356,273.166 242.615 C 273.454 242.051,274.053 241.402,274.497 241.172 C 275.380 240.716,276.053 239.421,276.053 238.179 C 276.053 236.966,276.552 236.124,277.368 235.961 C 278.267 235.781,278.595 234.948,278.842 232.226 C 279.006 230.418,279.067 230.263,279.612 230.263 C 280.819 230.263,281.370 229.461,281.556 227.433 L 281.728 225.558 283.348 224.029 C 284.239 223.188,285.318 222.305,285.746 222.067 C 286.577 221.605,286.697 221.259,286.986 218.486 L 287.157 216.840 288.157 216.680 C 289.321 216.494,289.474 216.084,289.474 213.148 L 289.474 211.362 290.537 211.182 C 291.887 210.954,292.242 210.397,292.617 207.922 C 292.963 205.638,292.961 205.642,293.973 205.118 C 294.482 204.855,294.809 204.443,294.910 203.936 C 295.038 203.299,295.198 203.158,295.793 203.158 C 297.248 203.158,297.709 202.434,297.840 199.937 C 297.957 197.698,297.961 197.689,298.755 197.461 C 300.003 197.103,300.574 196.104,300.723 194.016 L 300.854 192.195 301.937 191.689 C 303.158 191.120,303.355 190.670,303.395 188.353 C 303.416 187.119,303.530 186.752,304.005 186.379 C 304.326 186.127,304.974 185.532,305.444 185.056 C 305.914 184.580,306.709 184.019,307.211 183.810 C 308.446 183.294,308.524 183.113,308.680 180.397 C 308.801 178.290,308.873 178.023,309.342 177.948 C 311.270 177.644,311.547 177.268,311.768 174.666 C 311.902 173.093,311.989 172.868,312.519 172.735 C 313.547 172.477,313.968 171.712,314.332 169.443 C 314.549 168.086,314.817 167.212,315.038 167.142 C 315.234 167.080,315.870 166.517,316.451 165.891 C 317.031 165.265,317.887 164.620,318.353 164.458 C 319.281 164.135,319.733 163.092,319.735 161.267 C 319.738 159.779,320.146 158.947,320.874 158.947 C 321.953 158.947,322.382 158.149,322.581 155.775 L 322.763 153.598 323.648 153.301 C 324.870 152.891,325.198 152.332,325.409 150.304 C 325.613 148.350,325.891 147.632,326.444 147.632 C 326.650 147.632,327.344 147.128,327.988 146.513 C 328.631 145.898,329.495 145.140,329.908 144.828 C 330.614 144.295,330.663 144.130,330.751 142.000 C 330.843 139.752,330.848 139.737,331.540 139.733 C 333.162 139.723,333.375 138.797,333.380 131.711 C 333.384 124.860,333.168 123.961,331.513 123.951 L 330.789 123.947 330.789 121.991 C 330.789 119.505,330.515 118.797,329.367 118.317 C 328.760 118.063,328.272 117.582,327.917 116.886 C 327.469 116.007,327.216 115.810,326.349 115.664 L 325.316 115.489 325.224 113.250 C 325.121 110.741,324.808 110.263,323.271 110.263 L 322.431 110.263 322.320 107.732 C 322.199 104.961,321.928 104.474,320.510 104.474 C 319.813 104.474,319.803 104.448,319.625 102.171 C 319.448 99.916,319.425 99.855,318.544 99.278 C 318.049 98.953,317.402 98.213,317.106 97.633 C 316.810 97.053,316.406 96.579,316.208 96.579 C 315.332 96.579,314.736 95.644,314.375 93.704 C 313.983 91.598,313.565 91.053,312.344 91.053 L 311.631 91.053 311.539 88.663 C 311.436 85.979,311.150 85.526,309.555 85.526 L 308.684 85.526 308.681 84.013 C 308.676 81.318,308.452 80.588,307.435 79.960 C 306.931 79.648,306.353 78.997,306.150 78.513 C 305.861 77.820,305.629 77.631,305.062 77.628 C 303.383 77.620,303.158 77.419,303.158 75.927 C 303.158 73.088,302.912 72.209,302.008 71.810 C 301.154 71.434,301.163 71.457,300.332 67.632 C 300.154 66.813,300.007 66.683,299.013 66.463 L 297.895 66.215 297.895 64.588 C 297.895 61.959,297.681 61.309,296.676 60.890 C 296.115 60.655,295.611 60.156,295.280 59.506 C 294.771 58.508,294.185 58.169,292.961 58.161 C 292.394 58.158,292.368 58.063,292.368 55.943 C 292.368 53.050,292.314 52.941,290.763 52.735 C 289.630 52.584,289.474 52.488,289.474 51.940 C 289.474 50.976,289.359 51.051,284.105 55.433 M263.933 74.934 L 263.026 75.921 264.013 75.014 C 264.932 74.170,265.121 73.947,264.920 73.947 C 264.876 73.947,264.432 74.391,263.933 74.934 M234.460 80.987 L 233.553 81.974 234.539 81.067 C 235.458 80.223,235.647 80.000,235.446 80.000 C 235.402 80.000,234.958 80.444,234.460 80.987 M255.254 83.618 L 253.816 85.132 255.329 83.693 C 256.735 82.357,256.963 82.105,256.767 82.105 C 256.726 82.105,256.045 82.786,255.254 83.618 M248.684 89.919 C 246.917 90.788,236.236 101.553,233.259 105.467 C 231.531 107.739,229.996 108.948,226.299 110.951 C 224.788 111.769,223.457 112.603,223.339 112.804 C 223.222 113.005,223.011 113.098,222.872 113.012 C 222.733 112.926,222.651 112.970,222.691 113.110 C 222.803 113.506,220.245 117.368,219.870 117.368 C 219.688 117.368,219.391 117.191,219.211 116.974 C 218.766 116.438,218.358 116.477,217.518 117.138 L 216.807 117.697 217.417 118.007 C 219.435 119.031,216.507 124.895,213.826 125.197 C 212.058 125.396,212.120 125.571,214.731 127.744 C 223.107 134.715,233.071 138.677,245.526 139.987 C 247.046 140.147,248.615 140.343,249.013 140.423 L 249.737 140.568 249.706 118.508 C 249.689 106.375,249.600 94.906,249.508 93.022 L 249.342 89.596 248.684 89.919 M213.512 120.987 C 211.920 122.543,211.251 123.225,212.025 122.503 C 212.800 121.781,213.607 121.189,213.820 121.187 C 214.330 121.183,215.707 119.870,216.200 118.916 C 216.767 117.821,216.694 117.877,213.512 120.987 M148.026 126.069 C 131.701 126.331,128.421 126.768,128.421 128.682 C 128.421 131.130,129.873 131.961,143.404 137.263 C 146.506 138.479,149.274 139.474,149.554 139.474 C 149.998 139.474,150.019 139.534,149.716 139.934 C 149.524 140.188,149.835 139.969,150.407 139.449 C 151.451 138.499,163.168 128.774,164.555 127.706 C 164.962 127.393,165.533 126.833,165.824 126.463 L 166.354 125.789 163.111 125.834 C 161.328 125.859,154.539 125.964,148.026 126.069 M194.810 144.803 C 194.185 145.610,194.271 146.171,195.435 148.886 C 197.877 154.585,198.048 155.565,196.311 153.912 C 194.562 152.249,193.267 152.560,192.398 154.854 L 191.906 156.156 197.466 158.306 C 200.524 159.489,206.046 161.706,209.737 163.232 C 228.656 171.057,241.802 175.787,245.175 175.982 C 248.988 176.203,249.103 175.968,249.275 167.632 L 249.342 164.342 248.158 164.155 C 247.507 164.052,244.961 163.715,242.500 163.406 C 228.248 161.615,214.878 156.594,202.805 148.499 C 196.717 144.417,195.532 143.869,194.810 144.803 M182.402 148.589 C 179.043 151.277,178.847 150.959,185.545 153.678 C 188.856 155.022,190.710 155.913,190.849 156.228 C 190.974 156.512,191.009 156.126,190.933 155.289 C 190.769 153.469,189.706 151.682,187.148 148.924 C 184.824 146.417,185.092 146.436,182.402 148.589 M188.536 159.803 L 187.763 160.658 188.618 159.885 C 189.089 159.460,189.474 159.075,189.474 159.030 C 189.474 158.826,189.257 159.005,188.536 159.803 M257.566 164.659 C 257.891 164.722,258.424 164.722,258.750 164.659 C 259.076 164.597,258.809 164.545,258.158 164.545 C 257.507 164.545,257.240 164.597,257.566 164.659 M177.171 168.076 C 177.424 168.142,177.839 168.142,178.092 168.076 C 178.345 168.010,178.138 167.956,177.632 167.956 C 177.125 167.956,176.918 168.010,177.171 168.076 M174.798 170.526 C 174.798 171.033,174.852 171.240,174.918 170.987 C 174.984 170.734,174.984 170.319,174.918 170.066 C 174.852 169.813,174.798 170.020,174.798 170.526 " stroke="none" fill="#9e9e9e" fill-rule="evenodd"></path><path id="path2" d="M154.412 42.624 L 148.693 42.763 147.070 45.263 C 146.178 46.638,144.264 49.836,142.817 52.368 C 141.370 54.901,138.444 59.934,136.314 63.553 C 134.184 67.171,129.980 74.454,126.971 79.737 C 123.963 85.020,120.410 91.178,119.078 93.421 C 117.745 95.664,113.515 103.007,109.677 109.737 C 105.839 116.467,101.569 123.838,100.187 126.117 C 96.334 132.470,96.368 132.801,101.744 141.447 C 104.014 145.098,106.479 149.333,115.453 165.000 C 121.726 175.953,124.384 180.440,124.724 180.650 C 124.924 180.774,133.602 170.134,135.757 167.122 C 136.963 165.437,137.308 163.909,137.761 158.240 C 138.505 148.944,137.944 149.992,145.714 143.385 C 150.067 139.683,150.272 139.474,149.538 139.474 C 148.459 139.474,132.813 133.117,130.567 131.767 C 128.097 130.281,127.615 128.220,129.539 127.373 C 131.626 126.455,140.496 126.068,165.633 125.798 L 166.397 125.789 165.896 126.371 C 165.620 126.690,166.342 126.144,167.500 125.158 C 168.658 124.171,170.967 122.223,172.632 120.829 C 197.859 99.693,204.681 93.434,200.654 95.116 C 199.353 95.660,198.337 95.634,197.804 95.045 C 197.149 94.321,197.264 93.717,198.092 93.536 C 199.585 93.210,200.309 92.792,201.270 91.701 C 201.813 91.083,202.904 90.199,203.695 89.735 C 205.352 88.763,206.332 87.986,210.204 84.571 C 213.032 82.078,213.376 81.821,216.678 79.727 L 218.487 78.579 219.493 79.158 C 220.682 79.842,221.316 79.897,221.316 79.317 C 221.316 77.272,247.013 56.778,254.807 52.607 C 256.269 51.825,257.295 51.149,257.088 51.106 C 256.880 51.062,256.428 50.470,256.083 49.790 C 255.263 48.174,252.500 44.015,251.634 43.092 L 250.954 42.368 205.543 42.426 C 180.567 42.458,157.558 42.547,154.412 42.624 M252.676 66.179 C 249.937 67.983,247.210 70.719,247.681 71.190 C 247.967 71.476,254.213 66.923,255.252 65.672 C 255.921 64.865,254.137 65.217,252.676 66.179 M260.921 78.023 C 257.013 81.972,252.632 86.300,251.184 87.642 C 249.737 88.984,248.741 89.946,248.972 89.780 C 249.595 89.331,249.735 94.766,249.736 119.503 L 249.737 140.452 253.487 140.631 C 261.651 141.019,263.534 141.367,264.200 142.611 C 264.762 143.662,266.605 155.766,266.998 160.985 L 267.180 163.416 266.223 163.817 C 265.194 164.247,258.581 164.796,256.741 164.604 C 256.145 164.542,254.237 164.431,252.500 164.358 L 249.342 164.224 249.278 167.573 C 249.117 175.944,248.991 176.203,245.175 175.982 C 241.804 175.787,228.714 171.078,209.737 163.234 C 202.864 160.393,192.504 156.315,192.164 156.317 C 192.059 156.317,191.752 156.856,191.482 157.513 C 190.086 160.907,181.091 167.699,177.418 168.132 C 175.276 168.385,175.000 168.663,175.000 170.561 C 175.000 174.279,178.863 187.673,182.139 195.314 C 183.962 199.565,183.978 199.753,182.697 201.583 C 179.628 205.966,171.311 208.271,168.153 205.613 C 166.975 204.623,165.836 201.978,163.047 193.763 C 159.377 182.953,159.107 182.487,153.986 178.090 C 151.305 175.789,151.222 175.741,150.814 176.255 C 150.583 176.546,149.635 177.714,148.706 178.852 C 145.897 182.294,141.345 189.780,136.807 198.421 L 135.633 200.658 136.339 201.711 C 136.727 202.289,138.193 204.776,139.596 207.237 C 143.663 214.367,146.903 219.697,147.849 220.811 L 148.725 221.842 200.121 221.842 L 251.518 221.842 252.404 220.855 C 253.826 219.271,254.412 218.268,275.341 181.579 C 279.676 173.980,284.435 165.691,285.916 163.158 C 287.398 160.625,289.415 157.072,290.398 155.263 C 292.674 151.076,295.728 145.931,298.880 140.973 C 304.184 132.631,304.266 133.344,296.440 119.851 C 294.010 115.663,287.850 104.954,282.750 96.053 C 272.386 77.963,268.520 71.303,268.225 71.029 C 268.116 70.927,264.829 74.074,260.921 78.023 M238.604 77.626 C 236.442 78.997,231.797 83.684,232.600 83.684 C 233.116 83.684,236.827 81.008,238.643 79.326 C 241.205 76.954,241.183 75.990,238.604 77.626 M231.565 107.303 L 230.658 108.289 231.645 107.383 C 232.563 106.538,232.753 106.316,232.552 106.316 C 232.508 106.316,232.064 106.760,231.565 107.303 M220.854 114.504 L 218.419 116.370 219.054 116.869 C 219.965 117.586,220.112 117.522,221.076 115.987 C 221.554 115.227,222.287 114.161,222.705 113.618 C 223.123 113.076,223.426 112.633,223.377 112.635 C 223.329 112.636,222.194 113.477,220.854 114.504 M216.324 118.664 C 215.921 119.638,214.206 121.370,213.799 121.214 C 213.630 121.149,212.857 121.739,212.082 122.524 L 210.672 123.951 211.454 124.718 C 213.571 126.792,217.384 123.880,218.067 119.667 C 218.344 117.963,216.947 117.160,216.324 118.664 M178.320 152.381 C 175.660 155.254,175.480 156.473,177.406 158.562 C 178.752 160.023,180.292 160.633,182.230 160.472 C 183.867 160.336,184.021 160.477,182.936 161.118 C 181.183 162.153,178.736 161.941,175.659 160.485 C 173.456 159.443,170.542 159.684,170.300 160.928 C 170.196 161.464,175.053 166.302,176.414 167.018 C 179.014 168.385,191.635 158.720,190.742 156.043 C 190.688 155.881,188.338 154.812,185.519 153.668 C 182.701 152.524,180.262 151.406,180.099 151.184 C 179.848 150.841,179.576 151.024,178.320 152.381 " stroke="none" fill="#e0e0e0" fill-rule="evenodd"></path><path id="path3" d="M259.868 78.947 C 258.136 80.684,256.778 82.105,256.850 82.105 C 256.923 82.105,258.399 80.684,260.132 78.947 C 261.864 77.211,263.222 75.789,263.150 75.789 C 263.077 75.789,261.601 77.211,259.868 78.947 M239.196 78.882 L 238.289 79.868 239.276 78.962 C 240.195 78.117,240.384 77.895,240.183 77.895 C 240.139 77.895,239.695 78.339,239.196 78.882 M199.986 97.303 L 199.079 98.289 200.066 97.383 C 200.984 96.538,201.174 96.316,200.973 96.316 C 200.929 96.316,200.485 96.760,199.986 97.303 M238.670 99.145 L 237.763 100.132 238.750 99.225 C 239.669 98.381,239.858 98.158,239.657 98.158 C 239.613 98.158,239.169 98.602,238.670 99.145 M251.382 140.708 C 251.635 140.774,252.049 140.774,252.303 140.708 C 252.556 140.642,252.349 140.587,251.842 140.587 C 251.336 140.587,251.128 140.642,251.382 140.708 M186.184 147.895 C 186.750 148.474,187.271 148.947,187.344 148.947 C 187.416 148.947,187.013 148.474,186.447 147.895 C 185.882 147.316,185.360 146.842,185.288 146.842 C 185.216 146.842,185.619 147.316,186.184 147.895 M178.536 151.908 L 177.763 152.763 178.618 151.990 C 179.089 151.565,179.474 151.180,179.474 151.135 C 179.474 150.932,179.257 151.111,178.536 151.908 M181.382 160.708 C 181.635 160.774,182.049 160.774,182.303 160.708 C 182.556 160.642,182.349 160.587,181.842 160.587 C 181.336 160.587,181.128 160.642,181.382 160.708 M248.487 164.129 C 248.740 164.195,249.155 164.195,249.408 164.129 C 249.661 164.063,249.454 164.008,248.947 164.008 C 248.441 164.008,248.234 164.063,248.487 164.129 M253.095 164.397 C 253.423 164.460,253.896 164.457,254.148 164.391 C 254.399 164.325,254.132 164.274,253.553 164.277 C 252.974 164.280,252.768 164.334,253.095 164.397 M120.789 185.658 C 120.150 186.309,119.686 186.842,119.759 186.842 C 119.831 186.842,120.413 186.309,121.053 185.658 C 121.692 185.007,122.156 184.474,122.083 184.474 C 122.011 184.474,121.429 185.007,120.789 185.658 " stroke="none" fill="#545454" fill-rule="evenodd"></path></g></svg>