<svg id="svg" version="1.1" xmlns="http://www.w3.org/2000/svg" xmlns:xlink="http://www.w3.org/1999/xlink" width="400" height="262.6666666666667" viewBox="0, 0, 400,262.6666666666667"><g id="svgg"><path id="path0" d="M130.092 14.980 C 129.649 15.423,129.566 15.856,129.566 17.740 L 129.566 19.974 128.524 19.974 C 127.153 19.974,126.938 20.415,126.938 23.242 L 126.938 25.493 125.765 25.493 C 124.257 25.493,124.047 25.876,124.047 28.629 L 124.047 30.749 123.028 30.749 C 121.879 30.749,121.497 31.082,121.255 32.295 C 121.079 33.170,120.506 33.640,119.612 33.640 C 118.898 33.640,118.774 33.908,118.508 36.029 C 118.229 38.251,117.939 38.837,117.009 39.065 C 115.987 39.315,115.909 39.541,115.904 42.247 L 115.900 44.678 114.727 44.678 C 113.328 44.678,113.138 44.935,112.883 47.175 C 112.646 49.257,112.516 49.671,112.101 49.671 C 111.496 49.671,110.579 50.598,110.278 51.514 C 110.070 52.144,109.775 52.453,109.247 52.593 C 107.872 52.957,107.753 53.220,107.753 55.880 L 107.753 58.344 106.580 58.344 C 105.072 58.344,104.862 58.727,104.862 61.481 L 104.862 63.601 103.820 63.601 C 102.566 63.601,102.353 63.911,102.115 66.097 C 101.837 68.648,101.776 68.800,100.947 68.982 C 100.055 69.178,99.508 69.739,99.164 70.810 C 98.990 71.351,98.651 71.670,98.020 71.882 C 96.943 72.245,96.777 72.713,96.741 75.493 L 96.715 77.530 95.673 77.530 C 94.363 77.530,94.136 77.915,93.917 80.508 L 93.752 82.461 92.725 82.769 C 91.450 83.151,91.196 83.746,91.196 86.351 L 91.196 88.305 90.177 88.305 C 89.029 88.305,88.709 88.585,88.445 89.818 C 88.254 90.712,87.661 91.196,86.755 91.196 C 85.952 91.196,85.677 91.992,85.677 94.316 L 85.677 96.420 84.697 96.502 C 83.401 96.610,83.057 97.324,83.052 99.919 L 83.049 101.941 81.938 102.022 C 80.495 102.127,80.167 102.760,80.162 105.453 L 80.158 107.490 79.279 107.490 C 78.290 107.490,77.530 108.150,77.530 109.007 C 77.530 109.617,76.625 110.381,75.903 110.381 C 75.253 110.381,74.951 111.096,74.743 113.122 C 74.557 114.938,74.167 115.637,73.338 115.637 C 72.587 115.637,72.257 116.258,71.987 118.182 C 71.636 120.690,71.542 120.895,70.666 121.070 C 69.591 121.286,69.382 121.830,69.382 124.424 L 69.382 126.675 68.363 126.675 C 66.721 126.675,66.634 126.937,66.536 132.195 C 66.429 137.956,66.610 138.808,68.065 139.390 C 68.769 139.671,69.160 140.016,69.268 140.449 C 69.459 141.207,70.096 141.826,70.821 141.959 C 71.581 142.099,72.002 143.153,72.011 144.941 C 72.020 146.805,72.156 147.076,73.196 147.310 C 75.005 147.716,74.901 147.561,74.905 149.886 C 74.910 152.429,74.999 152.613,76.358 152.895 L 77.398 153.110 77.465 154.939 C 77.560 157.537,77.685 157.882,78.721 158.414 C 79.236 158.678,79.843 159.288,80.097 159.798 C 80.437 160.479,80.828 160.797,81.643 161.055 C 82.872 161.444,83.039 161.790,83.045 163.946 C 83.049 165.649,83.314 166.188,84.356 166.620 C 85.187 166.964,85.223 167.046,85.667 169.616 C 85.980 171.423,86.203 171.752,87.378 172.140 C 88.408 172.480,88.559 172.901,88.564 175.453 L 88.568 177.318 89.624 177.734 C 90.397 178.037,90.783 178.393,91.061 179.059 C 91.437 179.959,92.446 180.552,93.600 180.552 C 94.035 180.552,94.087 180.786,94.087 182.736 C 94.087 185.209,94.307 185.666,95.664 186.004 L 96.583 186.234 96.723 188.355 C 96.859 190.436,97.216 191.327,97.911 191.327 C 98.609 191.327,99.008 192.123,99.187 193.870 C 99.397 195.931,99.767 196.632,100.890 197.097 C 101.330 197.279,101.930 197.835,102.223 198.333 C 102.526 198.846,103.155 199.404,103.678 199.622 C 104.185 199.834,104.604 200.094,104.611 200.201 C 104.836 203.980,105.239 204.921,106.736 205.161 L 107.753 205.323 107.753 207.623 C 107.753 210.139,107.846 210.320,109.330 210.701 L 110.250 210.938 110.381 213.122 C 110.498 215.064,110.583 215.353,111.150 215.734 C 111.500 215.970,112.300 216.695,112.929 217.346 C 113.557 217.996,114.453 218.657,114.920 218.813 C 115.767 219.098,115.769 219.103,115.900 221.232 C 116.042 223.531,116.230 223.884,117.554 224.332 C 118.394 224.617,118.397 224.625,118.540 226.796 C 118.695 229.156,119.192 229.961,120.498 229.961 C 121.203 229.961,121.410 230.535,121.416 232.506 C 121.421 234.439,121.745 235.110,122.848 235.474 C 123.472 235.680,123.836 235.989,123.940 236.401 C 124.147 237.225,124.772 237.750,125.887 238.036 L 126.807 238.271 126.882 240.531 C 126.965 243.006,127.133 243.310,128.582 243.604 L 129.435 243.778 129.566 246.002 L 129.698 248.226 131.012 248.404 C 134.830 248.921,255.528 249.199,266.689 248.717 L 270.171 248.566 270.174 246.688 C 270.180 244.025,270.316 243.679,271.484 243.364 C 272.590 243.066,272.880 242.789,273.235 241.686 C 273.408 241.151,273.745 240.843,274.387 240.635 C 275.371 240.317,275.909 239.286,275.938 237.665 C 275.960 236.424,276.396 235.480,276.947 235.480 C 278.061 235.480,278.405 234.854,278.695 232.304 L 278.975 229.849 279.854 229.670 C 281.144 229.407,281.327 229.092,281.472 226.870 C 281.602 224.866,281.609 224.850,282.688 224.057 C 283.285 223.618,283.963 222.949,284.194 222.570 C 284.440 222.169,284.948 221.815,285.413 221.722 C 286.384 221.527,286.598 221.027,286.843 218.378 L 287.027 216.388 288.126 216.144 L 289.225 215.900 289.300 213.366 L 289.374 210.832 290.547 210.656 C 291.965 210.444,292.117 210.199,292.489 207.522 C 292.826 205.101,292.800 205.155,293.822 204.732 C 294.335 204.519,294.673 204.155,294.770 203.712 C 294.853 203.333,294.950 202.905,294.985 202.762 C 295.020 202.619,295.475 202.539,295.997 202.584 C 297.298 202.696,297.766 201.781,297.766 199.122 L 297.766 197.168 298.698 196.993 C 300.051 196.739,300.655 195.627,300.656 193.390 L 300.657 191.642 301.639 191.410 C 302.861 191.121,303.275 190.373,303.285 188.436 C 303.295 186.403,303.475 185.937,304.408 185.518 C 304.859 185.316,305.419 184.800,305.654 184.370 C 305.937 183.851,306.360 183.531,306.915 183.418 C 308.404 183.113,308.541 182.835,308.541 180.131 L 308.541 177.671 309.264 177.525 C 311.474 177.078,311.602 176.888,311.664 173.949 C 311.694 172.531,311.727 172.464,312.472 172.315 C 313.563 172.097,314.062 171.172,314.241 169.037 C 314.417 166.937,314.437 166.896,315.506 166.357 C 315.940 166.139,316.472 165.589,316.689 165.134 C 316.993 164.497,317.300 164.273,318.036 164.154 C 319.192 163.966,319.484 163.353,319.663 160.742 C 319.792 158.863,320.027 158.487,321.076 158.480 C 322.058 158.473,322.470 157.525,322.470 155.274 L 322.470 153.240 323.491 152.965 C 324.826 152.605,325.089 152.245,325.253 150.553 C 325.542 147.575,325.583 147.463,326.475 147.232 C 326.991 147.099,327.464 146.724,327.727 146.242 C 327.959 145.815,328.526 145.275,328.986 145.041 C 330.571 144.236,330.618 144.139,330.618 141.624 L 330.618 139.290 331.675 139.290 C 333.179 139.290,333.246 138.957,333.246 131.503 C 333.246 124.238,333.205 124.047,331.660 124.047 L 330.618 124.047 330.618 121.583 C 330.618 118.951,330.545 118.787,329.191 118.351 C 328.768 118.214,328.343 117.932,328.248 117.724 C 327.362 115.791,327.341 115.771,326.207 115.688 L 325.099 115.607 325.099 113.309 C 325.099 110.654,324.935 110.381,323.338 110.381 L 322.208 110.381 322.208 107.998 C 322.208 105.042,322.002 104.599,320.632 104.599 L 319.600 104.599 319.524 102.311 L 319.448 100.024 318.423 99.328 C 317.817 98.917,317.239 98.235,317.010 97.660 C 316.722 96.938,316.429 96.650,315.873 96.539 C 314.816 96.327,314.633 96.006,314.323 93.824 C 313.994 91.504,313.775 91.196,312.451 91.196 L 311.432 91.196 311.432 88.731 C 311.432 85.960,311.322 85.761,309.721 85.631 L 308.673 85.545 308.541 83.135 C 308.398 80.497,308.426 80.564,307.208 79.938 C 306.643 79.647,306.263 79.193,306.071 78.581 C 305.794 77.700,305.723 77.658,304.411 77.582 L 303.040 77.503 302.966 74.838 L 302.891 72.174 302.026 71.951 C 301.035 71.694,300.812 71.252,300.534 68.988 C 300.265 66.791,300.058 66.491,298.808 66.491 L 297.766 66.491 297.766 64.240 C 297.766 61.632,297.559 61.102,296.454 60.881 C 295.811 60.752,295.547 60.482,295.140 59.532 C 294.643 58.373,294.602 58.344,293.439 58.344 L 292.247 58.344 292.247 56.000 C 292.247 52.901,292.209 52.825,290.651 52.825 L 289.374 52.825 289.300 50.148 L 289.225 47.470 288.360 47.246 C 287.346 46.984,287.131 46.531,286.877 44.119 C 286.704 42.483,286.635 42.341,285.728 41.754 C 285.198 41.411,284.596 40.775,284.391 40.341 C 283.903 39.308,283.657 39.168,282.326 39.163 L 281.209 39.159 281.209 36.908 C 281.209 34.633,280.942 33.640,280.330 33.640 C 279.441 33.640,279.058 32.938,278.828 30.888 C 278.574 28.622,278.455 28.410,277.212 28.003 C 276.289 27.701,276.022 27.124,275.979 25.335 C 275.943 23.858,275.468 22.604,274.941 22.593 C 274.266 22.580,273.679 22.016,273.234 20.950 C 272.848 20.026,272.761 19.974,271.630 19.974 L 270.434 19.974 270.434 17.374 C 270.434 15.245,270.358 14.745,270.018 14.614 C 268.673 14.098,130.613 14.459,130.092 14.980 M251.881 43.298 C 253.289 44.834,255.322 48.225,265.629 66.229 C 268.732 71.649,271.773 76.912,272.387 77.924 C 274.092 80.732,276.025 84.086,280.414 91.853 C 282.620 95.756,285.085 100.072,285.893 101.445 C 286.701 102.819,288.856 106.544,290.683 109.724 C 296.585 119.997,301.875 129.149,302.455 130.092 C 303.749 132.196,302.867 134.446,297.354 143.101 C 296.157 144.980,293.878 148.824,292.289 151.643 C 288.779 157.871,287.114 160.784,284.026 166.097 C 280.285 172.534,278.902 174.958,277.205 178.055 C 276.333 179.645,275.241 181.537,274.779 182.260 C 274.316 182.983,273.190 184.934,272.276 186.597 C 271.361 188.259,268.818 192.694,266.625 196.452 C 264.431 200.210,261.607 205.150,260.349 207.429 C 259.091 209.709,257.236 212.940,256.227 214.611 C 255.218 216.281,254.168 218.089,253.893 218.628 C 253.618 219.166,253.006 219.985,252.534 220.448 L 251.674 221.288 200.101 221.288 L 148.527 221.288 147.753 220.349 C 146.960 219.386,142.329 211.655,138.282 204.536 C 137.030 202.333,135.118 198.971,134.034 197.065 C 132.950 195.159,131.428 192.526,130.651 191.215 C 129.875 189.903,127.995 186.583,126.473 183.837 C 124.952 181.091,123.149 177.957,122.467 176.873 C 121.784 175.788,120.543 173.660,119.708 172.142 C 117.767 168.611,113.558 161.276,108.926 153.351 C 108.166 152.050,106.664 149.448,105.588 147.569 C 104.512 145.690,102.840 142.911,101.872 141.393 C 97.498 134.537,96.515 131.504,97.997 129.441 C 98.715 128.441,103.938 119.652,107.059 114.192 C 107.637 113.180,109.196 110.460,110.522 108.147 C 111.849 105.834,113.562 102.819,114.330 101.445 C 115.098 100.072,116.255 98.062,116.903 96.978 C 120.196 91.461,124.320 84.357,127.583 78.581 C 131.110 72.337,132.157 70.535,138.580 59.658 C 140.244 56.840,142.280 53.292,143.104 51.774 C 143.927 50.256,145.547 47.568,146.703 45.800 L 148.805 42.585 154.626 42.510 C 157.827 42.468,180.816 42.406,205.713 42.373 L 250.978 42.313 251.881 43.298 M246.124 80.390 C 244.828 81.201,243.570 82.700,240.586 86.991 C 239.027 89.231,236.822 92.340,235.685 93.899 C 234.548 95.458,232.976 97.791,232.193 99.083 C 230.171 102.417,226.658 107.620,225.318 109.265 C 224.691 110.035,224.179 110.763,224.179 110.883 C 224.179 111.073,221.452 115.352,220.395 116.820 C 219.878 117.539,219.245 117.138,218.397 115.553 C 218.035 114.877,217.573 114.324,217.369 114.324 C 216.133 114.321,207.884 120.546,207.884 121.481 C 207.884 121.658,208.789 121.709,210.482 121.627 C 213.655 121.474,214.775 120.983,215.900 119.252 C 218.188 115.731,219.055 119.060,216.796 122.695 C 215.187 125.283,217.982 125.062,183.049 125.363 C 133.777 125.788,129.010 126.017,128.383 127.993 C 127.633 130.355,129.354 131.494,140.092 135.741 C 143.626 137.138,149.297 139.388,152.694 140.739 C 156.091 142.090,160.644 143.839,162.812 144.624 C 164.980 145.409,167.641 146.433,168.725 146.899 C 169.809 147.365,172.707 148.491,175.164 149.401 C 177.622 150.312,182.116 152.060,185.151 153.287 C 188.187 154.514,192.148 156.060,193.955 156.722 C 197.952 158.189,203.904 160.543,208.673 162.545 C 214.057 164.805,218.155 166.433,225.230 169.122 C 228.771 170.468,233.802 172.397,236.408 173.408 C 243.998 176.354,248.480 176.686,248.967 174.339 C 249.714 170.736,249.896 85.520,249.164 82.260 C 248.638 79.919,247.749 79.373,246.124 80.390 M200.678 120.122 C 199.199 121.420,199.657 121.945,202.267 121.945 C 203.352 121.945,203.369 121.712,202.386 120.355 L 201.619 119.296 200.678 120.122 " stroke="none" fill="#9b9b9b" fill-rule="evenodd"></path><path id="path1" d="M154.626 42.510 L 148.805 42.585 146.703 45.800 C 145.547 47.568,143.927 50.256,143.104 51.774 C 142.280 53.292,140.244 56.840,138.580 59.658 C 132.157 70.535,131.110 72.337,127.583 78.581 C 124.320 84.357,120.196 91.461,116.903 96.978 C 116.255 98.062,115.098 100.072,114.330 101.445 C 113.562 102.819,111.849 105.834,110.522 108.147 C 109.196 110.460,107.637 113.180,107.059 114.192 C 103.938 119.652,98.715 128.441,97.997 129.441 C 96.515 131.504,97.498 134.537,101.872 141.393 C 102.840 142.911,104.512 145.690,105.588 147.569 C 106.664 149.448,108.166 152.050,108.926 153.351 C 113.558 161.276,117.767 168.611,119.708 172.142 C 120.543 173.660,121.784 175.788,122.467 176.873 C 123.149 177.957,124.952 181.091,126.473 183.837 C 127.995 186.583,129.875 189.903,130.651 191.215 C 131.428 192.526,132.950 195.159,134.034 197.065 C 135.118 198.971,137.030 202.333,138.282 204.536 C 142.329 211.655,146.960 219.386,147.753 220.349 L 148.527 221.288 200.101 221.288 L 251.674 221.288 252.534 220.448 C 253.006 219.985,253.618 219.166,253.893 218.628 C 254.168 218.089,255.218 216.281,256.227 214.611 C 257.236 212.940,259.091 209.709,260.349 207.429 C 261.607 205.150,264.431 200.210,266.625 196.452 C 268.818 192.694,271.361 188.259,272.276 186.597 C 273.190 184.934,274.316 182.983,274.779 182.260 C 275.241 181.537,276.333 179.645,277.205 178.055 C 278.902 174.958,280.285 172.534,284.026 166.097 C 287.114 160.784,288.779 157.871,292.289 151.643 C 293.878 148.824,296.157 144.980,297.354 143.101 C 302.867 134.446,303.749 132.196,302.455 130.092 C 301.875 129.149,296.585 119.997,290.683 109.724 C 288.856 106.544,286.701 102.819,285.893 101.445 C 285.085 100.072,282.620 95.756,280.414 91.853 C 276.025 84.086,274.092 80.732,272.387 77.924 C 271.773 76.912,268.732 71.649,265.629 66.229 C 255.322 48.225,253.289 44.834,251.881 43.298 L 250.978 42.313 205.713 42.373 C 180.816 42.406,157.827 42.468,154.626 42.510 M248.426 80.355 C 249.448 81.493,249.485 82.618,249.600 116.426 C 249.701 146.329,249.419 172.159,248.967 174.339 C 248.480 176.686,243.998 176.354,236.408 173.408 C 233.802 172.397,228.771 170.468,225.230 169.122 C 218.155 166.433,214.057 164.805,208.673 162.545 C 203.904 160.543,197.952 158.189,193.955 156.722 C 192.148 156.060,188.187 154.514,185.151 153.287 C 182.116 152.060,177.622 150.312,175.164 149.401 C 172.707 148.491,169.809 147.365,168.725 146.899 C 167.641 146.433,164.980 145.409,162.812 144.624 C 160.644 143.839,156.091 142.090,152.694 140.739 C 149.297 139.388,143.626 137.138,140.092 135.741 C 129.354 131.494,127.633 130.355,128.383 127.993 C 129.010 126.017,133.777 125.788,183.049 125.363 C 217.982 125.062,215.187 125.283,216.796 122.695 C 219.055 119.060,218.188 115.731,215.900 119.252 C 214.775 120.983,213.655 121.474,210.482 121.627 C 208.789 121.709,207.884 121.658,207.884 121.481 C 207.884 120.546,216.133 114.321,217.369 114.324 C 217.573 114.324,218.035 114.877,218.397 115.553 C 219.245 117.138,219.878 117.539,220.395 116.820 C 221.452 115.352,224.179 111.073,224.179 110.883 C 224.179 110.763,224.691 110.035,225.318 109.265 C 226.658 107.620,230.171 102.417,232.193 99.083 C 232.976 97.791,234.548 95.458,235.685 93.899 C 236.822 92.340,239.027 89.231,240.586 86.991 C 245.076 80.535,247.071 78.846,248.426 80.355 M203.154 121.680 C 203.154 121.977,201.804 122.030,200.558 121.781 C 199.490 121.567,199.521 121.138,200.678 120.122 L 201.619 119.296 202.386 120.355 C 202.808 120.938,203.154 121.534,203.154 121.680 " stroke="none" fill="#e3e3e3" fill-rule="evenodd"></path></g></svg>