<svg id="svg" version="1.1" xmlns="http://www.w3.org/2000/svg" xmlns:xlink="http://www.w3.org/1999/xlink" width="400" height="262.6666666666667" viewBox="0, 0, 400,262.6666666666667"><g id="svgg"><path id="path0" d="M131.012 14.642 C 129.814 14.806,129.566 15.346,129.566 17.790 L 129.566 19.974 128.524 19.974 C 127.153 19.974,126.938 20.415,126.938 23.242 L 126.938 25.493 125.765 25.493 C 124.257 25.493,124.047 25.876,124.047 28.629 L 124.047 30.749 123.049 30.749 C 121.866 30.749,121.419 31.119,121.419 32.097 C 121.419 32.980,120.799 33.640,119.970 33.640 C 119.017 33.640,118.528 34.575,118.528 36.399 C 118.528 38.232,118.041 39.159,117.077 39.159 C 116.161 39.159,115.900 39.882,115.900 42.427 L 115.900 44.678 114.727 44.678 C 113.245 44.678,113.009 45.072,113.009 47.547 L 113.009 49.399 111.761 49.995 C 110.731 50.487,110.498 50.730,110.430 51.380 C 110.336 52.283,109.760 52.825,108.895 52.825 C 108.016 52.825,107.753 53.578,107.753 56.093 L 107.753 58.344 106.580 58.344 C 105.072 58.344,104.862 58.727,104.862 61.481 L 104.862 63.601 103.820 63.601 C 102.471 63.601,102.234 64.050,102.234 66.611 C 102.234 68.543,102.211 68.614,101.511 68.886 C 99.767 69.562,99.474 69.796,99.392 70.573 C 99.298 71.469,98.719 72.011,97.857 72.011 C 96.978 72.011,96.715 72.763,96.715 75.278 L 96.715 77.530 95.673 77.530 C 94.327 77.530,94.087 77.980,94.087 80.503 L 94.087 82.461 92.895 82.761 C 91.435 83.128,91.196 83.634,91.196 86.351 L 91.196 88.305 90.197 88.305 C 88.973 88.305,88.568 88.676,88.568 89.794 C 88.568 90.738,88.018 91.196,86.886 91.196 C 85.945 91.196,85.677 91.888,85.677 94.316 L 85.677 96.420 84.697 96.502 C 83.401 96.610,83.057 97.324,83.052 99.919 L 83.049 101.941 81.938 102.022 C 80.495 102.127,80.167 102.760,80.162 105.453 L 80.158 107.490 79.369 107.490 C 78.412 107.490,77.530 108.305,77.530 109.189 C 77.530 109.878,76.876 110.381,75.979 110.381 C 75.188 110.381,74.901 111.171,74.901 113.358 C 74.901 115.410,74.768 115.637,73.566 115.637 C 72.525 115.637,72.011 116.557,72.011 118.414 C 72.011 120.547,71.718 121.156,70.696 121.156 C 69.628 121.156,69.382 121.767,69.382 124.424 L 69.382 126.675 68.363 126.675 C 66.721 126.675,66.634 126.937,66.536 132.195 C 66.432 137.828,66.639 138.905,67.876 139.170 C 68.939 139.397,69.382 139.746,69.382 140.355 C 69.382 140.915,70.568 141.919,71.229 141.919 C 71.851 141.919,72.011 142.436,72.011 144.454 C 72.011 146.681,72.244 147.071,73.711 147.291 L 74.901 147.470 74.901 149.573 C 74.901 152.154,75.115 152.595,76.475 152.825 L 77.530 153.003 77.530 154.938 C 77.530 157.045,77.899 158.213,78.565 158.213 C 79.289 158.213,80.081 158.946,80.246 159.770 C 80.380 160.440,80.591 160.612,81.660 160.923 L 82.917 161.289 82.994 163.454 C 83.049 165.014,83.159 165.585,83.388 165.498 C 83.563 165.430,87.727 163.660,92.641 161.563 C 105.772 155.961,107.089 155.595,108.206 157.235 C 109.840 159.635,109.533 160.612,106.676 162.111 C 101.990 164.570,103.001 167.421,108.034 165.940 C 110.227 165.294,113.535 163.980,113.535 163.755 C 113.535 163.504,109.363 156.021,108.028 153.876 C 107.488 153.009,106.243 150.880,105.262 149.146 C 104.281 147.411,102.149 143.745,100.524 140.999 C 95.563 132.614,95.350 131.896,97.080 129.382 C 97.570 128.669,98.291 127.454,98.683 126.682 C 99.074 125.909,100.846 122.837,102.621 119.855 C 104.395 116.872,106.115 113.905,106.443 113.261 C 106.771 112.617,107.664 111.062,108.428 109.806 C 109.192 108.550,110.552 106.185,111.451 104.550 C 112.349 102.915,115.097 98.147,117.557 93.955 C 121.737 86.833,130.261 72.059,135.221 63.338 C 136.414 61.242,138.572 57.516,140.018 55.059 C 141.464 52.602,143.373 49.350,144.261 47.832 C 145.148 46.314,146.462 44.274,147.180 43.298 L 148.486 41.524 192.334 41.524 C 216.451 41.524,239.763 41.603,244.140 41.699 L 252.097 41.873 253.213 43.295 C 253.827 44.078,255.788 47.222,257.572 50.283 C 263.211 59.961,268.016 68.263,271.664 74.634 C 273.608 78.028,275.239 80.845,275.288 80.894 C 275.337 80.943,281.006 78.531,287.886 75.532 L 300.394 70.081 300.394 68.699 C 300.394 67.054,299.954 66.491,298.667 66.491 L 297.766 66.491 297.766 64.308 C 297.766 61.839,297.519 61.307,296.172 60.867 C 295.451 60.632,295.230 60.381,294.992 59.527 C 294.709 58.511,294.658 58.473,293.473 58.396 L 292.247 58.315 292.247 55.986 C 292.247 52.900,292.209 52.825,290.642 52.825 L 289.356 52.825 289.356 50.481 C 289.356 47.732,289.236 47.306,288.458 47.306 C 287.313 47.306,286.989 46.771,286.787 44.550 L 286.597 42.453 285.508 41.853 C 284.659 41.386,284.383 41.057,284.253 40.363 C 284.065 39.363,283.724 39.159,282.239 39.159 L 281.209 39.159 281.209 36.834 C 281.209 34.312,280.997 33.878,279.604 33.548 C 278.956 33.395,278.912 33.277,278.774 31.345 C 278.593 28.816,278.439 28.419,277.566 28.226 C 275.971 27.873,276.034 27.967,275.884 25.684 C 275.703 22.946,275.611 22.741,274.437 22.448 C 273.605 22.241,273.430 22.061,273.178 21.156 C 272.897 20.145,272.840 20.102,271.687 20.026 C 270.263 19.932,270.180 19.755,270.174 16.787 L 270.171 14.783 269.350 14.619 C 268.459 14.441,132.310 14.463,131.012 14.642 M295.807 79.519 C 291.911 81.275,288.678 82.850,288.621 83.019 C 288.517 83.333,289.591 85.548,292.205 90.407 C 293.021 91.925,293.890 93.610,294.137 94.151 C 294.666 95.313,295.186 94.920,289.882 97.371 C 287.786 98.339,286.030 99.171,285.980 99.219 C 285.842 99.352,301.598 126.832,302.852 128.647 C 304.881 131.581,304.417 133.724,300.341 140.243 C 297.741 144.400,296.382 146.725,289.217 159.264 C 278.488 178.040,271.744 189.770,269.119 194.218 C 267.711 196.603,265.119 201.131,263.360 204.279 C 261.600 207.428,259.155 211.719,257.927 213.815 C 256.699 215.911,255.258 218.460,254.725 219.479 C 253.168 222.460,255.220 222.297,217.214 222.466 C 200.302 222.541,177.950 222.659,167.543 222.728 L 148.620 222.852 147.281 221.278 C 145.949 219.713,143.880 216.347,138.240 206.570 C 136.614 203.752,135.252 201.408,135.212 201.363 C 135.172 201.318,134.184 201.761,133.016 202.349 C 130.393 203.668,130.971 203.694,125.128 201.993 C 122.438 201.210,118.656 200.133,116.723 199.599 L 113.210 198.629 109.036 200.532 C 104.645 202.533,104.566 202.604,105.116 204.049 C 105.273 204.463,105.646 204.778,106.101 204.879 C 107.846 205.268,107.753 205.124,107.757 207.442 C 107.762 209.983,107.902 210.272,109.237 210.487 L 110.250 210.651 110.381 212.777 C 110.520 215.031,110.757 215.534,111.901 216.008 C 112.295 216.171,112.852 216.737,113.141 217.267 C 113.527 217.975,113.954 218.325,114.756 218.589 L 115.846 218.948 115.939 221.011 C 116.044 223.315,116.430 224.009,117.753 224.273 C 118.519 224.427,118.528 224.449,118.532 226.209 C 118.538 228.713,118.984 229.458,120.696 229.819 C 121.416 229.970,121.419 229.982,121.419 232.181 C 121.419 234.671,121.623 235.049,123.115 235.328 C 123.862 235.469,124.047 235.624,124.047 236.108 C 124.047 236.876,124.773 237.534,125.987 237.870 L 126.938 238.132 126.938 240.240 C 126.938 242.828,127.141 243.245,128.506 243.463 L 129.566 243.633 129.566 245.833 C 129.566 247.888,129.606 248.045,130.158 248.209 C 131.989 248.753,249.509 249.138,264.915 248.651 L 270.039 248.489 270.265 245.973 L 270.490 243.458 271.640 243.150 C 272.707 242.865,272.812 242.757,273.089 241.658 C 273.367 240.551,273.444 240.473,274.260 240.473 C 275.369 240.473,275.437 240.347,275.798 237.618 L 276.098 235.355 277.104 235.191 C 278.400 234.981,278.483 234.817,278.700 232.041 L 278.882 229.714 279.797 229.543 C 281.129 229.293,281.584 228.460,281.372 226.657 C 281.164 224.889,281.396 224.411,282.761 223.796 C 283.541 223.444,283.897 223.085,284.112 222.434 C 284.350 221.711,284.537 221.551,285.139 221.551 C 286.393 221.551,286.571 221.032,286.974 216.229 C 286.983 216.120,287.381 216.032,287.858 216.032 C 289.186 216.032,289.356 215.682,289.356 212.957 L 289.356 210.512 290.276 210.512 C 291.915 210.512,292.234 209.875,292.575 205.929 C 292.627 205.323,292.868 205.039,293.693 204.614 C 294.591 204.151,294.755 203.933,294.824 203.116 C 294.902 202.173,294.915 202.163,295.678 202.451 C 297.036 202.964,297.579 202.104,297.717 199.220 L 297.830 196.846 298.587 196.846 C 300.072 196.846,300.927 194.926,300.583 192.362 C 300.446 191.341,300.456 191.327,301.298 191.327 C 302.706 191.327,303.138 190.588,303.247 187.998 C 303.337 185.866,303.369 185.764,304.036 185.528 C 305.238 185.104,305.515 184.854,305.652 184.072 C 305.769 183.400,305.906 183.302,306.834 183.232 C 308.322 183.120,308.541 182.690,308.541 179.882 L 308.541 177.472 309.921 177.238 L 311.301 177.004 311.432 174.639 L 311.564 172.273 312.477 172.142 C 313.644 171.974,313.960 171.348,314.191 168.740 L 314.369 166.720 315.463 166.212 C 316.313 165.816,316.587 165.527,316.690 164.915 C 316.807 164.223,316.951 164.110,317.866 163.995 C 319.235 163.822,319.571 163.138,319.576 160.512 L 319.580 158.476 320.449 158.476 C 322.012 158.476,322.292 158.040,322.418 155.402 L 322.530 153.050 323.651 152.750 C 324.982 152.394,325.086 152.178,325.286 149.343 C 325.430 147.309,325.476 147.175,326.036 147.175 C 326.883 147.175,327.464 146.910,327.464 146.525 C 327.464 145.907,328.519 144.850,329.309 144.677 C 330.390 144.439,330.618 143.872,330.618 141.410 L 330.618 139.290 331.643 139.290 C 333.144 139.290,333.246 138.785,333.246 131.350 C 333.246 124.250,333.202 124.047,331.660 124.047 L 330.618 124.047 330.618 121.583 C 330.618 118.869,330.531 118.699,329.009 118.425 C 328.165 118.274,328.039 118.147,327.904 117.317 C 327.692 116.010,327.296 115.637,326.118 115.637 L 325.099 115.637 325.099 113.325 C 325.099 110.660,324.934 110.381,323.362 110.381 L 322.257 110.381 322.167 107.743 C 322.066 104.817,321.899 104.521,320.434 104.670 L 319.580 104.756 319.580 102.689 C 319.580 100.277,319.356 99.739,318.140 99.231 C 317.439 98.938,317.209 98.661,317.075 97.949 C 316.902 97.024,316.414 96.632,315.084 96.346 C 314.431 96.205,314.392 96.100,314.254 94.082 C 314.084 91.602,313.830 91.196,312.451 91.196 L 311.432 91.196 311.432 88.752 C 311.432 85.937,311.283 85.677,309.671 85.677 L 308.541 85.677 308.541 83.333 C 308.541 80.512,308.429 80.159,307.528 80.154 C 306.554 80.148,306.271 79.898,306.045 78.844 C 305.802 77.712,305.552 77.539,304.157 77.534 C 303.211 77.530,303.046 77.445,302.974 76.927 C 302.895 76.352,302.579 76.466,295.807 79.519 M245.702 82.072 C 245.211 82.402,244.426 83.201,243.958 83.846 C 242.708 85.570,233.377 99.141,233.377 99.236 C 233.377 99.335,233.587 99.246,241.656 95.709 L 248.226 92.830 248.184 87.535 C 248.134 81.125,247.895 80.598,245.702 82.072 M242.970 119.408 C 235.269 123.376,231.613 125.831,225.915 130.855 C 220.913 135.265,219.956 135.989,213.535 140.218 C 206.732 144.698,201.230 148.112,195.335 151.511 C 193.131 152.782,191.327 153.907,191.327 154.011 C 191.327 154.116,192.362 154.590,193.627 155.066 C 196.028 155.969,211.634 162.218,215.506 163.827 C 237.687 173.041,246.105 175.821,247.525 174.401 C 248.243 173.683,249.172 116.679,248.466 116.694 C 248.334 116.696,245.861 117.918,242.970 119.408 M149.007 127.190 L 144.138 127.332 142.437 128.538 C 141.501 129.201,139.572 130.434,138.150 131.278 L 135.565 132.813 137.493 133.587 C 145.646 136.860,148.189 137.664,148.677 137.124 C 148.935 136.838,150.065 136.141,151.188 135.576 C 153.275 134.526,155.322 132.919,155.322 132.331 C 155.322 131.587,156.814 130.617,159.754 129.449 C 161.467 128.769,163.329 127.929,163.892 127.583 L 164.915 126.955 159.396 127.001 C 156.360 127.026,151.685 127.111,149.007 127.190 M96.846 166.877 C 92.296 168.083,86.465 170.740,86.465 171.608 C 86.465 171.728,86.909 171.931,87.451 172.058 C 88.320 172.263,88.446 172.394,88.521 173.168 L 88.606 174.045 90.158 173.870 C 94.802 173.344,101.880 169.457,101.332 167.732 C 100.862 166.251,99.899 166.068,96.846 166.877 " stroke="none" fill="#d45404" fill-rule="evenodd"></path><path id="path1" d="M147.180 43.298 C 146.462 44.274,145.148 46.314,144.261 47.832 C 143.373 49.350,141.464 52.602,140.018 55.059 C 138.572 57.516,136.414 61.242,135.221 63.338 C 130.261 72.059,121.737 86.833,117.557 93.955 C 115.097 98.147,112.349 102.915,111.451 104.550 C 110.552 106.185,109.192 108.550,108.428 109.806 C 107.664 111.062,106.771 112.617,106.443 113.261 C 106.115 113.905,104.395 116.872,102.621 119.855 C 100.846 122.837,99.074 125.909,98.683 126.682 C 98.291 127.454,97.570 128.669,97.080 129.382 C 95.350 131.896,95.563 132.614,100.524 140.999 C 102.149 143.745,104.281 147.411,105.262 149.146 C 106.243 150.880,107.488 153.009,108.028 153.876 C 111.235 159.028,113.788 163.995,113.228 163.995 C 113.060 163.995,112.989 164.062,113.071 164.144 C 113.153 164.226,113.793 164.003,114.494 163.648 C 115.195 163.294,119.021 161.579,122.996 159.838 C 126.971 158.097,134.469 154.792,139.657 152.495 L 149.092 148.317 149.046 145.972 C 149.021 144.682,148.861 142.681,148.692 141.524 C 148.522 140.368,148.377 138.998,148.370 138.480 C 148.363 137.962,148.239 137.535,148.095 137.530 C 147.813 137.521,139.637 134.475,137.117 133.440 C 136.283 133.098,135.692 132.721,135.803 132.602 C 135.914 132.484,135.526 132.685,134.940 133.050 C 133.260 134.095,130.089 135.640,129.883 135.513 C 129.416 135.225,125.311 126.408,125.176 125.404 C 124.870 123.122,131.072 119.646,139.553 117.346 C 150.716 114.318,171.224 104.274,171.728 101.587 C 172.202 99.065,177.038 97.043,179.353 98.400 C 183.356 100.746,199.507 93.539,209.330 85.024 C 213.367 81.524,219.091 78.643,223.403 77.940 C 225.716 77.564,231.930 89.024,231.034 92.014 C 229.983 95.523,222.918 98.845,215.420 99.355 C 210.442 99.694,204.235 100.749,202.797 101.501 C 202.122 101.855,202.323 102.666,204.027 106.452 L 205.428 109.566 208.956 108.125 C 213.577 106.238,215.945 105.515,216.366 105.863 C 217.060 106.438,218.364 105.992,226.452 102.415 C 229.220 101.191,231.910 100.049,232.431 99.877 C 232.951 99.706,233.377 99.449,233.377 99.307 C 233.377 99.165,233.514 99.134,233.681 99.237 C 233.871 99.354,233.913 99.309,233.792 99.114 C 233.678 98.930,235.241 96.438,237.650 92.963 C 239.877 89.751,242.302 86.223,243.039 85.124 C 245.058 82.113,246.820 80.873,247.753 81.806 C 248.085 82.138,248.161 83.142,248.191 87.584 L 248.226 92.960 248.883 92.684 C 249.244 92.532,249.658 92.324,249.803 92.222 C 249.996 92.086,271.641 82.644,274.938 81.259 C 275.391 81.068,274.544 79.521,264.624 62.418 C 255.826 47.248,254.275 44.648,253.213 43.295 L 252.097 41.873 244.140 41.699 C 239.763 41.603,216.451 41.524,192.334 41.524 L 148.486 41.524 147.180 43.298 M289.882 86.465 C 290.177 87.043,290.477 87.516,290.549 87.516 C 290.622 87.516,290.440 87.043,290.145 86.465 C 289.850 85.887,289.549 85.414,289.477 85.414 C 289.405 85.414,289.587 85.887,289.882 86.465 M284.766 99.668 C 284.200 99.958,278.171 102.769,271.369 105.915 C 264.567 109.061,256.991 112.572,254.534 113.719 C 252.076 114.865,249.711 115.946,249.277 116.120 L 248.489 116.437 248.433 140.413 C 248.353 174.450,248.340 174.646,246.062 174.952 C 244.403 175.174,231.601 170.513,215.506 163.827 C 211.625 162.214,196.025 155.968,193.614 155.061 C 192.065 154.479,191.344 154.079,191.431 153.853 C 191.503 153.667,191.006 153.859,190.327 154.280 C 188.444 155.448,183.704 157.835,182.523 158.210 C 181.067 158.673,180.898 158.851,180.261 160.598 C 178.422 165.640,165.135 171.260,161.289 168.621 C 160.741 168.245,160.238 167.937,160.172 167.937 C 159.841 167.937,160.196 170.022,161.669 176.741 C 163.748 186.220,163.927 188.705,162.710 191.177 C 160.384 195.902,155.302 198.203,146.124 198.689 C 141.361 198.941,139.871 199.221,136.858 200.426 L 135.083 201.136 135.642 202.079 C 135.949 202.598,137.975 206.097,140.143 209.855 C 144.351 217.151,146.360 220.317,147.753 221.846 L 148.620 222.799 198.160 222.578 C 257.417 222.313,253.122 222.548,254.725 219.479 C 255.258 218.460,256.699 215.911,257.927 213.815 C 259.155 211.719,261.600 207.428,263.360 204.279 C 265.119 201.131,267.711 196.603,269.119 194.218 C 271.744 189.770,278.488 178.040,289.217 159.264 C 296.382 146.725,297.741 144.400,300.341 140.243 C 304.135 134.175,304.867 131.398,303.238 129.260 C 302.651 128.490,299.281 122.675,286.869 101.015 L 285.795 99.140 284.766 99.668 M189.882 106.738 C 178.958 111.473,173.622 113.850,171.253 115.035 L 168.919 116.203 169.061 117.582 C 169.364 120.516,171.385 123.891,172.624 123.532 C 174.792 122.903,190.005 116.528,196.516 113.520 C 199.353 112.209,199.382 111.480,196.810 106.001 L 195.926 104.119 189.882 106.738 M158.510 120.238 C 154.781 121.856,144.547 126.862,144.547 127.068 C 144.547 127.435,165.166 126.928,165.424 126.554 C 165.905 125.858,162.542 119.282,161.624 119.123 C 161.410 119.086,160.009 119.588,158.510 120.238 M225.608 130.946 L 224.836 131.800 225.690 131.028 C 226.160 130.604,226.544 130.219,226.544 130.174 C 226.544 129.971,226.327 130.150,225.608 130.946 M223.242 133.049 L 222.470 133.903 223.325 133.131 C 223.794 132.706,224.179 132.322,224.179 132.277 C 224.179 132.074,223.962 132.252,223.242 133.049 M154.386 133.574 L 153.614 134.428 154.468 133.656 C 154.938 133.232,155.322 132.848,155.322 132.802 C 155.322 132.599,155.105 132.778,154.386 133.574 M171.748 154.099 C 167.321 155.245,165.983 158.691,168.874 161.501 C 170.268 162.856,170.286 162.943,169.181 162.943 C 168.231 162.943,166.924 162.158,164.952 160.402 C 162.671 158.370,161.226 158.502,160.922 160.772 C 160.534 163.664,162.971 166.360,165.973 166.360 C 167.375 166.360,175.201 162.941,176.871 161.599 C 181.474 157.900,177.806 152.530,171.748 154.099 M105.062 166.546 C 105.389 166.609,105.862 166.606,106.113 166.541 C 106.365 166.475,106.097 166.423,105.519 166.426 C 104.941 166.429,104.735 166.483,105.062 166.546 M136.299 167.441 C 129.844 168.956,126.649 176.708,130.364 181.837 C 134.381 187.382,148.526 178.460,146.505 171.656 C 145.497 168.262,140.896 166.362,136.299 167.441 M100.509 169.317 L 99.737 170.171 100.591 169.399 C 101.388 168.679,101.566 168.463,101.363 168.463 C 101.318 168.463,100.934 168.847,100.509 169.317 M89.290 169.401 C 88.271 169.954,88.387 170.145,89.422 169.619 C 90.412 169.115,90.588 168.984,90.254 168.999 C 90.122 169.004,89.688 169.186,89.290 169.401 M97.700 171.241 C 96.718 171.774,96.778 171.996,97.766 171.485 C 98.200 171.261,98.555 171.021,98.555 170.953 C 98.555 170.783,98.526 170.793,97.700 171.241 " stroke="none" fill="#fbb27b" fill-rule="evenodd"></path><path id="path2" d="M372.668 38.675 C 368.901 40.025,300.915 69.560,300.635 69.969 C 300.478 70.197,277.631 80.246,274.770 81.345 C 272.944 82.046,250.971 91.636,249.014 92.586 C 247.679 93.234,232.920 99.657,221.419 104.595 C 218.342 105.916,216.789 106.303,216.346 105.860 C 215.988 105.501,213.550 106.249,208.956 108.125 L 205.428 109.566 204.027 106.452 C 202.323 102.666,202.122 101.855,202.797 101.501 C 204.235 100.749,210.442 99.694,215.420 99.355 C 222.918 98.845,229.983 95.523,231.034 92.014 C 231.930 89.024,225.716 77.564,223.403 77.940 C 219.091 78.643,213.367 81.524,209.330 85.024 C 199.507 93.539,183.356 100.746,179.353 98.400 C 177.038 97.043,172.202 99.065,171.728 101.587 C 171.224 104.274,150.716 114.318,139.553 117.346 C 131.072 119.646,124.870 123.122,125.176 125.404 C 125.311 126.408,129.417 135.225,129.884 135.513 C 130.307 135.775,138.122 131.323,142.576 128.282 C 145.964 125.969,160.947 118.837,161.761 119.149 C 162.618 119.478,165.784 125.744,165.486 126.520 C 165.269 127.086,163.348 128.127,160.016 129.486 C 156.552 130.898,155.647 131.461,155.426 132.341 C 155.192 133.273,153.818 134.361,151.106 135.762 C 148.227 137.249,148.024 137.567,148.482 139.869 C 148.663 140.780,148.887 143.049,148.979 144.913 L 149.146 148.301 148.095 148.757 C 145.931 149.695,119.612 161.336,117.214 162.416 C 107.352 166.857,104.241 167.525,103.766 165.306 C 103.499 164.058,104.086 163.309,106.202 162.199 C 109.239 160.605,109.618 159.855,108.417 157.807 C 107.133 155.616,106.437 155.796,91.616 162.144 C 87.214 164.029,83.455 165.572,83.261 165.572 C 82.744 165.572,68.587 171.853,63.944 174.143 C 57.617 177.264,56.704 178.363,57.816 181.527 C 58.590 183.728,58.687 183.662,47.438 188.577 C 41.094 191.349,41.685 190.812,42.062 193.462 C 42.758 198.355,45.274 204.498,55.447 226.150 C 57.212 229.908,59.077 233.899,59.590 235.020 C 60.103 236.140,60.627 237.057,60.756 237.057 C 61.215 237.057,84.026 225.289,86.954 223.541 C 93.301 219.753,93.925 218.313,91.450 213.165 C 89.586 209.288,89.122 209.786,98.706 205.376 C 102.007 203.856,104.773 202.523,104.851 202.414 C 104.929 202.304,106.845 201.373,109.108 200.344 L 113.222 198.473 115.415 199.092 C 116.621 199.432,120.524 200.542,124.087 201.559 L 130.565 203.406 134.074 201.721 C 138.947 199.380,140.550 198.976,146.124 198.685 C 155.294 198.208,160.382 195.904,162.710 191.177 C 163.927 188.705,163.748 186.220,161.669 176.741 C 160.196 170.022,159.841 167.937,160.172 167.937 C 160.238 167.937,160.741 168.245,161.289 168.621 C 165.135 171.260,178.422 165.640,180.261 160.598 C 180.898 158.851,181.067 158.673,182.523 158.210 C 183.724 157.829,188.446 155.510,189.465 154.801 C 189.839 154.541,192.451 152.995,195.269 151.367 C 209.505 143.141,218.999 136.763,225.361 131.151 C 233.047 124.372,238.625 121.029,254.271 113.822 C 260.520 110.943,283.512 100.259,289.093 97.640 C 291.767 96.385,294.061 95.256,294.189 95.132 C 294.324 95.002,293.231 92.671,291.610 89.632 C 290.063 86.731,288.737 83.974,288.664 83.506 L 288.531 82.654 295.528 79.501 C 299.377 77.766,302.726 76.332,302.971 76.313 C 303.216 76.295,310.039 73.355,318.134 69.780 C 326.229 66.205,338.647 60.738,345.729 57.632 C 372.944 45.697,377.318 43.660,378.573 42.332 L 379.354 41.505 378.874 40.135 C 377.953 37.511,376.724 37.222,372.668 38.675 M198.190 109.305 C 199.143 112.035,199.011 112.367,196.516 113.520 C 190.005 116.528,174.792 122.903,172.624 123.532 C 171.385 123.891,169.364 120.516,169.061 117.582 L 168.919 116.203 171.253 115.035 C 173.622 113.850,178.958 111.473,189.882 106.738 L 195.926 104.119 196.810 106.001 C 197.296 107.037,197.917 108.524,198.190 109.305 M176.942 154.495 C 179.563 156.115,179.529 159.463,176.871 161.599 C 175.201 162.941,167.375 166.360,165.973 166.360 C 162.971 166.360,160.534 163.664,160.922 160.772 C 161.226 158.502,162.671 158.370,164.952 160.402 C 166.924 162.158,168.231 162.943,169.181 162.943 C 170.286 162.943,170.268 162.856,168.874 161.501 C 166.670 159.359,167.014 156.234,169.603 154.875 C 171.879 153.681,175.335 153.502,176.942 154.495 M100.965 166.795 C 104.088 169.622,90.679 175.852,86.859 173.349 C 85.062 172.171,86.694 170.440,91.384 168.549 C 96.388 166.531,99.952 165.879,100.965 166.795 M142.317 167.714 C 148.753 169.827,148.064 176.439,140.922 181.109 C 134.877 185.062,130.623 184.398,129.131 179.268 C 126.970 171.832,134.571 165.172,142.317 167.714 M83.378 174.541 C 84.937 176.636,81.235 179.432,78.706 178.070 C 77.450 177.394,76.831 175.721,77.601 175.083 C 79.229 173.732,82.545 173.421,83.378 174.541 M72.089 178.729 C 75.541 179.688,72.115 183.204,66.605 184.357 C 62.317 185.254,60.950 183.096,64.485 181.010 C 67.660 179.136,70.493 178.286,72.089 178.729 " stroke="none" fill="#000101" fill-rule="evenodd"></path></g></svg>