<svg id="svg" version="1.1" xmlns="http://www.w3.org/2000/svg" xmlns:xlink="http://www.w3.org/1999/xlink" width="400" height="262.6666666666667" viewBox="0, 0, 400,262.6666666666667"><g id="svgg"><path id="path0" d="M130.092 14.980 C 129.649 15.423,129.566 15.856,129.566 17.740 L 129.566 19.974 128.524 19.974 C 127.153 19.974,126.938 20.415,126.938 23.242 L 126.938 25.493 125.765 25.493 C 124.257 25.493,124.047 25.876,124.047 28.629 L 124.047 30.749 123.028 30.749 C 121.879 30.749,121.497 31.082,121.255 32.295 C 121.079 33.170,120.506 33.640,119.612 33.640 C 118.898 33.640,118.774 33.908,118.508 36.029 C 118.229 38.251,117.939 38.837,117.009 39.065 C 115.987 39.315,115.909 39.541,115.904 42.247 L 115.900 44.678 114.727 44.678 C 113.328 44.678,113.138 44.935,112.883 47.175 C 112.646 49.257,112.516 49.671,112.101 49.671 C 111.496 49.671,110.579 50.598,110.278 51.514 C 110.070 52.144,109.775 52.453,109.247 52.593 C 107.872 52.957,107.753 53.220,107.753 55.880 L 107.753 58.344 106.580 58.344 C 105.072 58.344,104.862 58.727,104.862 61.481 L 104.862 63.601 103.820 63.601 C 102.566 63.601,102.353 63.911,102.115 66.097 C 101.837 68.648,101.776 68.800,100.947 68.982 C 100.055 69.178,99.508 69.739,99.164 70.810 C 98.990 71.351,98.651 71.670,98.020 71.882 C 96.943 72.245,96.777 72.713,96.741 75.493 L 96.715 77.530 95.673 77.530 C 94.363 77.530,94.136 77.915,93.917 80.508 L 93.752 82.461 92.725 82.769 C 91.450 83.151,91.196 83.746,91.196 86.351 L 91.196 88.305 90.177 88.305 C 89.029 88.305,88.709 88.585,88.445 89.818 C 88.254 90.712,87.661 91.196,86.755 91.196 C 85.952 91.196,85.677 91.992,85.677 94.316 L 85.677 96.420 84.697 96.502 C 83.401 96.610,83.057 97.324,83.052 99.919 L 83.049 101.941 81.938 102.022 C 80.495 102.127,80.167 102.760,80.162 105.453 L 80.158 107.490 79.279 107.490 C 78.290 107.490,77.530 108.150,77.530 109.007 C 77.530 109.617,76.625 110.381,75.903 110.381 C 75.253 110.381,74.951 111.096,74.743 113.122 C 74.557 114.938,74.167 115.637,73.338 115.637 C 72.587 115.637,72.257 116.258,71.987 118.182 C 71.636 120.690,71.542 120.895,70.666 121.070 C 69.591 121.286,69.382 121.830,69.382 124.424 L 69.382 126.675 68.363 126.675 C 66.721 126.675,66.634 126.937,66.536 132.195 C 66.429 137.956,66.610 138.808,68.065 139.390 C 68.769 139.671,69.160 140.016,69.268 140.449 C 69.459 141.207,70.096 141.826,70.821 141.959 C 71.581 142.099,72.002 143.153,72.011 144.941 C 72.020 146.805,72.156 147.076,73.196 147.310 C 75.005 147.716,74.901 147.561,74.905 149.886 C 74.910 152.429,74.999 152.613,76.358 152.895 L 77.398 153.110 77.465 154.939 C 77.562 157.594,77.673 157.879,78.848 158.478 C 79.424 158.772,79.895 159.192,79.895 159.413 C 79.895 160.079,81.123 161.104,81.920 161.103 C 82.324 161.102,85.788 159.733,89.619 158.060 C 97.544 154.600,103.480 152.187,105.782 151.490 C 106.649 151.228,107.401 150.984,107.452 150.950 C 107.602 150.848,104.965 146.287,102.534 142.444 C 97.411 134.345,96.515 131.723,98.091 129.435 C 98.588 128.712,99.949 126.465,101.115 124.442 C 102.280 122.418,104.398 118.783,105.822 116.365 C 108.912 111.113,111.742 106.183,113.021 103.822 C 114.145 101.747,115.364 99.650,119.063 93.430 C 120.610 90.828,124.092 84.796,126.800 80.026 C 131.689 71.414,133.557 68.189,137.455 61.629 C 140.580 56.371,142.282 53.407,143.436 51.213 C 144.251 49.662,147.733 44.148,148.774 42.757 C 148.862 42.640,171.839 42.474,199.834 42.389 L 250.735 42.233 251.414 42.864 C 252.359 43.742,254.083 46.237,255.573 48.883 C 256.266 50.112,257.981 53.068,259.386 55.453 C 262.319 60.435,263.072 61.741,267.262 69.120 C 272.050 77.552,272.050 77.552,272.662 77.359 C 272.954 77.267,278.693 74.794,285.414 71.865 L 297.635 66.539 297.711 64.283 C 297.798 61.697,297.580 61.106,296.454 60.881 C 295.811 60.752,295.547 60.482,295.140 59.532 C 294.643 58.373,294.602 58.344,293.439 58.344 L 292.247 58.344 292.247 56.000 C 292.247 52.901,292.209 52.825,290.651 52.825 L 289.374 52.825 289.300 50.148 L 289.225 47.470 288.360 47.246 C 287.346 46.984,287.131 46.531,286.877 44.119 C 286.704 42.483,286.635 42.341,285.728 41.754 C 285.198 41.411,284.596 40.775,284.391 40.341 C 283.903 39.308,283.657 39.168,282.326 39.163 L 281.209 39.159 281.209 36.908 C 281.209 34.633,280.942 33.640,280.330 33.640 C 279.441 33.640,279.058 32.938,278.828 30.888 C 278.574 28.622,278.455 28.410,277.212 28.003 C 276.289 27.701,276.022 27.124,275.979 25.335 C 275.943 23.858,275.468 22.604,274.941 22.593 C 274.266 22.580,273.679 22.016,273.234 20.950 C 272.848 20.026,272.761 19.974,271.630 19.974 L 270.434 19.974 270.434 17.374 C 270.434 15.245,270.358 14.745,270.018 14.614 C 268.673 14.098,130.613 14.459,130.092 14.980 M296.066 74.651 C 292.891 76.095,290.198 77.371,290.081 77.488 C 289.780 77.789,290.375 79.102,293.353 84.709 C 294.797 87.428,295.930 89.703,295.870 89.763 C 295.810 89.823,292.930 91.184,289.471 92.787 C 286.011 94.391,283.098 95.783,282.998 95.880 C 282.792 96.082,283.872 98.051,289.796 108.279 C 304.357 133.419,303.121 131.135,302.955 132.609 C 302.816 133.842,300.185 138.726,297.262 143.179 C 295.792 145.417,291.338 153.106,289.313 156.899 C 288.812 157.838,288.040 159.198,287.598 159.921 C 286.876 161.101,284.481 165.229,280.355 172.405 C 279.565 173.778,278.233 176.143,277.394 177.661 C 276.555 179.179,275.423 181.142,274.880 182.024 C 274.337 182.905,272.773 185.625,271.405 188.068 C 270.037 190.511,267.769 194.461,266.366 196.846 C 264.962 199.231,262.626 203.311,261.175 205.913 C 259.724 208.515,257.626 212.181,256.513 214.060 C 255.400 215.940,254.185 218.009,253.814 218.660 C 253.442 219.310,252.822 220.138,252.435 220.499 L 251.732 221.156 200.121 221.225 L 148.510 221.293 147.484 219.911 C 146.297 218.311,138.909 205.770,135.735 199.967 L 134.208 197.175 132.988 197.682 L 131.768 198.189 123.455 195.809 C 113.458 192.947,115.485 192.907,108.382 196.111 C 102.484 198.771,102.443 198.795,103.022 199.265 C 103.344 199.524,103.764 199.737,103.956 199.737 C 104.483 199.737,104.604 200.074,104.846 202.233 C 105.105 204.545,105.360 204.941,106.736 205.161 L 107.753 205.323 107.753 207.623 C 107.753 210.139,107.846 210.320,109.330 210.701 L 110.250 210.938 110.381 213.122 C 110.498 215.064,110.583 215.353,111.150 215.734 C 111.500 215.970,112.300 216.695,112.929 217.346 C 113.557 217.996,114.453 218.657,114.920 218.813 C 115.767 219.098,115.769 219.103,115.900 221.232 C 116.042 223.531,116.230 223.884,117.554 224.332 C 118.394 224.617,118.397 224.625,118.540 226.796 C 118.695 229.156,119.192 229.961,120.498 229.961 C 121.203 229.961,121.410 230.535,121.416 232.506 C 121.421 234.439,121.745 235.110,122.848 235.474 C 123.472 235.680,123.836 235.989,123.940 236.401 C 124.147 237.225,124.772 237.750,125.887 238.036 L 126.807 238.271 126.882 240.531 C 126.965 243.006,127.133 243.310,128.582 243.604 L 129.435 243.778 129.566 246.002 L 129.698 248.226 131.012 248.404 C 134.830 248.921,255.528 249.199,266.689 248.717 L 270.171 248.566 270.174 246.688 C 270.180 244.025,270.316 243.679,271.484 243.364 C 272.590 243.066,272.880 242.789,273.235 241.686 C 273.408 241.151,273.745 240.843,274.387 240.635 C 275.371 240.317,275.909 239.286,275.938 237.665 C 275.960 236.424,276.396 235.480,276.947 235.480 C 278.061 235.480,278.405 234.854,278.695 232.304 L 278.975 229.849 279.854 229.670 C 281.144 229.407,281.327 229.092,281.472 226.870 C 281.602 224.866,281.609 224.850,282.688 224.057 C 283.285 223.618,283.963 222.949,284.194 222.570 C 284.440 222.169,284.948 221.815,285.413 221.722 C 286.384 221.527,286.598 221.027,286.843 218.378 L 287.027 216.388 288.126 216.144 L 289.225 215.900 289.300 213.366 L 289.374 210.832 290.547 210.656 C 291.965 210.444,292.117 210.199,292.489 207.522 C 292.826 205.101,292.800 205.155,293.822 204.732 C 294.335 204.519,294.673 204.155,294.770 203.712 C 294.853 203.333,294.950 202.905,294.985 202.762 C 295.020 202.619,295.475 202.539,295.997 202.584 C 297.298 202.696,297.766 201.781,297.766 199.122 L 297.766 197.168 298.698 196.993 C 300.051 196.739,300.655 195.627,300.656 193.390 L 300.657 191.642 301.639 191.410 C 302.861 191.121,303.275 190.373,303.285 188.436 C 303.295 186.403,303.475 185.937,304.408 185.518 C 304.859 185.316,305.419 184.800,305.654 184.370 C 305.937 183.851,306.360 183.531,306.915 183.418 C 308.404 183.113,308.541 182.835,308.541 180.131 L 308.541 177.671 309.264 177.525 C 311.474 177.078,311.602 176.888,311.664 173.949 C 311.694 172.531,311.727 172.464,312.472 172.315 C 313.563 172.097,314.062 171.172,314.241 169.037 C 314.417 166.937,314.437 166.896,315.506 166.357 C 315.940 166.139,316.472 165.589,316.689 165.134 C 316.993 164.497,317.300 164.273,318.036 164.154 C 319.192 163.966,319.484 163.353,319.663 160.742 C 319.792 158.863,320.027 158.487,321.076 158.480 C 322.058 158.473,322.470 157.525,322.470 155.274 L 322.470 153.240 323.491 152.965 C 324.826 152.605,325.089 152.245,325.253 150.553 C 325.542 147.575,325.583 147.463,326.475 147.232 C 326.991 147.099,327.464 146.724,327.727 146.242 C 327.959 145.815,328.526 145.275,328.986 145.041 C 330.571 144.236,330.618 144.139,330.618 141.624 L 330.618 139.290 331.675 139.290 C 333.179 139.290,333.246 138.957,333.246 131.503 C 333.246 124.238,333.205 124.047,331.660 124.047 L 330.618 124.047 330.618 121.583 C 330.618 118.951,330.545 118.787,329.191 118.351 C 328.768 118.214,328.343 117.932,328.248 117.724 C 327.362 115.791,327.341 115.771,326.207 115.688 L 325.099 115.607 325.099 113.309 C 325.099 110.654,324.935 110.381,323.338 110.381 L 322.208 110.381 322.208 107.998 C 322.208 105.042,322.002 104.599,320.632 104.599 L 319.600 104.599 319.524 102.311 L 319.448 100.024 318.423 99.328 C 317.817 98.917,317.239 98.235,317.010 97.660 C 316.722 96.938,316.429 96.650,315.873 96.539 C 314.816 96.327,314.633 96.006,314.323 93.824 C 313.994 91.504,313.775 91.196,312.451 91.196 L 311.432 91.196 311.432 88.731 C 311.432 85.960,311.322 85.761,309.721 85.631 L 308.673 85.545 308.541 83.135 C 308.398 80.497,308.426 80.564,307.208 79.938 C 306.643 79.647,306.263 79.193,306.071 78.581 C 305.794 77.700,305.723 77.658,304.411 77.582 L 303.040 77.503 302.966 74.822 C 302.870 71.385,303.228 71.394,296.066 74.651 M245.838 80.544 C 245.151 80.955,244.087 82.116,242.888 83.761 C 240.375 87.208,236.268 93.041,236.268 93.162 C 236.268 93.262,240.201 91.603,246.187 88.977 L 249.667 87.450 249.549 86.497 C 249.483 85.974,249.366 84.695,249.288 83.656 C 249.005 79.911,248.162 79.150,245.838 80.544 M245.152 113.612 C 237.001 117.758,232.855 120.535,226.725 125.954 C 221.204 130.834,216.067 134.403,203.679 141.964 C 196.111 146.583,190.012 150.088,186.863 151.628 C 184.437 152.814,184.231 152.970,184.791 153.186 C 185.134 153.318,186.656 153.925,188.173 154.535 C 189.691 155.144,192.470 156.213,194.350 156.910 C 199.888 158.962,203.696 160.456,205.519 161.291 C 206.459 161.721,207.700 162.228,208.279 162.417 C 208.857 162.607,210.158 163.144,211.170 163.610 C 212.181 164.077,214.251 164.936,215.769 165.520 C 217.286 166.104,221.603 167.761,225.361 169.202 C 229.120 170.643,234.087 172.551,236.399 173.442 C 243.742 176.272,248.112 176.666,248.910 174.568 C 249.474 173.084,250.237 111.432,249.691 111.432 C 249.551 111.432,247.509 112.413,245.152 113.612 M142.460 125.821 C 140.807 125.867,139.328 126.006,139.175 126.128 C 138.694 126.513,131.366 130.404,131.296 130.311 C 131.259 130.263,130.836 129.514,130.355 128.647 C 129.874 127.779,129.431 127.011,129.369 126.938 C 129.149 126.677,128.252 128.062,128.252 128.663 C 128.252 130.967,131.630 132.682,149.776 139.592 L 150.406 139.832 150.260 137.919 C 150.180 136.866,149.963 135.273,149.778 134.378 C 149.309 132.111,149.522 131.774,152.307 130.381 C 154.740 129.165,156.636 127.681,156.636 126.994 C 156.636 126.769,156.832 126.369,157.071 126.105 C 157.522 125.607,153.135 125.522,142.460 125.821 M174.014 148.658 C 173.812 148.747,174.967 149.319,176.633 149.955 C 179.906 151.204,180.011 151.213,179.351 150.206 C 178.553 148.988,175.363 148.063,174.014 148.658 M108.230 156.606 C 105.331 158.185,104.633 159.168,105.397 160.595 C 105.863 161.466,110.212 160.806,112.164 159.567 C 112.479 159.367,110.502 155.559,110.118 155.626 C 110.046 155.639,109.196 156.080,108.230 156.606 M97.766 161.613 C 93.512 162.764,87.810 165.478,87.400 166.548 C 85.838 170.618,99.540 167.686,102.388 163.340 C 103.627 161.449,101.421 160.625,97.766 161.613 " stroke="none" fill="#d3c504" fill-rule="evenodd"></path><path id="path1" d="M374.244 33.353 C 370.653 34.564,370.560 34.604,329.834 52.351 C 312.274 60.004,297.845 66.362,297.771 66.481 C 297.646 66.680,287.696 71.028,262.418 81.930 C 257.214 84.174,251.833 86.539,250.460 87.185 C 247.546 88.557,236.128 93.561,235.913 93.561 C 235.832 93.561,232.242 95.121,227.935 97.027 C 220.263 100.424,220.065 100.494,218.134 100.524 C 215.932 100.559,214.701 100.916,210.292 102.800 C 208.653 103.501,207.166 104.074,206.988 104.074 C 206.613 104.074,203.920 98.008,203.854 97.016 C 203.775 95.807,208.977 94.586,216.379 94.077 C 224.225 93.538,231.294 90.275,232.366 86.698 C 233.118 84.188,227.291 72.536,225.284 72.536 C 222.025 72.536,215.044 75.940,210.784 79.606 C 201.019 88.011,184.394 95.539,180.892 93.141 C 178.584 91.561,173.950 93.527,172.950 96.511 C 171.951 99.491,154.529 107.675,137.929 112.963 C 134.056 114.196,128.513 116.805,127.234 117.995 C 125.785 119.345,126.325 121.168,130.292 128.314 C 131.487 130.467,130.917 130.502,135.496 127.989 C 137.603 126.833,139.376 125.887,139.436 125.887 C 139.671 125.887,142.983 123.771,144.188 122.851 C 145.585 121.784,158.655 115.267,161.305 114.315 C 162.909 113.740,162.966 113.737,163.488 114.209 C 164.128 114.788,166.886 120.207,166.886 120.886 C 166.886 121.430,164.009 123.023,160.786 124.264 C 158.474 125.154,156.958 126.216,156.736 127.101 C 156.504 128.027,155.045 129.173,152.427 130.488 C 149.510 131.953,149.373 132.182,149.942 134.641 C 150.407 136.652,150.560 142.583,150.157 142.980 C 149.889 143.244,128.931 152.542,119.711 156.487 C 116.097 158.033,112.750 159.477,112.272 159.695 C 107.654 161.801,105.125 161.756,105.125 159.567 C 105.125 158.361,105.654 157.809,107.884 156.691 C 110.803 155.227,111.160 154.328,109.704 152.102 C 108.512 150.280,106.397 150.917,90.276 157.954 C 86.229 159.721,82.676 161.198,82.382 161.237 C 81.547 161.348,68.875 166.996,64.783 169.082 C 58.886 172.088,58.022 173.188,59.162 176.234 C 59.968 178.387,59.994 178.370,48.803 183.202 L 43.073 185.677 43.241 187.122 C 43.715 191.204,44.902 194.643,49.137 204.205 C 50.975 208.355,61.706 231.483,61.924 231.766 C 61.966 231.820,67.534 229.032,74.298 225.571 C 95.345 214.801,95.824 214.341,92.754 207.846 C 90.938 204.003,90.779 204.205,98.289 200.807 C 100.501 199.806,102.382 198.883,102.469 198.756 C 102.557 198.630,105.348 197.319,108.673 195.844 L 114.717 193.162 123.390 195.639 C 128.160 197.002,132.181 198.022,132.325 197.907 C 134.992 195.783,141.695 193.733,146.952 193.432 C 158.432 192.776,163.913 189.559,164.913 182.891 C 165.115 181.539,165.106 181.487,162.955 171.385 C 160.988 162.148,160.990 162.190,162.477 163.248 C 166.325 165.988,179.710 160.457,181.569 155.358 C 182.251 153.488,182.261 153.479,184.903 152.364 C 193.734 148.640,219.021 132.638,226.150 126.263 C 234.318 118.959,238.370 116.518,255.585 108.526 C 275.463 99.297,280.722 96.840,284.363 95.081 C 286.603 93.998,290.062 92.367,292.050 91.457 C 294.037 90.547,295.664 89.712,295.664 89.602 C 295.664 89.492,294.424 87.054,292.910 84.185 C 291.395 81.315,290.084 78.608,289.996 78.168 L 289.836 77.368 295.735 74.689 C 298.979 73.216,301.781 72.011,301.962 72.011 C 302.143 72.011,310.586 68.356,320.725 63.889 C 330.864 59.423,343.949 53.676,349.803 51.118 C 381.214 37.395,381.319 37.337,380.014 34.253 C 379.045 31.963,378.580 31.891,374.244 33.353 M198.442 101.380 C 199.638 104.099,200.313 106.458,200.029 106.918 C 199.517 107.746,174.904 118.265,173.479 118.265 C 172.423 118.265,170.302 113.905,170.302 111.735 L 170.302 110.707 174.310 108.868 C 178.424 106.981,184.541 104.292,192.641 100.812 C 195.171 99.725,197.257 98.831,197.278 98.826 C 197.298 98.821,197.822 99.970,198.442 101.380 M178.184 148.976 C 180.760 150.358,180.841 153.860,178.347 156.050 C 176.558 157.621,168.902 161.104,167.239 161.104 C 164.637 161.104,162.295 158.732,162.295 156.097 C 162.295 152.987,163.486 152.775,166.599 155.330 C 168.833 157.164,169.739 157.687,170.683 157.687 C 171.595 157.687,171.525 157.319,170.457 156.504 C 168.533 155.037,168.251 152.155,169.862 150.442 C 171.551 148.646,176.081 147.849,178.184 148.976 M102.151 161.412 C 103.677 162.845,102.347 164.474,97.898 166.623 C 92.398 169.280,87.254 169.472,87.254 167.021 C 87.254 165.500,93.767 162.239,98.816 161.231 C 101.210 160.754,101.465 160.768,102.151 161.412 M144.622 162.773 C 150.544 165.671,148.584 172.620,140.701 176.671 C 134.739 179.735,131.237 178.491,130.328 172.985 C 129.055 165.276,137.462 159.270,144.622 162.773 M83.938 168.497 C 85.458 169.189,85.411 171.277,83.853 172.333 C 82.037 173.563,80.026 173.326,79.076 171.769 C 78.072 170.121,78.390 169.714,81.472 168.702 C 83.231 168.125,83.139 168.133,83.938 168.497 M73.880 173.472 C 76.080 174.649,74.199 176.959,69.791 178.494 C 66.587 179.609,64.677 179.505,63.990 178.178 C 62.981 176.226,71.475 172.185,73.880 173.472 " stroke="none" fill="#000101" fill-rule="evenodd"></path><path id="path2" d="M157.139 42.513 L 148.837 42.583 146.690 45.846 C 145.509 47.641,144.056 50.034,143.461 51.165 C 142.283 53.405,140.595 56.347,137.455 61.629 C 133.557 68.189,131.689 71.414,126.800 80.026 C 124.092 84.796,120.610 90.828,119.063 93.430 C 115.364 99.650,114.145 101.747,113.021 103.822 C 111.742 106.183,108.912 111.113,105.822 116.365 C 104.398 118.783,102.280 122.418,101.115 124.442 C 99.949 126.465,98.588 128.712,98.091 129.435 C 96.507 131.735,97.369 134.253,102.563 142.488 C 103.900 144.608,105.585 147.414,106.307 148.724 C 107.463 150.820,107.708 151.107,108.341 151.112 C 109.976 151.123,111.109 154.131,109.954 155.395 C 109.538 155.850,109.408 156.062,109.665 155.866 C 109.921 155.670,110.164 155.556,110.205 155.613 C 111.437 157.319,112.462 159.379,112.171 159.563 C 111.688 159.870,112.130 159.845,112.684 159.534 C 112.935 159.394,116.097 158.018,119.711 156.477 C 128.220 152.849,149.886 143.253,150.098 143.019 C 150.188 142.920,150.324 141.892,150.401 140.736 C 150.478 139.580,150.464 138.890,150.369 139.204 C 150.142 139.959,133.446 133.460,129.760 131.182 C 128.222 130.231,127.786 128.429,128.844 127.389 L 129.435 126.808 128.028 124.027 C 126.170 120.354,126.009 119.136,127.234 117.995 C 128.513 116.805,134.056 114.196,137.929 112.963 C 154.529 107.675,171.951 99.491,172.950 96.511 C 173.950 93.527,178.584 91.561,180.892 93.141 C 184.394 95.539,201.019 88.011,210.784 79.606 C 215.044 75.940,222.025 72.536,225.284 72.536 C 227.291 72.536,233.118 84.188,232.366 86.698 C 231.294 90.275,224.225 93.538,216.379 94.077 C 208.977 94.586,203.775 95.807,203.854 97.016 C 203.920 98.008,206.613 104.074,206.988 104.074 C 207.166 104.074,208.653 103.501,210.292 102.800 C 214.701 100.916,215.932 100.559,218.134 100.524 C 220.065 100.494,220.263 100.424,227.935 97.027 C 232.242 95.121,235.879 93.561,236.017 93.561 C 236.155 93.561,236.268 93.449,236.268 93.313 C 236.268 93.055,239.598 88.258,242.946 83.692 C 245.787 79.818,248.126 78.783,248.879 81.065 C 249.343 82.471,249.664 87.345,249.309 87.578 C 248.695 87.981,249.417 87.758,250.248 87.288 C 250.726 87.017,255.848 84.758,261.629 82.266 C 274.235 76.835,273.352 77.225,272.662 77.395 C 272.052 77.546,272.011 77.483,267.262 69.120 C 263.072 61.741,262.319 60.435,259.386 55.453 C 257.981 53.068,256.264 50.112,255.570 48.883 C 253.991 46.090,252.982 44.590,251.800 43.282 L 250.876 42.259 208.158 42.352 C 184.663 42.403,161.705 42.475,157.139 42.513 M292.116 82.786 C 292.340 83.219,292.582 83.574,292.655 83.574 C 292.727 83.574,292.603 83.219,292.378 82.786 C 292.154 82.352,291.912 81.997,291.839 81.997 C 291.767 81.997,291.891 82.352,292.116 82.786 M294.481 87.254 C 294.705 87.687,294.948 88.042,295.020 88.042 C 295.092 88.042,294.968 87.687,294.744 87.254 C 294.520 86.820,294.277 86.465,294.205 86.465 C 294.132 86.465,294.257 86.820,294.481 87.254 M237.057 92.904 C 236.695 93.111,236.518 93.280,236.662 93.280 C 236.807 93.280,237.221 93.111,237.582 92.904 C 237.943 92.697,238.121 92.528,237.976 92.528 C 237.832 92.528,237.418 92.697,237.057 92.904 M282.641 95.888 C 282.504 96.012,279.376 97.501,275.690 99.197 C 269.271 102.152,250.659 110.803,249.014 111.596 C 248.286 111.948,248.618 111.909,249.545 111.534 C 250.222 111.260,249.603 172.746,248.910 174.568 C 248.112 176.666,243.742 176.272,236.399 173.442 C 234.087 172.551,229.120 170.643,225.361 169.202 C 221.603 167.761,217.286 166.104,215.769 165.520 C 214.251 164.936,212.181 164.077,211.170 163.610 C 210.158 163.144,208.857 162.607,208.279 162.417 C 207.700 162.228,206.459 161.721,205.519 161.291 C 203.739 160.475,199.542 158.824,195.269 157.256 C 191.046 155.707,184.643 153.159,184.303 152.892 C 183.621 152.357,182.304 153.530,181.592 155.308 C 179.488 160.555,166.355 166.010,162.477 163.248 C 160.990 162.190,160.988 162.148,162.955 171.385 C 165.106 181.487,165.115 181.539,164.913 182.891 C 163.913 189.559,158.432 192.776,146.952 193.432 C 141.936 193.719,140.490 194.048,136.888 195.719 C 133.832 197.138,133.939 196.717,135.782 200.063 C 139.139 206.160,146.327 218.352,147.484 219.911 L 148.510 221.293 200.121 221.225 L 251.732 221.156 252.435 220.499 C 252.822 220.138,253.442 219.310,253.814 218.660 C 254.185 218.009,255.400 215.940,256.513 214.060 C 257.626 212.181,259.724 208.515,261.175 205.913 C 262.626 203.311,264.962 199.231,266.366 196.846 C 267.769 194.461,270.037 190.511,271.405 188.068 C 272.773 185.625,274.337 182.905,274.880 182.024 C 275.423 181.142,276.555 179.179,277.394 177.661 C 278.233 176.143,279.565 173.778,280.355 172.405 C 284.481 165.229,286.876 161.101,287.598 159.921 C 288.040 159.198,288.812 157.838,289.313 156.899 C 291.338 153.106,295.792 145.417,297.262 143.179 C 300.185 138.726,302.816 133.842,302.955 132.609 C 303.121 131.134,304.386 133.472,289.796 108.279 C 284.191 98.600,282.961 96.389,282.961 95.996 C 282.961 95.602,282.960 95.601,282.641 95.888 M192.641 100.812 C 184.541 104.292,178.424 106.981,174.310 108.868 L 170.302 110.707 170.302 111.735 C 170.302 113.905,172.423 118.265,173.479 118.265 C 174.904 118.265,199.517 107.746,200.029 106.918 C 200.353 106.393,197.743 98.714,197.278 98.826 C 197.257 98.831,195.171 99.725,192.641 100.812 M160.858 114.474 C 157.714 115.683,145.478 121.872,143.890 123.056 C 143.022 123.703,141.751 124.556,141.064 124.953 C 140.378 125.350,139.816 125.719,139.816 125.774 C 139.816 125.830,143.807 125.801,148.686 125.711 C 157.506 125.548,157.553 125.550,157.096 126.066 C 156.305 126.959,156.593 126.918,157.601 125.994 C 158.132 125.508,159.403 124.796,160.426 124.412 C 163.498 123.259,166.886 121.424,166.886 120.914 C 166.886 120.312,164.650 115.732,163.829 114.652 C 163.060 113.640,163.030 113.638,160.858 114.474 M225.216 127.135 L 224.310 128.121 225.296 127.215 C 226.213 126.372,226.402 126.150,226.201 126.150 C 226.157 126.150,225.714 126.593,225.216 127.135 M136.597 127.351 C 135.614 127.884,135.674 128.106,136.662 127.595 C 137.096 127.371,137.451 127.131,137.451 127.063 C 137.451 126.894,137.422 126.903,136.597 127.351 M129.961 127.989 C 130.185 128.423,130.427 128.778,130.500 128.778 C 130.572 128.778,130.448 128.423,130.223 127.989 C 129.999 127.556,129.757 127.201,129.684 127.201 C 129.612 127.201,129.736 127.556,129.961 127.989 M155.700 128.318 L 154.928 129.172 155.782 128.400 C 156.252 127.976,156.636 127.591,156.636 127.546 C 156.636 127.343,156.419 127.522,155.700 128.318 M172.011 149.049 C 168.499 150.402,167.670 154.379,170.457 156.504 C 171.525 157.319,171.595 157.687,170.683 157.687 C 169.739 157.687,168.833 157.164,166.599 155.330 C 163.486 152.775,162.295 152.987,162.295 156.097 C 162.295 160.485,165.995 162.087,171.054 159.889 C 177.339 157.157,179.117 155.950,179.911 153.871 C 180.341 152.745,180.262 150.677,179.800 150.963 C 179.690 151.031,178.262 150.576,176.626 149.952 C 174.991 149.328,173.816 148.753,174.014 148.674 C 174.235 148.586,174.172 148.533,173.850 148.536 C 173.561 148.540,172.733 148.770,172.011 149.049 M189.422 150.084 C 188.880 150.370,188.436 150.663,188.436 150.734 C 188.436 150.806,188.909 150.623,189.488 150.329 C 190.066 150.034,190.539 149.735,190.539 149.666 C 190.539 149.494,190.537 149.495,189.422 150.084 M137.188 162.253 C 127.988 164.920,127.671 180.056,136.854 178.179 C 141.457 177.238,146.764 172.925,147.966 169.147 C 149.437 164.526,143.172 160.518,137.188 162.253 M101.859 163.970 L 101.089 164.915 101.977 164.069 C 102.465 163.604,102.811 163.179,102.746 163.124 C 102.681 163.070,102.282 163.450,101.859 163.970 " stroke="none" fill="#fbf383" fill-rule="evenodd"></path></g></svg>