<svg id="svg" version="1.1" xmlns="http://www.w3.org/2000/svg" xmlns:xlink="http://www.w3.org/1999/xlink" width="400" height="262.6666666666667" viewBox="0, 0, 400,262.6666666666667"><g id="svgg"><path id="path0" d="M130.092 14.980 C 129.649 15.423,129.566 15.856,129.566 17.740 L 129.566 19.974 128.524 19.974 C 127.153 19.974,126.938 20.415,126.938 23.242 L 126.938 25.493 125.765 25.493 C 124.257 25.493,124.047 25.876,124.047 28.629 L 124.047 30.749 123.028 30.749 C 121.879 30.749,121.497 31.082,121.255 32.295 C 121.079 33.170,120.506 33.640,119.612 33.640 C 118.898 33.640,118.774 33.908,118.508 36.029 C 118.229 38.251,117.939 38.837,117.009 39.065 C 115.987 39.315,115.909 39.541,115.904 42.247 L 115.900 44.678 114.727 44.678 C 113.328 44.678,113.138 44.935,112.883 47.175 C 112.646 49.257,112.516 49.671,112.101 49.671 C 111.496 49.671,110.579 50.598,110.278 51.514 C 110.070 52.144,109.775 52.453,109.247 52.593 C 107.872 52.957,107.753 53.220,107.753 55.880 L 107.753 58.344 106.580 58.344 C 105.072 58.344,104.862 58.727,104.862 61.481 L 104.862 63.601 103.820 63.601 C 102.566 63.601,102.353 63.911,102.115 66.097 C 101.837 68.648,101.776 68.800,100.947 68.982 C 100.055 69.178,99.508 69.739,99.164 70.810 C 98.990 71.351,98.651 71.670,98.020 71.882 C 96.943 72.245,96.777 72.713,96.741 75.493 L 96.715 77.530 95.673 77.530 C 94.363 77.530,94.136 77.915,93.917 80.508 L 93.752 82.461 92.725 82.769 C 91.450 83.151,91.196 83.746,91.196 86.351 L 91.196 88.305 90.177 88.305 C 89.029 88.305,88.709 88.585,88.445 89.818 C 88.254 90.712,87.661 91.196,86.755 91.196 C 85.952 91.196,85.677 91.992,85.677 94.316 L 85.677 96.420 84.697 96.502 C 83.401 96.610,83.057 97.324,83.052 99.919 L 83.049 101.941 81.938 102.022 C 80.495 102.127,80.167 102.760,80.162 105.453 L 80.158 107.490 79.279 107.490 C 78.290 107.490,77.530 108.150,77.530 109.007 C 77.530 109.617,76.625 110.381,75.903 110.381 C 75.253 110.381,74.951 111.096,74.743 113.122 C 74.557 114.938,74.167 115.637,73.338 115.637 C 72.587 115.637,72.257 116.258,71.987 118.182 C 71.636 120.690,71.542 120.895,70.666 121.070 C 69.591 121.286,69.382 121.830,69.382 124.424 L 69.382 126.675 68.363 126.675 C 66.721 126.675,66.634 126.937,66.536 132.195 C 66.429 137.956,66.610 138.808,68.065 139.390 C 68.769 139.671,69.160 140.016,69.268 140.449 C 69.459 141.207,70.096 141.826,70.821 141.959 C 71.581 142.099,72.002 143.153,72.011 144.941 C 72.020 146.805,72.156 147.076,73.196 147.310 C 75.005 147.716,74.901 147.561,74.905 149.886 C 74.910 152.429,74.999 152.613,76.358 152.895 L 77.398 153.110 77.465 154.939 C 77.562 157.585,77.675 157.880,78.824 158.465 C 79.386 158.752,79.887 159.100,79.936 159.237 C 79.986 159.374,83.753 157.860,88.309 155.873 C 92.864 153.885,98.732 151.398,101.348 150.346 L 106.105 148.433 105.128 146.687 C 104.590 145.727,103.172 143.403,101.977 141.524 C 97.208 134.022,96.476 131.601,98.225 129.101 C 98.804 128.273,100.434 125.585,101.846 123.127 C 103.259 120.670,104.967 117.773,105.641 116.689 C 106.316 115.604,107.442 113.653,108.144 112.352 C 108.846 111.051,110.147 108.745,111.036 107.227 C 111.924 105.710,113.345 103.226,114.192 101.708 C 115.040 100.191,117.110 96.643,118.793 93.824 C 120.476 91.005,123.964 84.974,126.543 80.420 C 131.204 72.195,132.919 69.238,138.436 59.921 C 140.019 57.247,142.054 53.699,142.958 52.037 C 143.862 50.375,145.536 47.585,146.678 45.837 L 148.756 42.660 157.469 42.487 C 162.262 42.391,185.262 42.313,208.581 42.313 L 250.978 42.313 251.881 43.298 C 252.957 44.472,254.270 46.572,258.745 54.271 C 260.593 57.451,262.895 61.413,263.862 63.075 C 264.829 64.737,266.774 68.147,268.185 70.652 C 270.649 75.027,270.778 75.201,271.446 75.042 C 271.829 74.950,277.905 72.368,284.950 69.304 L 297.758 63.732 297.762 62.861 C 297.768 61.640,297.390 61.068,296.454 60.881 C 295.811 60.752,295.547 60.482,295.140 59.532 C 294.643 58.373,294.602 58.344,293.439 58.344 L 292.247 58.344 292.247 56.000 C 292.247 52.901,292.209 52.825,290.651 52.825 L 289.374 52.825 289.300 50.148 L 289.225 47.470 288.360 47.246 C 287.346 46.984,287.131 46.531,286.877 44.119 C 286.704 42.483,286.635 42.341,285.728 41.754 C 285.198 41.411,284.596 40.775,284.391 40.341 C 283.903 39.308,283.657 39.168,282.326 39.163 L 281.209 39.159 281.209 36.908 C 281.209 34.633,280.942 33.640,280.330 33.640 C 279.441 33.640,279.058 32.938,278.828 30.888 C 278.574 28.622,278.455 28.410,277.212 28.003 C 276.289 27.701,276.022 27.124,275.979 25.335 C 275.943 23.858,275.468 22.604,274.941 22.593 C 274.266 22.580,273.679 22.016,273.234 20.950 C 272.848 20.026,272.761 19.974,271.630 19.974 L 270.434 19.974 270.434 17.374 C 270.434 15.245,270.358 14.745,270.018 14.614 C 268.673 14.098,130.613 14.459,130.092 14.980 M295.068 72.338 C 290.374 74.493,289.889 74.776,290.039 75.272 C 290.130 75.574,291.498 78.329,293.079 81.394 L 295.953 86.966 294.954 87.468 C 294.405 87.744,291.206 89.244,287.845 90.801 C 284.484 92.359,281.735 93.742,281.735 93.876 C 281.735 94.133,285.346 100.674,286.349 102.234 C 286.674 102.740,288.568 105.992,290.558 109.461 C 295.697 118.423,301.791 128.998,302.491 130.169 C 303.720 132.224,302.795 134.551,297.323 143.156 C 296.109 145.065,293.830 148.909,292.259 151.697 C 288.777 157.875,287.106 160.798,284.026 166.097 C 280.310 172.492,278.909 174.947,277.202 178.055 C 276.329 179.645,275.170 181.656,274.626 182.523 C 274.082 183.390,272.757 185.696,271.682 187.648 C 270.607 189.599,268.367 193.502,266.705 196.321 C 265.042 199.139,262.433 203.693,260.905 206.439 C 256.526 214.314,253.744 218.961,252.684 220.171 L 251.706 221.288 200.121 221.288 L 148.536 221.288 147.867 220.493 C 147.189 219.688,142.434 211.873,140.274 208.016 C 139.627 206.859,138.453 204.790,137.666 203.417 C 136.878 202.043,135.485 199.594,134.570 197.974 C 133.222 195.588,132.826 195.071,132.485 195.251 C 132.205 195.398,129.112 194.635,123.309 192.986 L 114.555 190.500 107.803 193.571 C 100.486 196.898,100.346 196.975,101.137 197.226 C 101.430 197.319,101.915 197.810,102.214 198.316 C 102.525 198.845,103.149 199.401,103.678 199.622 C 104.185 199.834,104.604 200.094,104.611 200.201 C 104.836 203.980,105.239 204.921,106.736 205.161 L 107.753 205.323 107.753 207.623 C 107.753 210.139,107.846 210.320,109.330 210.701 L 110.250 210.938 110.381 213.122 C 110.498 215.064,110.583 215.353,111.150 215.734 C 111.500 215.970,112.300 216.695,112.929 217.346 C 113.557 217.996,114.453 218.657,114.920 218.813 C 115.767 219.098,115.769 219.103,115.900 221.232 C 116.042 223.531,116.230 223.884,117.554 224.332 C 118.394 224.617,118.397 224.625,118.540 226.796 C 118.695 229.156,119.192 229.961,120.498 229.961 C 121.203 229.961,121.410 230.535,121.416 232.506 C 121.421 234.439,121.745 235.110,122.848 235.474 C 123.472 235.680,123.836 235.989,123.940 236.401 C 124.147 237.225,124.772 237.750,125.887 238.036 L 126.807 238.271 126.882 240.531 C 126.965 243.006,127.133 243.310,128.582 243.604 L 129.435 243.778 129.566 246.002 L 129.698 248.226 131.012 248.404 C 134.830 248.921,255.528 249.199,266.689 248.717 L 270.171 248.566 270.174 246.688 C 270.180 244.025,270.316 243.679,271.484 243.364 C 272.590 243.066,272.880 242.789,273.235 241.686 C 273.408 241.151,273.745 240.843,274.387 240.635 C 275.371 240.317,275.909 239.286,275.938 237.665 C 275.960 236.424,276.396 235.480,276.947 235.480 C 278.061 235.480,278.405 234.854,278.695 232.304 L 278.975 229.849 279.854 229.670 C 281.144 229.407,281.327 229.092,281.472 226.870 C 281.602 224.866,281.609 224.850,282.688 224.057 C 283.285 223.618,283.963 222.949,284.194 222.570 C 284.440 222.169,284.948 221.815,285.413 221.722 C 286.384 221.527,286.598 221.027,286.843 218.378 L 287.027 216.388 288.126 216.144 L 289.225 215.900 289.300 213.366 L 289.374 210.832 290.547 210.656 C 291.965 210.444,292.117 210.199,292.489 207.522 C 292.826 205.101,292.800 205.155,293.822 204.732 C 294.335 204.519,294.673 204.155,294.770 203.712 C 294.853 203.333,294.950 202.905,294.985 202.762 C 295.020 202.619,295.475 202.539,295.997 202.584 C 297.298 202.696,297.766 201.781,297.766 199.122 L 297.766 197.168 298.698 196.993 C 300.051 196.739,300.655 195.627,300.656 193.390 L 300.657 191.642 301.639 191.410 C 302.861 191.121,303.275 190.373,303.285 188.436 C 303.295 186.403,303.475 185.937,304.408 185.518 C 304.859 185.316,305.419 184.800,305.654 184.370 C 305.937 183.851,306.360 183.531,306.915 183.418 C 308.404 183.113,308.541 182.835,308.541 180.131 L 308.541 177.671 309.264 177.525 C 311.474 177.078,311.602 176.888,311.664 173.949 C 311.694 172.531,311.727 172.464,312.472 172.315 C 313.563 172.097,314.062 171.172,314.241 169.037 C 314.417 166.937,314.437 166.896,315.506 166.357 C 315.940 166.139,316.472 165.589,316.689 165.134 C 316.993 164.497,317.300 164.273,318.036 164.154 C 319.192 163.966,319.484 163.353,319.663 160.742 C 319.792 158.863,320.027 158.487,321.076 158.480 C 322.058 158.473,322.470 157.525,322.470 155.274 L 322.470 153.240 323.491 152.965 C 324.826 152.605,325.089 152.245,325.253 150.553 C 325.542 147.575,325.583 147.463,326.475 147.232 C 326.991 147.099,327.464 146.724,327.727 146.242 C 327.959 145.815,328.526 145.275,328.986 145.041 C 330.571 144.236,330.618 144.139,330.618 141.624 L 330.618 139.290 331.675 139.290 C 333.179 139.290,333.246 138.957,333.246 131.503 C 333.246 124.238,333.205 124.047,331.660 124.047 L 330.618 124.047 330.618 121.583 C 330.618 118.951,330.545 118.787,329.191 118.351 C 328.768 118.214,328.343 117.932,328.248 117.724 C 327.362 115.791,327.341 115.771,326.207 115.688 L 325.099 115.607 325.099 113.309 C 325.099 110.654,324.935 110.381,323.338 110.381 L 322.208 110.381 322.208 107.998 C 322.208 105.042,322.002 104.599,320.632 104.599 L 319.600 104.599 319.524 102.311 L 319.448 100.024 318.423 99.328 C 317.817 98.917,317.239 98.235,317.010 97.660 C 316.722 96.938,316.429 96.650,315.873 96.539 C 314.816 96.327,314.633 96.006,314.323 93.824 C 313.994 91.504,313.775 91.196,312.451 91.196 L 311.432 91.196 311.432 88.731 C 311.432 85.960,311.322 85.761,309.721 85.631 L 308.673 85.545 308.541 83.135 C 308.398 80.497,308.426 80.564,307.208 79.938 C 306.643 79.647,306.263 79.193,306.071 78.581 C 305.794 77.700,305.723 77.658,304.411 77.582 L 303.040 77.503 302.966 74.856 L 302.891 72.210 301.980 71.913 C 301.287 71.687,301.011 71.412,300.825 70.762 C 300.524 69.709,301.186 69.528,295.068 72.338 M246.119 80.380 C 244.822 81.172,238.571 89.093,239.244 89.093 C 239.446 89.093,243.716 87.315,245.861 86.338 C 247.017 85.811,248.288 85.244,248.686 85.077 C 249.497 84.736,249.525 84.567,249.123 82.374 C 248.677 79.940,247.798 79.357,246.119 80.380 M246.898 109.952 C 238.478 113.977,232.518 117.952,225.624 124.143 C 218.606 130.446,188.765 148.973,183.636 150.212 C 182.839 150.404,181.729 151.613,182.056 151.933 C 182.319 152.190,189.703 155.162,193.955 156.722 C 198.860 158.522,208.654 162.425,211.564 163.739 C 213.730 164.717,220.388 167.347,224.870 168.994 C 226.769 169.692,230.730 171.206,233.675 172.359 C 244.184 176.474,248.459 176.990,248.979 174.207 C 249.573 171.027,250.045 108.794,249.474 108.810 C 249.366 108.813,248.206 109.327,246.898 109.952 M140.663 125.907 L 134.284 126.107 132.801 126.944 L 131.318 127.781 130.867 127.184 C 129.948 125.964,128.043 127.458,128.395 129.122 C 128.800 131.039,130.396 131.913,141.424 136.261 C 145.671 137.936,149.429 139.426,149.775 139.572 L 150.404 139.839 150.244 136.345 C 150.156 134.424,149.912 132.167,149.702 131.330 C 149.230 129.452,149.514 129.039,152.263 127.607 C 153.255 127.090,154.365 126.433,154.730 126.146 L 155.393 125.624 151.218 125.666 C 148.922 125.689,144.172 125.797,140.663 125.907 M172.405 146.218 C 170.945 146.748,169.942 147.346,170.222 147.519 C 170.923 147.953,179.861 151.107,179.999 150.969 C 180.897 150.071,179.394 146.675,177.861 146.141 C 176.772 145.761,173.536 145.807,172.405 146.218 M107.490 154.293 C 102.917 156.366,105.163 159.668,109.790 157.673 C 111.124 157.097,111.109 157.220,110.082 155.293 C 109.157 153.558,109.132 153.548,107.490 154.293 M98.686 158.649 C 92.899 159.887,86.911 163.066,87.492 164.591 C 88.645 167.612,102.760 163.328,102.760 159.957 C 102.760 158.445,101.512 158.045,98.686 158.649 M83.311 165.828 C 83.311 166.099,84.866 166.995,85.038 166.823 C 85.094 166.768,84.958 166.464,84.736 166.147 C 84.333 165.572,83.311 165.343,83.311 165.828 " stroke="none" fill="#9b9b9b" fill-rule="evenodd"></path><path id="path1" d="M373.850 30.704 C 369.108 32.372,298.677 62.934,297.766 63.719 C 297.396 64.038,272.274 75.039,270.565 75.630 C 269.791 75.898,254.768 82.493,244.160 87.221 C 241.202 88.540,238.701 89.619,238.605 89.619 C 238.508 89.619,234.661 91.289,230.055 93.329 C 220.578 97.528,219.109 98.069,217.760 97.850 C 216.567 97.656,215.108 98.062,211.170 99.685 C 206.263 101.706,206.949 101.910,205.199 97.916 C 203.469 93.970,203.414 93.649,204.397 93.275 C 206.684 92.406,214.406 91.196,217.668 91.196 C 222.877 91.196,230.288 87.811,232.045 84.630 L 232.684 83.473 232.234 81.749 C 231.406 78.579,227.697 71.542,226.096 70.106 C 224.445 68.624,215.870 72.420,210.595 76.968 C 201.225 85.046,184.250 92.791,181.067 90.440 C 178.807 88.772,172.930 91.226,172.930 93.839 C 172.930 96.093,152.491 105.842,140.342 109.382 C 131.622 111.923,126.192 115.015,126.490 117.269 C 126.610 118.178,130.106 125.685,131.089 127.143 C 131.470 127.709,138.487 123.983,143.882 120.349 C 147.413 117.971,159.478 111.975,162.571 111.061 C 163.854 110.682,167.580 117.888,166.545 118.747 C 165.971 119.223,162.666 120.792,160.374 121.675 C 158.148 122.534,156.636 123.552,156.636 124.193 C 156.636 125.000,154.922 126.434,152.423 127.718 C 149.414 129.264,149.324 129.414,149.919 131.932 C 150.141 132.871,150.396 135.118,150.484 136.925 L 150.645 140.210 142.011 144.006 C 126.294 150.916,116.059 155.347,113.929 156.164 C 112.773 156.607,111.708 157.060,111.564 157.170 C 111.094 157.526,107.719 158.476,106.920 158.476 C 103.619 158.476,105.005 154.472,108.608 153.600 C 110.166 153.223,110.854 151.866,110.237 150.389 C 108.909 147.210,108.004 147.434,89.366 155.572 C 84.384 157.747,80.160 159.527,79.979 159.527 C 79.446 159.527,68.579 164.377,64.685 166.352 C 58.794 169.342,58.057 170.286,59.149 173.444 C 59.715 175.079,59.717 175.128,59.234 175.492 C 58.337 176.167,54.880 177.813,49.146 180.296 C 46.038 181.642,43.398 182.826,43.279 182.928 C 42.537 183.563,44.159 189.682,46.646 195.631 C 50.437 204.699,61.717 228.911,62.150 228.907 C 62.698 228.902,86.947 216.327,89.225 214.867 C 94.610 211.415,95.124 209.994,92.785 205.025 C 91.035 201.306,91.128 201.185,98.028 198.158 C 99.400 197.555,100.584 196.965,100.658 196.845 C 100.732 196.726,103.897 195.217,107.693 193.492 L 114.593 190.356 123.260 192.824 L 131.926 195.292 135.542 193.609 C 141.067 191.039,142.629 190.663,148.752 190.432 C 154.923 190.200,158.808 188.887,161.789 186.025 C 165.133 182.813,165.549 180.296,163.932 173.062 C 161.608 162.665,161.079 159.790,161.486 159.790 C 161.552 159.790,162.055 160.097,162.603 160.472 C 166.509 163.143,180.050 157.491,181.473 152.596 C 181.892 151.156,182.814 150.066,183.614 150.066 C 186.744 150.066,218.632 130.243,225.596 123.968 C 229.546 120.409,231.847 118.599,235.313 116.322 C 241.109 112.515,241.798 112.171,267.674 100.120 C 287.636 90.824,295.244 87.235,295.493 86.995 C 295.617 86.876,294.396 84.225,292.780 81.104 C 291.165 77.982,289.881 75.229,289.928 74.987 C 290.011 74.554,299.617 69.955,300.788 69.787 C 301.078 69.746,308.469 66.551,317.214 62.688 C 325.959 58.825,339.737 52.765,347.832 49.221 C 380.474 34.929,380.935 34.690,380.332 32.380 C 379.555 29.408,378.392 29.107,373.850 30.704 M198.643 99.080 C 199.294 100.598,199.879 102.393,199.945 103.069 L 200.063 104.298 198.258 105.207 C 194.434 107.132,174.043 115.642,173.270 115.636 C 172.555 115.629,170.556 111.257,170.360 109.270 L 170.236 108.027 172.963 106.706 C 177.366 104.574,196.681 96.221,197.087 96.273 C 197.292 96.299,197.992 97.562,198.643 99.080 M178.408 146.311 C 180.965 148.206,180.862 151.363,178.173 153.493 C 177.048 154.384,169.045 158.110,167.662 158.386 C 166.209 158.677,163.646 157.159,162.832 155.527 C 160.743 151.335,163.933 149.210,166.886 152.826 C 167.607 153.710,169.592 154.796,170.485 154.796 C 171.579 154.796,171.577 154.580,170.473 153.700 C 168.712 152.295,168.333 150.344,169.388 148.120 C 170.415 145.956,176.327 144.770,178.408 146.311 M102.350 158.797 C 103.037 159.777,102.847 160.456,101.577 161.575 C 97.171 165.452,88.046 167.378,87.343 164.578 C 86.691 161.979,100.778 156.552,102.350 158.797 M143.758 159.650 C 150.541 162.077,148.924 169.702,140.736 173.906 C 134.722 176.993,130.829 175.402,130.204 169.601 C 129.437 162.492,136.733 157.136,143.758 159.650 M84.479 165.659 C 85.233 166.211,85.293 167.948,84.590 168.842 C 82.677 171.274,78.581 170.389,78.581 167.543 C 78.581 166.530,83.515 164.954,84.479 165.659 M74.458 171.410 C 76.293 173.868,66.272 178.109,64.232 175.737 C 63.156 174.487,63.565 174.021,67.411 172.115 C 71.276 170.199,73.395 169.987,74.458 171.410 " stroke="none" fill="#000101" fill-rule="evenodd"></path><path id="path2" d="M154.626 42.510 L 148.805 42.585 146.703 45.800 C 145.547 47.568,143.862 50.375,142.958 52.037 C 142.054 53.699,140.019 57.247,138.436 59.921 C 132.919 69.238,131.204 72.195,126.543 80.420 C 123.964 84.974,120.476 91.005,118.793 93.824 C 117.110 96.643,115.040 100.191,114.192 101.708 C 113.345 103.226,111.924 105.710,111.036 107.227 C 110.147 108.745,108.846 111.051,108.144 112.352 C 107.442 113.653,106.316 115.604,105.641 116.689 C 104.967 117.773,103.259 120.670,101.846 123.127 C 100.434 125.585,98.804 128.273,98.225 129.101 C 96.476 131.601,97.208 134.022,101.977 141.524 C 103.172 143.403,104.594 145.734,105.136 146.703 L 106.123 148.466 105.212 148.766 C 104.711 148.932,104.353 149.119,104.416 149.182 C 104.479 149.245,105.142 149.056,105.889 148.761 C 108.316 147.805,109.316 148.184,110.249 150.417 C 110.898 151.972,110.211 153.093,108.217 153.732 C 107.677 153.905,107.169 154.152,107.090 154.281 C 107.010 154.409,107.360 154.342,107.866 154.130 C 109.176 153.583,109.168 153.578,110.119 155.364 C 110.942 156.907,110.960 156.999,110.500 157.335 C 109.871 157.794,110.318 157.785,111.209 157.321 C 111.592 157.121,112.834 156.597,113.968 156.157 C 116.197 155.293,128.215 150.080,141.979 144.006 L 150.582 140.210 150.534 137.976 L 150.486 135.742 150.396 137.769 C 150.309 139.744,150.292 139.789,149.726 139.550 C 149.407 139.416,145.671 137.936,141.424 136.261 C 130.396 131.913,128.800 131.039,128.395 129.122 C 128.042 127.454,129.948 125.965,130.870 127.188 C 131.284 127.736,132.457 127.635,132.457 127.051 C 132.457 126.979,132.206 127.054,131.898 127.219 C 131.205 127.590,131.396 127.870,128.750 122.602 C 126.320 117.763,126.005 116.501,126.968 115.473 C 128.417 113.926,134.935 110.958,140.342 109.382 C 152.491 105.842,172.930 96.093,172.930 93.839 C 172.930 91.226,178.807 88.772,181.067 90.440 C 184.250 92.791,201.225 85.046,210.595 76.968 C 215.870 72.420,224.445 68.624,226.096 70.106 C 227.697 71.542,231.406 78.579,232.234 81.749 L 232.684 83.473 232.045 84.630 C 230.288 87.811,222.877 91.196,217.668 91.196 C 214.406 91.196,206.684 92.406,204.397 93.275 C 203.414 93.649,203.469 93.970,205.199 97.916 C 206.949 101.910,206.263 101.706,211.170 99.685 C 215.108 98.062,216.567 97.656,217.760 97.850 C 219.109 98.069,220.578 97.528,230.055 93.329 C 234.661 91.289,238.563 89.614,238.728 89.608 C 238.893 89.602,239.442 89.358,239.947 89.066 C 240.761 88.597,240.551 88.583,239.444 89.032 C 238.926 89.242,242.685 83.810,244.256 82.077 C 247.115 78.923,248.610 79.148,249.181 82.817 L 249.487 84.788 259.632 80.344 C 265.212 77.901,270.368 75.677,271.091 75.403 C 271.977 75.067,272.135 74.952,271.574 75.050 L 270.744 75.196 268.182 70.646 C 266.773 68.144,264.829 64.737,263.862 63.075 C 262.895 61.413,260.593 57.451,258.745 54.271 C 254.270 46.572,252.957 44.472,251.881 43.298 L 250.978 42.313 205.713 42.373 C 180.816 42.406,157.827 42.468,154.626 42.510 M270.696 98.724 C 249.205 108.682,245.605 110.394,249.277 108.907 C 249.621 108.768,249.675 109.644,249.701 115.806 C 249.803 140.293,249.413 171.885,248.979 174.207 C 248.459 176.990,244.184 176.474,233.675 172.359 C 230.730 171.206,226.769 169.692,224.870 168.994 C 220.388 167.347,213.730 164.717,211.564 163.739 C 208.654 162.425,198.860 158.522,193.955 156.722 C 189.703 155.162,182.319 152.190,182.056 151.933 C 181.943 151.823,182.114 151.387,182.437 150.965 C 183.016 150.206,183.016 150.203,182.453 150.689 C 182.140 150.960,181.696 151.830,181.466 152.623 C 180.050 157.493,166.495 163.133,162.603 160.472 C 162.055 160.097,161.552 159.790,161.486 159.790 C 161.079 159.790,161.608 162.665,163.932 173.062 C 165.549 180.296,165.133 182.813,161.789 186.025 C 158.786 188.907,154.934 190.200,148.620 190.443 C 144.265 190.611,141.466 191.071,139.141 192.001 C 137.093 192.821,131.450 195.510,131.752 195.523 C 131.870 195.528,132.178 195.419,132.436 195.281 C 132.842 195.063,133.132 195.429,134.570 197.974 C 135.485 199.594,136.878 202.043,137.666 203.417 C 138.453 204.790,139.627 206.859,140.274 208.016 C 142.434 211.873,147.189 219.688,147.867 220.493 L 148.536 221.288 200.121 221.288 L 251.706 221.288 252.684 220.171 C 253.744 218.961,256.526 214.314,260.905 206.439 C 262.433 203.693,265.042 199.139,266.705 196.321 C 268.367 193.502,270.607 189.599,271.682 187.648 C 272.757 185.696,274.082 183.390,274.626 182.523 C 275.170 181.656,276.329 179.645,277.202 178.055 C 278.909 174.947,280.310 172.492,284.026 166.097 C 287.106 160.798,288.777 157.875,292.259 151.697 C 293.830 148.909,296.109 145.065,297.323 143.156 C 302.795 134.551,303.720 132.224,302.491 130.169 C 301.791 128.998,295.697 118.423,290.558 109.461 C 288.568 105.992,286.674 102.740,286.349 102.234 C 285.704 101.231,281.871 94.388,281.705 93.944 C 281.649 93.794,276.695 95.944,270.696 98.724 M186.202 100.806 C 180.420 103.325,174.463 105.980,172.963 106.706 L 170.236 108.027 170.360 109.270 C 170.556 111.257,172.555 115.629,173.270 115.636 C 174.043 115.642,194.434 107.132,198.258 105.207 L 200.063 104.298 199.945 103.069 C 199.799 101.564,197.602 96.339,197.087 96.273 C 196.882 96.247,191.984 98.287,186.202 100.806 M162.418 111.088 C 158.229 112.574,147.289 118.061,143.627 120.513 C 142.037 121.577,139.258 123.291,137.451 124.322 L 134.166 126.196 137.057 126.045 C 138.647 125.962,143.436 125.821,147.700 125.732 L 155.453 125.569 154.621 126.188 C 154.163 126.528,153.572 126.959,153.307 127.145 C 153.042 127.331,153.341 127.213,153.972 126.883 C 155.198 126.241,156.636 124.789,156.636 124.193 C 156.636 123.552,158.148 122.534,160.374 121.675 C 164.678 120.015,166.886 118.772,166.886 118.007 C 166.886 117.457,164.185 112.078,163.564 111.392 C 163.101 110.880,163.045 110.866,162.418 111.088 M226.793 122.930 L 225.887 123.916 226.873 123.010 C 227.790 122.167,227.979 121.945,227.778 121.945 C 227.734 121.945,227.291 122.388,226.793 122.930 M224.165 125.296 L 223.259 126.281 224.244 125.376 C 225.162 124.533,225.351 124.310,225.150 124.310 C 225.106 124.310,224.663 124.754,224.165 125.296 M174.709 145.788 C 175.181 145.847,175.891 145.846,176.286 145.786 C 176.681 145.726,176.294 145.678,175.427 145.679 C 174.560 145.681,174.237 145.730,174.709 145.788 M170.534 146.781 C 168.301 147.995,168.266 151.939,170.473 153.700 C 171.577 154.580,171.579 154.796,170.485 154.796 C 169.592 154.796,167.607 153.710,166.886 152.826 C 163.933 149.210,160.743 151.335,162.832 155.527 C 163.646 157.159,166.209 158.677,167.662 158.386 C 170.802 157.758,178.860 153.398,179.629 151.911 L 180.005 151.185 175.876 149.673 C 173.606 148.841,171.334 147.989,170.828 147.780 L 169.908 147.399 170.828 146.904 C 171.334 146.631,171.629 146.408,171.485 146.408 C 171.340 146.408,170.912 146.576,170.534 146.781 M137.478 159.400 C 130.445 161.375,127.444 170.732,132.585 174.653 C 136.781 177.854,148.100 170.826,148.056 165.046 C 148.024 160.749,142.732 157.925,137.478 159.400 " stroke="none" fill="#e3e3e3" fill-rule="evenodd"></path></g></svg>