<svg id="svg" version="1.1" xmlns="http://www.w3.org/2000/svg" xmlns:xlink="http://www.w3.org/1999/xlink" width="400" height="262.6666666666667" viewBox="0, 0, 400,262.6666666666667"><g id="svgg"><path id="path0" d="M131.012 14.642 C 129.814 14.806,129.566 15.346,129.566 17.790 L 129.566 19.974 128.524 19.974 C 127.153 19.974,126.938 20.415,126.938 23.242 L 126.938 25.493 125.765 25.493 C 124.257 25.493,124.047 25.876,124.047 28.629 L 124.047 30.749 123.049 30.749 C 121.866 30.749,121.419 31.119,121.419 32.097 C 121.419 32.980,120.799 33.640,119.970 33.640 C 119.017 33.640,118.528 34.575,118.528 36.399 C 118.528 38.232,118.041 39.159,117.077 39.159 C 116.161 39.159,115.900 39.882,115.900 42.427 L 115.900 44.678 114.727 44.678 C 113.245 44.678,113.009 45.072,113.009 47.547 L 113.009 49.399 111.761 49.995 C 110.731 50.487,110.498 50.730,110.430 51.380 C 110.336 52.283,109.760 52.825,108.895 52.825 C 108.016 52.825,107.753 53.578,107.753 56.093 L 107.753 58.344 106.580 58.344 C 105.072 58.344,104.862 58.727,104.862 61.481 L 104.862 63.601 103.820 63.601 C 102.471 63.601,102.234 64.050,102.234 66.611 C 102.234 68.543,102.211 68.614,101.511 68.886 C 99.767 69.562,99.474 69.796,99.392 70.573 C 99.298 71.469,98.719 72.011,97.857 72.011 C 96.978 72.011,96.715 72.763,96.715 75.278 L 96.715 77.530 95.673 77.530 C 94.327 77.530,94.087 77.980,94.087 80.503 L 94.087 82.461 92.895 82.761 C 91.435 83.128,91.196 83.634,91.196 86.351 L 91.196 88.305 90.197 88.305 C 88.973 88.305,88.568 88.676,88.568 89.794 C 88.568 90.738,88.018 91.196,86.886 91.196 C 85.945 91.196,85.677 91.888,85.677 94.316 L 85.677 96.420 84.697 96.502 C 83.401 96.610,83.057 97.324,83.052 99.919 L 83.049 101.941 81.938 102.022 C 80.495 102.127,80.167 102.760,80.162 105.453 L 80.158 107.490 79.369 107.490 C 78.412 107.490,77.530 108.305,77.530 109.189 C 77.530 109.878,76.876 110.381,75.979 110.381 C 75.188 110.381,74.901 111.171,74.901 113.358 C 74.901 115.410,74.768 115.637,73.566 115.637 C 72.525 115.637,72.011 116.557,72.011 118.414 C 72.011 120.547,71.718 121.156,70.696 121.156 C 69.628 121.156,69.382 121.767,69.382 124.424 L 69.382 126.675 68.363 126.675 C 66.721 126.675,66.634 126.937,66.536 132.195 C 66.432 137.828,66.639 138.905,67.876 139.170 C 68.939 139.397,69.382 139.746,69.382 140.355 C 69.382 140.915,70.568 141.919,71.229 141.919 C 71.851 141.919,72.011 142.436,72.011 144.454 C 72.011 146.681,72.244 147.071,73.711 147.291 L 74.901 147.470 74.901 149.573 C 74.901 152.154,75.115 152.595,76.475 152.825 L 77.530 153.003 77.530 154.938 C 77.530 157.045,77.899 158.213,78.565 158.213 C 79.289 158.213,80.081 158.946,80.246 159.770 C 80.380 160.440,80.591 160.612,81.660 160.923 L 82.917 161.288 83.049 163.496 C 83.204 166.100,83.279 166.251,84.637 166.657 L 85.677 166.969 85.681 168.701 C 85.686 170.932,86.056 171.653,87.389 172.026 L 88.436 172.319 88.568 174.706 C 88.717 177.419,88.642 177.264,90.021 177.716 C 90.859 177.990,91.085 178.206,91.194 178.834 C 91.334 179.642,92.017 180.139,93.364 180.414 C 94.082 180.561,94.087 180.578,94.091 182.725 C 94.096 185.280,94.235 185.567,95.571 185.783 L 96.583 185.947 96.722 188.046 C 96.885 190.505,96.952 190.644,98.310 191.336 L 99.343 191.864 99.343 193.639 C 99.343 195.690,99.713 196.405,100.994 196.827 C 101.626 197.036,101.992 197.407,102.373 198.227 C 103.135 199.869,103.458 199.761,105.873 197.052 C 109.394 193.103,111.385 191.491,113.610 190.789 C 117.490 189.565,120.437 187.552,123.349 184.138 L 124.621 182.646 121.662 177.591 C 120.035 174.811,118.034 171.353,117.215 169.908 C 113.158 162.743,109.843 156.965,108.018 153.876 C 106.907 151.997,105.430 149.455,104.735 148.226 C 104.040 146.997,102.144 143.745,100.520 140.999 C 95.562 132.608,95.351 131.896,97.080 129.382 C 97.570 128.669,98.291 127.454,98.683 126.682 C 99.074 125.909,100.846 122.837,102.621 119.855 C 104.395 116.872,106.115 113.905,106.443 113.261 C 106.771 112.617,107.664 111.062,108.428 109.806 C 109.192 108.550,110.552 106.185,111.451 104.550 C 112.349 102.915,115.097 98.147,117.557 93.955 C 121.737 86.833,130.261 72.059,135.221 63.338 C 136.414 61.242,138.572 57.516,140.018 55.059 C 141.464 52.602,143.373 49.350,144.261 47.832 C 145.148 46.314,146.470 44.264,147.197 43.276 L 148.519 41.480 200.177 41.568 L 251.836 41.656 252.855 42.838 C 253.416 43.489,254.839 45.647,256.017 47.635 C 257.195 49.622,258.273 51.248,258.411 51.248 C 258.982 51.248,266.625 45.649,271.879 41.382 C 273.842 39.788,279.712 35.326,280.918 34.511 C 281.179 34.334,280.332 33.688,279.665 33.554 C 278.940 33.410,278.917 33.351,278.774 31.355 C 278.593 28.816,278.440 28.419,277.566 28.226 C 275.971 27.873,276.034 27.967,275.884 25.684 C 275.703 22.946,275.611 22.741,274.437 22.448 C 273.605 22.241,273.430 22.061,273.178 21.156 C 272.897 20.145,272.840 20.102,271.687 20.026 C 270.263 19.932,270.180 19.755,270.174 16.787 L 270.171 14.783 269.350 14.619 C 268.459 14.441,132.310 14.463,131.012 14.642 M282.246 43.318 C 279.968 44.764,270.426 52.678,268.926 54.366 C 268.119 55.274,267.818 56.319,268.282 56.605 C 269.061 57.087,283.027 46.034,284.523 43.751 C 285.395 42.420,284.060 42.165,282.246 43.318 M287.753 50.504 C 283.306 53.704,273.550 62.024,274.245 62.024 C 274.999 62.024,289.356 50.521,289.356 49.916 C 289.356 49.494,288.948 49.644,287.753 50.504 M284.877 55.869 C 274.986 64.194,270.697 68.048,270.695 68.612 C 270.694 68.819,270.408 69.343,270.059 69.777 L 269.424 70.565 270.504 72.536 C 271.098 73.620,274.557 79.652,278.192 85.940 C 281.827 92.227,288.617 104.054,293.281 112.221 C 297.946 120.388,302.253 127.779,302.852 128.647 C 304.881 131.582,304.417 133.724,300.341 140.243 C 297.741 144.400,296.382 146.725,289.217 159.264 C 278.488 178.040,271.744 189.770,269.119 194.218 C 267.711 196.603,265.119 201.131,263.360 204.279 C 261.600 207.428,259.155 211.719,257.927 213.815 C 256.699 215.911,255.258 218.460,254.725 219.479 C 253.122 222.548,257.416 222.313,198.164 222.578 L 148.628 222.799 147.573 221.619 C 146.156 220.036,144.268 217.028,139.773 209.197 C 137.701 205.586,135.926 202.631,135.830 202.630 C 135.638 202.628,127.928 218.079,123.942 226.457 C 120.696 233.279,120.549 234.847,123.115 235.328 C 123.862 235.469,124.047 235.624,124.047 236.108 C 124.047 236.876,124.773 237.534,125.987 237.870 L 126.938 238.132 126.938 240.240 C 126.938 242.828,127.141 243.245,128.506 243.463 L 129.566 243.633 129.566 245.833 C 129.566 247.888,129.606 248.045,130.158 248.209 C 131.989 248.753,249.509 249.138,264.915 248.651 L 270.039 248.489 270.265 245.973 L 270.490 243.458 271.640 243.150 C 272.707 242.865,272.812 242.757,273.089 241.658 C 273.367 240.551,273.444 240.473,274.260 240.473 C 275.369 240.473,275.437 240.347,275.798 237.618 L 276.098 235.355 277.104 235.191 C 278.400 234.981,278.483 234.817,278.700 232.041 L 278.882 229.714 279.797 229.543 C 281.129 229.293,281.584 228.460,281.372 226.657 C 281.164 224.889,281.396 224.411,282.761 223.796 C 283.541 223.444,283.897 223.085,284.112 222.434 C 284.350 221.711,284.537 221.551,285.139 221.551 C 286.393 221.551,286.571 221.032,286.974 216.229 C 286.983 216.120,287.381 216.032,287.858 216.032 C 289.186 216.032,289.356 215.682,289.356 212.957 L 289.356 210.512 290.276 210.512 C 291.915 210.512,292.234 209.875,292.575 205.929 C 292.627 205.323,292.868 205.039,293.693 204.614 C 294.591 204.151,294.755 203.933,294.824 203.116 C 294.902 202.173,294.915 202.163,295.678 202.451 C 297.036 202.964,297.579 202.104,297.717 199.220 L 297.830 196.846 298.587 196.846 C 300.072 196.846,300.927 194.926,300.583 192.362 C 300.446 191.341,300.456 191.327,301.298 191.327 C 302.706 191.327,303.138 190.588,303.247 187.998 C 303.337 185.866,303.369 185.764,304.036 185.528 C 305.238 185.104,305.515 184.854,305.652 184.072 C 305.769 183.400,305.906 183.302,306.834 183.232 C 308.322 183.120,308.541 182.690,308.541 179.882 L 308.541 177.472 309.921 177.238 L 311.301 177.004 311.432 174.639 L 311.564 172.273 312.477 172.142 C 313.644 171.974,313.960 171.348,314.191 168.740 L 314.369 166.720 315.463 166.212 C 316.313 165.816,316.587 165.527,316.690 164.915 C 316.807 164.223,316.951 164.110,317.866 163.995 C 319.235 163.822,319.571 163.138,319.576 160.512 L 319.580 158.476 320.449 158.476 C 322.012 158.476,322.292 158.040,322.418 155.402 L 322.530 153.050 323.651 152.750 C 324.982 152.394,325.086 152.178,325.286 149.343 C 325.430 147.309,325.476 147.175,326.036 147.175 C 326.883 147.175,327.464 146.910,327.464 146.525 C 327.464 145.907,328.519 144.850,329.309 144.677 C 330.390 144.439,330.618 143.872,330.618 141.410 L 330.618 139.290 331.643 139.290 C 333.144 139.290,333.246 138.785,333.246 131.350 C 333.246 124.250,333.202 124.047,331.660 124.047 L 330.618 124.047 330.618 121.583 C 330.618 118.869,330.531 118.699,329.009 118.425 C 328.165 118.274,328.039 118.147,327.904 117.317 C 327.692 116.010,327.296 115.637,326.118 115.637 L 325.099 115.637 325.099 113.325 C 325.099 110.660,324.934 110.381,323.362 110.381 L 322.257 110.381 322.167 107.743 C 322.066 104.817,321.899 104.521,320.434 104.670 L 319.580 104.756 319.580 102.689 C 319.580 100.277,319.356 99.739,318.140 99.231 C 317.439 98.938,317.209 98.661,317.075 97.949 C 316.902 97.024,316.414 96.632,315.084 96.346 C 314.431 96.205,314.392 96.100,314.254 94.082 C 314.084 91.602,313.830 91.196,312.451 91.196 L 311.432 91.196 311.432 88.752 C 311.432 85.937,311.283 85.677,309.671 85.677 L 308.541 85.677 308.541 83.333 C 308.541 80.512,308.429 80.159,307.528 80.154 C 306.554 80.148,306.271 79.898,306.045 78.844 C 305.801 77.709,305.553 77.539,304.139 77.534 L 303.022 77.530 303.022 75.186 C 303.022 72.437,302.902 72.011,302.125 72.011 C 300.990 72.011,300.668 71.477,300.486 69.295 C 300.291 66.964,299.984 66.491,298.667 66.491 L 297.766 66.491 297.766 64.308 C 297.766 61.839,297.519 61.307,296.172 60.867 C 295.451 60.632,295.230 60.381,294.992 59.527 C 294.709 58.511,294.658 58.473,293.473 58.396 L 292.247 58.315 292.247 55.986 C 292.247 52.906,292.206 52.825,290.664 52.825 C 289.956 52.825,289.356 52.694,289.301 52.527 C 289.246 52.363,287.255 53.867,284.877 55.869 M242.655 96.649 C 239.759 99.504,236.435 103.035,235.270 104.495 C 232.415 108.073,231.105 109.173,227.923 110.667 L 225.229 111.933 223.193 115.097 C 222.073 116.837,220.388 119.513,219.448 121.044 C 218.509 122.574,217.158 124.480,216.447 125.278 L 215.154 126.729 216.578 128.010 C 223.308 134.065,234.599 138.433,247.372 139.923 L 248.620 140.069 248.619 119.509 C 248.618 99.602,248.467 91.459,248.098 91.459 C 248.001 91.459,245.551 93.794,242.655 96.649 M142.156 127.187 C 129.600 127.343,129.566 127.347,129.566 128.670 C 129.566 130.470,130.797 131.086,145.729 136.757 C 148.187 137.690,150.560 138.601,151.003 138.780 C 151.735 139.076,159.984 132.777,166.216 127.163 C 166.473 126.931,162.431 126.935,142.156 127.187 M196.230 144.502 C 195.587 145.212,195.699 146.474,196.557 148.174 C 199.002 153.017,199.710 156.449,197.729 153.851 C 196.421 152.137,194.701 152.207,193.957 154.004 C 193.515 155.072,192.695 154.646,203.617 159.025 C 208.927 161.154,214.277 163.314,215.506 163.825 C 237.481 172.969,246.107 175.819,247.521 174.406 C 247.875 174.051,248.607 164.144,248.300 163.853 C 248.259 163.815,246.570 163.586,244.547 163.344 C 229.515 161.549,214.187 155.674,202.367 147.176 C 197.993 144.031,197.034 143.613,196.230 144.502 M183.842 148.350 C 181.251 150.434,181.264 150.389,183.109 150.965 C 183.943 151.225,186.329 152.136,188.412 152.988 C 190.495 153.841,192.253 154.483,192.320 154.416 C 192.821 153.916,187.184 146.640,186.308 146.656 C 186.106 146.660,184.996 147.422,183.842 148.350 " stroke="none" fill="#d15304" fill-rule="evenodd"></path><path id="path1" d="M147.197 43.276 C 146.470 44.264,145.148 46.314,144.261 47.832 C 143.373 49.350,141.464 52.602,140.018 55.059 C 138.572 57.516,136.414 61.242,135.221 63.338 C 130.261 72.059,121.737 86.833,117.557 93.955 C 115.097 98.147,112.349 102.915,111.451 104.550 C 110.552 106.185,109.192 108.550,108.428 109.806 C 107.664 111.062,106.771 112.617,106.443 113.261 C 106.115 113.905,104.395 116.872,102.621 119.855 C 100.846 122.837,99.074 125.909,98.683 126.682 C 98.291 127.454,97.570 128.669,97.080 129.382 C 95.351 131.896,95.562 132.608,100.520 140.999 C 102.144 143.745,104.040 146.997,104.735 148.226 C 105.430 149.455,106.907 151.997,108.018 153.876 C 109.843 156.965,113.158 162.743,117.215 169.908 C 122.406 179.076,124.654 182.685,124.961 182.345 C 125.133 182.154,127.182 179.573,129.514 176.610 C 131.846 173.647,134.698 170.053,135.852 168.624 C 138.543 165.294,138.693 164.821,139.163 158.157 C 139.539 152.823,139.806 150.912,140.375 149.486 C 140.677 148.729,146.902 143.127,150.805 140.100 L 151.938 139.221 150.805 138.714 C 150.183 138.435,147.780 137.499,145.467 136.634 C 131.373 131.365,129.566 130.460,129.566 128.670 C 129.566 127.282,129.857 127.261,151.230 127.062 L 166.717 126.918 167.788 125.943 C 168.377 125.406,172.042 122.306,175.933 119.054 C 189.037 108.102,194.837 103.115,201.456 97.109 C 202.315 96.330,203.310 94.681,203.067 94.438 C 202.998 94.369,202.462 94.558,201.876 94.857 C 200.594 95.510,200.048 95.536,199.255 94.981 C 198.263 94.286,198.595 93.480,199.968 93.247 C 201.435 92.998,202.195 92.493,203.050 91.201 C 203.484 90.545,204.066 90.058,204.641 89.868 C 205.648 89.535,208.284 87.499,211.342 84.689 C 213.582 82.631,216.074 80.683,216.468 80.683 C 216.609 80.683,217.359 80.210,218.134 79.632 C 219.803 78.387,219.798 78.388,221.074 79.272 C 222.140 80.011,222.865 79.841,222.865 78.852 C 222.865 76.920,249.999 55.613,256.438 52.488 C 258.130 51.667,258.528 51.373,258.253 51.145 C 258.059 50.985,256.991 49.312,255.879 47.428 C 254.766 45.544,253.401 43.474,252.846 42.829 L 251.836 41.656 200.177 41.568 L 148.519 41.480 147.197 43.276 M281.195 46.978 L 280.289 47.963 281.275 47.058 C 282.192 46.215,282.381 45.992,282.180 45.992 C 282.136 45.992,281.693 46.436,281.195 46.978 M270.549 52.628 L 269.777 53.482 270.631 52.710 C 271.427 51.991,271.606 51.774,271.403 51.774 C 271.357 51.774,270.973 52.158,270.549 52.628 M253.841 66.029 C 250.666 68.146,247.323 72.032,249.737 70.800 C 252.088 69.600,257.157 65.596,256.884 65.154 C 256.566 64.639,255.440 64.963,253.841 66.029 M272.914 66.032 L 272.142 66.886 272.996 66.114 C 273.792 65.394,273.971 65.177,273.768 65.177 C 273.723 65.177,273.338 65.562,272.914 66.032 M261.367 78.698 C 257.030 83.048,252.300 87.634,250.854 88.889 L 248.226 91.169 248.400 94.271 C 248.495 95.976,248.584 106.981,248.597 118.725 C 248.615 135.601,248.689 140.086,248.949 140.113 C 250.172 140.239,251.061 140.290,254.928 140.455 C 263.862 140.835,265.279 141.132,265.704 142.709 C 266.024 143.899,267.610 154.155,268.234 159.074 C 268.778 163.365,268.815 163.283,266.085 163.861 C 263.942 164.315,255.251 164.390,251.136 163.990 C 249.702 163.851,248.493 163.771,248.451 163.813 C 248.409 163.855,248.274 166.165,248.150 168.945 C 247.899 174.591,247.857 174.711,246.062 174.952 C 244.404 175.174,231.409 170.442,215.506 163.825 C 214.277 163.314,208.913 161.148,203.585 159.012 C 198.257 156.876,193.809 154.985,193.702 154.811 C 193.590 154.630,193.366 155.204,193.181 156.147 C 192.481 159.706,183.340 167.111,178.901 167.715 C 176.435 168.051,176.204 168.295,176.260 170.511 C 176.354 174.286,180.902 189.747,183.665 195.685 C 185.455 199.534,185.426 199.810,182.942 202.449 C 179.394 206.217,171.814 207.551,169.155 204.875 C 168.152 203.864,166.702 200.217,163.875 191.590 C 160.941 182.639,160.621 182.125,155.078 177.458 L 152.600 175.372 150.762 177.502 C 148.549 180.067,145.518 184.597,142.867 189.304 C 139.082 196.022,135.682 202.498,135.871 202.628 C 135.976 202.700,137.867 205.894,140.073 209.724 C 144.340 217.133,146.350 220.306,147.753 221.846 L 148.620 222.799 198.160 222.578 C 257.417 222.313,253.122 222.548,254.725 219.479 C 255.258 218.460,256.699 215.911,257.927 213.815 C 259.155 211.719,261.600 207.428,263.360 204.279 C 265.119 201.131,267.711 196.603,269.119 194.218 C 271.744 189.770,278.488 178.040,289.217 159.264 C 296.382 146.725,297.741 144.400,300.341 140.243 C 304.417 133.724,304.881 131.582,302.852 128.647 C 302.253 127.779,297.946 120.388,293.281 112.221 C 288.617 104.054,281.826 92.227,278.190 85.940 C 274.555 79.652,271.115 73.651,270.547 72.604 C 269.979 71.557,269.455 70.720,269.382 70.744 C 269.310 70.768,265.703 74.348,261.367 78.698 M239.514 77.639 C 236.682 79.778,233.055 83.574,233.843 83.574 C 235.279 83.574,242.307 77.790,241.962 76.892 C 241.709 76.231,241.154 76.400,239.514 77.639 M245.720 93.495 L 244.284 95.007 245.795 93.570 C 247.199 92.236,247.427 91.984,247.231 91.984 C 247.190 91.984,246.510 92.664,245.720 93.495 M240.859 98.095 L 239.290 99.737 240.933 98.169 C 241.836 97.306,242.576 96.567,242.576 96.526 C 242.576 96.332,242.316 96.569,240.859 98.095 M232.580 107.424 L 231.143 108.936 232.654 107.499 C 233.486 106.709,234.166 106.029,234.166 105.988 C 234.166 105.793,233.914 106.021,232.580 107.424 M224.179 112.537 C 222.560 113.658,220.005 115.891,215.568 120.067 L 211.819 123.594 213.464 125.209 L 215.109 126.824 216.445 125.292 C 217.180 124.450,218.540 122.520,219.469 121.004 C 220.397 119.488,222.115 116.774,223.287 114.972 C 224.458 113.170,225.404 111.700,225.389 111.707 C 225.374 111.713,224.829 112.087,224.179 112.537 M216.294 127.809 C 216.294 127.854,216.679 128.239,217.148 128.663 L 218.003 129.435 217.231 128.581 C 216.511 127.785,216.294 127.606,216.294 127.809 M179.684 151.889 C 176.878 154.864,176.644 155.780,178.159 157.869 C 179.349 159.512,181.308 160.411,183.339 160.248 C 185.150 160.103,185.319 160.370,183.813 160.999 C 182.155 161.692,179.756 161.480,177.816 160.469 C 175.386 159.202,174.802 159.123,172.800 159.789 C 171.339 160.276,171.129 160.422,171.338 160.811 C 171.761 161.603,176.978 166.470,177.964 166.994 L 178.910 167.496 180.716 166.503 C 184.652 164.341,190.803 159.332,191.973 157.336 C 192.607 156.253,192.930 154.061,192.408 154.384 C 192.279 154.463,190.476 153.835,188.400 152.988 C 186.324 152.140,183.975 151.237,183.180 150.980 C 182.385 150.724,181.665 150.408,181.580 150.278 C 181.496 150.148,180.642 150.873,179.684 151.889 M198.004 154.205 C 198.279 154.530,198.605 154.796,198.727 154.796 C 198.849 154.796,198.935 154.530,198.918 154.205 C 198.894 153.730,198.863 153.708,198.764 154.093 C 198.644 154.558,198.622 154.558,198.072 154.093 L 197.503 153.614 198.004 154.205 M108.393 194.284 L 107.622 195.138 108.476 194.366 C 109.272 193.647,109.451 193.430,109.248 193.430 C 109.202 193.430,108.818 193.814,108.393 194.284 M129.083 215.386 C 128.643 216.352,128.727 216.558,129.203 215.680 C 129.426 215.270,129.558 214.885,129.498 214.825 C 129.438 214.764,129.251 215.017,129.083 215.386 " stroke="none" fill="#ffb778" fill-rule="evenodd"></path><path id="path2" d="M311.231 1.201 C 308.573 2.526,308.072 4.587,309.737 7.359 C 311.218 9.824,313.009 16.652,313.009 19.830 C 313.009 21.551,313.238 21.270,308.715 25.099 C 297.605 34.502,292.097 36.768,286.662 34.174 C 283.591 32.709,282.954 32.764,280.697 34.690 C 280.184 35.129,277.694 37.085,275.164 39.038 C 272.635 40.991,268.909 43.867,266.886 45.429 C 261.669 49.456,259.284 51.072,256.599 52.399 C 249.853 55.731,222.865 76.894,222.865 78.852 C 222.865 79.841,222.140 80.011,221.074 79.272 C 219.798 78.388,219.803 78.387,218.134 79.632 C 217.359 80.210,216.609 80.683,216.468 80.683 C 216.074 80.683,213.582 82.631,211.342 84.689 C 208.284 87.499,205.648 89.535,204.641 89.868 C 204.066 90.058,203.484 90.545,203.050 91.201 C 202.195 92.493,201.435 92.998,199.968 93.247 C 198.595 93.480,198.263 94.286,199.255 94.981 C 200.048 95.536,200.594 95.510,201.876 94.857 C 202.462 94.558,202.998 94.369,203.067 94.438 C 203.310 94.681,202.315 96.329,201.457 97.109 C 197.203 100.972,192.648 104.962,187.901 108.986 C 175.869 119.183,161.922 130.866,148.494 141.997 C 143.911 145.796,140.647 148.804,140.379 149.477 C 139.806 150.912,139.539 152.813,139.163 158.157 C 138.696 164.770,138.530 165.307,135.964 168.492 C 131.706 173.776,128.005 178.441,125.876 181.203 C 121.760 186.543,118.467 189.325,114.929 190.448 C 110.817 191.754,106.771 195.453,98.300 205.650 C 94.297 210.469,87.251 218.666,80.462 226.402 C 75.597 231.944,73.858 234.281,73.853 235.282 C 73.849 236.055,75.622 237.765,80.289 241.490 C 86.822 246.704,97.155 255.471,100.263 258.436 C 103.238 261.275,106.388 262.219,107.597 260.634 C 108.695 259.194,120.859 233.730,121.463 231.605 C 121.925 229.982,132.902 207.716,137.145 199.798 C 144.407 186.243,147.267 181.563,150.783 177.481 L 152.600 175.372 155.078 177.458 C 160.621 182.125,160.941 182.639,163.875 191.590 C 166.702 200.217,168.152 203.864,169.155 204.875 C 171.814 207.551,179.394 206.217,182.942 202.449 C 185.426 199.810,185.455 199.534,183.665 195.685 C 180.902 189.747,176.354 174.286,176.260 170.511 C 176.204 168.295,176.435 168.051,178.901 167.715 C 183.266 167.121,192.445 159.736,193.164 156.240 C 193.953 152.407,195.556 151.434,197.604 153.545 C 199.323 155.316,198.718 152.712,196.295 147.912 C 194.812 144.974,195.966 143.162,198.502 144.448 C 198.964 144.682,200.510 145.709,201.936 146.728 C 211.726 153.729,225.912 159.948,236.794 162.010 C 249.865 164.486,266.339 165.048,268.303 163.085 C 268.754 162.633,268.477 160.023,266.869 149.565 C 265.426 140.177,266.362 141.035,257.092 140.599 C 247.978 140.169,245.636 139.937,240.867 138.992 C 229.253 136.689,221.610 132.998,214.639 126.326 L 211.802 123.610 215.559 120.075 C 222.631 113.421,224.033 112.342,228.005 110.499 C 230.929 109.141,232.159 108.073,235.702 103.811 C 238.755 100.138,243.952 94.964,249.382 90.190 C 257.837 82.758,270.696 69.609,270.696 68.397 C 270.696 67.765,288.598 52.168,289.324 52.168 C 289.433 52.168,291.111 50.848,293.053 49.234 C 306.226 38.284,316.487 29.976,321.671 26.063 C 323.905 24.376,326.376 22.376,327.162 21.619 L 328.590 20.241 328.423 18.638 L 328.255 17.034 329.699 15.647 C 332.676 12.787,331.004 10.408,325.976 10.350 C 323.423 10.320,323.210 10.275,322.277 9.565 C 319.912 7.765,315.821 3.058,315.496 1.763 C 315.142 0.352,313.396 0.122,311.231 1.201 M319.644 10.806 C 320.285 11.668,319.876 12.641,318.344 13.905 C 315.622 16.148,313.674 14.584,315.680 11.766 C 316.942 9.994,318.721 9.563,319.644 10.806 M318.222 25.982 C 318.038 26.455,302.048 39.422,301.648 39.422 C 300.844 39.422,302.820 37.559,308.804 32.676 C 314.294 28.196,318.531 25.185,318.222 25.982 M284.758 42.745 C 285.853 43.840,269.821 57.295,268.174 56.663 C 266.909 56.177,268.500 54.267,273.979 49.695 C 282.607 42.496,283.763 41.750,284.758 42.745 M289.356 49.884 C 289.356 50.674,275.034 62.286,274.060 62.286 C 273.139 62.286,279.680 56.493,286.295 51.449 C 289.169 49.259,289.356 49.163,289.356 49.884 M256.884 65.154 C 257.157 65.596,252.088 69.600,249.737 70.800 C 248.315 71.526,248.658 70.649,250.526 68.784 C 253.299 66.015,256.343 64.278,256.884 65.154 M241.962 76.892 C 242.307 77.790,235.279 83.574,233.843 83.574 C 233.055 83.574,236.682 79.778,239.514 77.639 C 241.154 76.400,241.709 76.231,241.962 76.892 M187.825 147.766 C 190.623 150.725,192.641 153.905,192.641 155.354 C 192.641 157.673,186.729 163.201,180.716 166.503 L 178.910 167.496 177.964 166.994 C 176.978 166.470,171.761 161.603,171.338 160.811 C 171.129 160.422,171.339 160.276,172.800 159.789 C 174.802 159.123,175.386 159.202,177.816 160.469 C 179.756 161.480,182.155 161.692,183.813 160.999 C 185.323 160.368,185.134 160.116,183.239 160.234 C 180.450 160.409,177.750 158.487,177.255 155.975 C 176.972 154.533,180.252 150.797,184.739 147.451 C 186.497 146.139,186.264 146.116,187.825 147.766 " stroke="none" fill="#000101" fill-rule="evenodd"></path></g></svg>