<?xml version="1.0" encoding="UTF-8" standalone="no" ?>
<!DOCTYPE svg PUBLIC "-//W3C//DTD SVG 1.1//EN" "http://www.w3.org/Graphics/SVG/1.1/DTD/svg11.dtd">
<svg xmlns="http://www.w3.org/2000/svg" xmlns:xlink="http://www.w3.org/1999/xlink" version="1.1" width="400" height="263" viewBox="0 0 400 263" xml:space="preserve">
<desc>Created with Fabric.js 3.6.6</desc>
<defs>
</defs>
<g transform="matrix(1 0 0 1 200 131.33)"  >
<g style=""   >
		<g transform="matrix(1 0 0 1 0.19 0.44)" id="path0"  >
<path style="stroke: none; stroke-width: 1; stroke-dasharray: none; stroke-linecap: butt; stroke-dashoffset: 0; stroke-linejoin: miter; stroke-miterlimit: 4; fill: rgb(251,243,131); fill-rule: evenodd; opacity: 1;"  transform=" translate(-200.19, -131.78)" d="M 156.992 42.514 L 148.807 42.583 L 146.701 45.799 C 145.544 47.567 143.866 50.375 142.973 52.037 C 141.544 54.698 137.667 61.353 134.095 67.28 C 133.441 68.364 131.879 71.084 130.624 73.325 C 127.242 79.357 120.275 91.437 118.269 94.744 C 117.304 96.334 115.65 99.172 114.593 101.051 C 113.535 102.93 111.874 105.828 110.902 107.49 C 109.929 109.152 108.865 111.045 108.537 111.695 C 108.209 112.346 106.674 115.007 105.125 117.608 C 103.576 120.21 101.565 123.64 100.656 125.23 C 99.747 126.82 98.636 128.589 98.187 129.162 C 96.422 131.414 97.347 134.273 102.44 142.313 C 104.652 145.804 107.78 151.139 110.276 155.677 C 110.901 156.811 111.521 157.876 111.654 158.042 C 111.928 158.383 116.851 166.966 119.967 172.536 C 121.099 174.56 122.273 176.57 122.576 177.004 C 122.879 177.438 124.616 180.453 126.436 183.706 C 128.257 186.958 130.781 191.393 132.047 193.561 C 133.312 195.729 135.003 198.686 135.803 200.131 C 139.245 206.346 146.363 218.4 147.482 219.908 L 148.506 221.288 L 200.109 221.288 L 251.713 221.288 L 252.652 220.248 C 253.168 219.677 253.83 218.739 254.123 218.166 C 254.416 217.592 255.464 215.783 256.452 214.146 C 257.44 212.509 259.5 208.922 261.029 206.176 C 262.559 203.43 265.507 198.258 267.582 194.682 C 271.026 188.746 272.991 185.345 276.182 179.792 C 276.815 178.692 277.744 177.024 278.247 176.084 C 278.75 175.145 279.72 173.43 280.403 172.273 C 281.086 171.117 282.864 168.042 284.353 165.44 C 285.843 162.838 287.396 160.177 287.804 159.527 C 288.212 158.876 288.921 157.635 289.378 156.767 C 291.115 153.472 295.762 145.462 297.262 143.179 C 300.185 138.726 302.816 133.842 302.955 132.609 C 303.111 131.227 303.372 131.768 298.381 123.127 C 296.21 119.369 292.63 113.16 290.425 109.33 C 288.22 105.499 286.09 101.833 285.693 101.183 C 285.295 100.532 283.101 96.689 280.817 92.641 C 276.76 85.453 274.66 81.811 271.342 76.216 C 270.442 74.698 268.466 71.268 266.95 68.594 C 262.953 61.542 262.216 60.26 259.392 55.453 C 257.991 53.068 256.012 49.698 254.995 47.963 C 253.977 46.229 252.639 44.236 252.02 43.536 L 250.896 42.262 L 208.037 42.353 C 184.464 42.403 161.494 42.475 156.992 42.514 M 248.275 80.101 C 249.611 80.951 249.747 84.842 249.716 121.288 C 249.69 151.58 249.406 172.106 248.983 174.208 C 248.483 176.696 244.155 176.432 236.399 173.441 C 234.087 172.549 229.711 170.881 226.675 169.734 C 219.793 167.134 214.575 165.069 211.17 163.6 C 209.724 162.976 208.252 162.38 207.899 162.276 C 207.546 162.172 206.481 161.732 205.534 161.298 C 203.695 160.455 199.888 158.962 194.35 156.91 C 192.47 156.214 187.681 154.343 183.706 152.753 C 179.731 151.162 175.466 149.504 174.229 149.069 C 172.992 148.633 170.627 147.718 168.973 147.036 C 167.319 146.354 163.778 144.989 161.104 144.003 C 158.43 143.017 153.758 141.216 150.723 140.002 C 147.687 138.788 142.72 136.813 139.685 135.614 C 129.29 131.505 127.594 130.362 128.418 128.019 C 129.132 125.989 133.158 125.789 182.129 125.351 C 215.735 125.05 215.409 125.065 216.126 123.722 C 216.378 123.251 216.93 122.273 217.353 121.551 C 218.743 119.174 218.076 116.541 216.584 118.518 C 214.587 121.166 213.47 121.687 209.825 121.673 L 207.49 121.665 L 209.232 119.998 C 213.812 115.615 217.423 113.609 218.146 115.046 C 218.781 116.308 219.473 117.214 219.804 117.214 C 220.117 117.214 223.416 112.421 224.293 110.694 C 224.535 110.215 225.126 109.388 225.604 108.854 C 226.454 107.907 230.22 102.261 232.672 98.258 C 233.347 97.156 234.885 94.909 236.09 93.265 C 237.294 91.621 239.384 88.679 240.733 86.728 C 244.879 80.731 246.721 79.113 248.275 80.101 M 202.497 120.444 C 202.93 121.052 203.325 121.639 203.373 121.748 C 203.477 121.982 201.174 122.006 200.329 121.779 C 199.528 121.565 199.584 121.208 200.577 120.183 C 201.614 119.114 201.543 119.104 202.497 120.444" stroke-linecap="round" />
</g>
		<g transform="matrix(1 0 0 1 -0.12 0.33)" id="path1"  >
<path style="stroke: none; stroke-width: 1; stroke-dasharray: none; stroke-linecap: butt; stroke-dashoffset: 0; stroke-linejoin: miter; stroke-miterlimit: 4; fill: rgb(211,197,4); fill-rule: evenodd; opacity: 1;"  transform=" translate(-199.88, -131.67)" d="M 130.092 14.98 C 129.649 15.423 129.566 15.856 129.566 17.74 L 129.566 19.974 L 128.524 19.974 C 127.153 19.974 126.938 20.415 126.938 23.242 L 126.938 25.493 L 125.765 25.493 C 124.257 25.493 124.047 25.876 124.047 28.629 L 124.047 30.749 L 123.028 30.749 C 121.879 30.749 121.497 31.082 121.255 32.295 C 121.079 33.17 120.506 33.64 119.612 33.64 C 118.898 33.64 118.774 33.908 118.508 36.029 C 118.229 38.251 117.939 38.837 117.009 39.065 C 115.987 39.315 115.909 39.541 115.904 42.247 L 115.9 44.678 L 114.727 44.678 C 113.328 44.678 113.138 44.935 112.883 47.175 C 112.646 49.257 112.516 49.671 112.101 49.671 C 111.496 49.671 110.579 50.598 110.278 51.514 C 110.07 52.144 109.775 52.453 109.247 52.593 C 107.872 52.957 107.753 53.22 107.753 55.88 L 107.753 58.344 L 106.58 58.344 C 105.072 58.344 104.862 58.727 104.862 61.481 L 104.862 63.601 L 103.82 63.601 C 102.566 63.601 102.353 63.911 102.115 66.097 C 101.837 68.648 101.776 68.8 100.947 68.982 C 100.055 69.178 99.508 69.739 99.164 70.81 C 98.99 71.351 98.651 71.67 98.02 71.882 C 96.943 72.245 96.777 72.713 96.741 75.493 L 96.715 77.53 L 95.673 77.53 C 94.363 77.53 94.136 77.915 93.917 80.508 L 93.752 82.461 L 92.725 82.769 C 91.45 83.151 91.196 83.746 91.196 86.351 L 91.196 88.305 L 90.177 88.305 C 89.029 88.305 88.709 88.585 88.445 89.818 C 88.254 90.712 87.661 91.196 86.755 91.196 C 85.952 91.196 85.677 91.992 85.677 94.316 L 85.677 96.42 L 84.697 96.502 C 83.401 96.61 83.057 97.324 83.052 99.919 L 83.049 101.941 L 81.938 102.022 C 80.495 102.127 80.167 102.76 80.162 105.453 L 80.158 107.49 L 79.279 107.49 C 78.29 107.49 77.53 108.15 77.53 109.007 C 77.53 109.617 76.625 110.381 75.903 110.381 C 75.253 110.381 74.951 111.096 74.743 113.122 C 74.557 114.938 74.167 115.637 73.338 115.637 C 72.587 115.637 72.257 116.258 71.987 118.182 C 71.636 120.69 71.542 120.895 70.666 121.07 C 69.591 121.286 69.382 121.83 69.382 124.424 L 69.382 126.675 L 68.363 126.675 C 66.721 126.675 66.634 126.937 66.536 132.195 C 66.429 137.956 66.61 138.808 68.065 139.39 C 68.769 139.671 69.16 140.016 69.268 140.449 C 69.459 141.207 70.096 141.826 70.821 141.959 C 71.581 142.099 72.002 143.153 72.011 144.941 C 72.02 146.805 72.156 147.076 73.196 147.31 C 75.005 147.716 74.901 147.561 74.905 149.886 C 74.91 152.429 74.999 152.613 76.358 152.895 L 77.398 153.11 L 77.465 154.939 C 77.56 157.537 77.685 157.882 78.721 158.414 C 79.236 158.678 79.843 159.288 80.097 159.798 C 80.437 160.479 80.828 160.797 81.643 161.055 C 82.872 161.444 83.039 161.79 83.045 163.946 C 83.049 165.649 83.314 166.188 84.356 166.62 C 85.187 166.964 85.223 167.046 85.667 169.616 C 85.98 171.423 86.203 171.752 87.378 172.14 C 88.408 172.48 88.559 172.901 88.564 175.453 L 88.568 177.318 L 89.624 177.734 C 90.397 178.037 90.783 178.393 91.061 179.059 C 91.437 179.959 92.446 180.552 93.6 180.552 C 94.035 180.552 94.087 180.786 94.087 182.736 C 94.087 185.209 94.307 185.666 95.664 186.004 L 96.583 186.234 L 96.723 188.355 C 96.859 190.436 97.216 191.327 97.911 191.327 C 98.609 191.327 99.008 192.123 99.187 193.87 C 99.397 195.931 99.767 196.632 100.89 197.097 C 101.33 197.279 101.93 197.835 102.223 198.333 C 102.526 198.846 103.155 199.404 103.678 199.622 C 104.185 199.834 104.604 200.094 104.611 200.201 C 104.836 203.98 105.239 204.921 106.736 205.161 L 107.753 205.323 L 107.753 207.623 C 107.753 210.139 107.846 210.32 109.33 210.701 L 110.25 210.938 L 110.381 213.122 C 110.498 215.064 110.583 215.353 111.15 215.734 C 111.5 215.97 112.3 216.695 112.929 217.346 C 113.557 217.996 114.453 218.657 114.92 218.813 C 115.767 219.098 115.769 219.103 115.9 221.232 C 116.042 223.531 116.23 223.884 117.554 224.332 C 118.394 224.617 118.397 224.625 118.54 226.796 C 118.695 229.156 119.192 229.961 120.498 229.961 C 121.203 229.961 121.41 230.535 121.416 232.506 C 121.421 234.439 121.745 235.11 122.848 235.474 C 123.472 235.68 123.836 235.989 123.94 236.401 C 124.147 237.225 124.772 237.75 125.887 238.036 L 126.807 238.271 L 126.882 240.531 C 126.965 243.006 127.133 243.31 128.582 243.604 L 129.435 243.778 L 129.566 246.002 L 129.698 248.226 L 131.012 248.404 C 134.83 248.921 255.528 249.199 266.689 248.717 L 270.171 248.566 L 270.174 246.688 C 270.18 244.025 270.316 243.679 271.484 243.364 C 272.59 243.066 272.88 242.789 273.235 241.686 C 273.408 241.151 273.745 240.843 274.387 240.635 C 275.371 240.317 275.909 239.286 275.938 237.665 C 275.96 236.424 276.396 235.48 276.947 235.48 C 278.061 235.48 278.405 234.854 278.695 232.304 L 278.975 229.849 L 279.854 229.67 C 281.144 229.407 281.327 229.092 281.472 226.87 C 281.602 224.866 281.609 224.85 282.688 224.057 C 283.285 223.618 283.963 222.949 284.194 222.57 C 284.44 222.169 284.948 221.815 285.413 221.722 C 286.384 221.527 286.598 221.027 286.843 218.378 L 287.027 216.388 L 288.126 216.144 L 289.225 215.9 L 289.3 213.366 L 289.374 210.832 L 290.547 210.656 C 291.965 210.444 292.117 210.199 292.489 207.522 C 292.826 205.101 292.8 205.155 293.822 204.732 C 294.335 204.519 294.673 204.155 294.77 203.712 C 294.853 203.333 294.95 202.905 294.985 202.762 C 295.02 202.619 295.475 202.539 295.997 202.584 C 297.298 202.696 297.766 201.781 297.766 199.122 L 297.766 197.168 L 298.698 196.993 C 300.051 196.739 300.655 195.627 300.656 193.39 L 300.657 191.642 L 301.639 191.41 C 302.861 191.121 303.275 190.373 303.285 188.436 C 303.295 186.403 303.475 185.937 304.408 185.518 C 304.859 185.316 305.419 184.8 305.654 184.37 C 305.937 183.851 306.36 183.531 306.915 183.418 C 308.404 183.113 308.541 182.835 308.541 180.131 L 308.541 177.671 L 309.264 177.525 C 311.474 177.078 311.602 176.888 311.664 173.949 C 311.694 172.531 311.727 172.464 312.472 172.315 C 313.563 172.097 314.062 171.172 314.241 169.037 C 314.417 166.937 314.437 166.896 315.506 166.357 C 315.94 166.139 316.472 165.589 316.689 165.134 C 316.993 164.497 317.3 164.273 318.036 164.154 C 319.192 163.966 319.484 163.353 319.663 160.742 C 319.792 158.863 320.027 158.487 321.076 158.48 C 322.058 158.473 322.47 157.525 322.47 155.274 L 322.47 153.24 L 323.491 152.965 C 324.826 152.605 325.089 152.245 325.253 150.553 C 325.542 147.575 325.583 147.463 326.475 147.232 C 326.991 147.099 327.464 146.724 327.727 146.242 C 327.959 145.815 328.526 145.275 328.986 145.041 C 330.571 144.236 330.618 144.139 330.618 141.624 L 330.618 139.29 L 331.675 139.29 C 333.179 139.29 333.246 138.957 333.246 131.503 C 333.246 124.238 333.205 124.047 331.66 124.047 L 330.618 124.047 L 330.618 121.583 C 330.618 118.951 330.545 118.787 329.191 118.351 C 328.768 118.214 328.343 117.932 328.248 117.724 C 327.362 115.791 327.341 115.771 326.207 115.688 L 325.099 115.607 L 325.099 113.309 C 325.099 110.654 324.935 110.381 323.338 110.381 L 322.208 110.381 L 322.208 107.998 C 322.208 105.042 322.002 104.599 320.632 104.599 L 319.6 104.599 L 319.524 102.311 L 319.448 100.024 L 318.423 99.328 C 317.817 98.917 317.239 98.235 317.01 97.66 C 316.722 96.938 316.429 96.65 315.873 96.539 C 314.816 96.327 314.633 96.006 314.323 93.824 C 313.994 91.504 313.775 91.196 312.451 91.196 L 311.432 91.196 L 311.432 88.731 C 311.432 85.96 311.322 85.761 309.721 85.631 L 308.673 85.545 L 308.541 83.135 C 308.398 80.497 308.426 80.564 307.208 79.938 C 306.643 79.647 306.263 79.193 306.071 78.581 C 305.794 77.7 305.723 77.658 304.411 77.582 L 303.04 77.503 L 302.966 74.838 L 302.891 72.174 L 302.026 71.951 C 301.035 71.694 300.812 71.252 300.534 68.988 C 300.265 66.791 300.058 66.491 298.808 66.491 L 297.766 66.491 L 297.766 64.24 C 297.766 61.632 297.559 61.102 296.454 60.881 C 295.811 60.752 295.547 60.482 295.14 59.532 C 294.643 58.373 294.602 58.344 293.439 58.344 L 292.247 58.344 L 292.247 56 C 292.247 52.901 292.209 52.825 290.651 52.825 L 289.374 52.825 L 289.3 50.148 L 289.225 47.47 L 288.36 47.246 C 287.346 46.984 287.131 46.531 286.877 44.119 C 286.704 42.483 286.635 42.341 285.728 41.754 C 285.198 41.411 284.596 40.775 284.391 40.341 C 283.903 39.308 283.657 39.168 282.326 39.163 L 281.209 39.159 L 281.209 36.908 C 281.209 34.633 280.942 33.64 280.33 33.64 C 279.441 33.64 279.058 32.938 278.828 30.888 C 278.574 28.622 278.455 28.41 277.212 28.003 C 276.289 27.701 276.022 27.124 275.979 25.335 C 275.943 23.858 275.468 22.604 274.941 22.593 C 274.266 22.58 273.679 22.016 273.234 20.95 C 272.848 20.026 272.761 19.974 271.63 19.974 L 270.434 19.974 L 270.434 17.374 C 270.434 15.245 270.358 14.745 270.018 14.614 C 268.673 14.098 130.613 14.459 130.092 14.98 M 252.02 43.536 C 252.639 44.236 253.977 46.229 254.995 47.963 C 256.012 49.698 257.991 53.068 259.392 55.453 C 262.216 60.26 262.953 61.542 266.95 68.594 C 268.466 71.268 270.442 74.698 271.342 76.216 C 274.66 81.811 276.76 85.453 280.817 92.641 C 283.101 96.689 285.295 100.532 285.693 101.183 C 286.09 101.833 288.22 105.499 290.425 109.33 C 292.63 113.16 296.21 119.369 298.381 123.127 C 303.372 131.768 303.111 131.227 302.955 132.609 C 302.816 133.842 300.185 138.726 297.262 143.179 C 295.762 145.462 291.115 153.472 289.378 156.767 C 288.921 157.635 288.212 158.876 287.804 159.527 C 287.396 160.177 285.843 162.838 284.353 165.44 C 282.864 168.042 281.086 171.117 280.403 172.273 C 279.72 173.43 278.75 175.145 278.247 176.084 C 277.744 177.024 276.815 178.692 276.182 179.792 C 272.991 185.345 271.026 188.746 267.582 194.682 C 265.507 198.258 262.559 203.43 261.029 206.176 C 259.5 208.922 257.44 212.509 256.452 214.146 C 255.464 215.783 254.416 217.592 254.123 218.166 C 253.83 218.739 253.168 219.677 252.652 220.248 L 251.713 221.288 L 200.109 221.288 L 148.506 221.288 L 147.482 219.908 C 146.363 218.4 139.245 206.346 135.803 200.131 C 135.003 198.686 133.312 195.729 132.047 193.561 C 130.781 191.393 128.257 186.958 126.436 183.706 C 124.616 180.453 122.879 177.438 122.576 177.004 C 122.273 176.57 121.099 174.56 119.967 172.536 C 116.851 166.966 111.928 158.383 111.654 158.042 C 111.521 157.876 110.901 156.811 110.276 155.677 C 107.78 151.139 104.652 145.804 102.44 142.313 C 97.347 134.273 96.422 131.414 98.187 129.162 C 98.636 128.589 99.747 126.82 100.656 125.23 C 101.565 123.64 103.576 120.21 105.125 117.608 C 106.674 115.007 108.209 112.346 108.537 111.695 C 108.865 111.045 109.929 109.152 110.902 107.49 C 111.874 105.828 113.535 102.93 114.593 101.051 C 115.65 99.172 117.304 96.334 118.269 94.744 C 120.275 91.437 127.242 79.357 130.624 73.325 C 131.879 71.084 133.441 68.364 134.095 67.28 C 137.667 61.353 141.544 54.698 142.973 52.037 C 143.866 50.375 145.544 47.567 146.701 45.799 L 148.807 42.583 L 156.992 42.514 C 161.494 42.475 184.464 42.403 208.037 42.353 L 250.896 42.262 L 252.02 43.536 M 245.941 80.488 C 244.684 81.251 243.726 82.399 240.733 86.728 C 239.384 88.679 237.294 91.621 236.09 93.265 C 234.885 94.909 233.347 97.156 232.672 98.258 C 230.22 102.261 226.454 107.907 225.604 108.854 C 225.126 109.388 224.535 110.215 224.293 110.694 C 223.416 112.421 220.117 117.214 219.804 117.214 C 219.473 117.214 218.781 116.308 218.146 115.046 C 217.423 113.609 213.812 115.615 209.232 119.998 L 207.49 121.665 L 209.825 121.673 C 213.47 121.687 214.587 121.166 216.584 118.518 C 218.076 116.541 218.743 119.174 217.353 121.551 C 216.93 122.273 216.378 123.251 216.126 123.722 C 215.409 125.065 215.735 125.05 182.129 125.351 C 133.158 125.789 129.132 125.989 128.418 128.019 C 127.594 130.362 129.29 131.505 139.685 135.614 C 142.72 136.813 147.687 138.788 150.723 140.002 C 153.758 141.216 158.43 143.017 161.104 144.003 C 163.778 144.989 167.319 146.354 168.973 147.036 C 170.627 147.718 172.992 148.633 174.229 149.069 C 175.466 149.504 179.731 151.162 183.706 152.753 C 187.681 154.343 192.47 156.214 194.35 156.91 C 199.888 158.962 203.695 160.455 205.534 161.298 C 206.481 161.732 207.546 162.172 207.899 162.276 C 208.252 162.38 209.724 162.976 211.17 163.6 C 214.575 165.069 219.793 167.134 226.675 169.734 C 229.711 170.881 234.087 172.549 236.399 173.441 C 244.155 176.432 248.483 176.696 248.983 174.208 C 249.67 170.797 250.07 92.419 249.438 85.217 C 248.963 79.803 248.376 79.009 245.941 80.488 M 200.577 120.183 C 199.584 121.208 199.528 121.565 200.329 121.779 C 201.174 122.006 203.477 121.982 203.373 121.748 C 203.183 121.32 201.7 119.336 201.563 119.327 C 201.483 119.321 201.039 119.707 200.577 120.183" stroke-linecap="round" />
</g>
</g>
</g>
<g transform="matrix(0.74 0 0 0.74 196.89 132.29)" id="path0"  >
<path style="stroke: none; stroke-width: 1; stroke-dasharray: none; stroke-linecap: butt; stroke-dashoffset: 0; stroke-linejoin: miter; stroke-miterlimit: 4; fill: rgb(0,0,0); fill-rule: evenodd; opacity: 1;"  transform=" translate(-205.47, -156.43)" d="M 365.656 23.613 C 361.466 26.409 357.875 29.107 357.675 29.607 C 357.475 30.108 356.677 30.518 355.901 30.518 C 355.125 30.518 353.817 31.333 352.994 32.33 C 349.798 36.204 307.129 63.293 305.875 62.245 C 305.192 61.673 301.935 57.488 298.638 52.944 C 288.612 39.128 286.227 40.361 285.057 59.964 C 284.287 72.872 283.891 74.191 281.504 71.804 C 280.604 70.904 276.476 73.097 265.755 80.173 C 257.764 85.447 244.237 94.34 235.695 99.937 C 224.453 107.301 220.163 110.702 220.163 112.248 C 220.163 113.522 218.838 115.071 216.882 116.083 C 214.178 117.481 213.719 118.254 214.275 120.47 C 215.309 124.591 214.423 123.803 208.719 115.531 C 205.256 110.508 202.736 107.902 201.341 107.902 C 199.595 107.902 156.517 131.155 147.139 137.16 C 145.64 138.119 144.004 138.781 143.503 138.631 C 139.263 137.357 132.44 146.599 135.182 149.902 C 135.933 150.807 136.682 153.241 136.846 155.31 C 137.01 157.38 137.47 160.554 137.867 162.365 C 138.493 165.215 138.214 165.8 135.78 166.725 C 132.508 167.969 132.445 168.213 134.568 171.454 C 137.25 175.547 111.395 197.46 97.772 202.639 C 95.227 203.607 93.931 204.47 59.542 228.105 C 48.23 235.879 37.063 242.991 34.728 243.909 C 29.072 246.13 29.353 246.849 42.892 264.801 C 55.777 281.887 68.144 295.27 69.601 293.704 C 70.144 293.12 70.921 286.512 71.329 279.019 C 72.038 265.983 73.212 261.23 74.74 265.213 C 76.291 269.254 79.013 267.019 82.167 259.115 C 85.808 249.99 88.205 246.618 89.535 248.748 C 90.699 250.614 94.397 248.331 93.98 246.003 C 93.817 245.088 95.288 243.081 97.25 241.542 C 101.12 238.509 101.174 239.044 96.223 231.422 C 94.765 229.178 95.025 228.827 101.294 224.57 C 104.928 222.102 107.912 219.487 107.925 218.76 C 107.937 218.033 111.155 215.331 115.076 212.755 C 118.997 210.179 123.204 206.378 124.426 204.308 C 125.647 202.238 127 200.545 127.432 200.545 C 127.864 200.545 130.146 198.909 132.501 196.91 C 138.331 191.962 141.307 191.319 143.425 194.552 C 145.687 198.004 147.957 198.679 150.74 196.73 C 154.235 194.282 158.843 194.711 161.902 197.771 C 164.569 200.437 164.578 200.517 164.578 222.839 C 164.578 236.406 164.99 245.232 165.623 245.232 C 167.517 245.232 187.815 237.689 188.935 236.569 C 189.669 235.835 189.428 234.809 188.205 233.457 C 185.745 230.739 184.371 215.495 186.369 213.088 C 187.52 211.7 187.452 211.055 185.981 209.431 C 181.544 204.528 185.835 199.414 203.567 188.475 L 209.315 184.929 L 218.826 194.571 C 229.865 205.761 243.912 217.984 245.735 217.984 C 246.428 217.984 251.244 212.784 256.437 206.428 L 265.879 194.872 L 256.333 186.971 C 244.329 177.036 232.999 164.677 233.625 162.201 C 233.881 161.192 232.872 159.233 231.382 157.841 C 226.218 153.018 222.988 146.258 224.384 143.193 C 225.234 141.328 225.279 139.833 224.528 138.429 C 222.821 135.239 223.231 134.629 225.624 136.795 C 227.751 138.719 227.893 138.706 230.414 136.338 C 232.641 134.245 233.326 134.093 235.215 135.273 C 237.676 136.81 234.128 139.049 274.039 110.775 C 293.405 97.055 295.368 95.373 295.368 92.492 C 295.368 90.111 296.048 89.061 298.093 88.283 C 299.591 87.714 300.817 86.77 300.817 86.187 C 300.817 85.603 302.044 83.803 303.542 82.186 C 305.041 80.569 306.267 78.336 306.267 77.225 C 306.267 74.567 308.082 74.649 309.79 77.384 C 311.261 79.74 313.896 80.342 313.896 78.322 C 313.896 77.639 314.712 76.483 315.708 75.755 C 318.319 73.846 316.862 70.858 313.691 71.616 C 312.305 71.947 321.342 65.288 333.773 56.817 C 346.204 48.347 356.726 41.417 357.155 41.417 C 360.35 41.417 380.256 26.485 379.677 24.523 C 377.584 17.432 375.154 17.274 365.656 23.613 M 292.662 57.099 C 293.8 57.932 295.244 58.417 295.869 58.176 C 296.495 57.936 297.62 58.72 298.368 59.919 C 299.759 62.147 299.286 62.614 290.191 67.988 C 289.162 68.596 288.828 67.175 288.828 62.19 C 288.828 55.252 289.292 54.636 292.662 57.099 M 200.436 114.714 C 200.04 119.682 197.99 121.609 181.204 132.789 C 166.411 142.643 162.959 144.504 160.223 144.102 C 153.762 143.154 156.53 140.356 177.406 126.731 C 197.436 113.659 200.654 111.979 200.436 114.714 M 204.518 180.883 C 204.81 189.349 187.814 197.786 183.556 191.289 C 180.419 186.501 183.343 180.543 186.587 185.113 C 188.377 187.636 192.623 189.937 194.338 189.314 C 195.054 189.054 194.28 188.203 192.617 187.422 C 186.368 184.488 187.547 179.462 195.394 175.58 C 201.479 172.569 204.288 174.202 204.518 180.883 M 62.175 254.436 C 60.747 256.156 50.933 262.67 49.768 262.67 C 47.479 262.67 49.787 259.474 54.243 256.473 C 59.745 252.769 64.592 251.524 62.175 254.436" stroke-linecap="round" />
</g>
</svg>