<?xml version="1.0" encoding="UTF-8" standalone="no" ?>
<!DOCTYPE svg PUBLIC "-//W3C//DTD SVG 1.1//EN" "http://www.w3.org/Graphics/SVG/1.1/DTD/svg11.dtd">
<svg xmlns="http://www.w3.org/2000/svg" xmlns:xlink="http://www.w3.org/1999/xlink" version="1.1" width="400" height="263" viewBox="0 0 400 263" xml:space="preserve">
<desc>Created with Fabric.js 3.6.6</desc>
<defs>
</defs>
<g transform="matrix(1 0 0 1 200 131.33)"  >
<g style=""   >
		<g transform="matrix(1 0 0 1 -0.12 0.35)" id="path0"  >
<path style="stroke: none; stroke-width: 1; stroke-dasharray: none; stroke-linecap: butt; stroke-dashoffset: 0; stroke-linejoin: miter; stroke-miterlimit: 4; fill: rgb(212,84,4); fill-rule: evenodd; opacity: 1;"  transform=" translate(-199.88, -131.69)" d="M 131.012 14.642 C 129.814 14.806 129.566 15.346 129.566 17.79 L 129.566 19.974 L 128.524 19.974 C 127.153 19.974 126.938 20.415 126.938 23.242 L 126.938 25.493 L 125.765 25.493 C 124.257 25.493 124.047 25.876 124.047 28.629 L 124.047 30.749 L 123.049 30.749 C 121.866 30.749 121.419 31.119 121.419 32.097 C 121.419 32.98 120.799 33.64 119.97 33.64 C 119.017 33.64 118.528 34.575 118.528 36.399 C 118.528 38.232 118.041 39.159 117.077 39.159 C 116.161 39.159 115.9 39.882 115.9 42.427 L 115.9 44.678 L 114.727 44.678 C 113.245 44.678 113.009 45.072 113.009 47.547 L 113.009 49.399 L 111.761 49.995 C 110.731 50.487 110.498 50.73 110.43 51.38 C 110.336 52.283 109.76 52.825 108.895 52.825 C 108.016 52.825 107.753 53.578 107.753 56.093 L 107.753 58.344 L 106.58 58.344 C 105.072 58.344 104.862 58.727 104.862 61.481 L 104.862 63.601 L 103.82 63.601 C 102.471 63.601 102.234 64.05 102.234 66.611 C 102.234 68.543 102.211 68.614 101.511 68.886 C 99.767 69.562 99.474 69.796 99.392 70.573 C 99.298 71.469 98.719 72.011 97.857 72.011 C 96.978 72.011 96.715 72.763 96.715 75.278 L 96.715 77.53 L 95.673 77.53 C 94.327 77.53 94.087 77.98 94.087 80.503 L 94.087 82.461 L 92.895 82.761 C 91.435 83.128 91.196 83.634 91.196 86.351 L 91.196 88.305 L 90.197 88.305 C 88.973 88.305 88.568 88.676 88.568 89.794 C 88.568 90.738 88.018 91.196 86.886 91.196 C 85.945 91.196 85.677 91.888 85.677 94.316 L 85.677 96.42 L 84.697 96.502 C 83.401 96.61 83.057 97.324 83.052 99.919 L 83.049 101.941 L 81.938 102.022 C 80.495 102.127 80.167 102.76 80.162 105.453 L 80.158 107.49 L 79.369 107.49 C 78.412 107.49 77.53 108.305 77.53 109.189 C 77.53 109.878 76.876 110.381 75.979 110.381 C 75.188 110.381 74.901 111.171 74.901 113.358 C 74.901 115.41 74.768 115.637 73.566 115.637 C 72.525 115.637 72.011 116.557 72.011 118.414 C 72.011 120.547 71.718 121.156 70.696 121.156 C 69.628 121.156 69.382 121.767 69.382 124.424 L 69.382 126.675 L 68.363 126.675 C 66.721 126.675 66.634 126.937 66.536 132.195 C 66.432 137.828 66.639 138.905 67.876 139.17 C 68.939 139.397 69.382 139.746 69.382 140.355 C 69.382 140.915 70.568 141.919 71.229 141.919 C 71.851 141.919 72.011 142.436 72.011 144.454 C 72.011 146.681 72.244 147.071 73.711 147.291 L 74.901 147.47 L 74.901 149.573 C 74.901 152.154 75.115 152.595 76.475 152.825 L 77.53 153.003 L 77.53 154.938 C 77.53 157.045 77.899 158.213 78.565 158.213 C 79.289 158.213 80.081 158.946 80.246 159.77 C 80.38 160.44 80.591 160.612 81.66 160.923 L 82.917 161.288 L 83.049 163.496 C 83.204 166.1 83.279 166.251 84.637 166.657 L 85.677 166.969 L 85.681 168.701 C 85.686 170.932 86.056 171.653 87.389 172.026 L 88.436 172.319 L 88.568 174.706 C 88.717 177.419 88.642 177.264 90.021 177.716 C 90.859 177.99 91.085 178.206 91.194 178.834 C 91.334 179.642 92.017 180.139 93.364 180.414 C 94.082 180.561 94.087 180.578 94.091 182.725 C 94.096 185.28 94.235 185.567 95.571 185.783 L 96.583 185.947 L 96.722 188.046 C 96.885 190.505 96.952 190.644 98.31 191.336 L 99.343 191.864 L 99.343 193.639 C 99.343 195.69 99.713 196.405 100.994 196.827 C 101.625 197.036 101.992 197.408 102.373 198.226 C 102.801 199.147 103.062 199.38 103.876 199.565 L 104.862 199.789 L 104.862 201.586 C 104.862 203.875 105.161 204.67 106.101 204.879 C 107.846 205.268 107.753 205.124 107.757 207.442 C 107.762 209.983 107.902 210.272 109.237 210.487 L 110.25 210.651 L 110.381 212.777 C 110.52 215.031 110.757 215.534 111.901 216.008 C 112.295 216.171 112.852 216.737 113.141 217.267 C 113.527 217.975 113.954 218.325 114.756 218.589 L 115.846 218.948 L 115.939 221.011 C 116.044 223.315 116.43 224.009 117.753 224.273 C 118.519 224.427 118.528 224.449 118.532 226.209 C 118.538 228.713 118.984 229.458 120.696 229.819 C 121.416 229.97 121.419 229.982 121.419 232.181 C 121.419 234.671 121.623 235.049 123.115 235.328 C 123.862 235.469 124.047 235.624 124.047 236.108 C 124.047 236.876 124.773 237.534 125.987 237.87 L 126.938 238.132 L 126.938 240.24 C 126.938 242.828 127.141 243.245 128.506 243.463 L 129.566 243.633 L 129.566 245.833 C 129.566 247.888 129.606 248.045 130.158 248.209 C 131.989 248.753 249.509 249.138 264.915 248.651 L 270.039 248.489 L 270.265 245.973 L 270.49 243.458 L 271.64 243.15 C 272.707 242.865 272.812 242.757 273.089 241.658 C 273.367 240.551 273.444 240.473 274.26 240.473 C 275.369 240.473 275.437 240.347 275.798 237.618 L 276.098 235.355 L 277.104 235.191 C 278.4 234.981 278.483 234.817 278.7 232.041 L 278.882 229.714 L 279.797 229.543 C 281.129 229.293 281.584 228.46 281.372 226.657 C 281.164 224.889 281.396 224.411 282.761 223.796 C 283.541 223.444 283.897 223.085 284.112 222.434 C 284.35 221.711 284.537 221.551 285.139 221.551 C 286.393 221.551 286.571 221.032 286.974 216.229 C 286.983 216.12 287.381 216.032 287.858 216.032 C 289.186 216.032 289.356 215.682 289.356 212.957 L 289.356 210.512 L 290.276 210.512 C 291.915 210.512 292.234 209.875 292.575 205.929 C 292.627 205.323 292.868 205.039 293.693 204.614 C 294.591 204.151 294.755 203.933 294.824 203.116 C 294.902 202.173 294.915 202.163 295.678 202.451 C 297.036 202.964 297.579 202.104 297.717 199.22 L 297.83 196.846 L 298.587 196.846 C 300.072 196.846 300.927 194.926 300.583 192.362 C 300.446 191.341 300.456 191.327 301.298 191.327 C 302.706 191.327 303.138 190.588 303.247 187.998 C 303.337 185.866 303.369 185.764 304.036 185.528 C 305.238 185.104 305.515 184.854 305.652 184.072 C 305.769 183.4 305.906 183.302 306.834 183.232 C 308.322 183.12 308.541 182.69 308.541 179.882 L 308.541 177.472 L 309.921 177.238 L 311.301 177.004 L 311.432 174.639 L 311.564 172.273 L 312.477 172.142 C 313.644 171.974 313.96 171.348 314.191 168.74 L 314.369 166.72 L 315.463 166.212 C 316.313 165.816 316.587 165.527 316.69 164.915 C 316.807 164.223 316.951 164.11 317.866 163.995 C 319.235 163.822 319.571 163.138 319.576 160.512 L 319.58 158.476 L 320.449 158.476 C 322.012 158.476 322.292 158.04 322.418 155.402 L 322.53 153.05 L 323.651 152.75 C 324.982 152.394 325.086 152.178 325.286 149.343 C 325.43 147.309 325.476 147.175 326.036 147.175 C 326.883 147.175 327.464 146.91 327.464 146.525 C 327.464 145.907 328.519 144.85 329.309 144.677 C 330.39 144.439 330.618 143.872 330.618 141.41 L 330.618 139.29 L 331.643 139.29 C 333.144 139.29 333.246 138.785 333.246 131.35 C 333.246 124.25 333.202 124.047 331.66 124.047 L 330.618 124.047 L 330.618 121.583 C 330.618 118.869 330.531 118.699 329.009 118.425 C 328.165 118.274 328.039 118.147 327.904 117.317 C 327.692 116.01 327.296 115.637 326.118 115.637 L 325.099 115.637 L 325.099 113.325 C 325.099 110.66 324.934 110.381 323.362 110.381 L 322.257 110.381 L 322.167 107.743 C 322.066 104.817 321.899 104.521 320.434 104.67 L 319.58 104.756 L 319.58 102.689 C 319.58 100.277 319.356 99.739 318.14 99.231 C 317.439 98.938 317.209 98.661 317.075 97.949 C 316.902 97.024 316.414 96.632 315.084 96.346 C 314.431 96.205 314.392 96.1 314.254 94.082 C 314.084 91.602 313.83 91.196 312.451 91.196 L 311.432 91.196 L 311.432 88.752 C 311.432 85.937 311.283 85.677 309.671 85.677 L 308.541 85.677 L 308.541 83.333 C 308.541 80.512 308.429 80.159 307.528 80.154 C 306.554 80.148 306.271 79.898 306.045 78.844 C 305.801 77.709 305.553 77.539 304.139 77.534 L 303.022 77.53 L 303.022 75.186 C 303.022 72.437 302.902 72.011 302.125 72.011 C 300.99 72.011 300.668 71.477 300.486 69.295 C 300.291 66.964 299.984 66.491 298.667 66.491 L 297.766 66.491 L 297.766 64.308 C 297.766 61.839 297.519 61.307 296.172 60.867 C 295.451 60.632 295.23 60.381 294.992 59.527 C 294.709 58.511 294.658 58.473 293.473 58.396 L 292.247 58.315 L 292.247 55.986 C 292.247 52.9 292.209 52.825 290.642 52.825 L 289.356 52.825 L 289.356 50.481 C 289.356 47.732 289.236 47.306 288.458 47.306 C 287.313 47.306 286.989 46.771 286.787 44.55 L 286.597 42.453 L 285.508 41.853 C 284.659 41.386 284.383 41.057 284.253 40.363 C 284.065 39.363 283.724 39.159 282.239 39.159 L 281.209 39.159 L 281.209 36.834 C 281.209 34.312 280.997 33.878 279.604 33.548 C 278.956 33.395 278.912 33.277 278.774 31.345 C 278.593 28.816 278.439 28.419 277.566 28.226 C 275.971 27.873 276.034 27.967 275.884 25.684 C 275.703 22.946 275.611 22.741 274.437 22.448 C 273.605 22.241 273.43 22.061 273.178 21.156 C 272.897 20.145 272.84 20.102 271.687 20.026 C 270.263 19.932 270.18 19.755 270.174 16.787 L 270.171 14.783 L 269.35 14.619 C 268.459 14.441 132.31 14.463 131.012 14.642 M 223.973 41.495 C 250.919 41.685 251.775 41.706 252.324 42.199 C 253.29 43.065 255.187 46.076 260.176 54.665 C 262.821 59.218 266.054 64.777 267.361 67.017 C 268.667 69.258 270.64 72.687 271.744 74.639 C 272.849 76.59 275.708 81.557 278.099 85.677 C 281.978 92.361 296.658 117.914 300.747 125.099 C 301.611 126.616 302.725 128.449 303.224 129.172 C 304.995 131.74 304.418 133.673 299.458 141.787 C 298.044 144.1 293.91 151.196 290.272 157.556 C 278.852 177.519 270.439 192.144 268.728 195.007 C 267.821 196.524 265.691 200.25 263.994 203.285 C 262.297 206.321 259.637 210.992 258.082 213.666 C 256.528 216.34 254.939 219.158 254.552 219.927 C 253.218 222.579 253.498 222.564 204.993 222.622 C 186.275 222.644 165.992 222.741 159.921 222.837 L 148.883 223.01 L 148.007 222.215 C 146.416 220.77 142.813 214.842 132.907 197.372 C 128.508 189.613 121.052 176.593 119.062 173.193 C 118.088 171.531 116.787 169.284 116.17 168.2 C 111.584 160.142 109.504 156.519 107.496 153.088 C 104.512 147.99 100.819 141.648 98.258 137.223 C 95.397 132.279 95.391 131.967 98.059 127.595 C 99.113 125.867 102.25 120.449 105.135 115.375 C 106.408 113.134 107.92 110.532 108.495 109.593 C 109.069 108.653 110.695 105.815 112.108 103.285 C 113.521 100.756 116.179 96.143 118.016 93.035 C 120.769 88.377 128.861 74.354 133.787 65.703 C 134.404 64.619 136.235 61.485 137.855 58.739 C 139.476 55.992 141.487 52.503 142.324 50.986 C 144.149 47.679 146.373 44.172 147.614 42.644 L 148.52 41.53 L 160.528 41.459 C 187.066 41.301 197.35 41.307 223.973 41.495 M 246.09 81.85 C 245.638 82.047 244.96 82.604 244.585 83.088 C 243.084 85.022 234.688 97.363 232.185 101.314 C 230.72 103.627 228.119 107.648 226.406 110.25 C 224.693 112.852 222.098 116.904 220.641 119.256 C 219.183 121.607 217.402 124.223 216.683 125.068 L 215.375 126.604 L 203.811 126.766 C 197.451 126.856 180.539 126.992 166.229 127.068 C 132.637 127.248 130.144 127.325 129.752 128.185 C 128.886 130.086 130.248 130.841 143.627 135.873 C 146.662 137.015 150.21 138.382 151.511 138.912 C 152.812 139.442 156.892 140.994 160.578 142.361 C 166.978 144.734 170.559 146.096 178.449 149.155 C 180.401 149.911 182.293 150.615 182.654 150.72 C 183.447 150.948 195.219 155.584 205.519 159.724 C 246.456 176.18 246.773 176.287 247.712 174.023 C 248.764 171.487 248.881 83.958 247.835 82.003 C 247.504 81.386 247.215 81.36 246.09 81.85" stroke-linecap="round" />
</g>
		<g transform="matrix(1 0 0 1 0.11 0.85)" id="path1"  >
<path style="stroke: none; stroke-width: 1; stroke-dasharray: none; stroke-linecap: butt; stroke-dashoffset: 0; stroke-linejoin: miter; stroke-miterlimit: 4; fill: rgb(251,178,123); fill-rule: evenodd; opacity: 1;"  transform=" translate(-200.11, -132.18)" d="M 160.528 41.459 L 148.52 41.53 L 147.614 42.644 C 146.373 44.172 144.149 47.679 142.324 50.986 C 141.487 52.503 139.476 55.992 137.855 58.739 C 136.235 61.485 134.404 64.619 133.787 65.703 C 128.861 74.354 120.769 88.377 118.016 93.035 C 116.179 96.143 113.521 100.756 112.108 103.285 C 110.695 105.815 109.069 108.653 108.495 109.593 C 107.92 110.532 106.408 113.134 105.135 115.375 C 102.25 120.449 99.113 125.867 98.059 127.595 C 95.391 131.967 95.397 132.279 98.258 137.223 C 100.819 141.648 104.512 147.99 107.496 153.088 C 109.504 156.519 111.584 160.142 116.17 168.2 C 116.787 169.284 118.088 171.531 119.062 173.193 C 121.052 176.593 128.508 189.613 132.907 197.372 C 142.813 214.842 146.416 220.77 148.007 222.215 L 148.883 223.01 L 159.921 222.837 C 165.992 222.741 186.275 222.644 204.993 222.622 C 253.498 222.564 253.218 222.579 254.552 219.927 C 254.939 219.158 256.528 216.34 258.082 213.666 C 259.637 210.992 262.297 206.321 263.994 203.285 C 265.691 200.25 267.821 196.524 268.728 195.007 C 270.439 192.144 278.852 177.519 290.272 157.556 C 293.91 151.196 298.044 144.1 299.458 141.787 C 304.418 133.673 304.995 131.74 303.224 129.172 C 302.725 128.449 301.611 126.616 300.747 125.099 C 296.658 117.914 281.978 92.361 278.099 85.677 C 275.708 81.557 272.849 76.59 271.744 74.639 C 270.64 72.687 268.667 69.258 267.361 67.017 C 266.054 64.777 262.821 59.218 260.176 54.665 C 255.187 46.076 253.29 43.065 252.324 42.199 C 251.538 41.494 210.504 41.163 160.528 41.459 M 247.835 82.003 C 248.881 83.958 248.764 171.487 247.712 174.023 C 246.773 176.287 246.456 176.18 205.519 159.724 C 195.219 155.584 183.447 150.948 182.654 150.72 C 182.293 150.615 180.401 149.911 178.449 149.155 C 170.559 146.096 166.978 144.734 160.578 142.361 C 156.892 140.994 152.812 139.442 151.511 138.912 C 150.21 138.382 146.662 137.015 143.627 135.873 C 130.248 130.841 128.886 130.086 129.752 128.185 C 130.144 127.325 132.637 127.248 166.229 127.068 C 180.539 126.992 197.451 126.856 203.811 126.766 L 215.375 126.604 L 216.683 125.068 C 217.402 124.223 219.183 121.607 220.641 119.256 C 222.098 116.904 224.693 112.852 226.406 110.25 C 228.119 107.648 230.72 103.627 232.185 101.314 C 234.688 97.363 243.084 85.022 244.585 83.088 C 245.699 81.653 247.352 81.101 247.835 82.003" stroke-linecap="round" />
</g>
</g>
</g>
<g transform="matrix(0.74 0 0 0.74 197.89 133.29)" id="path0"  >
<path style="stroke: none; stroke-width: 1; stroke-dasharray: none; stroke-linecap: butt; stroke-dashoffset: 0; stroke-linejoin: miter; stroke-miterlimit: 4; fill: rgb(0,0,0); fill-rule: evenodd; opacity: 1;"  transform=" translate(-205.47, -156.43)" d="M 365.656 23.613 C 361.466 26.409 357.875 29.107 357.675 29.607 C 357.475 30.108 356.677 30.518 355.901 30.518 C 355.125 30.518 353.817 31.333 352.994 32.33 C 349.798 36.204 307.129 63.293 305.875 62.245 C 305.192 61.673 301.935 57.488 298.638 52.944 C 288.612 39.128 286.227 40.361 285.057 59.964 C 284.287 72.872 283.891 74.191 281.504 71.804 C 280.604 70.904 276.476 73.097 265.755 80.173 C 257.764 85.447 244.237 94.34 235.695 99.937 C 224.453 107.301 220.163 110.702 220.163 112.248 C 220.163 113.522 218.838 115.071 216.882 116.083 C 214.178 117.481 213.719 118.254 214.275 120.47 C 215.309 124.591 214.423 123.803 208.719 115.531 C 205.256 110.508 202.736 107.902 201.341 107.902 C 199.595 107.902 156.517 131.155 147.139 137.16 C 145.64 138.119 144.004 138.781 143.503 138.631 C 139.263 137.357 132.44 146.599 135.182 149.902 C 135.933 150.807 136.682 153.241 136.846 155.31 C 137.01 157.38 137.47 160.554 137.867 162.365 C 138.493 165.215 138.214 165.8 135.78 166.725 C 132.508 167.969 132.445 168.213 134.568 171.454 C 137.25 175.547 111.395 197.46 97.772 202.639 C 95.227 203.607 93.931 204.47 59.542 228.105 C 48.23 235.879 37.063 242.991 34.728 243.909 C 29.072 246.13 29.353 246.849 42.892 264.801 C 55.777 281.887 68.144 295.27 69.601 293.704 C 70.144 293.12 70.921 286.512 71.329 279.019 C 72.038 265.983 73.212 261.23 74.74 265.213 C 76.291 269.254 79.013 267.019 82.167 259.115 C 85.808 249.99 88.205 246.618 89.535 248.748 C 90.699 250.614 94.397 248.331 93.98 246.003 C 93.817 245.088 95.288 243.081 97.25 241.542 C 101.12 238.509 101.174 239.044 96.223 231.422 C 94.765 229.178 95.025 228.827 101.294 224.57 C 104.928 222.102 107.912 219.487 107.925 218.76 C 107.937 218.033 111.155 215.331 115.076 212.755 C 118.997 210.179 123.204 206.378 124.426 204.308 C 125.647 202.238 127 200.545 127.432 200.545 C 127.864 200.545 130.146 198.909 132.501 196.91 C 138.331 191.962 141.307 191.319 143.425 194.552 C 145.687 198.004 147.957 198.679 150.74 196.73 C 154.235 194.282 158.843 194.711 161.902 197.771 C 164.569 200.437 164.578 200.517 164.578 222.839 C 164.578 236.406 164.99 245.232 165.623 245.232 C 167.517 245.232 187.815 237.689 188.935 236.569 C 189.669 235.835 189.428 234.809 188.205 233.457 C 185.745 230.739 184.371 215.495 186.369 213.088 C 187.52 211.7 187.452 211.055 185.981 209.431 C 181.544 204.528 185.835 199.414 203.567 188.475 L 209.315 184.929 L 218.826 194.571 C 229.865 205.761 243.912 217.984 245.735 217.984 C 246.428 217.984 251.244 212.784 256.437 206.428 L 265.879 194.872 L 256.333 186.971 C 244.329 177.036 232.999 164.677 233.625 162.201 C 233.881 161.192 232.872 159.233 231.382 157.841 C 226.218 153.018 222.988 146.258 224.384 143.193 C 225.234 141.328 225.279 139.833 224.528 138.429 C 222.821 135.239 223.231 134.629 225.624 136.795 C 227.751 138.719 227.893 138.706 230.414 136.338 C 232.641 134.245 233.326 134.093 235.215 135.273 C 237.676 136.81 234.128 139.049 274.039 110.775 C 293.405 97.055 295.368 95.373 295.368 92.492 C 295.368 90.111 296.048 89.061 298.093 88.283 C 299.591 87.714 300.817 86.77 300.817 86.187 C 300.817 85.603 302.044 83.803 303.542 82.186 C 305.041 80.569 306.267 78.336 306.267 77.225 C 306.267 74.567 308.082 74.649 309.79 77.384 C 311.261 79.74 313.896 80.342 313.896 78.322 C 313.896 77.639 314.712 76.483 315.708 75.755 C 318.319 73.846 316.862 70.858 313.691 71.616 C 312.305 71.947 321.342 65.288 333.773 56.817 C 346.204 48.347 356.726 41.417 357.155 41.417 C 360.35 41.417 380.256 26.485 379.677 24.523 C 377.584 17.432 375.154 17.274 365.656 23.613 M 292.662 57.099 C 293.8 57.932 295.244 58.417 295.869 58.176 C 296.495 57.936 297.62 58.72 298.368 59.919 C 299.759 62.147 299.286 62.614 290.191 67.988 C 289.162 68.596 288.828 67.175 288.828 62.19 C 288.828 55.252 289.292 54.636 292.662 57.099 M 200.436 114.714 C 200.04 119.682 197.99 121.609 181.204 132.789 C 166.411 142.643 162.959 144.504 160.223 144.102 C 153.762 143.154 156.53 140.356 177.406 126.731 C 197.436 113.659 200.654 111.979 200.436 114.714 M 204.518 180.883 C 204.81 189.349 187.814 197.786 183.556 191.289 C 180.419 186.501 183.343 180.543 186.587 185.113 C 188.377 187.636 192.623 189.937 194.338 189.314 C 195.054 189.054 194.28 188.203 192.617 187.422 C 186.368 184.488 187.547 179.462 195.394 175.58 C 201.479 172.569 204.288 174.202 204.518 180.883 M 62.175 254.436 C 60.747 256.156 50.933 262.67 49.768 262.67 C 47.479 262.67 49.787 259.474 54.243 256.473 C 59.745 252.769 64.592 251.524 62.175 254.436" stroke-linecap="round" />
</g>
</svg>