<?xml version="1.0" encoding="UTF-8" standalone="no" ?>
<!DOCTYPE svg PUBLIC "-//W3C//DTD SVG 1.1//EN" "http://www.w3.org/Graphics/SVG/1.1/DTD/svg11.dtd">
<svg xmlns="http://www.w3.org/2000/svg" xmlns:xlink="http://www.w3.org/1999/xlink" version="1.1" width="400" height="263" viewBox="0 0 400 263" xml:space="preserve">
<desc>Created with Fabric.js 3.6.6</desc>
<defs>
</defs>
<g transform="matrix(1 0 0 1 200 131.33)"  >
<g style=""   >
		<g transform="matrix(1 0 0 1 -0.12 0.33)" id="path0"  >
<path style="stroke: none; stroke-width: 1; stroke-dasharray: none; stroke-linecap: butt; stroke-dashoffset: 0; stroke-linejoin: miter; stroke-miterlimit: 4; fill: rgb(155,155,155); fill-rule: evenodd; opacity: 1;"  transform=" translate(-199.88, -131.67)" d="M 130.092 14.98 C 129.649 15.423 129.566 15.856 129.566 17.74 L 129.566 19.974 L 128.524 19.974 C 127.153 19.974 126.938 20.415 126.938 23.242 L 126.938 25.493 L 125.765 25.493 C 124.257 25.493 124.047 25.876 124.047 28.629 L 124.047 30.749 L 123.028 30.749 C 121.879 30.749 121.497 31.082 121.255 32.295 C 121.079 33.17 120.506 33.64 119.612 33.64 C 118.898 33.64 118.774 33.908 118.508 36.029 C 118.229 38.251 117.939 38.837 117.009 39.065 C 115.987 39.315 115.909 39.541 115.904 42.247 L 115.9 44.678 L 114.727 44.678 C 113.328 44.678 113.138 44.935 112.883 47.175 C 112.646 49.257 112.516 49.671 112.101 49.671 C 111.496 49.671 110.579 50.598 110.278 51.514 C 110.07 52.144 109.775 52.453 109.247 52.593 C 107.872 52.957 107.753 53.22 107.753 55.88 L 107.753 58.344 L 106.58 58.344 C 105.072 58.344 104.862 58.727 104.862 61.481 L 104.862 63.601 L 103.82 63.601 C 102.566 63.601 102.353 63.911 102.115 66.097 C 101.837 68.648 101.776 68.8 100.947 68.982 C 100.055 69.178 99.508 69.739 99.164 70.81 C 98.99 71.351 98.651 71.67 98.02 71.882 C 96.943 72.245 96.777 72.713 96.741 75.493 L 96.715 77.53 L 95.673 77.53 C 94.363 77.53 94.136 77.915 93.917 80.508 L 93.752 82.461 L 92.725 82.769 C 91.45 83.151 91.196 83.746 91.196 86.351 L 91.196 88.305 L 90.177 88.305 C 89.029 88.305 88.709 88.585 88.445 89.818 C 88.254 90.712 87.661 91.196 86.755 91.196 C 85.952 91.196 85.677 91.992 85.677 94.316 L 85.677 96.42 L 84.697 96.502 C 83.401 96.61 83.057 97.324 83.052 99.919 L 83.049 101.941 L 81.938 102.022 C 80.495 102.127 80.167 102.76 80.162 105.453 L 80.158 107.49 L 79.279 107.49 C 78.29 107.49 77.53 108.15 77.53 109.007 C 77.53 109.617 76.625 110.381 75.903 110.381 C 75.253 110.381 74.951 111.096 74.743 113.122 C 74.557 114.938 74.167 115.637 73.338 115.637 C 72.587 115.637 72.257 116.258 71.987 118.182 C 71.636 120.69 71.542 120.895 70.666 121.07 C 69.591 121.286 69.382 121.83 69.382 124.424 L 69.382 126.675 L 68.363 126.675 C 66.721 126.675 66.634 126.937 66.536 132.195 C 66.429 137.956 66.61 138.808 68.065 139.39 C 68.769 139.671 69.16 140.016 69.268 140.449 C 69.459 141.207 70.096 141.826 70.821 141.959 C 71.581 142.099 72.002 143.153 72.011 144.941 C 72.02 146.805 72.156 147.076 73.196 147.31 C 75.005 147.716 74.901 147.561 74.905 149.886 C 74.91 152.429 74.999 152.613 76.358 152.895 L 77.398 153.11 L 77.465 154.939 C 77.56 157.537 77.685 157.882 78.721 158.414 C 79.236 158.678 79.843 159.288 80.097 159.798 C 80.437 160.479 80.828 160.797 81.643 161.055 C 82.872 161.444 83.039 161.79 83.045 163.946 C 83.049 165.649 83.314 166.188 84.356 166.62 C 85.187 166.964 85.223 167.046 85.667 169.616 C 85.98 171.423 86.203 171.752 87.378 172.14 C 88.408 172.48 88.559 172.901 88.564 175.453 L 88.568 177.318 L 89.624 177.734 C 90.397 178.037 90.783 178.393 91.061 179.059 C 91.437 179.959 92.446 180.552 93.6 180.552 C 94.035 180.552 94.087 180.786 94.087 182.736 C 94.087 185.209 94.307 185.666 95.664 186.004 L 96.583 186.234 L 96.723 188.355 C 96.859 190.436 97.216 191.327 97.911 191.327 C 98.609 191.327 99.008 192.123 99.187 193.87 C 99.397 195.931 99.767 196.632 100.89 197.097 C 101.33 197.279 101.93 197.835 102.223 198.333 C 102.526 198.846 103.155 199.404 103.678 199.622 C 104.185 199.834 104.604 200.094 104.611 200.201 C 104.836 203.98 105.239 204.921 106.736 205.161 L 107.753 205.323 L 107.753 207.623 C 107.753 210.139 107.846 210.32 109.33 210.701 L 110.25 210.938 L 110.381 213.122 C 110.498 215.064 110.583 215.353 111.15 215.734 C 111.5 215.97 112.3 216.695 112.929 217.346 C 113.557 217.996 114.453 218.657 114.92 218.813 C 115.767 219.098 115.769 219.103 115.9 221.232 C 116.042 223.531 116.23 223.884 117.554 224.332 C 118.394 224.617 118.397 224.625 118.54 226.796 C 118.695 229.156 119.192 229.961 120.498 229.961 C 121.203 229.961 121.41 230.535 121.416 232.506 C 121.421 234.439 121.745 235.11 122.848 235.474 C 123.472 235.68 123.836 235.989 123.94 236.401 C 124.147 237.225 124.772 237.75 125.887 238.036 L 126.807 238.271 L 126.882 240.531 C 126.965 243.006 127.133 243.31 128.582 243.604 L 129.435 243.778 L 129.566 246.002 L 129.698 248.226 L 131.012 248.404 C 134.83 248.921 255.528 249.199 266.689 248.717 L 270.171 248.566 L 270.174 246.688 C 270.18 244.025 270.316 243.679 271.484 243.364 C 272.59 243.066 272.88 242.789 273.235 241.686 C 273.408 241.151 273.745 240.843 274.387 240.635 C 275.371 240.317 275.909 239.286 275.938 237.665 C 275.96 236.424 276.396 235.48 276.947 235.48 C 278.061 235.48 278.405 234.854 278.695 232.304 L 278.975 229.849 L 279.854 229.67 C 281.144 229.407 281.327 229.092 281.472 226.87 C 281.602 224.866 281.609 224.85 282.688 224.057 C 283.285 223.618 283.963 222.949 284.194 222.57 C 284.44 222.169 284.948 221.815 285.413 221.722 C 286.384 221.527 286.598 221.027 286.843 218.378 L 287.027 216.388 L 288.126 216.144 L 289.225 215.9 L 289.3 213.366 L 289.374 210.832 L 290.547 210.656 C 291.965 210.444 292.117 210.199 292.489 207.522 C 292.826 205.101 292.8 205.155 293.822 204.732 C 294.335 204.519 294.673 204.155 294.77 203.712 C 294.853 203.333 294.95 202.905 294.985 202.762 C 295.02 202.619 295.475 202.539 295.997 202.584 C 297.298 202.696 297.766 201.781 297.766 199.122 L 297.766 197.168 L 298.698 196.993 C 300.051 196.739 300.655 195.627 300.656 193.39 L 300.657 191.642 L 301.639 191.41 C 302.861 191.121 303.275 190.373 303.285 188.436 C 303.295 186.403 303.475 185.937 304.408 185.518 C 304.859 185.316 305.419 184.8 305.654 184.37 C 305.937 183.851 306.36 183.531 306.915 183.418 C 308.404 183.113 308.541 182.835 308.541 180.131 L 308.541 177.671 L 309.264 177.525 C 311.474 177.078 311.602 176.888 311.664 173.949 C 311.694 172.531 311.727 172.464 312.472 172.315 C 313.563 172.097 314.062 171.172 314.241 169.037 C 314.417 166.937 314.437 166.896 315.506 166.357 C 315.94 166.139 316.472 165.589 316.689 165.134 C 316.993 164.497 317.3 164.273 318.036 164.154 C 319.192 163.966 319.484 163.353 319.663 160.742 C 319.792 158.863 320.027 158.487 321.076 158.48 C 322.058 158.473 322.47 157.525 322.47 155.274 L 322.47 153.24 L 323.491 152.965 C 324.826 152.605 325.089 152.245 325.253 150.553 C 325.542 147.575 325.583 147.463 326.475 147.232 C 326.991 147.099 327.464 146.724 327.727 146.242 C 327.959 145.815 328.526 145.275 328.986 145.041 C 330.571 144.236 330.618 144.139 330.618 141.624 L 330.618 139.29 L 331.675 139.29 C 333.179 139.29 333.246 138.957 333.246 131.503 C 333.246 124.238 333.205 124.047 331.66 124.047 L 330.618 124.047 L 330.618 121.583 C 330.618 118.951 330.545 118.787 329.191 118.351 C 328.768 118.214 328.343 117.932 328.248 117.724 C 327.362 115.791 327.341 115.771 326.207 115.688 L 325.099 115.607 L 325.099 113.309 C 325.099 110.654 324.935 110.381 323.338 110.381 L 322.208 110.381 L 322.208 107.998 C 322.208 105.042 322.002 104.599 320.632 104.599 L 319.6 104.599 L 319.524 102.311 L 319.448 100.024 L 318.423 99.328 C 317.817 98.917 317.239 98.235 317.01 97.66 C 316.722 96.938 316.429 96.65 315.873 96.539 C 314.816 96.327 314.633 96.006 314.323 93.824 C 313.994 91.504 313.775 91.196 312.451 91.196 L 311.432 91.196 L 311.432 88.731 C 311.432 85.96 311.322 85.761 309.721 85.631 L 308.673 85.545 L 308.541 83.135 C 308.398 80.497 308.426 80.564 307.208 79.938 C 306.643 79.647 306.263 79.193 306.071 78.581 C 305.794 77.7 305.723 77.658 304.411 77.582 L 303.04 77.503 L 302.966 74.838 L 302.891 72.174 L 302.026 71.951 C 301.035 71.694 300.812 71.252 300.534 68.988 C 300.265 66.791 300.058 66.491 298.808 66.491 L 297.766 66.491 L 297.766 64.24 C 297.766 61.632 297.559 61.102 296.454 60.881 C 295.811 60.752 295.547 60.482 295.14 59.532 C 294.643 58.373 294.602 58.344 293.439 58.344 L 292.247 58.344 L 292.247 56 C 292.247 52.901 292.209 52.825 290.651 52.825 L 289.374 52.825 L 289.3 50.148 L 289.225 47.47 L 288.36 47.246 C 287.346 46.984 287.131 46.531 286.877 44.119 C 286.704 42.483 286.635 42.341 285.728 41.754 C 285.198 41.411 284.596 40.775 284.391 40.341 C 283.903 39.308 283.657 39.168 282.326 39.163 L 281.209 39.159 L 281.209 36.908 C 281.209 34.633 280.942 33.64 280.33 33.64 C 279.441 33.64 279.058 32.938 278.828 30.888 C 278.574 28.622 278.455 28.41 277.212 28.003 C 276.289 27.701 276.022 27.124 275.979 25.335 C 275.943 23.858 275.468 22.604 274.941 22.593 C 274.266 22.58 273.679 22.016 273.234 20.95 C 272.848 20.026 272.761 19.974 271.63 19.974 L 270.434 19.974 L 270.434 17.374 C 270.434 15.245 270.358 14.745 270.018 14.614 C 268.673 14.098 130.613 14.459 130.092 14.98 M 251.881 43.298 C 253.289 44.834 255.322 48.225 265.629 66.229 C 268.732 71.649 271.773 76.912 272.387 77.924 C 274.092 80.732 276.025 84.086 280.414 91.853 C 282.62 95.756 285.085 100.072 285.893 101.445 C 286.701 102.819 288.856 106.544 290.683 109.724 C 296.585 119.997 301.875 129.149 302.455 130.092 C 303.749 132.196 302.867 134.446 297.354 143.101 C 296.157 144.98 293.878 148.824 292.289 151.643 C 288.779 157.871 287.114 160.784 284.026 166.097 C 280.285 172.534 278.902 174.958 277.205 178.055 C 276.333 179.645 275.241 181.537 274.779 182.26 C 274.316 182.983 273.19 184.934 272.276 186.597 C 271.361 188.259 268.818 192.694 266.625 196.452 C 264.431 200.21 261.607 205.15 260.349 207.429 C 259.091 209.709 257.236 212.94 256.227 214.611 C 255.218 216.281 254.168 218.089 253.893 218.628 C 253.618 219.166 253.006 219.985 252.534 220.448 L 251.674 221.288 L 200.101 221.288 L 148.527 221.288 L 147.753 220.349 C 146.96 219.386 142.329 211.655 138.282 204.536 C 137.03 202.333 135.118 198.971 134.034 197.065 C 132.95 195.159 131.428 192.526 130.651 191.215 C 129.875 189.903 127.995 186.583 126.473 183.837 C 124.952 181.091 123.149 177.957 122.467 176.873 C 121.784 175.788 120.543 173.66 119.708 172.142 C 117.767 168.611 113.558 161.276 108.926 153.351 C 108.166 152.05 106.664 149.448 105.588 147.569 C 104.512 145.69 102.84 142.911 101.872 141.393 C 97.498 134.537 96.515 131.504 97.997 129.441 C 98.715 128.441 103.938 119.652 107.059 114.192 C 107.637 113.18 109.196 110.46 110.522 108.147 C 111.849 105.834 113.562 102.819 114.33 101.445 C 115.098 100.072 116.255 98.062 116.903 96.978 C 120.196 91.461 124.32 84.357 127.583 78.581 C 131.11 72.337 132.157 70.535 138.58 59.658 C 140.244 56.84 142.28 53.292 143.104 51.774 C 143.927 50.256 145.547 47.568 146.703 45.8 L 148.805 42.585 L 154.626 42.51 C 157.827 42.468 180.816 42.406 205.713 42.373 L 250.978 42.313 L 251.881 43.298 M 246.124 80.39 C 244.828 81.201 243.57 82.7 240.586 86.991 C 239.027 89.231 236.822 92.34 235.685 93.899 C 234.548 95.458 232.976 97.791 232.193 99.083 C 230.171 102.417 226.658 107.62 225.318 109.265 C 224.691 110.035 224.179 110.763 224.179 110.883 C 224.179 111.073 221.452 115.352 220.395 116.82 C 219.878 117.539 219.245 117.138 218.397 115.553 C 218.035 114.877 217.573 114.324 217.369 114.324 C 216.133 114.321 207.884 120.546 207.884 121.481 C 207.884 121.658 208.789 121.709 210.482 121.627 C 213.655 121.474 214.775 120.983 215.9 119.252 C 218.188 115.731 219.055 119.06 216.796 122.695 C 215.187 125.283 217.982 125.062 183.049 125.363 C 133.777 125.788 129.01 126.017 128.383 127.993 C 127.633 130.355 129.354 131.494 140.092 135.741 C 143.626 137.138 149.297 139.388 152.694 140.739 C 156.091 142.09 160.644 143.839 162.812 144.624 C 164.98 145.409 167.641 146.433 168.725 146.899 C 169.809 147.365 172.707 148.491 175.164 149.401 C 177.622 150.312 182.116 152.06 185.151 153.287 C 188.187 154.514 192.148 156.06 193.955 156.722 C 197.952 158.189 203.904 160.543 208.673 162.545 C 214.057 164.805 218.155 166.433 225.23 169.122 C 228.771 170.468 233.802 172.397 236.408 173.408 C 243.998 176.354 248.48 176.686 248.967 174.339 C 249.714 170.736 249.896 85.52 249.164 82.26 C 248.638 79.919 247.749 79.373 246.124 80.39 M 200.678 120.122 C 199.199 121.42 199.657 121.945 202.267 121.945 C 203.352 121.945 203.369 121.712 202.386 120.355 L 201.619 119.296 L 200.678 120.122" stroke-linecap="round" />
</g>
		<g transform="matrix(1 0 0 1 0.17 0.47)" id="path1"  >
<path style="stroke: none; stroke-width: 1; stroke-dasharray: none; stroke-linecap: butt; stroke-dashoffset: 0; stroke-linejoin: miter; stroke-miterlimit: 4; fill: rgb(227,227,227); fill-rule: evenodd; opacity: 1;"  transform=" translate(-200.17, -131.8)" d="M 154.626 42.51 L 148.805 42.585 L 146.703 45.8 C 145.547 47.568 143.927 50.256 143.104 51.774 C 142.28 53.292 140.244 56.84 138.58 59.658 C 132.157 70.535 131.11 72.337 127.583 78.581 C 124.32 84.357 120.196 91.461 116.903 96.978 C 116.255 98.062 115.098 100.072 114.33 101.445 C 113.562 102.819 111.849 105.834 110.522 108.147 C 109.196 110.46 107.637 113.18 107.059 114.192 C 103.938 119.652 98.715 128.441 97.997 129.441 C 96.515 131.504 97.498 134.537 101.872 141.393 C 102.84 142.911 104.512 145.69 105.588 147.569 C 106.664 149.448 108.166 152.05 108.926 153.351 C 113.558 161.276 117.767 168.611 119.708 172.142 C 120.543 173.66 121.784 175.788 122.467 176.873 C 123.149 177.957 124.952 181.091 126.473 183.837 C 127.995 186.583 129.875 189.903 130.651 191.215 C 131.428 192.526 132.95 195.159 134.034 197.065 C 135.118 198.971 137.03 202.333 138.282 204.536 C 142.329 211.655 146.96 219.386 147.753 220.349 L 148.527 221.288 L 200.101 221.288 L 251.674 221.288 L 252.534 220.448 C 253.006 219.985 253.618 219.166 253.893 218.628 C 254.168 218.089 255.218 216.281 256.227 214.611 C 257.236 212.94 259.091 209.709 260.349 207.429 C 261.607 205.15 264.431 200.21 266.625 196.452 C 268.818 192.694 271.361 188.259 272.276 186.597 C 273.19 184.934 274.316 182.983 274.779 182.26 C 275.241 181.537 276.333 179.645 277.205 178.055 C 278.902 174.958 280.285 172.534 284.026 166.097 C 287.114 160.784 288.779 157.871 292.289 151.643 C 293.878 148.824 296.157 144.98 297.354 143.101 C 302.867 134.446 303.749 132.196 302.455 130.092 C 301.875 129.149 296.585 119.997 290.683 109.724 C 288.856 106.544 286.701 102.819 285.893 101.445 C 285.085 100.072 282.62 95.756 280.414 91.853 C 276.025 84.086 274.092 80.732 272.387 77.924 C 271.773 76.912 268.732 71.649 265.629 66.229 C 255.322 48.225 253.289 44.834 251.881 43.298 L 250.978 42.313 L 205.713 42.373 C 180.816 42.406 157.827 42.468 154.626 42.51 M 248.426 80.355 C 249.448 81.493 249.485 82.618 249.6 116.426 C 249.701 146.329 249.419 172.159 248.967 174.339 C 248.48 176.686 243.998 176.354 236.408 173.408 C 233.802 172.397 228.771 170.468 225.23 169.122 C 218.155 166.433 214.057 164.805 208.673 162.545 C 203.904 160.543 197.952 158.189 193.955 156.722 C 192.148 156.06 188.187 154.514 185.151 153.287 C 182.116 152.06 177.622 150.312 175.164 149.401 C 172.707 148.491 169.809 147.365 168.725 146.899 C 167.641 146.433 164.98 145.409 162.812 144.624 C 160.644 143.839 156.091 142.09 152.694 140.739 C 149.297 139.388 143.626 137.138 140.092 135.741 C 129.354 131.494 127.633 130.355 128.383 127.993 C 129.01 126.017 133.777 125.788 183.049 125.363 C 217.982 125.062 215.187 125.283 216.796 122.695 C 219.055 119.06 218.188 115.731 215.9 119.252 C 214.775 120.983 213.655 121.474 210.482 121.627 C 208.789 121.709 207.884 121.658 207.884 121.481 C 207.884 120.546 216.133 114.321 217.369 114.324 C 217.573 114.324 218.035 114.877 218.397 115.553 C 219.245 117.138 219.878 117.539 220.395 116.82 C 221.452 115.352 224.179 111.073 224.179 110.883 C 224.179 110.763 224.691 110.035 225.318 109.265 C 226.658 107.62 230.171 102.417 232.193 99.083 C 232.976 97.791 234.548 95.458 235.685 93.899 C 236.822 92.34 239.027 89.231 240.586 86.991 C 245.076 80.535 247.071 78.846 248.426 80.355 M 203.154 121.68 C 203.154 121.977 201.804 122.03 200.558 121.781 C 199.49 121.567 199.521 121.138 200.678 120.122 L 201.619 119.296 L 202.386 120.355 C 202.808 120.938 203.154 121.534 203.154 121.68" stroke-linecap="round" />
</g>
</g>
</g>
<g transform="matrix(1.19 0 0 1.19 198.2 135.18)" id="surface1"  >
<path style="stroke: none; stroke-width: 1; stroke-dasharray: none; stroke-linecap: butt; stroke-dashoffset: 0; stroke-linejoin: miter; stroke-miterlimit: 4; fill: rgb(0,0,0); fill-rule: evenodd; opacity: 1;"  transform=" translate(-127.04, -97.1)" d="M 202.027344 10.867188 C 200.84375 12.164062 199.847656 14.90625 199.558594 17.675781 C 199.289062 20.222656 198.910156 22.410156 198.714844 22.53125 C 183.300781 32.199219 149.980469 55.167969 147.820312 57.609375 C 146.175781 59.46875 144.402344 60.726562 143.878906 60.402344 C 143.359375 60.082031 136.085938 64.386719 127.722656 69.976562 C 118.664062 76.027344 112.160156 79.78125 111.640625 79.261719 C 110.402344 78.019531 108.070312 79.136719 107.25 81.355469 C 106.632812 83.023438 106.246094 82.78125 103.9375 79.289062 C 101.21875 75.179688 98.609375 74.277344 96.5625 76.742188 C 94.785156 78.886719 96.246094 82.101562 99.003906 82.101562 C 103.21875 82.101562 102.160156 86.808594 96.96875 91.152344 C 93.679688 93.902344 92.730469 95.28125 93.171875 96.671875 C 93.554688 97.875 93.226562 98.734375 92.25 99.109375 C 91.414062 99.429688 90.726562 100.1875 90.722656 100.796875 C 90.703125 102.316406 76.25 111.609375 74.382812 111.296875 C 72.160156 110.921875 18.890625 146.925781 18.496094 149.070312 C 17.699219 153.375 40.710938 185.496094 44.390625 185.21875 C 47.421875 184.992188 47.8125 184.628906 48.324219 181.585938 C 49.207031 176.304688 56.949219 159.597656 58.738281 159.113281 C 59.679688 158.859375 61.28125 155.972656 62.664062 152.023438 C 65.058594 145.210938 67.054688 142.652344 69.34375 143.464844 C 71.476562 144.21875 76.253906 140.183594 76.253906 137.628906 C 76.253906 136.367188 76.632812 135.101562 77.09375 134.816406 C 77.910156 134.3125 79.234375 126.664062 79.375 121.640625 C 79.472656 118.265625 98.4375 105.691406 98.460938 108.988281 C 98.484375 112.234375 103.050781 115.136719 105.554688 113.492188 C 110.824219 110.039062 112.558594 113.558594 113.324219 129.234375 C 114.578125 155 114.761719 155.132812 131.710938 142.691406 C 132.375 142.203125 132.191406 141.539062 131.171875 140.753906 C 129.15625 139.199219 127.863281 129.300781 129.324219 126.570312 C 130.175781 124.976562 130.089844 124.453125 128.902344 123.996094 C 126.484375 123.066406 127.027344 118.152344 129.714844 116.683594 C 134.128906 114.265625 143.824219 107.132812 143.824219 106.300781 C 143.824219 104.585938 147.402344 106.472656 148.886719 108.972656 C 150.730469 112.070312 167.320312 128.480469 168.542969 128.414062 C 169.015625 128.390625 172.316406 124.660156 175.878906 120.125 L 182.355469 111.882812 L 176.253906 106.703125 C 169.605469 101.058594 162.113281 92.597656 161.785156 90.363281 C 161.671875 89.585938 160.910156 88.171875 160.089844 87.214844 C 153.671875 79.746094 151.355469 73.40625 155.039062 73.40625 C 158.882812 73.40625 208.691406 38.496094 208.238281 36.121094 C 207.753906 33.589844 211.566406 29.941406 214.699219 29.941406 C 215.558594 29.941406 216.679688 28.847656 217.1875 27.511719 C 217.695312 26.171875 219.222656 24.65625 220.582031 24.136719 C 222.460938 23.421875 232.855469 16.917969 235.394531 14.867188 C 236.214844 14.203125 234.464844 9.828125 233.179688 9.335938 C 231.636719 8.746094 220.839844 15.296875 217.382812 18.925781 C 214.308594 22.15625 214.054688 22.03125 209.460938 14.972656 C 204.863281 7.914062 204.765625 7.859375 202.027344 10.867188 M 207.585938 21.398438 C 203.421875 24.773438 199.753906 18.667969 203.855469 15.1875 C 205.828125 13.511719 205.925781 13.546875 207.773438 16.589844 L 209.667969 19.710938 L 207.585938 21.398438 M 140.042969 103.078125 C 141.164062 106.035156 140.871094 106.496094 135.472656 110.210938 C 130.273438 113.789062 126.449219 113.117188 126.449219 108.628906 C 126.449219 106.246094 126.542969 106.203125 128.59375 107.640625 C 131.746094 109.851562 133.984375 109.675781 131.90625 107.378906 C 129.632812 104.863281 129.898438 103.796875 133.363281 101.605469 C 136.910156 99.355469 138.785156 99.769531 140.042969 103.078125" stroke-linecap="round" />
</g>
</svg>