<svg id="svg" version="1.1" xmlns="http://www.w3.org/2000/svg" xmlns:xlink="http://www.w3.org/1999/xlink" width="400" height="262.6666666666667" viewBox="0, 0, 400,262.6666666666667"><g id="svgg"><path id="path0" d="M130.092 14.980 C 129.649 15.423,129.566 15.856,129.566 17.740 L 129.566 19.974 128.524 19.974 C 127.153 19.974,126.938 20.415,126.938 23.242 L 126.938 25.493 125.765 25.493 C 124.257 25.493,124.047 25.876,124.047 28.629 L 124.047 30.749 123.028 30.749 C 121.879 30.749,121.497 31.082,121.255 32.295 C 121.079 33.170,120.506 33.640,119.612 33.640 C 118.898 33.640,118.774 33.908,118.508 36.029 C 118.229 38.251,117.939 38.837,117.009 39.065 C 115.987 39.315,115.909 39.541,115.904 42.247 L 115.900 44.678 114.727 44.678 C 113.328 44.678,113.138 44.935,112.883 47.175 C 112.646 49.257,112.516 49.671,112.101 49.671 C 111.496 49.671,110.579 50.598,110.278 51.514 C 110.070 52.144,109.775 52.453,109.247 52.593 C 107.872 52.957,107.753 53.220,107.753 55.880 L 107.753 58.344 106.580 58.344 C 105.072 58.344,104.862 58.727,104.862 61.481 L 104.862 63.601 103.820 63.601 C 102.566 63.601,102.353 63.911,102.115 66.097 C 101.837 68.648,101.776 68.800,100.947 68.982 C 100.055 69.178,99.508 69.739,99.164 70.810 C 98.990 71.351,98.651 71.670,98.020 71.882 C 96.943 72.245,96.777 72.713,96.741 75.493 L 96.715 77.530 95.673 77.530 C 94.363 77.530,94.136 77.915,93.917 80.508 L 93.752 82.461 92.725 82.769 C 91.450 83.151,91.196 83.746,91.196 86.351 L 91.196 88.305 90.177 88.305 C 89.029 88.305,88.709 88.585,88.445 89.818 C 88.254 90.712,87.661 91.196,86.755 91.196 C 85.952 91.196,85.677 91.992,85.677 94.316 L 85.677 96.420 84.697 96.502 C 83.401 96.610,83.057 97.324,83.052 99.919 L 83.049 101.941 81.938 102.022 C 80.495 102.127,80.167 102.760,80.162 105.453 L 80.158 107.490 79.279 107.490 C 78.290 107.490,77.530 108.150,77.530 109.007 C 77.530 109.617,76.625 110.381,75.903 110.381 C 75.253 110.381,74.951 111.096,74.743 113.122 C 74.557 114.938,74.167 115.637,73.338 115.637 C 72.587 115.637,72.257 116.258,71.987 118.182 C 71.636 120.690,71.542 120.895,70.666 121.070 C 69.591 121.286,69.382 121.830,69.382 124.424 L 69.382 126.675 68.363 126.675 C 66.721 126.675,66.634 126.937,66.536 132.195 C 66.429 137.956,66.610 138.808,68.065 139.390 C 68.769 139.671,69.160 140.016,69.268 140.449 C 69.459 141.207,70.096 141.826,70.821 141.959 C 71.581 142.099,72.002 143.153,72.011 144.941 C 72.020 146.805,72.156 147.076,73.196 147.310 C 75.005 147.716,74.901 147.561,74.905 149.886 C 74.910 152.429,74.999 152.613,76.358 152.895 L 77.398 153.110 77.465 154.939 C 77.560 157.537,77.685 157.882,78.721 158.414 C 79.236 158.678,79.843 159.288,80.097 159.798 C 80.437 160.479,80.828 160.797,81.643 161.055 C 82.872 161.444,83.039 161.790,83.045 163.946 C 83.049 165.649,83.314 166.188,84.356 166.620 C 85.187 166.964,85.223 167.046,85.667 169.616 C 85.980 171.423,86.203 171.752,87.378 172.140 C 88.408 172.480,88.559 172.901,88.564 175.453 L 88.568 177.318 89.624 177.734 C 90.397 178.037,90.783 178.393,91.061 179.059 C 91.437 179.959,92.446 180.552,93.600 180.552 C 94.035 180.552,94.087 180.786,94.087 182.736 C 94.087 185.209,94.307 185.666,95.664 186.004 L 96.583 186.234 96.723 188.355 C 96.859 190.436,97.216 191.327,97.911 191.327 C 98.606 191.327,99.008 192.120,99.185 193.843 C 99.405 195.996,99.631 196.448,100.780 197.041 C 101.272 197.295,101.953 197.916,102.292 198.421 C 103.229 199.815,103.487 199.702,106.097 196.752 C 109.992 192.349,111.355 191.332,114.717 190.324 C 117.727 189.421,120.311 187.518,123.454 183.891 C 125.441 181.596,125.432 181.871,123.613 178.902 C 122.796 177.569,120.926 174.350,119.457 171.748 C 115.171 164.154,113.277 160.863,111.782 158.407 C 111.012 157.140,110.381 156.029,110.381 155.938 C 110.381 155.846,109.690 154.635,108.846 153.247 C 108.001 151.859,106.618 149.481,105.772 147.963 C 104.925 146.445,103.513 144.080,102.633 142.707 C 97.266 134.326,96.345 131.670,98.009 129.372 C 98.432 128.788,99.691 126.730,100.806 124.799 C 101.922 122.868,103.920 119.455,105.246 117.214 C 106.573 114.974,108.318 111.958,109.125 110.512 C 109.931 109.067,111.448 106.406,112.495 104.599 C 113.542 102.792,114.953 100.309,115.632 99.080 C 116.310 97.852,117.868 95.191,119.094 93.167 C 120.320 91.143,123.608 85.466,126.400 80.552 C 131.709 71.207,132.883 69.185,138.379 59.921 C 140.222 56.813,142.326 53.147,143.053 51.774 C 143.781 50.401,145.344 47.788,146.527 45.968 L 148.679 42.660 151.278 42.488 C 152.707 42.393,175.765 42.315,202.517 42.314 L 251.158 42.313 252.370 43.808 C 253.036 44.631,254.307 46.571,255.194 48.121 C 257.514 52.175,257.255 51.931,258.489 51.219 C 260.754 49.912,266.628 45.564,272.167 41.094 C 273.627 39.917,276.199 37.928,277.883 36.676 C 281.274 34.154,281.331 34.071,280.042 33.532 C 279.084 33.132,279.061 33.071,278.724 30.103 C 278.555 28.620,278.388 28.388,277.212 28.003 C 276.289 27.701,276.022 27.124,275.979 25.335 C 275.943 23.858,275.468 22.604,274.941 22.593 C 274.266 22.580,273.679 22.016,273.234 20.950 C 272.848 20.026,272.761 19.974,271.630 19.974 L 270.434 19.974 270.434 17.374 C 270.434 15.245,270.358 14.745,270.018 14.614 C 268.673 14.098,130.613 14.459,130.092 14.980 M282.550 43.115 C 280.526 44.364,270.894 52.377,269.173 54.243 C 267.683 55.860,267.652 57.132,269.121 56.372 C 272.313 54.722,285.082 43.825,284.808 42.986 C 284.644 42.485,283.462 42.553,282.550 43.115 M286.456 51.555 C 281.857 55.037,273.319 62.364,274.536 61.783 C 276.190 60.995,289.356 50.431,289.356 49.892 C 289.356 49.445,288.890 49.712,286.456 51.555 M287.251 53.926 C 275.529 63.716,271.861 67.073,270.185 69.543 C 268.609 71.866,268.525 71.341,271.185 75.809 C 274.288 81.023,276.835 85.400,279.297 89.750 C 283.443 97.075,285.853 101.290,289.666 107.884 C 303.838 132.396,303.098 131.025,302.970 132.534 C 302.849 133.963,300.191 138.990,297.251 143.350 C 295.778 145.533,289.619 156.214,289.619 156.584 C 289.619 156.724,289.168 157.532,288.618 158.380 C 288.067 159.228,286.803 161.340,285.808 163.075 C 284.814 164.809,282.999 167.943,281.776 170.039 C 280.552 172.135,279.079 174.737,278.502 175.821 C 277.925 176.905,277.175 178.234,276.834 178.773 C 276.494 179.312,276.216 179.846,276.216 179.959 C 276.216 180.072,275.813 180.762,275.321 181.492 C 274.830 182.222,273.277 184.882,271.871 187.402 C 270.465 189.922,267.990 194.231,266.371 196.978 C 264.753 199.724,262.147 204.277,260.580 207.096 C 259.013 209.915,257.117 213.226,256.367 214.455 C 255.617 215.683,254.524 217.517,253.940 218.530 C 253.355 219.542,252.653 220.574,252.379 220.822 C 251.912 221.244,248.616 221.275,200.294 221.318 L 148.707 221.364 147.955 220.603 C 147.236 219.876,143.130 213.119,138.633 205.265 C 136.763 201.997,136.492 201.642,136.180 202.044 C 135.986 202.293,134.108 205.926,132.005 210.118 C 120.683 232.691,120.016 234.539,122.848 235.474 C 123.472 235.680,123.836 235.989,123.940 236.401 C 124.147 237.225,124.772 237.750,125.887 238.036 L 126.807 238.271 126.882 240.531 C 126.965 243.006,127.133 243.310,128.582 243.604 L 129.435 243.778 129.566 246.002 L 129.698 248.226 131.012 248.404 C 134.830 248.921,255.528 249.199,266.689 248.717 L 270.171 248.566 270.174 246.688 C 270.180 244.025,270.316 243.679,271.484 243.364 C 272.590 243.066,272.880 242.789,273.235 241.686 C 273.408 241.151,273.745 240.843,274.387 240.635 C 275.371 240.317,275.909 239.286,275.938 237.665 C 275.960 236.424,276.396 235.480,276.947 235.480 C 278.061 235.480,278.405 234.854,278.695 232.304 L 278.975 229.849 279.854 229.670 C 281.144 229.407,281.327 229.092,281.472 226.870 C 281.602 224.866,281.609 224.850,282.688 224.057 C 283.285 223.618,283.963 222.949,284.194 222.570 C 284.440 222.169,284.948 221.815,285.413 221.722 C 286.384 221.527,286.598 221.027,286.843 218.378 L 287.027 216.388 288.126 216.144 L 289.225 215.900 289.300 213.366 L 289.374 210.832 290.547 210.656 C 291.965 210.444,292.117 210.199,292.489 207.522 C 292.826 205.101,292.800 205.155,293.822 204.732 C 294.335 204.519,294.673 204.155,294.770 203.712 C 294.853 203.333,294.950 202.905,294.985 202.762 C 295.020 202.619,295.475 202.539,295.997 202.584 C 297.298 202.696,297.766 201.781,297.766 199.122 L 297.766 197.168 298.698 196.993 C 300.051 196.739,300.655 195.627,300.656 193.390 L 300.657 191.642 301.639 191.410 C 302.861 191.121,303.275 190.373,303.285 188.436 C 303.295 186.403,303.475 185.937,304.408 185.518 C 304.859 185.316,305.419 184.800,305.654 184.370 C 305.937 183.851,306.360 183.531,306.915 183.418 C 308.404 183.113,308.541 182.835,308.541 180.131 L 308.541 177.671 309.264 177.525 C 311.474 177.078,311.602 176.888,311.664 173.949 C 311.694 172.531,311.727 172.464,312.472 172.315 C 313.563 172.097,314.062 171.172,314.241 169.037 C 314.417 166.937,314.437 166.896,315.506 166.357 C 315.940 166.139,316.472 165.589,316.689 165.134 C 316.993 164.497,317.300 164.273,318.036 164.154 C 319.192 163.966,319.484 163.353,319.663 160.742 C 319.792 158.863,320.027 158.487,321.076 158.480 C 322.058 158.473,322.470 157.525,322.470 155.274 L 322.470 153.240 323.491 152.965 C 324.826 152.605,325.089 152.245,325.253 150.553 C 325.542 147.575,325.583 147.463,326.475 147.232 C 326.991 147.099,327.464 146.724,327.727 146.242 C 327.959 145.815,328.526 145.275,328.986 145.041 C 330.571 144.236,330.618 144.139,330.618 141.624 L 330.618 139.290 331.675 139.290 C 333.179 139.290,333.246 138.957,333.246 131.503 C 333.246 124.238,333.205 124.047,331.660 124.047 L 330.618 124.047 330.618 121.583 C 330.618 118.951,330.545 118.787,329.191 118.351 C 328.768 118.214,328.343 117.932,328.248 117.724 C 327.362 115.791,327.341 115.771,326.207 115.688 L 325.099 115.607 325.099 113.309 C 325.099 110.654,324.935 110.381,323.338 110.381 L 322.208 110.381 322.208 107.998 C 322.208 105.042,322.002 104.599,320.632 104.599 L 319.600 104.599 319.524 102.311 L 319.448 100.024 318.423 99.328 C 317.817 98.917,317.239 98.235,317.010 97.660 C 316.722 96.938,316.429 96.650,315.873 96.539 C 314.816 96.327,314.633 96.006,314.323 93.824 C 313.994 91.504,313.775 91.196,312.451 91.196 L 311.432 91.196 311.432 88.731 C 311.432 85.960,311.322 85.761,309.721 85.631 L 308.673 85.545 308.541 83.135 C 308.398 80.497,308.426 80.564,307.208 79.938 C 306.643 79.647,306.263 79.193,306.071 78.581 C 305.794 77.700,305.723 77.658,304.411 77.582 L 303.040 77.503 302.966 74.838 L 302.891 72.174 302.026 71.951 C 301.035 71.694,300.812 71.252,300.534 68.988 C 300.265 66.791,300.058 66.491,298.808 66.491 L 297.766 66.491 297.766 64.240 C 297.766 61.632,297.559 61.102,296.454 60.881 C 295.811 60.752,295.547 60.482,295.140 59.532 C 294.643 58.373,294.602 58.344,293.439 58.344 L 292.247 58.344 292.247 56.000 C 292.247 52.905,292.207 52.825,290.664 52.825 C 289.969 52.825,289.359 52.703,289.309 52.554 C 289.260 52.404,288.333 53.022,287.251 53.926 M247.817 91.809 C 244.984 94.154,238.344 100.871,235.694 104.074 C 231.939 108.610,231.154 109.271,227.716 110.791 C 224.997 111.993,222.191 114.134,221.100 115.839 C 220.334 117.036,220.086 117.247,219.557 117.145 C 218.691 116.980,218.276 117.575,218.244 119.026 C 218.230 119.692,218.012 120.634,217.760 121.119 C 216.725 123.115,215.466 124.836,215.038 124.840 C 212.294 124.864,219.151 130.731,225.624 133.897 C 231.644 136.842,240.676 139.251,248.160 139.908 L 249.671 140.041 249.671 115.224 C 249.671 101.575,249.635 90.407,249.591 90.407 C 249.547 90.407,248.749 91.038,247.817 91.809 M143.233 125.905 C 130.313 126.231,128.515 126.578,128.515 128.741 C 128.515 130.377,129.181 131.006,132.589 132.591 C 134.766 133.604,150.365 139.816,150.729 139.816 C 150.874 139.816,164.200 128.785,166.754 126.551 L 167.806 125.632 159.396 125.671 C 154.770 125.692,147.497 125.797,143.233 125.905 M196.204 144.605 C 195.560 145.525,195.704 146.279,197.099 149.282 C 199.318 154.056,199.530 155.862,197.630 153.804 C 196.345 152.413,195.374 152.313,194.398 153.473 C 193.841 154.135,193.183 156.264,193.469 156.477 C 193.520 156.514,194.566 156.914,195.795 157.365 C 199.836 158.849,208.302 162.251,211.301 163.596 C 213.576 164.617,217.002 165.964,226.018 169.383 C 229.560 170.725,234.483 172.602,236.960 173.552 C 242.900 175.832,246.843 176.400,248.471 175.210 C 248.878 174.912,249.359 169.694,249.399 165.139 L 249.409 164.049 247.109 163.744 C 240.388 162.852,238.794 162.612,236.268 162.116 C 225.859 160.073,210.860 153.457,202.159 147.071 C 198.179 144.150,196.895 143.618,196.204 144.605 M183.968 148.307 C 180.840 150.935,180.435 151.351,180.847 151.511 C 181.046 151.588,183.693 152.646,186.728 153.862 C 189.763 155.078,192.344 155.978,192.463 155.862 C 193.150 155.192,190.917 151.377,187.983 148.208 C 186.213 146.296,186.367 146.292,183.968 148.307 " stroke="none" fill="#d1c700" fill-rule="evenodd"></path><path id="path1" d="M179.501 42.512 L 148.883 42.582 146.793 45.786 C 145.643 47.549,144.067 50.179,143.289 51.631 C 142.512 53.083,140.336 56.873,138.452 60.053 C 132.464 70.164,131.563 71.714,126.929 79.895 C 124.432 84.304,120.946 90.335,119.184 93.298 C 116.140 98.416,112.432 104.862,108.526 111.827 C 105.868 116.565,100.629 125.455,98.964 128.048 C 96.423 132.008,96.844 133.558,103.060 143.126 C 104.196 144.874,105.125 146.378,105.125 146.469 C 105.125 146.623,105.611 147.476,109.231 153.678 C 113.422 160.858,117.261 167.536,119.770 172.011 C 122.051 176.080,124.967 180.996,125.347 181.412 C 125.448 181.524,126.114 180.879,126.826 179.978 C 127.538 179.077,130.277 175.643,132.912 172.347 C 139.083 164.628,138.838 165.177,139.168 158.344 C 139.588 149.675,139.624 149.598,145.720 144.384 C 148.399 142.093,150.590 140.157,150.588 140.083 C 150.587 140.008,147.128 138.605,142.901 136.964 C 130.165 132.020,128.141 130.872,128.305 128.687 C 128.407 127.335,129.172 126.776,131.406 126.423 C 135.628 125.755,168.377 125.083,168.076 125.671 C 167.978 125.862,168.055 125.835,168.246 125.611 C 168.437 125.387,169.372 124.559,170.323 123.771 C 191.006 106.638,202.589 96.503,203.013 95.168 C 203.284 94.312,203.142 94.289,201.608 94.937 C 200.346 95.470,200.174 95.485,199.527 95.122 C 198.240 94.400,198.523 93.313,200.000 93.301 C 200.964 93.294,202.247 92.414,203.039 91.217 C 203.480 90.552,204.062 90.059,204.630 89.871 C 205.681 89.525,207.418 88.209,210.512 85.417 C 213.468 82.750,216.062 80.683,216.452 80.683 C 216.625 80.683,217.397 80.210,218.166 79.632 C 219.825 78.386,219.712 78.400,221.029 79.272 C 222.136 80.004,222.865 79.845,222.865 78.871 C 222.865 77.072,249.713 55.831,255.928 52.713 L 257.322 52.014 256.822 51.171 C 256.547 50.708,255.589 49.083,254.694 47.561 C 253.798 46.039,252.588 44.236,252.005 43.553 L 250.945 42.313 230.531 42.377 C 219.304 42.413,196.340 42.473,179.501 42.512 M253.865 65.994 C 251.252 67.683,247.961 71.222,249.003 71.222 C 249.924 71.222,257.030 65.823,257.030 65.124 C 257.030 64.562,255.377 65.017,253.865 65.994 M264.783 75.386 C 261.240 79.016,252.796 87.178,250.056 89.621 C 249.327 90.270,248.924 90.652,249.160 90.470 C 249.797 89.977,249.934 95.131,249.934 119.471 C 249.934 138.846,249.908 140.046,249.474 140.144 C 249.221 140.201,249.488 140.263,250.066 140.280 C 259.839 140.580,264.548 141.078,265.283 141.890 C 266.078 142.769,268.924 162.361,268.356 163.045 C 267.627 163.923,265.514 164.127,257.398 164.100 L 249.488 164.073 249.333 169.333 C 249.136 176.017,249.355 175.696,244.998 175.675 L 241.919 175.660 237.319 173.873 C 234.790 172.890,229.527 170.864,225.624 169.372 C 213.858 164.871,212.439 164.312,211.320 163.742 C 210.729 163.440,209.389 162.886,208.342 162.511 C 207.295 162.135,205.967 161.589,205.391 161.297 C 203.933 160.559,193.721 156.636,193.258 156.636 C 193.214 156.636,192.947 157.087,192.666 157.639 C 190.960 160.983,182.327 167.274,178.856 167.702 C 176.333 168.014,175.961 168.460,176.187 170.905 C 176.589 175.240,181.063 190.116,183.601 195.548 C 185.244 199.068,185.267 199.244,184.272 200.813 C 180.839 206.227,170.663 208.255,168.473 203.962 C 167.488 202.033,166.296 198.813,164.127 192.234 C 161.566 184.463,160.902 182.970,159.212 181.180 C 157.861 179.750,152.862 175.484,152.574 175.516 C 152.213 175.556,148.644 180.008,147.062 182.392 C 144.416 186.380,135.733 201.857,136.359 201.470 C 136.454 201.412,137.477 203.008,138.634 205.017 C 142.874 212.385,147.324 219.739,148.005 220.503 L 148.704 221.288 185.062 221.251 C 205.058 221.231,228.333 221.142,236.783 221.054 L 252.146 220.894 252.909 219.842 C 253.887 218.493,257.447 212.442,260.717 206.570 C 262.126 204.041,264.493 199.901,265.977 197.372 C 268.493 193.084,269.881 190.671,272.856 185.414 C 277.886 176.525,285.809 162.741,287.735 159.527 C 288.038 159.021,288.661 157.898,289.119 157.030 C 290.721 153.999,295.996 144.946,297.229 143.111 C 298.737 140.867,301.534 136.036,302.392 134.195 C 303.489 131.838,303.754 132.531,297.859 122.339 C 282.960 96.579,284.634 99.487,280.461 92.116 C 275.345 83.077,269.254 72.624,268.669 71.879 C 268.547 71.723,266.959 73.156,264.783 75.386 M239.385 77.708 C 236.399 79.904,233.012 83.574,233.971 83.574 C 235.254 83.574,242.283 77.727,241.972 76.917 C 241.707 76.227,241.180 76.388,239.385 77.708 M246.241 92.970 L 245.335 93.955 246.321 93.050 C 247.238 92.207,247.427 91.984,247.226 91.984 C 247.182 91.984,246.739 92.428,246.241 92.970 M241.256 97.700 L 239.028 100.000 241.327 97.772 C 242.592 96.546,243.627 95.512,243.627 95.472 C 243.627 95.281,243.325 95.565,241.256 97.700 M232.326 107.622 C 231.688 108.272,231.224 108.804,231.297 108.804 C 231.369 108.804,231.950 108.272,232.589 107.622 C 233.227 106.971,233.690 106.439,233.618 106.439 C 233.546 106.439,232.964 106.971,232.326 107.622 M220.278 115.688 C 219.522 116.394,219.229 116.837,219.403 117.011 C 219.766 117.374,220.146 117.084,220.923 115.853 C 221.808 114.451,221.648 114.410,220.278 115.688 M214.752 120.840 L 211.804 123.653 213.717 125.493 C 214.769 126.505,215.188 126.854,214.648 126.270 C 213.487 125.014,213.448 124.836,214.336 124.836 C 215.957 124.836,219.161 118.931,217.947 118.181 C 217.810 118.096,216.373 119.293,214.752 120.840 M178.979 152.614 C 176.867 154.999,176.731 155.899,178.177 157.895 C 179.541 159.779,182.369 160.814,184.494 160.207 L 185.151 160.020 184.494 160.556 C 183.000 161.776,179.939 161.631,177.266 160.212 C 175.281 159.159,174.482 159.082,172.552 159.762 C 170.726 160.405,170.732 160.421,174.173 163.761 C 178.038 167.514,178.474 167.726,180.350 166.754 C 183.856 164.938,190.344 159.728,191.807 157.554 L 192.681 156.255 192.070 156.084 C 191.734 155.990,189.034 154.939,186.071 153.749 C 183.108 152.558,180.551 151.531,180.390 151.467 C 180.229 151.403,179.594 151.919,178.979 152.614 " stroke="none" fill="#fff187" fill-rule="evenodd"></path><path id="path2" d="M311.231 1.201 C 308.573 2.526,308.072 4.587,309.737 7.359 C 311.218 9.824,313.009 16.652,313.009 19.830 C 313.009 21.551,313.238 21.270,308.715 25.099 C 297.605 34.502,292.097 36.768,286.662 34.174 C 283.605 32.715,282.655 32.811,280.582 34.790 C 280.260 35.097,278.407 36.560,276.464 38.041 C 274.520 39.521,271.038 42.216,268.725 44.028 C 262.974 48.536,259.367 51.033,256.746 52.321 C 253.857 53.741,251.084 55.625,243.890 61.059 C 231.661 70.294,222.865 77.746,222.865 78.871 C 222.865 79.845,222.136 80.004,221.029 79.272 C 219.712 78.400,219.825 78.386,218.166 79.632 C 217.397 80.210,216.625 80.683,216.452 80.683 C 216.062 80.683,213.468 82.750,210.512 85.417 C 207.418 88.209,205.681 89.525,204.630 89.871 C 204.062 90.059,203.480 90.552,203.039 91.217 C 202.247 92.414,200.964 93.294,200.000 93.301 C 198.523 93.313,198.240 94.400,199.527 95.122 C 200.174 95.485,200.346 95.470,201.608 94.937 C 206.522 92.861,200.627 98.452,177.559 117.747 C 174.540 120.273,171.588 122.730,170.999 123.208 C 170.410 123.686,169.154 124.765,168.209 125.606 C 167.265 126.447,164.717 128.599,162.549 130.388 C 138.945 149.862,140.314 148.536,139.704 152.514 C 139.500 153.842,139.259 156.465,139.168 158.344 C 138.838 165.178,139.082 164.631,132.912 172.340 C 130.277 175.632,127.352 179.319,126.413 180.533 C 121.530 186.839,118.651 189.310,114.799 190.496 C 110.927 191.688,106.592 195.674,98.253 205.708 C 94.281 210.487,87.203 218.720,80.462 226.402 C 75.597 231.944,73.858 234.281,73.853 235.282 C 73.849 236.055,75.622 237.765,80.289 241.490 C 86.822 246.704,97.155 255.471,100.263 258.436 C 103.238 261.275,106.388 262.219,107.597 260.634 C 108.699 259.189,120.860 233.727,121.466 231.596 C 122.332 228.551,136.972 199.635,142.918 189.225 C 146.430 183.077,151.421 175.942,152.533 175.481 C 152.751 175.390,157.864 179.753,159.212 181.180 C 160.902 182.970,161.566 184.463,164.127 192.234 C 166.296 198.813,167.488 202.033,168.473 203.962 C 170.663 208.255,180.839 206.227,184.272 200.813 C 185.267 199.244,185.244 199.068,183.601 195.548 C 181.063 190.116,176.589 175.240,176.187 170.905 C 175.961 168.460,176.333 168.014,178.856 167.702 C 181.256 167.406,182.782 166.614,186.124 163.929 C 191.735 159.422,192.676 158.293,193.412 155.191 C 194.083 152.361,195.791 151.696,197.635 153.548 L 198.747 154.665 198.608 153.719 C 198.532 153.199,197.846 151.425,197.084 149.777 C 195.272 145.855,195.252 144.021,197.023 144.021 C 197.926 144.021,198.893 144.566,202.628 147.182 C 212.494 154.091,225.974 159.934,236.848 162.015 C 249.704 164.474,266.269 165.029,268.306 163.068 C 268.933 162.464,266.130 142.826,265.283 141.890 C 264.636 141.175,262.768 140.895,256.699 140.603 C 247.209 140.147,244.348 139.813,238.391 138.461 C 228.282 136.167,221.113 132.513,214.619 126.344 L 211.760 123.629 215.681 119.962 C 223.162 112.964,223.795 112.472,227.622 110.681 C 230.843 109.173,232.458 107.812,235.437 104.093 C 238.030 100.857,244.206 94.688,249.535 90.013 C 256.898 83.553,269.565 70.678,270.601 68.601 C 271.252 67.295,288.487 52.168,289.324 52.168 C 289.433 52.168,291.111 50.848,293.053 49.234 C 306.226 38.284,316.487 29.976,321.671 26.063 C 323.905 24.376,326.376 22.376,327.162 21.619 L 328.590 20.241 328.423 18.638 L 328.255 17.034 329.699 15.647 C 332.676 12.787,331.004 10.408,325.976 10.350 C 323.423 10.320,323.210 10.275,322.277 9.565 C 319.912 7.765,315.821 3.058,315.496 1.763 C 315.142 0.352,313.396 0.122,311.231 1.201 M319.644 10.806 C 320.285 11.668,319.876 12.641,318.344 13.905 C 315.622 16.148,313.674 14.584,315.680 11.766 C 316.942 9.994,318.721 9.563,319.644 10.806 M318.222 25.982 C 318.038 26.455,302.048 39.422,301.648 39.422 C 300.844 39.422,302.820 37.559,308.804 32.676 C 314.294 28.196,318.531 25.185,318.222 25.982 M284.772 42.707 C 285.913 43.587,270.158 57.054,268.383 56.716 C 266.735 56.402,268.310 54.425,273.979 49.695 C 282.590 42.510,283.638 41.831,284.772 42.707 M289.356 49.902 C 289.356 50.681,275.023 62.286,274.060 62.286 C 273.144 62.286,279.560 56.599,286.290 51.445 C 289.153 49.253,289.356 49.151,289.356 49.902 M257.030 65.124 C 257.030 65.823,249.924 71.222,249.003 71.222 C 247.961 71.222,251.252 67.683,253.865 65.994 C 255.377 65.017,257.030 64.562,257.030 65.124 M241.972 76.917 C 242.197 77.504,239.365 80.184,236.476 82.119 C 232.969 84.467,232.666 84.043,235.677 80.998 C 239.129 77.505,241.587 75.913,241.972 76.917 M188.029 147.995 C 191.788 152.054,193.254 154.921,192.414 156.567 C 191.117 159.109,184.814 164.430,180.350 166.751 C 178.475 167.727,178.039 167.516,174.173 163.761 C 170.732 160.421,170.726 160.405,172.552 159.762 C 174.482 159.082,175.281 159.159,177.266 160.212 C 179.939 161.631,183.000 161.776,184.494 160.556 L 185.151 160.020 184.494 160.207 C 180.924 161.226,176.250 157.604,177.421 154.726 C 178.020 153.253,185.368 146.386,186.345 146.386 C 186.452 146.386,187.210 147.110,188.029 147.995 " stroke="none" fill="#000101" fill-rule="evenodd"></path><path id="path3" d="M166.557 42.510 C 174.543 42.548,187.612 42.548,195.598 42.510 C 203.584 42.471,197.050 42.440,181.078 42.440 C 165.105 42.440,158.571 42.471,166.557 42.510 M282.375 45.795 L 281.603 46.649 282.457 45.877 C 283.253 45.158,283.432 44.941,283.229 44.941 C 283.184 44.941,282.800 45.325,282.375 45.795 M269.382 53.745 C 268.744 54.396,268.281 54.928,268.353 54.928 C 268.425 54.928,269.007 54.396,269.645 53.745 C 270.284 53.095,270.747 52.562,270.674 52.562 C 270.602 52.562,270.021 53.095,269.382 53.745 M271.621 67.275 C 271.059 67.851,270.651 68.361,270.714 68.409 C 270.776 68.457,271.287 67.986,271.848 67.362 C 273.128 65.939,272.981 65.882,271.621 67.275 M244.401 94.809 L 243.495 95.795 244.481 94.889 C 245.398 94.046,245.587 93.824,245.387 93.824 C 245.343 93.824,244.899 94.267,244.401 94.809 M249.797 118.003 C 249.797 130.217,249.829 135.214,249.869 129.106 C 249.908 122.999,249.908 113.006,249.869 106.899 C 249.829 100.792,249.797 105.788,249.797 118.003 M238.223 100.986 L 237.451 101.840 238.305 101.068 C 238.775 100.643,239.159 100.259,239.159 100.214 C 239.159 100.011,238.942 100.189,238.223 100.986 M222.449 113.948 L 221.419 114.887 222.536 114.035 C 223.557 113.257,223.806 113.009,223.565 113.009 C 223.517 113.009,223.015 113.432,222.449 113.948 M218.443 117.297 C 218.128 117.631,217.871 118.002,217.871 118.121 C 217.871 118.239,218.117 118.024,218.418 117.641 C 218.719 117.259,219.092 117.025,219.247 117.121 C 219.414 117.224,219.453 117.172,219.342 116.992 C 219.096 116.594,219.105 116.591,218.443 117.297 M215.572 124.205 C 215.247 124.576,215.119 124.833,215.287 124.777 C 215.570 124.683,216.479 123.516,216.261 123.526 C 216.207 123.529,215.897 123.834,215.572 124.205 M213.666 125.049 C 213.666 125.167,214.051 125.610,214.520 126.035 L 215.375 126.807 214.630 125.982 C 214.090 125.382,213.982 125.118,214.236 125.017 C 214.471 124.923,214.435 124.870,214.126 124.856 C 213.873 124.845,213.666 124.932,213.666 125.049 M163.430 125.558 C 167.453 125.632,167.705 125.666,167.377 126.091 C 167.102 126.446,167.153 126.436,167.613 126.043 C 167.936 125.768,168.200 125.502,168.200 125.452 C 168.200 125.402,166.160 125.388,163.666 125.420 L 159.133 125.479 163.430 125.558 M145.150 125.820 C 146.277 125.869,148.051 125.869,149.092 125.819 C 150.134 125.769,149.212 125.729,147.043 125.729 C 144.875 125.730,144.023 125.770,145.150 125.820 M136.597 126.077 C 137.066 126.135,137.835 126.135,138.305 126.077 C 138.775 126.019,138.390 125.971,137.451 125.971 C 136.511 125.971,136.127 126.019,136.597 126.077 M132.786 126.331 C 133.039 126.397,133.453 126.397,133.706 126.331 C 133.959 126.265,133.752 126.211,133.246 126.211 C 132.740 126.211,132.533 126.265,132.786 126.331 M165.949 127.267 L 165.177 128.121 166.032 127.349 C 166.501 126.924,166.886 126.540,166.886 126.495 C 166.886 126.292,166.669 126.471,165.949 127.267 M128.324 128.778 C 128.324 129.428,128.375 129.694,128.438 129.369 C 128.500 129.044,128.500 128.512,128.438 128.187 C 128.375 127.861,128.324 128.127,128.324 128.778 M247.635 139.997 C 247.888 140.063,248.302 140.063,248.555 139.997 C 248.807 139.931,248.601 139.877,248.095 139.877 C 247.589 139.877,247.382 139.931,247.635 139.997 M186.097 146.452 C 186.159 146.488,186.741 146.991,187.389 147.569 L 188.568 148.620 187.529 147.503 C 186.957 146.889,186.376 146.386,186.237 146.386 C 186.097 146.386,186.034 146.416,186.097 146.452 M107.359 150.854 C 107.583 151.288,107.826 151.643,107.898 151.643 C 107.970 151.643,107.846 151.288,107.622 150.854 C 107.397 150.420,107.155 150.066,107.082 150.066 C 107.010 150.066,107.134 150.420,107.359 150.854 M289.013 157.296 C 288.773 157.800,288.630 158.213,288.697 158.213 C 288.876 158.213,289.674 156.604,289.554 156.483 C 289.497 156.426,289.254 156.792,289.013 157.296 M249.236 169.645 C 249.237 170.802,249.283 171.242,249.339 170.624 C 249.394 170.006,249.393 169.060,249.337 168.521 C 249.280 167.983,249.235 168.489,249.236 169.645 M248.944 173.982 C 248.944 174.488,248.998 174.694,249.064 174.442 C 249.130 174.189,249.130 173.775,249.064 173.522 C 248.998 173.269,248.944 173.476,248.944 173.982 M108.271 194.415 L 106.570 196.189 108.344 194.489 C 109.992 192.909,110.238 192.641,110.045 192.641 C 110.005 192.641,109.206 193.440,108.271 194.415 M252.433 220.497 C 251.974 221.005,251.559 221.022,238.398 221.091 L 224.836 221.161 238.390 221.224 L 251.945 221.288 252.562 220.631 C 252.902 220.269,253.118 219.974,253.043 219.974 C 252.968 219.974,252.694 220.209,252.433 220.497 M171.434 221.484 C 173.141 221.530,175.861 221.530,177.479 221.484 C 179.097 221.438,177.700 221.400,174.376 221.400 C 171.051 221.401,169.727 221.438,171.434 221.484 " stroke="none" fill="#7c7c04" fill-rule="evenodd"></path></g></svg>