<svg id="svg" version="1.1" xmlns="http://www.w3.org/2000/svg" xmlns:xlink="http://www.w3.org/1999/xlink" width="400" height="262.6666666666667" viewBox="0, 0, 400,262.6666666666667"><g id="svgg"><path id="path0" d="M131.012 14.642 C 129.814 14.806,129.566 15.346,129.566 17.790 L 129.566 19.974 128.524 19.974 C 127.153 19.974,126.938 20.415,126.938 23.242 L 126.938 25.493 125.765 25.493 C 124.257 25.493,124.047 25.876,124.047 28.629 L 124.047 30.749 123.049 30.749 C 121.866 30.749,121.419 31.119,121.419 32.097 C 121.419 32.980,120.799 33.640,119.970 33.640 C 119.017 33.640,118.528 34.575,118.528 36.399 C 118.528 38.232,118.041 39.159,117.077 39.159 C 116.161 39.159,115.900 39.882,115.900 42.427 L 115.900 44.678 114.727 44.678 C 113.245 44.678,113.009 45.072,113.009 47.547 L 113.009 49.399 111.761 49.995 C 110.731 50.487,110.498 50.730,110.430 51.380 C 110.336 52.283,109.760 52.825,108.895 52.825 C 108.016 52.825,107.753 53.578,107.753 56.093 L 107.753 58.344 106.580 58.344 C 105.072 58.344,104.862 58.727,104.862 61.481 L 104.862 63.601 103.820 63.601 C 102.471 63.601,102.234 64.050,102.234 66.611 C 102.234 68.543,102.211 68.614,101.511 68.886 C 99.767 69.562,99.474 69.796,99.392 70.573 C 99.298 71.469,98.719 72.011,97.857 72.011 C 96.978 72.011,96.715 72.763,96.715 75.278 L 96.715 77.530 95.673 77.530 C 94.327 77.530,94.087 77.980,94.087 80.503 L 94.087 82.461 92.895 82.761 C 91.435 83.128,91.196 83.634,91.196 86.351 L 91.196 88.305 90.197 88.305 C 88.973 88.305,88.568 88.676,88.568 89.794 C 88.568 90.738,88.018 91.196,86.886 91.196 C 85.945 91.196,85.677 91.888,85.677 94.316 L 85.677 96.420 84.697 96.502 C 83.401 96.610,83.057 97.324,83.052 99.919 L 83.049 101.941 81.938 102.022 C 80.495 102.127,80.167 102.760,80.162 105.453 L 80.158 107.490 79.369 107.490 C 78.412 107.490,77.530 108.305,77.530 109.189 C 77.530 109.878,76.876 110.381,75.979 110.381 C 75.188 110.381,74.901 111.171,74.901 113.358 C 74.901 115.410,74.768 115.637,73.566 115.637 C 72.525 115.637,72.011 116.557,72.011 118.414 C 72.011 120.547,71.718 121.156,70.696 121.156 C 69.628 121.156,69.382 121.767,69.382 124.424 L 69.382 126.675 68.363 126.675 C 66.721 126.675,66.634 126.937,66.536 132.195 C 66.432 137.828,66.639 138.905,67.876 139.170 C 68.939 139.397,69.382 139.746,69.382 140.355 C 69.382 140.915,70.568 141.919,71.229 141.919 C 71.851 141.919,72.011 142.436,72.011 144.454 C 72.011 146.681,72.244 147.071,73.711 147.291 L 74.901 147.470 74.901 149.573 C 74.901 152.154,75.115 152.595,76.475 152.825 L 77.530 153.003 77.530 154.938 C 77.530 157.045,77.899 158.213,78.565 158.213 C 79.289 158.213,80.081 158.946,80.246 159.770 C 80.380 160.440,80.591 160.612,81.660 160.923 L 82.917 161.288 83.049 163.496 C 83.204 166.100,83.279 166.251,84.637 166.657 L 85.677 166.969 85.681 168.701 C 85.686 170.932,86.056 171.653,87.389 172.026 L 88.436 172.319 88.568 174.706 C 88.717 177.419,88.642 177.264,90.021 177.716 C 90.859 177.990,91.085 178.206,91.194 178.834 C 91.334 179.642,92.017 180.139,93.364 180.414 C 94.082 180.561,94.087 180.578,94.091 182.725 C 94.096 185.280,94.235 185.567,95.571 185.783 L 96.583 185.947 96.722 188.046 C 96.885 190.505,96.952 190.644,98.310 191.336 L 99.343 191.864 99.343 193.639 C 99.343 195.690,99.713 196.405,100.994 196.827 C 101.625 197.036,101.992 197.408,102.373 198.226 C 102.801 199.147,103.062 199.380,103.876 199.565 L 104.862 199.789 104.862 201.586 C 104.862 203.875,105.161 204.670,106.101 204.879 C 107.846 205.268,107.753 205.124,107.757 207.442 C 107.762 209.983,107.902 210.272,109.237 210.487 L 110.250 210.651 110.381 212.777 C 110.520 215.031,110.757 215.534,111.901 216.008 C 112.295 216.171,112.852 216.737,113.141 217.267 C 113.527 217.975,113.954 218.325,114.756 218.589 L 115.846 218.948 115.939 221.011 C 116.044 223.315,116.430 224.009,117.753 224.273 C 118.519 224.427,118.528 224.449,118.532 226.209 C 118.538 228.713,118.984 229.458,120.696 229.819 C 121.416 229.970,121.419 229.982,121.419 232.181 C 121.419 234.671,121.623 235.049,123.115 235.328 C 123.862 235.469,124.047 235.624,124.047 236.108 C 124.047 236.876,124.773 237.534,125.987 237.870 L 126.938 238.132 126.938 240.240 C 126.938 242.828,127.141 243.245,128.506 243.463 L 129.566 243.633 129.566 245.833 C 129.566 247.888,129.606 248.045,130.158 248.209 C 131.989 248.753,249.509 249.138,264.915 248.651 L 270.039 248.489 270.265 245.973 L 270.490 243.458 271.640 243.150 C 272.707 242.865,272.812 242.757,273.089 241.658 C 273.367 240.551,273.444 240.473,274.260 240.473 C 275.369 240.473,275.437 240.347,275.798 237.618 L 276.098 235.355 277.104 235.191 C 278.400 234.981,278.483 234.817,278.700 232.041 L 278.882 229.714 279.797 229.543 C 281.129 229.293,281.584 228.460,281.372 226.657 C 281.164 224.889,281.396 224.411,282.761 223.796 C 283.541 223.444,283.897 223.085,284.112 222.434 C 284.350 221.711,284.537 221.551,285.139 221.551 C 286.393 221.551,286.571 221.032,286.974 216.229 C 286.983 216.120,287.381 216.032,287.858 216.032 C 289.186 216.032,289.356 215.682,289.356 212.957 L 289.356 210.512 290.276 210.512 C 291.915 210.512,292.234 209.875,292.575 205.929 C 292.627 205.323,292.868 205.039,293.693 204.614 C 294.591 204.151,294.755 203.933,294.824 203.116 C 294.902 202.173,294.915 202.163,295.678 202.451 C 297.036 202.964,297.579 202.104,297.717 199.220 L 297.830 196.846 298.587 196.846 C 300.072 196.846,300.927 194.926,300.583 192.362 C 300.446 191.341,300.456 191.327,301.298 191.327 C 302.706 191.327,303.138 190.588,303.247 187.998 C 303.337 185.866,303.369 185.764,304.036 185.528 C 305.238 185.104,305.515 184.854,305.652 184.072 C 305.769 183.400,305.906 183.302,306.834 183.232 C 308.322 183.120,308.541 182.690,308.541 179.882 L 308.541 177.472 309.921 177.238 L 311.301 177.004 311.432 174.639 L 311.564 172.273 312.477 172.142 C 313.644 171.974,313.960 171.348,314.191 168.740 L 314.369 166.720 315.463 166.212 C 316.313 165.816,316.587 165.527,316.690 164.915 C 316.807 164.223,316.951 164.110,317.866 163.995 C 319.235 163.822,319.571 163.138,319.576 160.512 L 319.580 158.476 320.449 158.476 C 322.012 158.476,322.292 158.040,322.418 155.402 L 322.530 153.050 323.651 152.750 C 324.982 152.394,325.086 152.178,325.286 149.343 C 325.430 147.309,325.476 147.175,326.036 147.175 C 326.883 147.175,327.464 146.910,327.464 146.525 C 327.464 145.907,328.519 144.850,329.309 144.677 C 330.390 144.439,330.618 143.872,330.618 141.410 L 330.618 139.290 331.643 139.290 C 333.144 139.290,333.246 138.785,333.246 131.350 C 333.246 124.250,333.202 124.047,331.660 124.047 L 330.618 124.047 330.618 121.583 C 330.618 118.869,330.531 118.699,329.009 118.425 C 328.165 118.274,328.039 118.147,327.904 117.317 C 327.692 116.010,327.296 115.637,326.118 115.637 L 325.099 115.637 325.099 113.325 C 325.099 110.660,324.934 110.381,323.362 110.381 L 322.257 110.381 322.167 107.743 C 322.066 104.817,321.899 104.521,320.434 104.670 L 319.580 104.756 319.580 102.689 C 319.580 100.277,319.356 99.739,318.140 99.231 C 317.439 98.938,317.209 98.661,317.075 97.949 C 316.902 97.024,316.414 96.632,315.084 96.346 C 314.431 96.205,314.392 96.100,314.254 94.082 C 314.084 91.602,313.830 91.196,312.451 91.196 L 311.432 91.196 311.432 88.752 C 311.432 85.937,311.283 85.677,309.671 85.677 L 308.541 85.677 308.541 83.333 C 308.541 80.512,308.429 80.159,307.528 80.154 C 306.554 80.148,306.271 79.898,306.045 78.844 C 305.801 77.709,305.553 77.539,304.139 77.534 L 303.022 77.530 303.022 75.186 C 303.022 72.437,302.902 72.011,302.125 72.011 C 300.990 72.011,300.668 71.477,300.486 69.295 C 300.291 66.964,299.984 66.491,298.667 66.491 L 297.766 66.491 297.766 64.308 C 297.766 61.839,297.519 61.307,296.172 60.867 C 295.451 60.632,295.230 60.381,294.992 59.527 C 294.709 58.511,294.658 58.473,293.473 58.396 L 292.247 58.315 292.247 55.986 C 292.247 52.900,292.209 52.825,290.642 52.825 L 289.356 52.825 289.356 50.481 C 289.356 47.732,289.236 47.306,288.458 47.306 C 287.313 47.306,286.989 46.771,286.787 44.550 L 286.597 42.453 285.508 41.853 C 284.659 41.386,284.383 41.057,284.253 40.363 C 284.065 39.363,283.724 39.159,282.239 39.159 L 281.209 39.159 281.209 36.834 C 281.209 34.312,280.997 33.878,279.604 33.548 C 278.956 33.395,278.912 33.277,278.774 31.345 C 278.593 28.816,278.439 28.419,277.566 28.226 C 275.971 27.873,276.034 27.967,275.884 25.684 C 275.703 22.946,275.611 22.741,274.437 22.448 C 273.605 22.241,273.430 22.061,273.178 21.156 C 272.897 20.145,272.840 20.102,271.687 20.026 C 270.263 19.932,270.180 19.755,270.174 16.787 L 270.171 14.783 269.350 14.619 C 268.459 14.441,132.310 14.463,131.012 14.642 M223.973 41.495 C 250.919 41.685,251.775 41.706,252.324 42.199 C 253.290 43.065,255.187 46.076,260.176 54.665 C 262.821 59.218,266.054 64.777,267.361 67.017 C 268.667 69.258,270.640 72.687,271.744 74.639 C 272.849 76.590,275.708 81.557,278.099 85.677 C 281.978 92.361,296.658 117.914,300.747 125.099 C 301.611 126.616,302.725 128.449,303.224 129.172 C 304.995 131.740,304.418 133.673,299.458 141.787 C 298.044 144.100,293.910 151.196,290.272 157.556 C 278.852 177.519,270.439 192.144,268.728 195.007 C 267.821 196.524,265.691 200.250,263.994 203.285 C 262.297 206.321,259.637 210.992,258.082 213.666 C 256.528 216.340,254.939 219.158,254.552 219.927 C 253.218 222.579,253.498 222.564,204.993 222.622 C 186.275 222.644,165.992 222.741,159.921 222.837 L 148.883 223.010 148.007 222.215 C 146.416 220.770,142.813 214.842,132.907 197.372 C 128.508 189.613,121.052 176.593,119.062 173.193 C 118.088 171.531,116.787 169.284,116.170 168.200 C 111.584 160.142,109.504 156.519,107.496 153.088 C 104.512 147.990,100.819 141.648,98.258 137.223 C 95.397 132.279,95.391 131.967,98.059 127.595 C 99.113 125.867,102.250 120.449,105.135 115.375 C 106.408 113.134,107.920 110.532,108.495 109.593 C 109.069 108.653,110.695 105.815,112.108 103.285 C 113.521 100.756,116.179 96.143,118.016 93.035 C 120.769 88.377,128.861 74.354,133.787 65.703 C 134.404 64.619,136.235 61.485,137.855 58.739 C 139.476 55.992,141.487 52.503,142.324 50.986 C 144.149 47.679,146.373 44.172,147.614 42.644 L 148.520 41.530 160.528 41.459 C 187.066 41.301,197.350 41.307,223.973 41.495 M246.090 81.850 C 245.638 82.047,244.960 82.604,244.585 83.088 C 243.084 85.022,234.688 97.363,232.185 101.314 C 230.720 103.627,228.119 107.648,226.406 110.250 C 224.693 112.852,222.098 116.904,220.641 119.256 C 219.183 121.607,217.402 124.223,216.683 125.068 L 215.375 126.604 203.811 126.766 C 197.451 126.856,180.539 126.992,166.229 127.068 C 132.637 127.248,130.144 127.325,129.752 128.185 C 128.886 130.086,130.248 130.841,143.627 135.873 C 146.662 137.015,150.210 138.382,151.511 138.912 C 152.812 139.442,156.892 140.994,160.578 142.361 C 166.978 144.734,170.559 146.096,178.449 149.155 C 180.401 149.911,182.293 150.615,182.654 150.720 C 183.447 150.948,195.219 155.584,205.519 159.724 C 246.456 176.180,246.773 176.287,247.712 174.023 C 248.764 171.487,248.881 83.958,247.835 82.003 C 247.504 81.386,247.215 81.360,246.090 81.850 " stroke="none" fill="#d45404" fill-rule="evenodd"></path><path id="path1" d="M160.528 41.459 L 148.520 41.530 147.614 42.644 C 146.373 44.172,144.149 47.679,142.324 50.986 C 141.487 52.503,139.476 55.992,137.855 58.739 C 136.235 61.485,134.404 64.619,133.787 65.703 C 128.861 74.354,120.769 88.377,118.016 93.035 C 116.179 96.143,113.521 100.756,112.108 103.285 C 110.695 105.815,109.069 108.653,108.495 109.593 C 107.920 110.532,106.408 113.134,105.135 115.375 C 102.250 120.449,99.113 125.867,98.059 127.595 C 95.391 131.967,95.397 132.279,98.258 137.223 C 100.819 141.648,104.512 147.990,107.496 153.088 C 109.504 156.519,111.584 160.142,116.170 168.200 C 116.787 169.284,118.088 171.531,119.062 173.193 C 121.052 176.593,128.508 189.613,132.907 197.372 C 142.813 214.842,146.416 220.770,148.007 222.215 L 148.883 223.010 159.921 222.837 C 165.992 222.741,186.275 222.644,204.993 222.622 C 253.498 222.564,253.218 222.579,254.552 219.927 C 254.939 219.158,256.528 216.340,258.082 213.666 C 259.637 210.992,262.297 206.321,263.994 203.285 C 265.691 200.250,267.821 196.524,268.728 195.007 C 270.439 192.144,278.852 177.519,290.272 157.556 C 293.910 151.196,298.044 144.100,299.458 141.787 C 304.418 133.673,304.995 131.740,303.224 129.172 C 302.725 128.449,301.611 126.616,300.747 125.099 C 296.658 117.914,281.978 92.361,278.099 85.677 C 275.708 81.557,272.849 76.590,271.744 74.639 C 270.640 72.687,268.667 69.258,267.361 67.017 C 266.054 64.777,262.821 59.218,260.176 54.665 C 255.187 46.076,253.290 43.065,252.324 42.199 C 251.538 41.494,210.504 41.163,160.528 41.459 M247.835 82.003 C 248.881 83.958,248.764 171.487,247.712 174.023 C 246.773 176.287,246.456 176.180,205.519 159.724 C 195.219 155.584,183.447 150.948,182.654 150.720 C 182.293 150.615,180.401 149.911,178.449 149.155 C 170.559 146.096,166.978 144.734,160.578 142.361 C 156.892 140.994,152.812 139.442,151.511 138.912 C 150.210 138.382,146.662 137.015,143.627 135.873 C 130.248 130.841,128.886 130.086,129.752 128.185 C 130.144 127.325,132.637 127.248,166.229 127.068 C 180.539 126.992,197.451 126.856,203.811 126.766 L 215.375 126.604 216.683 125.068 C 217.402 124.223,219.183 121.607,220.641 119.256 C 222.098 116.904,224.693 112.852,226.406 110.250 C 228.119 107.648,230.720 103.627,232.185 101.314 C 234.688 97.363,243.084 85.022,244.585 83.088 C 245.699 81.653,247.352 81.101,247.835 82.003 " stroke="none" fill="#fbb27b" fill-rule="evenodd"></path></g></svg>