<?xml version="1.0" encoding="UTF-8" standalone="no" ?>
<!DOCTYPE svg PUBLIC "-//W3C//DTD SVG 1.1//EN" "http://www.w3.org/Graphics/SVG/1.1/DTD/svg11.dtd">
<svg xmlns="http://www.w3.org/2000/svg" xmlns:xlink="http://www.w3.org/1999/xlink" version="1.1" width="400" height="263" viewBox="0 0 400 263" xml:space="preserve">
<desc>Created with Fabric.js 3.6.6</desc>
<defs>
</defs>
<g transform="matrix(1 0 0 1 200 131.33)"  >
<g style=""   >
		<g transform="matrix(1 0 0 1 -1.43 0.35)" id="path0"  >
<path style="stroke: none; stroke-width: 1; stroke-dasharray: none; stroke-linecap: butt; stroke-dashoffset: 0; stroke-linejoin: miter; stroke-miterlimit: 4; fill: rgb(20,204,212); fill-rule: evenodd; opacity: 1;"  transform=" translate(-198.57, -131.68)" d="M 129.698 14.649 C 128.382 14.841 128.252 15.109 128.252 17.641 L 128.252 19.974 L 127.21 19.974 C 125.839 19.974 125.624 20.415 125.624 23.242 L 125.624 25.493 L 124.451 25.493 C 122.943 25.493 122.733 25.876 122.733 28.629 L 122.733 30.749 L 121.735 30.749 C 120.552 30.749 120.105 31.119 120.105 32.097 C 120.105 32.97 119.487 33.64 118.682 33.64 C 117.646 33.64 117.214 34.421 117.214 36.296 C 117.214 38.236 116.746 39.159 115.763 39.159 C 114.847 39.159 114.586 39.882 114.586 42.427 L 114.586 44.678 L 113.413 44.678 C 111.988 44.678 111.697 45.086 111.692 47.092 C 111.686 49.148 111.516 49.514 110.298 50.08 C 109.411 50.492 109.183 50.744 109.116 51.38 C 109.022 52.283 108.446 52.825 107.581 52.825 C 106.702 52.825 106.439 53.578 106.439 56.093 L 106.439 58.344 L 105.265 58.344 C 103.758 58.344 103.548 58.727 103.548 61.481 L 103.548 63.601 L 102.506 63.601 C 101.208 63.601 100.921 64.06 100.916 66.146 C 100.911 68.279 100.716 68.834 99.903 69.022 C 98.746 69.29 98.029 69.875 98.029 70.552 C 98.029 71.36 97.38 72.011 96.574 72.011 C 95.662 72.011 95.401 72.737 95.401 75.278 L 95.401 77.53 L 94.359 77.53 C 93.079 77.53 92.774 77.992 92.769 79.943 C 92.764 82.105 92.587 82.482 91.433 82.793 C 90.105 83.15 89.882 83.638 89.882 86.185 L 89.882 88.305 L 88.883 88.305 C 87.701 88.305 87.254 88.675 87.254 89.653 C 87.254 90.582 86.623 91.196 85.667 91.196 C 84.621 91.196 84.363 91.814 84.363 94.316 L 84.363 96.42 L 83.383 96.502 C 82.087 96.61 81.743 97.324 81.738 99.919 L 81.735 101.941 L 80.624 102.022 C 79.181 102.127 78.853 102.76 78.848 105.453 L 78.844 107.49 L 77.965 107.49 C 76.923 107.49 76.216 108.159 76.216 109.144 C 76.216 109.88 75.587 110.381 74.665 110.381 C 73.905 110.381 73.587 111.157 73.587 113.009 C 73.587 114.941 73.272 115.637 72.395 115.637 C 71.193 115.637 70.696 116.477 70.696 118.509 C 70.696 120.513 70.343 121.156 69.241 121.156 C 68.329 121.156 68.068 121.883 68.068 124.424 L 68.068 126.675 L 67.049 126.675 C 65.407 126.675 65.32 126.937 65.222 132.195 C 65.118 137.828 65.325 138.905 66.562 139.17 C 67.625 139.397 68.068 139.746 68.068 140.355 C 68.068 140.915 69.254 141.919 69.915 141.919 C 70.537 141.919 70.696 142.436 70.696 144.454 C 70.696 146.681 70.93 147.071 72.397 147.291 L 73.587 147.47 L 73.587 149.573 C 73.587 152.154 73.801 152.595 75.161 152.825 L 76.216 153.003 L 76.216 154.934 C 76.216 157.17 76.529 158.213 77.202 158.213 C 77.974 158.213 78.803 158.955 78.892 159.727 C 78.962 160.333 79.183 160.515 80.289 160.882 L 81.603 161.316 L 81.67 163.115 C 81.771 165.841 81.866 166.059 83.188 166.626 L 84.363 167.13 L 84.367 168.782 C 84.372 170.932 84.753 171.656 86.075 172.026 L 87.122 172.319 L 87.189 174.267 C 87.287 177.147 87.364 177.337 88.565 177.66 C 89.424 177.891 89.647 178.091 89.827 178.786 C 90.051 179.651 90.723 180.143 92.05 180.414 C 92.767 180.561 92.773 180.578 92.777 182.725 C 92.781 185.28 92.921 185.567 94.256 185.783 L 95.269 185.946 L 95.401 188.072 C 95.541 190.344 95.774 190.829 96.961 191.32 C 97.819 191.676 98.02 192.205 98.025 194.117 C 98.03 195.718 98.67 196.698 99.866 196.938 C 100.493 197.063 100.702 197.27 100.826 197.886 C 101.008 198.798 101.461 199.237 102.602 199.605 C 103.411 199.867 103.418 199.884 103.548 202.059 C 103.685 204.341 104.042 204.993 105.154 204.993 C 106.316 204.993 106.439 205.227 106.443 207.453 C 106.448 209.983 106.588 210.272 107.923 210.487 L 108.936 210.651 L 109.067 212.777 C 109.204 214.999 109.499 215.646 110.558 216.049 C 110.883 216.173 111.437 216.729 111.788 217.285 C 112.254 218.023 112.719 218.384 113.507 218.62 L 114.586 218.944 L 114.586 220.869 C 114.586 223.083 115.081 224.002 116.418 224.269 L 117.214 224.428 L 117.214 226.371 C 117.214 228.473 117.794 229.698 118.789 229.698 C 119.983 229.698 120.105 229.922 120.105 232.108 C 120.105 234.421 120.381 235.217 121.183 235.217 C 122.004 235.217 122.733 235.707 122.733 236.259 C 122.733 236.967 123.383 237.524 124.585 237.848 L 125.624 238.128 L 125.624 240.238 C 125.624 242.828 125.827 243.245 127.192 243.463 L 128.252 243.633 L 128.252 245.833 C 128.252 247.888 128.291 248.045 128.844 248.209 C 130.675 248.753 248.194 249.138 263.601 248.651 L 268.725 248.489 L 268.8 245.959 L 268.875 243.428 L 269.873 243.269 C 271.054 243.08 271.671 242.476 271.791 241.393 C 271.869 240.694 271.989 240.595 272.842 240.524 C 273.993 240.428 274.094 240.239 274.48 237.451 L 274.77 235.348 L 275.621 235.266 C 276.912 235.141 277.267 234.416 277.267 231.896 L 277.267 229.744 L 278.328 229.565 C 279.819 229.313 280.279 228.539 280.058 226.657 C 279.85 224.886 280.082 224.411 281.459 223.79 C 282.258 223.43 282.583 223.101 282.739 222.495 C 282.911 221.827 283.109 221.658 283.846 221.551 C 284.979 221.385 285.404 220.601 285.414 218.66 C 285.425 216.421 285.597 216.032 286.575 216.032 C 287.869 216.032 288.042 215.67 288.042 212.957 L 288.042 210.512 L 288.962 210.512 C 290.349 210.512 290.855 209.836 291.057 207.711 C 291.151 206.722 291.25 205.744 291.278 205.537 C 291.305 205.329 291.801 204.915 292.379 204.616 C 293.282 204.149 293.441 203.935 293.511 203.1 C 293.587 202.18 293.625 202.143 294.216 202.412 C 295.613 203.049 296.452 201.654 296.452 198.694 L 296.452 196.846 L 297.24 196.846 C 298.755 196.846 299.737 194.51 299.218 192.143 C 299.044 191.354 299.068 191.327 299.938 191.327 C 301.38 191.327 301.805 190.625 301.966 187.977 L 302.102 185.721 L 303.022 185.415 C 303.719 185.183 304.014 184.891 304.238 184.21 C 304.499 183.417 304.653 183.302 305.552 183.232 C 307.007 183.119 307.227 182.676 307.227 179.869 L 307.227 177.447 L 308.543 177.267 C 310.052 177.059 310.078 177.009 310.183 174.113 L 310.25 172.273 L 311.106 172.191 C 312.224 172.083 312.627 171.284 312.863 168.711 L 313.044 166.725 L 314.144 166.214 C 314.999 165.816 315.273 165.528 315.376 164.915 C 315.492 164.226 315.63 164.116 316.473 164.046 C 317.848 163.931 318.09 163.482 318.218 160.818 L 318.33 158.476 L 319.152 158.472 C 320.674 158.464 321.156 157.546 321.156 154.655 L 321.156 153.066 L 322.307 152.758 C 323.668 152.394 323.734 152.259 323.955 149.387 C 324.121 147.224 324.14 147.175 324.809 147.171 C 325.706 147.165 325.979 146.952 326.389 145.938 C 326.636 145.327 326.993 145.012 327.688 144.792 C 329.107 144.343 329.304 143.939 329.304 141.474 L 329.304 139.29 L 330.329 139.29 C 331.83 139.29 331.932 138.785 331.932 131.35 C 331.932 124.25 331.888 124.047 330.346 124.047 L 329.304 124.047 L 329.304 121.583 C 329.304 118.867 329.218 118.7 327.689 118.424 C 326.837 118.271 326.711 118.145 326.549 117.273 C 326.297 115.928 325.987 115.637 324.804 115.637 L 323.784 115.637 L 323.784 113.325 C 323.784 110.653 323.622 110.381 322.024 110.381 L 320.894 110.381 L 320.894 108.074 C 320.894 105.234 320.517 104.494 319.153 104.653 L 318.265 104.756 L 318.265 102.689 C 318.265 100.274 318.042 99.739 316.82 99.228 C 316.195 98.967 315.865 98.625 315.743 98.112 C 315.508 97.125 314.891 96.453 314.217 96.448 C 313.265 96.441 313.091 96.114 312.9 93.963 C 312.681 91.495 312.49 91.196 311.137 91.196 L 310.118 91.196 L 310.118 88.752 C 310.118 85.94 309.968 85.677 308.367 85.677 L 307.246 85.677 L 307.171 83.142 C 307.091 80.441 307.041 80.343 305.596 80.04 C 305.023 79.92 304.85 79.7 304.704 78.907 C 304.484 77.708 304.253 77.539 302.825 77.534 L 301.708 77.53 L 301.708 75.186 C 301.708 72.437 301.588 72.011 300.811 72.011 C 299.651 72.011 299.321 71.467 299.156 69.288 C 298.98 66.963 298.676 66.491 297.353 66.491 L 296.452 66.491 L 296.452 64.308 C 296.452 61.839 296.205 61.307 294.859 60.867 C 294.17 60.643 293.916 60.374 293.718 59.658 C 293.403 58.525 293.167 58.353 291.919 58.348 L 290.933 58.344 L 290.933 55.9 C 290.933 53.086 290.784 52.825 289.172 52.825 L 288.042 52.825 L 288.042 50.481 C 288.042 47.732 287.922 47.306 287.144 47.306 C 285.972 47.306 285.632 46.749 285.452 44.534 L 285.283 42.453 L 284.184 41.848 C 283.364 41.396 283.04 41.03 282.903 40.398 C 282.674 39.342 282.408 39.168 281.012 39.163 L 279.895 39.159 L 279.895 36.834 C 279.895 34.312 279.683 33.878 278.292 33.549 C 277.646 33.396 277.599 33.273 277.45 31.333 C 277.252 28.77 277.116 28.417 276.252 28.226 C 274.663 27.874 274.724 27.966 274.563 25.684 C 274.38 23.09 274.218 22.602 273.542 22.602 C 272.628 22.602 272.037 22.092 271.861 21.151 C 271.682 20.201 271.459 20.068 269.777 19.914 L 268.988 19.842 L 268.913 17.311 L 268.838 14.78 L 268.026 14.617 C 267.12 14.436 130.941 14.467 129.698 14.649 M 250.898 43.713 C 251.602 44.483 252.577 45.873 253.064 46.801 C 253.871 48.338 254.687 49.739 258.485 56.11 C 259.175 57.267 260.232 59.1 260.836 60.184 C 261.439 61.268 262.294 62.746 262.735 63.469 C 263.177 64.192 265.013 67.385 266.817 70.565 C 270.059 76.283 270.458 76.968 272.93 81.078 C 273.625 82.234 274.871 84.422 275.698 85.94 C 276.525 87.457 277.778 89.671 278.482 90.859 C 280.833 94.822 282.73 98.148 283.321 99.343 C 283.643 99.993 284.135 100.851 284.416 101.249 C 284.696 101.647 285.607 103.185 286.439 104.666 C 289.745 110.548 291.58 113.738 292.521 115.243 C 293.064 116.11 294.903 119.304 296.609 122.339 C 298.315 125.375 300.16 128.556 300.709 129.41 C 302.089 131.553 302.071 132.646 300.616 135.316 C 298.955 138.362 295.655 143.823 295.116 144.42 C 294.852 144.711 294.354 145.48 294.009 146.128 C 293.664 146.776 292.456 148.903 291.325 150.854 C 290.193 152.806 288.81 155.289 288.251 156.373 C 287.692 157.457 286.902 158.876 286.495 159.527 C 286.088 160.177 285.105 161.833 284.311 163.206 C 283.516 164.58 282.345 166.59 281.709 167.674 C 281.073 168.758 280.422 169.941 280.263 170.302 C 280.103 170.664 279.423 171.808 278.751 172.845 C 278.079 173.882 277.53 174.84 277.53 174.974 C 277.53 175.107 276.879 176.296 276.084 177.614 C 275.289 178.933 274.639 180.092 274.639 180.19 C 274.639 180.288 274.064 181.267 273.362 182.365 C 272.66 183.464 271.348 185.723 270.446 187.385 C 268.954 190.134 267.549 192.565 265.356 196.189 C 264.919 196.912 264.065 198.39 263.46 199.474 C 262.854 200.558 261.82 202.392 261.162 203.548 C 260.504 204.704 258.98 207.401 257.775 209.54 C 256.57 211.68 255.046 214.281 254.388 215.322 C 253.73 216.363 252.932 217.754 252.615 218.413 C 252.298 219.072 251.685 219.949 251.254 220.362 L 250.47 221.114 L 198.888 221.217 C 170.518 221.275 147.185 221.225 147.037 221.107 C 146.627 220.782 144.529 217.526 142.836 214.586 C 142.003 213.141 140.875 211.248 140.328 210.381 C 139.782 209.514 139.156 208.367 138.938 207.833 C 138.719 207.298 138.078 206.175 137.513 205.336 C 136.947 204.497 135.795 202.51 134.951 200.92 C 134.108 199.33 133.03 197.415 132.557 196.665 C 132.083 195.915 131.439 194.792 131.124 194.168 C 130.809 193.545 129.815 191.853 128.914 190.407 C 128.013 188.962 126.237 185.828 124.967 183.443 C 123.697 181.058 122.291 178.574 121.842 177.924 C 121.027 176.744 119.289 173.743 116.971 169.514 C 116.297 168.285 115.426 166.78 115.035 166.168 C 114.643 165.557 114.323 164.963 114.323 164.849 C 114.323 164.736 114.002 164.171 113.609 163.596 C 113.216 163.02 112.406 161.662 111.808 160.578 C 110.764 158.684 109.975 157.321 108.041 154.067 C 107.098 152.482 105.421 149.517 103.837 146.636 C 103.317 145.689 102.561 144.448 102.159 143.877 C 100.855 142.029 96.552 134.495 96.012 133.114 C 95.458 131.699 95.596 130.748 96.518 129.639 C 96.988 129.073 97.963 127.573 98.686 126.305 C 100.283 123.501 103.308 118.35 104.409 116.557 C 104.853 115.834 106.152 113.533 107.296 111.443 C 108.44 109.352 109.763 107.046 110.236 106.318 C 111.042 105.078 111.575 104.126 113.958 99.671 C 114.48 98.696 115.41 97.129 116.024 96.189 C 117.054 94.614 120.568 88.633 123.158 84.045 C 126.028 78.961 130.916 70.424 131.627 69.251 C 132.065 68.528 132.859 67.109 133.392 66.097 C 133.925 65.085 134.745 63.725 135.215 63.075 C 135.686 62.424 136.338 61.36 136.665 60.71 C 136.992 60.059 138.116 58.108 139.163 56.373 C 140.21 54.639 141.494 52.392 142.016 51.38 C 143.247 48.997 144.728 46.564 146.291 44.355 L 147.542 42.587 L 152.155 42.509 C 154.692 42.466 177.659 42.405 203.193 42.372 L 249.619 42.313 L 250.898 43.713 M 244.941 80.314 C 243.549 80.917 242.733 81.823 240.353 85.414 C 239.156 87.221 236.762 90.604 235.033 92.932 C 233.304 95.259 231.391 98.039 230.781 99.108 C 229.224 101.836 227.04 105.234 226.377 105.959 C 226.069 106.295 225.624 106.953 225.388 107.42 C 225.151 107.888 224.537 108.691 224.023 109.205 C 223.509 109.719 222.843 110.697 222.543 111.377 C 222.243 112.058 221.549 113.127 220.999 113.754 C 220.45 114.38 219.801 115.415 219.557 116.053 C 218.893 117.792 218.062 117.694 217.183 115.774 C 216.82 114.982 216.416 114.267 216.285 114.186 C 215.674 113.808 210.958 117.008 208.047 119.777 L 206.043 121.682 L 208.111 121.682 C 212.342 121.682 213.691 121.076 215.034 118.574 C 215.574 117.568 216.442 117.462 216.848 118.353 C 217.238 119.21 216.752 120.856 215.693 122.263 C 215.226 122.883 214.706 123.702 214.537 124.084 C 214.093 125.085 215.354 125.042 178.187 125.346 C 144.915 125.618 131.238 125.912 129.172 126.4 C 126.373 127.061 126.328 130.455 129.101 131.739 C 131.345 132.777 138.813 135.851 142.707 137.338 C 151.198 140.582 153.21 141.375 154.057 141.812 C 154.528 142.056 156.041 142.642 157.418 143.115 C 160.925 144.318 166.662 146.525 167.855 147.13 C 168.406 147.409 169.862 147.962 171.091 148.359 C 172.319 148.755 174.566 149.591 176.084 150.217 C 177.602 150.842 180.854 152.137 183.311 153.093 C 185.769 154.049 188.738 155.238 189.91 155.734 C 191.082 156.23 192.192 156.636 192.377 156.636 C 192.561 156.636 193.909 157.119 195.371 157.71 C 196.833 158.301 199.034 159.143 200.263 159.58 C 201.491 160.017 203.159 160.71 203.969 161.118 C 204.778 161.526 206.184 162.111 207.093 162.417 C 208.002 162.723 209.528 163.365 210.483 163.842 C 211.439 164.32 212.694 164.86 213.272 165.042 C 213.85 165.225 215.565 165.881 217.083 166.5 C 218.601 167.12 221.853 168.359 224.31 169.255 C 226.767 170.15 229.724 171.281 230.88 171.767 C 241.101 176.064 246.748 177.027 247.667 174.63 C 248.666 172.027 248.812 87.734 247.828 81.998 C 247.474 79.932 246.77 79.522 244.941 80.314 M 199.034 120.268 C 197.816 121.559 197.991 121.799 200.218 121.891 C 202.361 121.978 202.39 121.947 201.314 120.722 C 200.88 120.228 200.526 119.71 200.526 119.57 C 200.526 119.054 199.905 119.344 199.034 120.268" stroke-linecap="round" />
</g>
		<g transform="matrix(1 0 0 1 -1.29 0.44)" id="path1"  >
<path style="stroke: none; stroke-width: 1; stroke-dasharray: none; stroke-linecap: butt; stroke-dashoffset: 0; stroke-linejoin: miter; stroke-miterlimit: 4; fill: rgb(123,219,251); fill-rule: evenodd; opacity: 1;"  transform=" translate(-198.71, -131.78)" d="M 152.155 42.509 L 147.542 42.587 L 146.291 44.355 C 144.728 46.564 143.247 48.997 142.016 51.38 C 141.494 52.392 140.21 54.639 139.163 56.373 C 138.116 58.108 136.992 60.059 136.665 60.71 C 136.338 61.36 135.686 62.424 135.215 63.075 C 134.745 63.725 133.925 65.085 133.392 66.097 C 132.859 67.109 132.065 68.528 131.627 69.251 C 130.916 70.424 126.028 78.961 123.158 84.045 C 120.568 88.633 117.054 94.614 116.024 96.189 C 115.41 97.129 114.48 98.696 113.958 99.671 C 111.575 104.126 111.042 105.078 110.236 106.318 C 109.763 107.046 108.44 109.352 107.296 111.443 C 106.152 113.533 104.853 115.834 104.409 116.557 C 103.308 118.35 100.283 123.501 98.686 126.305 C 97.963 127.573 96.988 129.073 96.518 129.639 C 95.596 130.748 95.458 131.699 96.012 133.114 C 96.552 134.495 100.855 142.029 102.159 143.877 C 102.561 144.448 103.317 145.689 103.837 146.636 C 105.421 149.517 107.098 152.482 108.041 154.067 C 109.975 157.321 110.764 158.684 111.808 160.578 C 112.406 161.662 113.216 163.02 113.609 163.596 C 114.002 164.171 114.323 164.736 114.323 164.849 C 114.323 164.963 114.643 165.557 115.035 166.168 C 115.426 166.78 116.297 168.285 116.971 169.514 C 119.289 173.743 121.027 176.744 121.842 177.924 C 122.291 178.574 123.697 181.058 124.967 183.443 C 126.237 185.828 128.013 188.962 128.914 190.407 C 129.815 191.853 130.809 193.545 131.124 194.168 C 131.439 194.792 132.083 195.915 132.557 196.665 C 133.03 197.415 134.108 199.33 134.951 200.92 C 135.795 202.51 136.947 204.497 137.513 205.336 C 138.078 206.175 138.719 207.298 138.938 207.833 C 139.156 208.367 139.782 209.514 140.328 210.381 C 140.875 211.248 142.003 213.141 142.836 214.586 C 144.529 217.526 146.627 220.782 147.037 221.107 C 147.185 221.225 170.518 221.275 198.888 221.217 L 250.47 221.114 L 251.254 220.362 C 251.685 219.949 252.298 219.072 252.615 218.413 C 252.932 217.754 253.73 216.363 254.388 215.322 C 255.046 214.281 256.57 211.68 257.775 209.54 C 258.98 207.401 260.504 204.704 261.162 203.548 C 261.82 202.392 262.854 200.558 263.46 199.474 C 264.065 198.39 264.919 196.912 265.356 196.189 C 267.549 192.565 268.954 190.134 270.446 187.385 C 271.348 185.723 272.66 183.464 273.362 182.365 C 274.064 181.267 274.639 180.288 274.639 180.19 C 274.639 180.092 275.289 178.933 276.084 177.614 C 276.879 176.296 277.53 175.107 277.53 174.974 C 277.53 174.84 278.079 173.882 278.751 172.845 C 279.423 171.808 280.103 170.664 280.263 170.302 C 280.422 169.941 281.073 168.758 281.709 167.674 C 282.345 166.59 283.516 164.58 284.311 163.206 C 285.105 161.833 286.088 160.177 286.495 159.527 C 286.902 158.876 287.692 157.457 288.251 156.373 C 288.81 155.289 290.193 152.806 291.325 150.854 C 292.456 148.903 293.664 146.776 294.009 146.128 C 294.354 145.48 294.852 144.711 295.116 144.42 C 295.655 143.823 298.955 138.362 300.616 135.316 C 302.071 132.646 302.089 131.553 300.709 129.41 C 300.16 128.556 298.315 125.375 296.609 122.339 C 294.903 119.304 293.064 116.11 292.521 115.243 C 291.58 113.738 289.745 110.548 286.439 104.666 C 285.607 103.185 284.696 101.647 284.416 101.249 C 284.135 100.851 283.643 99.993 283.321 99.343 C 282.73 98.148 280.833 94.822 278.482 90.859 C 277.778 89.671 276.525 87.457 275.698 85.94 C 274.871 84.422 273.625 82.234 272.93 81.078 C 270.458 76.968 270.059 76.283 266.817 70.565 C 265.013 67.385 263.177 64.192 262.735 63.469 C 262.294 62.746 261.439 61.268 260.836 60.184 C 260.232 59.1 259.175 57.267 258.485 56.11 C 254.687 49.739 253.871 48.338 253.064 46.801 C 252.577 45.873 251.602 44.483 250.898 43.713 L 249.619 42.313 L 203.193 42.372 C 177.659 42.405 154.692 42.466 152.155 42.509 M 247.13 80.224 C 247.932 80.81 248.071 83.143 248.373 101.051 C 248.787 125.595 248.334 172.893 247.667 174.63 C 246.748 177.027 241.101 176.064 230.88 171.767 C 229.724 171.281 226.767 170.15 224.31 169.255 C 221.853 168.359 218.601 167.12 217.083 166.5 C 215.565 165.881 213.85 165.225 213.272 165.042 C 212.694 164.86 211.439 164.32 210.483 163.842 C 209.528 163.365 208.002 162.723 207.093 162.417 C 206.184 162.111 204.778 161.526 203.969 161.118 C 203.159 160.71 201.491 160.017 200.263 159.58 C 199.034 159.143 196.833 158.301 195.371 157.71 C 193.909 157.119 192.561 156.636 192.377 156.636 C 192.192 156.636 191.082 156.23 189.91 155.734 C 188.738 155.238 185.769 154.049 183.311 153.093 C 180.854 152.137 177.602 150.842 176.084 150.217 C 174.566 149.591 172.319 148.755 171.091 148.359 C 169.862 147.962 168.406 147.409 167.855 147.13 C 166.662 146.525 160.925 144.318 157.418 143.115 C 156.041 142.642 154.528 142.056 154.057 141.812 C 153.21 141.375 151.198 140.582 142.707 137.338 C 138.813 135.851 131.345 132.777 129.101 131.739 C 126.328 130.455 126.373 127.061 129.172 126.4 C 131.238 125.912 144.915 125.618 178.187 125.346 C 215.354 125.042 214.093 125.085 214.537 124.084 C 214.706 123.702 215.226 122.883 215.693 122.263 C 216.752 120.856 217.238 119.21 216.848 118.353 C 216.442 117.462 215.574 117.568 215.034 118.574 C 213.691 121.076 212.342 121.682 208.111 121.682 L 206.043 121.682 L 208.047 119.777 C 210.958 117.008 215.674 113.808 216.285 114.186 C 216.416 114.267 216.82 114.982 217.183 115.774 C 218.062 117.694 218.893 117.792 219.557 116.053 C 219.801 115.415 220.45 114.38 220.999 113.754 C 221.549 113.127 222.243 112.058 222.543 111.377 C 222.843 110.697 223.509 109.719 224.023 109.205 C 224.537 108.691 225.151 107.888 225.388 107.42 C 225.624 106.953 226.069 106.295 226.377 105.959 C 227.04 105.234 229.224 101.836 230.781 99.108 C 231.391 98.039 233.304 95.259 235.033 92.932 C 236.762 90.604 239.156 87.221 240.353 85.414 C 243.53 80.621 245.554 79.071 247.13 80.224 M 200.526 119.57 C 200.526 119.71 200.88 120.228 201.314 120.722 C 202.39 121.947 202.361 121.978 200.218 121.891 C 197.991 121.799 197.816 121.559 199.034 120.268 C 199.905 119.344 200.526 119.054 200.526 119.57" stroke-linecap="round" />
</g>
</g>
</g>
<g transform="matrix(0.55 0 0 0.55 196.6 136.4)" id="path0"  >
<path style="stroke: none; stroke-width: 1; stroke-dasharray: none; stroke-linecap: butt; stroke-dashoffset: 0; stroke-linejoin: miter; stroke-miterlimit: 4; fill: rgb(0,0,0); fill-rule: evenodd; opacity: 1;"  transform=" translate(-198.41, -216.51)" d="M 325.772 24.811 C 322.411 32.153 318.207 37.576 313.171 41.067 C 309.014 43.948 305.791 47.635 306.009 49.261 C 306.252 51.079 305.085 51.996 302.978 51.643 C 297.849 50.784 291.626 54.816 291.626 58.998 C 291.626 61.718 290.589 62.414 287.674 61.652 C 282.828 60.385 277.833 64.22 277.833 69.207 C 277.833 73.141 274.919 74.193 272.931 70.976 C 271.185 68.15 264.039 73.155 264.039 77.205 C 264.039 81.259 260.853 83.602 259.13 80.815 C 257.12 77.562 250.246 82.346 250.246 86.999 C 250.246 90.253 249.352 90.866 245.915 89.967 C 240.646 88.589 236.453 91.716 236.453 97.023 C 236.453 100.08 235.508 100.705 232.194 99.838 C 226.582 98.371 220.421 101.806 221.12 106.014 C 221.544 108.569 220.429 109.231 216.404 108.816 C 211.049 108.263 208.028 110.916 207.934 116.256 C 207.9 118.184 206.26 119.034 203.217 118.701 C 200.651 118.421 195.67 119.972 192.147 122.15 C 188.624 124.327 184.704 126.108 183.436 126.108 C 182.167 126.108 173.082 131.519 163.246 138.133 C 153.41 144.747 142.92 150.858 139.934 151.715 C 131.434 154.152 87.149 184.643 85.762 189.012 C 82.982 197.771 73.964 202.644 63.985 200.78 C 55.917 199.273 50.023 200.329 45.621 204.071 C 45.244 204.391 46.496 207.294 48.403 210.522 C 51.509 215.78 51.557 216.705 48.868 219.394 C 47.217 221.045 45.28 226.059 44.564 230.537 C 43.35 238.133 42.529 239.003 32.331 243.514 C 19.824 249.045 18.749 253.508 29.086 256.986 C 50.613 264.229 56.796 278.402 44.061 291.31 C 20.177 315.517 22.603 325.239 48.235 308.044 C 79.798 286.87 100.044 297.982 107.429 340.532 C 118.862 406.403 133.149 428.023 157.463 416.247 C 162.567 413.776 164.211 413.65 165.439 415.637 C 168.624 420.791 234.494 373.051 234.478 365.599 C 234.476 364.47 230.508 360.887 225.66 357.635 C 218.277 352.684 206.897 335.955 206.897 330.054 C 206.897 329.574 204.748 324.484 202.122 318.744 C 185.614 282.652 185.837 273.894 203.52 263.962 C 234.579 246.515 245.43 235.578 238.528 228.676 C 229.276 219.424 223.744 198.213 229.168 192.788 C 230.774 191.183 232.421 188.158 232.829 186.068 C 233.245 183.938 235.288 182.178 237.475 182.065 C 245.234 181.666 246.041 181.213 246.661 176.911 C 247.149 173.528 248.625 172.527 253.202 172.478 C 257.775 172.428 259.116 171.521 259.124 168.473 C 259.132 165.412 260.452 164.532 265.035 164.532 C 269.654 164.532 271.073 163.569 271.566 160.099 C 272.06 156.617 273.475 155.665 278.154 155.665 C 282.456 155.665 284.399 154.569 285.143 151.724 C 285.814 149.16 287.831 147.783 290.919 147.783 C 294.197 147.783 296.257 146.224 297.582 142.739 C 298.637 139.964 300.396 138.248 301.492 138.925 C 304.928 141.048 311.33 137.832 311.33 133.982 C 311.33 131.267 313.013 130.137 317.734 129.681 C 322.712 129.202 324.283 128.043 324.787 124.48 C 325.23 121.352 326.371 120.254 328.378 121.025 C 332.771 122.71 339.435 118.48 338.055 114.882 C 337.185 112.617 337.868 112.097 340.73 112.845 C 345.121 113.993 353.35 109.034 351.641 106.269 C 351.017 105.26 352.39 104.433 354.693 104.433 C 365.057 104.433 369.005 98.643 363.095 92.112 C 360.035 88.731 360.003 88.17 362.78 86.616 C 364.481 85.665 367.87 83.268 370.313 81.29 L 374.754 77.694 L 371.313 60.368 C 369.202 49.735 366.107 40.627 363.304 36.792 C 360.791 33.354 356.43 27.136 353.614 22.974 C 349.421 16.777 347.647 15.618 343.825 16.577 C 341.258 17.221 338.608 16.859 337.936 15.771 C 335.046 11.095 330.507 14.469 325.772 24.811 M 213.992 210.892 C 221.439 213.531 233.864 231.899 231.132 236.23 C 215.742 260.628 169.416 265.583 169.465 242.826 C 169.47 240.565 170.774 241.544 173.319 245.717 C 177.886 253.207 187.411 258.604 194.56 257.754 C 200.022 257.104 203.363 252.217 198.345 252.217 C 188.172 252.217 176.208 231.154 181.142 221.933 C 186.551 211.828 201.99 206.638 213.992 210.892" stroke-linecap="round" />
</g>
</svg>